<?xml version="1.0" encoding="utf-8"?>
<!-- Generator: Adobe Illustrator 19.0.0, SVG Export Plug-In . SVG Version: 6.00 Build 0)  -->
<svg version="1.1" id="Layer_1" xmlns="http://www.w3.org/2000/svg" xmlns:xlink="http://www.w3.org/1999/xlink" x="0px" y="0px"
	 viewBox="0 0 200 23" style="enable-background:new 0 0 200 23;" xml:space="preserve">
<style type="text/css">
	.st0{clip-path:url(#XMLID_38_);}
	.st1{clip-path:url(#XMLID_39_);fill:#1E88E5;}
</style>
<g id="XMLID_14_">
	<defs>
		<path id="XMLID_15_" d="M194.9,0.3V1h2.1l-2.5,16.5l-2.8-17.2h-2.1l-2.5,17.6l-2.3-17h2.3V0.2h-7.4v0.7h1.6l3.3,21.7h2.7l2.3-13.7
			l2.5,13.7h2.6l3.3-21.7h2.1V0.2L194.9,0.3L194.9,0.3z M168,0.9h2.1v20.9h-2.1v0.7H179v-5.9h-0.5c0,0-0.2,2.3-0.5,3.4
			c-0.3,0.8-1.2,1.5-1.9,1.7c-0.7,0.1-2.1,0.1-2.1,0.1v-11c0,0,1.7,0,2.1,0.2c0.7,0.6,0.8,1.7,0.9,2.9h0.5V7.5h-0.6
			c0,0.8-0.3,1.9-0.9,2.4c-0.6,0.6-2.1,0.3-2.1,0.3V1c0,0,2.1,0,2.7,0c1.6,0.8,1.7,2.6,1.9,4.2h0.5V0.2h-11L168,0.9z M164.7,0.9h2.1
			V0.2h-7.3v0.7h1.8v20.9h-2.1v0.7h7.8v-0.7h-2.2L164.7,0.9z M155.1,0.9h1.9l-3.3,19.6c0,0-3.3-19.6-3.3-19.6h1.9V0.2h-6.8v0.7h1.1
			l4,21.7h3.5l3.8-21.7h1.1V0.2h-3.8v0.7H155.1z M144.2,20c-0.8,1.8-3.5,1.9-4.8,1.9V11.2c0,0,1.9,0,2.4,0.3
			c0.7,0.5,0.9,1.6,1.1,2.7h0.5V7.4h-0.6c0,1-0.2,2.3-1.1,2.9c-0.5,0.4-2.3,0.2-2.3,0.2V1c0.7,0,2.3-0.1,2.9,0.2
			c1.6,0.8,1.7,2.8,1.9,4.5h0.6V0.3H134V1h1.7v21h-1.5v0.7h11v-5.9h-0.6C144.5,18,144.4,19,144.2,20z M123.5,10.5V0.9
			c0.6,0,2.1,0,2.5,0.3c1.5,1.6,1.4,4.4,1.3,6.6c-0.2,1-0.5,2.1-1.4,2.5C125.3,10.6,123.5,10.5,123.5,10.5z M132.5,21.8
			c-0.9-2.8-1.2-5.7-2.5-8.3c-0.8-1.6-2.5-2.3-4.2-2.5c1.9-0.2,3.8-1,4.7-2.9c0.6-1.5,0.7-3.9-0.2-5.4c-0.9-1.5-2.4-2.3-4-2.3h-8.7
			V1h2.1v20.9h-2.2v0.7h7.8v-0.7h-1.9V11.2h0.5c0.9,0,2.1,0.4,2.5,1.1c1.1,1.7,1.9,7.9,2.1,9c0,0.5,0,0.9,0.2,1.3h4.7V22
			C133.6,22,132.8,22,132.5,21.8z M110.6,17h-0.7c0,1,0,2-0.2,2.9c-0.3,0.8-1,1.8-1.9,2h-2.8V0.9h2.3V0.2h-7.8v0.7h1.9v20.9h-2v0.7
			h11.3C110.6,20.8,110.5,18.8,110.6,17z M90.1,14.2H88l1.7-10.6L92,14.2H90.1z M92.8,0.3h-3.3l-3.6,21.7h-1.7v0.7h4.6v-0.7h-1.9
			l1.1-6.8h4.2l1.3,6.8h-2.1v0.7h7.2v-0.7h-1.3L92.8,0.3z M83.5,0.9V0.2h-7.6v0.7h1.9v20.9h-1.9v0.7h7.6v-0.7h-1.8V0.9H83.5z
			 M71.4,21.9c-0.7,0.4-2.1,0.3-2.6-0.3c-1.1-1.3-1.9-3.6-2-5.4c-0.4-4.2-0.4-6.2,0.1-9.5c0.2-1.9,0.8-3.8,2.1-5.2
			c0.8-0.8,2.2-0.6,3.1-0.1c1.7,1.2,1.6,3.3,1.8,5.2h0.7V0.3h-0.6c0,0.3,0,0.6-0.2,0.8c-0.6,0.2-0.9-0.6-1.4-0.7
			C71-0.3,69.2,0,67.9,0.7c-2.8,1.7-4.7,4.9-4.9,8.1c-0.5,5.1,0.2,10.4,4.4,13.4c1.3,0.6,3.2,1.4,4.5,0.3c0.6-0.2,0.9-1,1.5-1.1
			c0.4,0.3,0.4,0.8,0.4,1.2h0.6v-5.5h-0.8C73.5,18.8,73.7,20.3,71.4,21.9z M63.1,0.9V0.2h-4.4v0.7h1.6v14.9L54.4,0.2h-5.2v0.7h1.9
			v20.9h-1.9v0.7h4.7v-0.7H52V4.2l6.9,18.5h2.4V1L63.1,0.9L63.1,0.9L63.1,0.9z M38.4,14.1L40,4.2l2.1,9.9H38.4z M43.3,0.3h-3.4
			l-3.7,21.7h-1.9v0.7h5v-0.7h-2.1l1.2-7h4l1.4,7h-2v0.7h6.9v-0.7h-1L43.3,0.3z M35.3,0.9V0.2h-4.5v0.7h1.9v15.4l-6-16.1h-5.3V1h1.9
			v20.9h-1.9v0.7h4.9v-0.7h-2V4.6l6.5,18.1h2.8V1L35.3,0.9L35.3,0.9z M18.4,0.9h1.9V0.2h-7.7v0.7h2.1v20.9h-2.5v0.7h8.2v-0.7h-2.1
			L18.4,0.9z M0,0.9h2.8v20.9H0v0.7h8.7v-0.7H6.4V11h1.9c1,0,1.2,1.9,1.2,2.9h0.7V7.1H9.5c0,1.1-0.2,3.3-1.2,3.3H6.4V0.9
			c1.2,0,3.1,0.1,4,1.1c1.1,1.2,1.1,2.8,1.2,4.4h0.5V0.3H0V0.9z"/>
	</defs>
	<clipPath id="XMLID_38_">
		<use xlink:href="#XMLID_15_"  style="overflow:visible;"/>
	</clipPath>
	<g id="XMLID_34_" class="st0">
		<defs>
			<rect id="XMLID_35_" x="-620" y="-24" width="1440" height="3917"/>
		</defs>
		<clipPath id="XMLID_39_">
			<use xlink:href="#XMLID_35_"  style="overflow:visible;"/>
		</clipPath>
		<rect id="XMLID_36_" x="-5" y="-5" class="st1" width="210" height="33"/>
	</g>
</g>
</svg>
