<?xml version="1.0" encoding="utf-8"?>
<!-- Generator: Adobe Illustrator 21.0.2, SVG Export Plug-In . SVG Version: 6.00 Build 0)  -->
<svg version="1.1" id="Layer_1" xmlns="http://www.w3.org/2000/svg" xmlns:xlink="http://www.w3.org/1999/xlink" x="0px" y="0px"
	 viewBox="0 0 164 119.3" style="enable-background:new 0 0 164 119.3;" xml:space="preserve">
<style type="text/css">
	.st0{fill:#333333;}
	.st1{opacity:0.5;}
	.st2{fill:#FFFFFF;}
	.st3{fill:#FCB64E;}
	.st4{fill:#808080;}
	.st5{fill:#EF4123;}
	.st6{fill:#00954B;}
	.st7{font-family:'SuecaSans-Regular';}
	.st8{font-size:5px;}
</style>
<g>
	<polygon class="st0" points="116.7,15 114,12.6 114,17.3 116.7,15 	"/>
</g>
<g class="st1">
	<rect x="118" y="9" class="st2" width="13" height="93.8"/>
</g>
<g>
	<g>
		<polygon class="st0" points="6.8,95.2 19.8,84.5 20.7,83.9 33.7,76.9 34.5,76.5 47.6,72.9 48.4,72.6 61.4,65.5 62.3,65.2 
			75.3,65.2 76.2,65.1 89.2,59.3 90,59.1 103.1,59.2 103.9,59.1 116.9,54.1 117.5,46.4 103.6,46.4 89.8,46.4 75.9,46.4 62,57.7 
			62,57.7 48.1,65.2 34.3,65.2 20.4,76.5 20.4,76.5 6.5,84.1 		"/>
	</g>
	<g>
		<path class="st3" d="M131.5,41c-0.1-0.1-0.1-0.3,0.1-0.3l0,0c0.1-0.1,0.3-0.1,0.4,0.1l0,0c0.1,0.1,0,0.3-0.1,0.4l0,0
			c0,0-0.1,0-0.2,0l0,0C131.6,41.1,131.5,41.1,131.5,41z M132.3,40.4c-0.1-0.1,0-0.3,0.1-0.3l0,0c0.1-0.1,0.3,0,0.3,0.1l0,0
			c0.1,0.1,0.1,0.3-0.1,0.4l0,0c0,0-0.1,0-0.1,0l0,0C132.4,40.5,132.3,40.5,132.3,40.4z M133.1,39.9c-0.1-0.1-0.1-0.3,0.1-0.4l0,0
			c0.1-0.1,0.3-0.1,0.4,0.1l0,0c0.1,0.1,0,0.3-0.1,0.3l0,0c0,0-0.1,0-0.1,0l0,0C133.2,40,133.2,39.9,133.1,39.9z M133.9,39.3
			c-0.1-0.1,0-0.3,0.1-0.4l0,0c0.1-0.1,0.3,0,0.3,0.1l0,0c0.1,0.1,0,0.3-0.1,0.3l0,0c0,0-0.1,0-0.2,0l0,0
			C134.1,39.4,134,39.3,133.9,39.3z M134.7,38.7c-0.1-0.1-0.1-0.3,0.1-0.3l0,0c0.1-0.1,0.3-0.1,0.4,0.1l0,0c0.1,0.1,0.1,0.3-0.1,0.3
			l0,0c0,0-0.1,0-0.1,0l0,0C134.9,38.8,134.8,38.8,134.7,38.7z M135.6,38.1c-0.1-0.1,0-0.3,0.1-0.3l0,0c0.1-0.1,0.3-0.1,0.3,0.1l0,0
			c0.1,0.1,0,0.3-0.1,0.3l0,0c0,0-0.1,0.1-0.2,0.1l0,0C135.7,38.2,135.6,38.2,135.6,38.1z M136.4,37.6c-0.1-0.1,0-0.3,0.1-0.3l0,0
			c0.1-0.1,0.3-0.1,0.4,0l0,0c0.1,0.1,0.1,0.3-0.1,0.4l0,0c0,0-0.1,0-0.1,0l0,0C136.5,37.7,136.4,37.6,136.4,37.6z M137.2,37
			c-0.1-0.1-0.1-0.3,0.1-0.3l0,0c0.1-0.1,0.3,0,0.3,0.1l0,0c0.1,0.1,0.1,0.3-0.1,0.4l0,0c0,0-0.1,0-0.2,0l0,0
			C137.3,37.1,137.2,37,137.2,37z M138,36.4c-0.1-0.1,0-0.3,0.1-0.3l0,0c0.1-0.1,0.3-0.1,0.4,0.1l0,0c0.1,0.1,0,0.3-0.1,0.3l0,0
			c0,0-0.1,0-0.1,0l0,0C138.1,36.5,138,36.5,138,36.4z M138.8,35.8c-0.1-0.1,0-0.3,0.1-0.4l0,0c0.1-0.1,0.3,0,0.3,0.1l0,0
			c0.1,0.1,0.1,0.3-0.1,0.3l0,0c0,0-0.1,0-0.1,0l0,0C138.9,35.9,138.9,35.9,138.8,35.8z M139.6,35.2c-0.1-0.1-0.1-0.3,0.1-0.4l0,0
			c0.1-0.1,0.3,0,0.4,0.1l0,0c0.1,0.1,0,0.3-0.1,0.3l0,0c0,0-0.1,0.1-0.1,0.1l0,0C139.8,35.4,139.7,35.3,139.6,35.2z M140.4,34.7
			c-0.1-0.1,0-0.3,0.1-0.3l0,0c0.1-0.1,0.3-0.1,0.3,0.1l0,0c0.1,0.1,0.1,0.3-0.1,0.4l0,0c0,0-0.1,0-0.1,0l0,0
			C140.6,34.8,140.5,34.7,140.4,34.7z M141.3,34.1c-0.1-0.1-0.1-0.3,0.1-0.3l0,0c0.1-0.1,0.3,0,0.3,0.1l0,0c0.1,0.1,0,0.3-0.1,0.4
			l0,0c-0.1,0-0.1,0-0.2,0l0,0C141.4,34.2,141.3,34.2,141.3,34.1z M142.1,33.5c-0.1-0.1-0.1-0.3,0.1-0.4l0,0
			c0.1-0.1,0.3-0.1,0.3,0.1l0,0c0.1,0.1,0.1,0.3-0.1,0.3l0,0c0,0-0.1,0-0.2,0l0,0C142.2,33.6,142.1,33.6,142.1,33.5z M142.9,32.9
			c-0.1-0.1,0-0.3,0.1-0.4l0,0c0.1-0.1,0.3,0,0.4,0.1l0,0c0.1,0.1,0.1,0.3-0.1,0.3l0,0c0,0-0.1,0-0.1,0l0,0
			C143,33.1,142.9,33,142.9,32.9z M143.7,32.4c-0.1-0.1-0.1-0.3,0.1-0.3l0,0c0.1-0.1,0.3-0.1,0.4,0.1l0,0c0.1,0.1,0,0.3-0.1,0.3l0,0
			c0,0-0.1,0-0.1,0l0,0C143.8,32.5,143.7,32.4,143.7,32.4z M144.5,31.8c-0.1-0.1,0-0.3,0.1-0.3l0,0c0.1-0.1,0.3-0.1,0.3,0.1l0,0
			c0.1,0.1,0.1,0.3-0.1,0.4l0,0c0,0-0.1,0-0.1,0l0,0C144.6,31.9,144.6,31.9,144.5,31.8z"/>
	</g>
</g>
<g>
	<g>
		<path class="st4" d="M6.2,102.5c0-0.2,0.2-0.4,0.4-0.4l0,0c0.2,0,0.4,0.2,0.4,0.4l0,0c0,0.2-0.2,0.4-0.4,0.4l0,0
			C6.4,102.9,6.2,102.7,6.2,102.5z M6.2,100.1c0-0.2,0.2-0.4,0.4-0.4l0,0c0.2,0,0.4,0.2,0.4,0.4l0,0c0,0.2-0.2,0.4-0.4,0.4l0,0
			C6.4,100.5,6.2,100.3,6.2,100.1z M6.2,97.7c0-0.2,0.2-0.4,0.4-0.4l0,0c0.2,0,0.4,0.2,0.4,0.4l0,0c0,0.2-0.2,0.4-0.4,0.4l0,0
			C6.4,98.1,6.2,98,6.2,97.7z M6.2,95.4c0-0.2,0.2-0.4,0.4-0.4l0,0c0.2,0,0.4,0.2,0.4,0.4l0,0c0,0.2-0.2,0.4-0.4,0.4l0,0
			C6.4,95.7,6.2,95.6,6.2,95.4z M6.2,93c0-0.2,0.2-0.4,0.4-0.4l0,0c0.2,0,0.4,0.2,0.4,0.4l0,0c0,0.2-0.2,0.4-0.4,0.4l0,0
			C6.4,93.4,6.2,93.2,6.2,93z M6.2,90.6c0-0.2,0.2-0.4,0.4-0.4l0,0c0.2,0,0.4,0.2,0.4,0.4l0,0c0,0.2-0.2,0.4-0.4,0.4l0,0
			C6.4,91,6.2,90.8,6.2,90.6z M6.2,88.2c0-0.2,0.2-0.4,0.4-0.4l0,0c0.2,0,0.4,0.2,0.4,0.4l0,0c0,0.2-0.2,0.4-0.4,0.4l0,0
			C6.4,88.6,6.2,88.5,6.2,88.2z M6.2,85.9c0-0.2,0.2-0.4,0.4-0.4l0,0c0.2,0,0.4,0.2,0.4,0.4l0,0c0,0.2-0.2,0.4-0.4,0.4l0,0
			C6.4,86.2,6.2,86.1,6.2,85.9z M6.2,83.5c0-0.2,0.2-0.4,0.4-0.4l0,0c0.2,0,0.4,0.2,0.4,0.4l0,0c0,0.2-0.2,0.4-0.4,0.4l0,0
			C6.4,83.9,6.2,83.7,6.2,83.5z M6.2,81.1c0-0.2,0.2-0.4,0.4-0.4l0,0c0.2,0,0.4,0.2,0.4,0.4l0,0c0,0.2-0.2,0.4-0.4,0.4l0,0
			C6.4,81.5,6.2,81.3,6.2,81.1z M6.2,78.7c0-0.2,0.2-0.4,0.4-0.4l0,0c0.2,0,0.4,0.2,0.4,0.4l0,0c0,0.2-0.2,0.4-0.4,0.4l0,0
			C6.4,79.1,6.2,79,6.2,78.7z M6.2,76.4c0-0.2,0.2-0.4,0.4-0.4l0,0c0.2,0,0.4,0.2,0.4,0.4l0,0c0,0.2-0.2,0.4-0.4,0.4l0,0
			C6.4,76.7,6.2,76.6,6.2,76.4z M6.2,74c0-0.2,0.2-0.4,0.4-0.4l0,0c0.2,0,0.4,0.2,0.4,0.4l0,0c0,0.2-0.2,0.4-0.4,0.4l0,0
			C6.4,74.4,6.2,74.2,6.2,74z M6.2,71.6c0-0.2,0.2-0.4,0.4-0.4l0,0c0.2,0,0.4,0.2,0.4,0.4l0,0c0,0.2-0.2,0.4-0.4,0.4l0,0
			C6.4,72,6.2,71.8,6.2,71.6z M6.2,69.2c0-0.2,0.2-0.4,0.4-0.4l0,0c0.2,0,0.4,0.2,0.4,0.4l0,0c0,0.2-0.2,0.4-0.4,0.4l0,0
			C6.4,69.6,6.2,69.5,6.2,69.2z M6.2,66.9c0-0.2,0.2-0.4,0.4-0.4l0,0c0.2,0,0.4,0.2,0.4,0.4l0,0c0,0.2-0.2,0.4-0.4,0.4l0,0
			C6.4,67.2,6.2,67.1,6.2,66.9z M6.2,64.5c0-0.2,0.2-0.4,0.4-0.4l0,0c0.2,0,0.4,0.2,0.4,0.4l0,0c0,0.2-0.2,0.4-0.4,0.4l0,0
			C6.4,64.9,6.2,64.7,6.2,64.5z M6.2,62.1c0-0.2,0.2-0.4,0.4-0.4l0,0c0.2,0,0.4,0.2,0.4,0.4l0,0c0,0.2-0.2,0.4-0.4,0.4l0,0
			C6.4,62.5,6.2,62.3,6.2,62.1z M6.2,59.7c0-0.2,0.2-0.4,0.4-0.4l0,0c0.2,0,0.4,0.2,0.4,0.4l0,0c0,0.2-0.2,0.4-0.4,0.4l0,0
			C6.4,60.1,6.2,60,6.2,59.7z M6.2,57.4c0-0.2,0.2-0.4,0.4-0.4l0,0c0.2,0,0.4,0.2,0.4,0.4l0,0c0,0.2-0.2,0.4-0.4,0.4l0,0
			C6.4,57.7,6.2,57.6,6.2,57.4z M6.2,55c0-0.2,0.2-0.4,0.4-0.4l0,0c0.2,0,0.4,0.2,0.4,0.4l0,0c0,0.2-0.2,0.4-0.4,0.4l0,0
			C6.4,55.4,6.2,55.2,6.2,55z M6.2,52.6c0-0.2,0.2-0.4,0.4-0.4l0,0c0.2,0,0.4,0.2,0.4,0.4l0,0c0,0.2-0.2,0.4-0.4,0.4l0,0
			C6.4,53,6.2,52.8,6.2,52.6z M6.2,50.2c0-0.2,0.2-0.4,0.4-0.4l0,0c0.2,0,0.4,0.2,0.4,0.4l0,0c0,0.2-0.2,0.4-0.4,0.4l0,0
			C6.4,50.6,6.2,50.5,6.2,50.2z M6.2,47.9c0-0.2,0.2-0.4,0.4-0.4l0,0c0.2,0,0.4,0.2,0.4,0.4l0,0c0,0.2-0.2,0.4-0.4,0.4l0,0
			C6.4,48.2,6.2,48.1,6.2,47.9z M6.2,45.5c0-0.2,0.2-0.4,0.4-0.4l0,0c0.2,0,0.4,0.2,0.4,0.4l0,0c0,0.2-0.2,0.4-0.4,0.4l0,0
			C6.4,45.9,6.2,45.7,6.2,45.5z M6.2,43.1c0-0.2,0.2-0.4,0.4-0.4l0,0c0.2,0,0.4,0.2,0.4,0.4l0,0c0,0.2-0.2,0.4-0.4,0.4l0,0
			C6.4,43.5,6.2,43.3,6.2,43.1z M6.2,40.7c0-0.2,0.2-0.4,0.4-0.4l0,0c0.2,0,0.4,0.2,0.4,0.4l0,0c0,0.2-0.2,0.4-0.4,0.4l0,0
			C6.4,41.1,6.2,41,6.2,40.7z M6.2,38.4c0-0.2,0.2-0.4,0.4-0.4l0,0c0.2,0,0.4,0.2,0.4,0.4l0,0c0,0.2-0.2,0.4-0.4,0.4l0,0
			C6.4,38.7,6.2,38.6,6.2,38.4z M6.2,36c0-0.2,0.2-0.4,0.4-0.4l0,0c0.2,0,0.4,0.2,0.4,0.4l0,0c0,0.2-0.2,0.4-0.4,0.4l0,0
			C6.4,36.4,6.2,36.2,6.2,36z M6.2,33.6c0-0.2,0.2-0.4,0.4-0.4l0,0c0.2,0,0.4,0.2,0.4,0.4l0,0c0,0.2-0.2,0.4-0.4,0.4l0,0
			C6.4,34,6.2,33.8,6.2,33.6z M6.2,31.2c0-0.2,0.2-0.4,0.4-0.4l0,0c0.2,0,0.4,0.2,0.4,0.4l0,0c0,0.2-0.2,0.4-0.4,0.4l0,0
			C6.4,31.6,6.2,31.5,6.2,31.2z M6.2,28.9c0-0.2,0.2-0.4,0.4-0.4l0,0c0.2,0,0.4,0.2,0.4,0.4l0,0c0,0.2-0.2,0.4-0.4,0.4l0,0
			C6.4,29.2,6.2,29.1,6.2,28.9z M6.2,26.5c0-0.2,0.2-0.4,0.4-0.4l0,0c0.2,0,0.4,0.2,0.4,0.4l0,0c0,0.2-0.2,0.4-0.4,0.4l0,0
			C6.4,26.9,6.2,26.7,6.2,26.5z M6.2,24.1c0-0.2,0.2-0.4,0.4-0.4l0,0c0.2,0,0.4,0.2,0.4,0.4l0,0c0,0.2-0.2,0.4-0.4,0.4l0,0
			C6.4,24.5,6.2,24.3,6.2,24.1z M6.2,21.7c0-0.2,0.2-0.4,0.4-0.4l0,0c0.2,0,0.4,0.2,0.4,0.4l0,0c0,0.2-0.2,0.4-0.4,0.4l0,0
			C6.4,22.1,6.2,22,6.2,21.7z M6.2,19.4c0-0.2,0.2-0.4,0.4-0.4l0,0c0.2,0,0.4,0.2,0.4,0.4l0,0c0,0.2-0.2,0.4-0.4,0.4l0,0
			C6.4,19.7,6.2,19.6,6.2,19.4z M6.2,17c0-0.2,0.2-0.4,0.4-0.4l0,0c0.2,0,0.4,0.2,0.4,0.4l0,0c0,0.2-0.2,0.4-0.4,0.4l0,0
			C6.4,17.4,6.2,17.2,6.2,17z M6.2,14.6c0-0.2,0.2-0.4,0.4-0.4l0,0c0.2,0,0.4,0.2,0.4,0.4l0,0c0,0.2-0.2,0.4-0.4,0.4l0,0
			C6.4,15,6.2,14.8,6.2,14.6z M6.2,12.2c0-0.2,0.2-0.4,0.4-0.4l0,0c0.2,0,0.4,0.2,0.4,0.4l0,0c0,0.2-0.2,0.4-0.4,0.4l0,0
			C6.4,12.6,6.2,12.5,6.2,12.2z"/>
	</g>
	<g>
		<path class="st4" d="M20.1,102.5c0-0.2,0.2-0.4,0.4-0.4l0,0c0.2,0,0.4,0.2,0.4,0.4l0,0c0,0.2-0.2,0.4-0.4,0.4l0,0
			C20.2,102.9,20.1,102.7,20.1,102.5z M20.1,100.1c0-0.2,0.2-0.4,0.4-0.4l0,0c0.2,0,0.4,0.2,0.4,0.4l0,0c0,0.2-0.2,0.4-0.4,0.4l0,0
			C20.2,100.5,20.1,100.3,20.1,100.1z M20.1,97.7c0-0.2,0.2-0.4,0.4-0.4l0,0c0.2,0,0.4,0.2,0.4,0.4l0,0c0,0.2-0.2,0.4-0.4,0.4l0,0
			C20.2,98.1,20.1,98,20.1,97.7z M20.1,95.4c0-0.2,0.2-0.4,0.4-0.4l0,0c0.2,0,0.4,0.2,0.4,0.4l0,0c0,0.2-0.2,0.4-0.4,0.4l0,0
			C20.2,95.7,20.1,95.6,20.1,95.4z M20.1,93c0-0.2,0.2-0.4,0.4-0.4l0,0c0.2,0,0.4,0.2,0.4,0.4l0,0c0,0.2-0.2,0.4-0.4,0.4l0,0
			C20.2,93.4,20.1,93.2,20.1,93z M20.1,90.6c0-0.2,0.2-0.4,0.4-0.4l0,0c0.2,0,0.4,0.2,0.4,0.4l0,0c0,0.2-0.2,0.4-0.4,0.4l0,0
			C20.2,91,20.1,90.8,20.1,90.6z M20.1,88.2c0-0.2,0.2-0.4,0.4-0.4l0,0c0.2,0,0.4,0.2,0.4,0.4l0,0c0,0.2-0.2,0.4-0.4,0.4l0,0
			C20.2,88.6,20.1,88.5,20.1,88.2z M20.1,85.9c0-0.2,0.2-0.4,0.4-0.4l0,0c0.2,0,0.4,0.2,0.4,0.4l0,0c0,0.2-0.2,0.4-0.4,0.4l0,0
			C20.2,86.2,20.1,86.1,20.1,85.9z M20.1,83.5c0-0.2,0.2-0.4,0.4-0.4l0,0c0.2,0,0.4,0.2,0.4,0.4l0,0c0,0.2-0.2,0.4-0.4,0.4l0,0
			C20.2,83.9,20.1,83.7,20.1,83.5z M20.1,81.1c0-0.2,0.2-0.4,0.4-0.4l0,0c0.2,0,0.4,0.2,0.4,0.4l0,0c0,0.2-0.2,0.4-0.4,0.4l0,0
			C20.2,81.5,20.1,81.3,20.1,81.1z M20.1,78.7c0-0.2,0.2-0.4,0.4-0.4l0,0c0.2,0,0.4,0.2,0.4,0.4l0,0c0,0.2-0.2,0.4-0.4,0.4l0,0
			C20.2,79.1,20.1,79,20.1,78.7z M20.1,76.4c0-0.2,0.2-0.4,0.4-0.4l0,0c0.2,0,0.4,0.2,0.4,0.4l0,0c0,0.2-0.2,0.4-0.4,0.4l0,0
			C20.2,76.7,20.1,76.6,20.1,76.4z M20.1,74c0-0.2,0.2-0.4,0.4-0.4l0,0c0.2,0,0.4,0.2,0.4,0.4l0,0c0,0.2-0.2,0.4-0.4,0.4l0,0
			C20.2,74.4,20.1,74.2,20.1,74z M20.1,71.6c0-0.2,0.2-0.4,0.4-0.4l0,0c0.2,0,0.4,0.2,0.4,0.4l0,0c0,0.2-0.2,0.4-0.4,0.4l0,0
			C20.2,72,20.1,71.8,20.1,71.6z M20.1,69.2c0-0.2,0.2-0.4,0.4-0.4l0,0c0.2,0,0.4,0.2,0.4,0.4l0,0c0,0.2-0.2,0.4-0.4,0.4l0,0
			C20.2,69.6,20.1,69.5,20.1,69.2z M20.1,66.9c0-0.2,0.2-0.4,0.4-0.4l0,0c0.2,0,0.4,0.2,0.4,0.4l0,0c0,0.2-0.2,0.4-0.4,0.4l0,0
			C20.2,67.2,20.1,67.1,20.1,66.9z M20.1,64.5c0-0.2,0.2-0.4,0.4-0.4l0,0c0.2,0,0.4,0.2,0.4,0.4l0,0c0,0.2-0.2,0.4-0.4,0.4l0,0
			C20.2,64.9,20.1,64.7,20.1,64.5z M20.1,62.1c0-0.2,0.2-0.4,0.4-0.4l0,0c0.2,0,0.4,0.2,0.4,0.4l0,0c0,0.2-0.2,0.4-0.4,0.4l0,0
			C20.2,62.5,20.1,62.3,20.1,62.1z M20.1,59.7c0-0.2,0.2-0.4,0.4-0.4l0,0c0.2,0,0.4,0.2,0.4,0.4l0,0c0,0.2-0.2,0.4-0.4,0.4l0,0
			C20.2,60.1,20.1,60,20.1,59.7z M20.1,57.4c0-0.2,0.2-0.4,0.4-0.4l0,0c0.2,0,0.4,0.2,0.4,0.4l0,0c0,0.2-0.2,0.4-0.4,0.4l0,0
			C20.2,57.7,20.1,57.6,20.1,57.4z M20.1,55c0-0.2,0.2-0.4,0.4-0.4l0,0c0.2,0,0.4,0.2,0.4,0.4l0,0c0,0.2-0.2,0.4-0.4,0.4l0,0
			C20.2,55.4,20.1,55.2,20.1,55z M20.1,52.6c0-0.2,0.2-0.4,0.4-0.4l0,0c0.2,0,0.4,0.2,0.4,0.4l0,0c0,0.2-0.2,0.4-0.4,0.4l0,0
			C20.2,53,20.1,52.8,20.1,52.6z M20.1,50.2c0-0.2,0.2-0.4,0.4-0.4l0,0c0.2,0,0.4,0.2,0.4,0.4l0,0c0,0.2-0.2,0.4-0.4,0.4l0,0
			C20.2,50.6,20.1,50.5,20.1,50.2z M20.1,47.9c0-0.2,0.2-0.4,0.4-0.4l0,0c0.2,0,0.4,0.2,0.4,0.4l0,0c0,0.2-0.2,0.4-0.4,0.4l0,0
			C20.2,48.2,20.1,48.1,20.1,47.9z M20.1,45.5c0-0.2,0.2-0.4,0.4-0.4l0,0c0.2,0,0.4,0.2,0.4,0.4l0,0c0,0.2-0.2,0.4-0.4,0.4l0,0
			C20.2,45.9,20.1,45.7,20.1,45.5z M20.1,43.1c0-0.2,0.2-0.4,0.4-0.4l0,0c0.2,0,0.4,0.2,0.4,0.4l0,0c0,0.2-0.2,0.4-0.4,0.4l0,0
			C20.2,43.5,20.1,43.3,20.1,43.1z M20.1,40.7c0-0.2,0.2-0.4,0.4-0.4l0,0c0.2,0,0.4,0.2,0.4,0.4l0,0c0,0.2-0.2,0.4-0.4,0.4l0,0
			C20.2,41.1,20.1,41,20.1,40.7z M20.1,38.4c0-0.2,0.2-0.4,0.4-0.4l0,0c0.2,0,0.4,0.2,0.4,0.4l0,0c0,0.2-0.2,0.4-0.4,0.4l0,0
			C20.2,38.7,20.1,38.6,20.1,38.4z M20.1,36c0-0.2,0.2-0.4,0.4-0.4l0,0c0.2,0,0.4,0.2,0.4,0.4l0,0c0,0.2-0.2,0.4-0.4,0.4l0,0
			C20.2,36.4,20.1,36.2,20.1,36z M20.1,33.6c0-0.2,0.2-0.4,0.4-0.4l0,0c0.2,0,0.4,0.2,0.4,0.4l0,0c0,0.2-0.2,0.4-0.4,0.4l0,0
			C20.2,34,20.1,33.8,20.1,33.6z M20.1,31.2c0-0.2,0.2-0.4,0.4-0.4l0,0c0.2,0,0.4,0.2,0.4,0.4l0,0c0,0.2-0.2,0.4-0.4,0.4l0,0
			C20.2,31.6,20.1,31.5,20.1,31.2z M20.1,28.9c0-0.2,0.2-0.4,0.4-0.4l0,0c0.2,0,0.4,0.2,0.4,0.4l0,0c0,0.2-0.2,0.4-0.4,0.4l0,0
			C20.2,29.2,20.1,29.1,20.1,28.9z M20.1,26.5c0-0.2,0.2-0.4,0.4-0.4l0,0c0.2,0,0.4,0.2,0.4,0.4l0,0c0,0.2-0.2,0.4-0.4,0.4l0,0
			C20.2,26.9,20.1,26.7,20.1,26.5z M20.1,24.1c0-0.2,0.2-0.4,0.4-0.4l0,0c0.2,0,0.4,0.2,0.4,0.4l0,0c0,0.2-0.2,0.4-0.4,0.4l0,0
			C20.2,24.5,20.1,24.3,20.1,24.1z M20.1,21.7c0-0.2,0.2-0.4,0.4-0.4l0,0c0.2,0,0.4,0.2,0.4,0.4l0,0c0,0.2-0.2,0.4-0.4,0.4l0,0
			C20.2,22.1,20.1,22,20.1,21.7z M20.1,19.4c0-0.2,0.2-0.4,0.4-0.4l0,0c0.2,0,0.4,0.2,0.4,0.4l0,0c0,0.2-0.2,0.4-0.4,0.4l0,0
			C20.2,19.7,20.1,19.6,20.1,19.4z M20.1,17c0-0.2,0.2-0.4,0.4-0.4l0,0c0.2,0,0.4,0.2,0.4,0.4l0,0c0,0.2-0.2,0.4-0.4,0.4l0,0
			C20.2,17.4,20.1,17.2,20.1,17z M20.1,14.6c0-0.2,0.2-0.4,0.4-0.4l0,0c0.2,0,0.4,0.2,0.4,0.4l0,0c0,0.2-0.2,0.4-0.4,0.4l0,0
			C20.2,15,20.1,14.8,20.1,14.6z M20.1,12.2c0-0.2,0.2-0.4,0.4-0.4l0,0c0.2,0,0.4,0.2,0.4,0.4l0,0c0,0.2-0.2,0.4-0.4,0.4l0,0
			C20.2,12.6,20.1,12.5,20.1,12.2z"/>
	</g>
	<g>
		<path class="st4" d="M33.9,102.5c0-0.2,0.2-0.4,0.4-0.4l0,0c0.2,0,0.4,0.2,0.4,0.4l0,0c0,0.2-0.2,0.4-0.4,0.4l0,0
			C34.1,102.9,33.9,102.7,33.9,102.5z M33.9,100.1c0-0.2,0.2-0.4,0.4-0.4l0,0c0.2,0,0.4,0.2,0.4,0.4l0,0c0,0.2-0.2,0.4-0.4,0.4l0,0
			C34.1,100.5,33.9,100.3,33.9,100.1z M33.9,97.7c0-0.2,0.2-0.4,0.4-0.4l0,0c0.2,0,0.4,0.2,0.4,0.4l0,0c0,0.2-0.2,0.4-0.4,0.4l0,0
			C34.1,98.1,33.9,98,33.9,97.7z M33.9,95.4c0-0.2,0.2-0.4,0.4-0.4l0,0c0.2,0,0.4,0.2,0.4,0.4l0,0c0,0.2-0.2,0.4-0.4,0.4l0,0
			C34.1,95.7,33.9,95.6,33.9,95.4z M33.9,93c0-0.2,0.2-0.4,0.4-0.4l0,0c0.2,0,0.4,0.2,0.4,0.4l0,0c0,0.2-0.2,0.4-0.4,0.4l0,0
			C34.1,93.4,33.9,93.2,33.9,93z M33.9,90.6c0-0.2,0.2-0.4,0.4-0.4l0,0c0.2,0,0.4,0.2,0.4,0.4l0,0c0,0.2-0.2,0.4-0.4,0.4l0,0
			C34.1,91,33.9,90.8,33.9,90.6z M33.9,88.2c0-0.2,0.2-0.4,0.4-0.4l0,0c0.2,0,0.4,0.2,0.4,0.4l0,0c0,0.2-0.2,0.4-0.4,0.4l0,0
			C34.1,88.6,33.9,88.5,33.9,88.2z M33.9,85.9c0-0.2,0.2-0.4,0.4-0.4l0,0c0.2,0,0.4,0.2,0.4,0.4l0,0c0,0.2-0.2,0.4-0.4,0.4l0,0
			C34.1,86.2,33.9,86.1,33.9,85.9z M33.9,83.5c0-0.2,0.2-0.4,0.4-0.4l0,0c0.2,0,0.4,0.2,0.4,0.4l0,0c0,0.2-0.2,0.4-0.4,0.4l0,0
			C34.1,83.9,33.9,83.7,33.9,83.5z M33.9,81.1c0-0.2,0.2-0.4,0.4-0.4l0,0c0.2,0,0.4,0.2,0.4,0.4l0,0c0,0.2-0.2,0.4-0.4,0.4l0,0
			C34.1,81.5,33.9,81.3,33.9,81.1z M33.9,78.7c0-0.2,0.2-0.4,0.4-0.4l0,0c0.2,0,0.4,0.2,0.4,0.4l0,0c0,0.2-0.2,0.4-0.4,0.4l0,0
			C34.1,79.1,33.9,79,33.9,78.7z M33.9,76.4c0-0.2,0.2-0.4,0.4-0.4l0,0c0.2,0,0.4,0.2,0.4,0.4l0,0c0,0.2-0.2,0.4-0.4,0.4l0,0
			C34.1,76.7,33.9,76.6,33.9,76.4z M33.9,74c0-0.2,0.2-0.4,0.4-0.4l0,0c0.2,0,0.4,0.2,0.4,0.4l0,0c0,0.2-0.2,0.4-0.4,0.4l0,0
			C34.1,74.4,33.9,74.2,33.9,74z M33.9,71.6c0-0.2,0.2-0.4,0.4-0.4l0,0c0.2,0,0.4,0.2,0.4,0.4l0,0c0,0.2-0.2,0.4-0.4,0.4l0,0
			C34.1,72,33.9,71.8,33.9,71.6z M33.9,69.2c0-0.2,0.2-0.4,0.4-0.4l0,0c0.2,0,0.4,0.2,0.4,0.4l0,0c0,0.2-0.2,0.4-0.4,0.4l0,0
			C34.1,69.6,33.9,69.5,33.9,69.2z M33.9,66.9c0-0.2,0.2-0.4,0.4-0.4l0,0c0.2,0,0.4,0.2,0.4,0.4l0,0c0,0.2-0.2,0.4-0.4,0.4l0,0
			C34.1,67.2,33.9,67.1,33.9,66.9z M33.9,64.5c0-0.2,0.2-0.4,0.4-0.4l0,0c0.2,0,0.4,0.2,0.4,0.4l0,0c0,0.2-0.2,0.4-0.4,0.4l0,0
			C34.1,64.9,33.9,64.7,33.9,64.5z M33.9,62.1c0-0.2,0.2-0.4,0.4-0.4l0,0c0.2,0,0.4,0.2,0.4,0.4l0,0c0,0.2-0.2,0.4-0.4,0.4l0,0
			C34.1,62.5,33.9,62.3,33.9,62.1z M33.9,59.7c0-0.2,0.2-0.4,0.4-0.4l0,0c0.2,0,0.4,0.2,0.4,0.4l0,0c0,0.2-0.2,0.4-0.4,0.4l0,0
			C34.1,60.1,33.9,60,33.9,59.7z M33.9,57.4c0-0.2,0.2-0.4,0.4-0.4l0,0c0.2,0,0.4,0.2,0.4,0.4l0,0c0,0.2-0.2,0.4-0.4,0.4l0,0
			C34.1,57.7,33.9,57.6,33.9,57.4z M33.9,55c0-0.2,0.2-0.4,0.4-0.4l0,0c0.2,0,0.4,0.2,0.4,0.4l0,0c0,0.2-0.2,0.4-0.4,0.4l0,0
			C34.1,55.4,33.9,55.2,33.9,55z M33.9,52.6c0-0.2,0.2-0.4,0.4-0.4l0,0c0.2,0,0.4,0.2,0.4,0.4l0,0c0,0.2-0.2,0.4-0.4,0.4l0,0
			C34.1,53,33.9,52.8,33.9,52.6z M33.9,50.2c0-0.2,0.2-0.4,0.4-0.4l0,0c0.2,0,0.4,0.2,0.4,0.4l0,0c0,0.2-0.2,0.4-0.4,0.4l0,0
			C34.1,50.6,33.9,50.5,33.9,50.2z M33.9,47.9c0-0.2,0.2-0.4,0.4-0.4l0,0c0.2,0,0.4,0.2,0.4,0.4l0,0c0,0.2-0.2,0.4-0.4,0.4l0,0
			C34.1,48.2,33.9,48.1,33.9,47.9z M33.9,45.5c0-0.2,0.2-0.4,0.4-0.4l0,0c0.2,0,0.4,0.2,0.4,0.4l0,0c0,0.2-0.2,0.4-0.4,0.4l0,0
			C34.1,45.9,33.9,45.7,33.9,45.5z M33.9,43.1c0-0.2,0.2-0.4,0.4-0.4l0,0c0.2,0,0.4,0.2,0.4,0.4l0,0c0,0.2-0.2,0.4-0.4,0.4l0,0
			C34.1,43.5,33.9,43.3,33.9,43.1z M33.9,40.7c0-0.2,0.2-0.4,0.4-0.4l0,0c0.2,0,0.4,0.2,0.4,0.4l0,0c0,0.2-0.2,0.4-0.4,0.4l0,0
			C34.1,41.1,33.9,41,33.9,40.7z M33.9,38.4c0-0.2,0.2-0.4,0.4-0.4l0,0c0.2,0,0.4,0.2,0.4,0.4l0,0c0,0.2-0.2,0.4-0.4,0.4l0,0
			C34.1,38.7,33.9,38.6,33.9,38.4z M33.9,36c0-0.2,0.2-0.4,0.4-0.4l0,0c0.2,0,0.4,0.2,0.4,0.4l0,0c0,0.2-0.2,0.4-0.4,0.4l0,0
			C34.1,36.4,33.9,36.2,33.9,36z M33.9,33.6c0-0.2,0.2-0.4,0.4-0.4l0,0c0.2,0,0.4,0.2,0.4,0.4l0,0c0,0.2-0.2,0.4-0.4,0.4l0,0
			C34.1,34,33.9,33.8,33.9,33.6z M33.9,31.2c0-0.2,0.2-0.4,0.4-0.4l0,0c0.2,0,0.4,0.2,0.4,0.4l0,0c0,0.2-0.2,0.4-0.4,0.4l0,0
			C34.1,31.6,33.9,31.5,33.9,31.2z M33.9,28.9c0-0.2,0.2-0.4,0.4-0.4l0,0c0.2,0,0.4,0.2,0.4,0.4l0,0c0,0.2-0.2,0.4-0.4,0.4l0,0
			C34.1,29.2,33.9,29.1,33.9,28.9z M33.9,26.5c0-0.2,0.2-0.4,0.4-0.4l0,0c0.2,0,0.4,0.2,0.4,0.4l0,0c0,0.2-0.2,0.4-0.4,0.4l0,0
			C34.1,26.9,33.9,26.7,33.9,26.5z M33.9,24.1c0-0.2,0.2-0.4,0.4-0.4l0,0c0.2,0,0.4,0.2,0.4,0.4l0,0c0,0.2-0.2,0.4-0.4,0.4l0,0
			C34.1,24.5,33.9,24.3,33.9,24.1z M33.9,21.7c0-0.2,0.2-0.4,0.4-0.4l0,0c0.2,0,0.4,0.2,0.4,0.4l0,0c0,0.2-0.2,0.4-0.4,0.4l0,0
			C34.1,22.1,33.9,22,33.9,21.7z M33.9,19.4c0-0.2,0.2-0.4,0.4-0.4l0,0c0.2,0,0.4,0.2,0.4,0.4l0,0c0,0.2-0.2,0.4-0.4,0.4l0,0
			C34.1,19.7,33.9,19.6,33.9,19.4z M33.9,17c0-0.2,0.2-0.4,0.4-0.4l0,0c0.2,0,0.4,0.2,0.4,0.4l0,0c0,0.2-0.2,0.4-0.4,0.4l0,0
			C34.1,17.4,33.9,17.2,33.9,17z M33.9,14.6c0-0.2,0.2-0.4,0.4-0.4l0,0c0.2,0,0.4,0.2,0.4,0.4l0,0c0,0.2-0.2,0.4-0.4,0.4l0,0
			C34.1,15,33.9,14.8,33.9,14.6z M33.9,12.2c0-0.2,0.2-0.4,0.4-0.4l0,0c0.2,0,0.4,0.2,0.4,0.4l0,0c0,0.2-0.2,0.4-0.4,0.4l0,0
			C34.1,12.6,33.9,12.5,33.9,12.2z"/>
	</g>
	<g>
		<path class="st4" d="M47.8,102.5c0-0.2,0.2-0.4,0.4-0.4l0,0c0.2,0,0.4,0.2,0.4,0.4l0,0c0,0.2-0.2,0.4-0.4,0.4l0,0
			C48,102.9,47.8,102.7,47.8,102.5z M47.8,100.1c0-0.2,0.2-0.4,0.4-0.4l0,0c0.2,0,0.4,0.2,0.4,0.4l0,0c0,0.2-0.2,0.4-0.4,0.4l0,0
			C48,100.5,47.8,100.3,47.8,100.1z M47.8,97.7c0-0.2,0.2-0.4,0.4-0.4l0,0c0.2,0,0.4,0.2,0.4,0.4l0,0c0,0.2-0.2,0.4-0.4,0.4l0,0
			C48,98.1,47.8,98,47.8,97.7z M47.8,95.4c0-0.2,0.2-0.4,0.4-0.4l0,0c0.2,0,0.4,0.2,0.4,0.4l0,0c0,0.2-0.2,0.4-0.4,0.4l0,0
			C48,95.7,47.8,95.6,47.8,95.4z M47.8,93c0-0.2,0.2-0.4,0.4-0.4l0,0c0.2,0,0.4,0.2,0.4,0.4l0,0c0,0.2-0.2,0.4-0.4,0.4l0,0
			C48,93.4,47.8,93.2,47.8,93z M47.8,90.6c0-0.2,0.2-0.4,0.4-0.4l0,0c0.2,0,0.4,0.2,0.4,0.4l0,0c0,0.2-0.2,0.4-0.4,0.4l0,0
			C48,91,47.8,90.8,47.8,90.6z M47.8,88.2c0-0.2,0.2-0.4,0.4-0.4l0,0c0.2,0,0.4,0.2,0.4,0.4l0,0c0,0.2-0.2,0.4-0.4,0.4l0,0
			C48,88.6,47.8,88.5,47.8,88.2z M47.8,85.9c0-0.2,0.2-0.4,0.4-0.4l0,0c0.2,0,0.4,0.2,0.4,0.4l0,0c0,0.2-0.2,0.4-0.4,0.4l0,0
			C48,86.2,47.8,86.1,47.8,85.9z M47.8,83.5c0-0.2,0.2-0.4,0.4-0.4l0,0c0.2,0,0.4,0.2,0.4,0.4l0,0c0,0.2-0.2,0.4-0.4,0.4l0,0
			C48,83.9,47.8,83.7,47.8,83.5z M47.8,81.1c0-0.2,0.2-0.4,0.4-0.4l0,0c0.2,0,0.4,0.2,0.4,0.4l0,0c0,0.2-0.2,0.4-0.4,0.4l0,0
			C48,81.5,47.8,81.3,47.8,81.1z M47.8,78.7c0-0.2,0.2-0.4,0.4-0.4l0,0c0.2,0,0.4,0.2,0.4,0.4l0,0c0,0.2-0.2,0.4-0.4,0.4l0,0
			C48,79.1,47.8,79,47.8,78.7z M47.8,76.4c0-0.2,0.2-0.4,0.4-0.4l0,0c0.2,0,0.4,0.2,0.4,0.4l0,0c0,0.2-0.2,0.4-0.4,0.4l0,0
			C48,76.7,47.8,76.6,47.8,76.4z M47.8,74c0-0.2,0.2-0.4,0.4-0.4l0,0c0.2,0,0.4,0.2,0.4,0.4l0,0c0,0.2-0.2,0.4-0.4,0.4l0,0
			C48,74.4,47.8,74.2,47.8,74z M47.8,71.6c0-0.2,0.2-0.4,0.4-0.4l0,0c0.2,0,0.4,0.2,0.4,0.4l0,0c0,0.2-0.2,0.4-0.4,0.4l0,0
			C48,72,47.8,71.8,47.8,71.6z M47.8,69.2c0-0.2,0.2-0.4,0.4-0.4l0,0c0.2,0,0.4,0.2,0.4,0.4l0,0c0,0.2-0.2,0.4-0.4,0.4l0,0
			C48,69.6,47.8,69.5,47.8,69.2z M47.8,66.9c0-0.2,0.2-0.4,0.4-0.4l0,0c0.2,0,0.4,0.2,0.4,0.4l0,0c0,0.2-0.2,0.4-0.4,0.4l0,0
			C48,67.2,47.8,67.1,47.8,66.9z M47.8,64.5c0-0.2,0.2-0.4,0.4-0.4l0,0c0.2,0,0.4,0.2,0.4,0.4l0,0c0,0.2-0.2,0.4-0.4,0.4l0,0
			C48,64.9,47.8,64.7,47.8,64.5z M47.8,62.1c0-0.2,0.2-0.4,0.4-0.4l0,0c0.2,0,0.4,0.2,0.4,0.4l0,0c0,0.2-0.2,0.4-0.4,0.4l0,0
			C48,62.5,47.8,62.3,47.8,62.1z M47.8,59.7c0-0.2,0.2-0.4,0.4-0.4l0,0c0.2,0,0.4,0.2,0.4,0.4l0,0c0,0.2-0.2,0.4-0.4,0.4l0,0
			C48,60.1,47.8,60,47.8,59.7z M47.8,57.4c0-0.2,0.2-0.4,0.4-0.4l0,0c0.2,0,0.4,0.2,0.4,0.4l0,0c0,0.2-0.2,0.4-0.4,0.4l0,0
			C48,57.7,47.8,57.6,47.8,57.4z M47.8,55c0-0.2,0.2-0.4,0.4-0.4l0,0c0.2,0,0.4,0.2,0.4,0.4l0,0c0,0.2-0.2,0.4-0.4,0.4l0,0
			C48,55.4,47.8,55.2,47.8,55z M47.8,52.6c0-0.2,0.2-0.4,0.4-0.4l0,0c0.2,0,0.4,0.2,0.4,0.4l0,0c0,0.2-0.2,0.4-0.4,0.4l0,0
			C48,53,47.8,52.8,47.8,52.6z M47.8,50.2c0-0.2,0.2-0.4,0.4-0.4l0,0c0.2,0,0.4,0.2,0.4,0.4l0,0c0,0.2-0.2,0.4-0.4,0.4l0,0
			C48,50.6,47.8,50.5,47.8,50.2z M47.8,47.9c0-0.2,0.2-0.4,0.4-0.4l0,0c0.2,0,0.4,0.2,0.4,0.4l0,0c0,0.2-0.2,0.4-0.4,0.4l0,0
			C48,48.2,47.8,48.1,47.8,47.9z M47.8,45.5c0-0.2,0.2-0.4,0.4-0.4l0,0c0.2,0,0.4,0.2,0.4,0.4l0,0c0,0.2-0.2,0.4-0.4,0.4l0,0
			C48,45.9,47.8,45.7,47.8,45.5z M47.8,43.1c0-0.2,0.2-0.4,0.4-0.4l0,0c0.2,0,0.4,0.2,0.4,0.4l0,0c0,0.2-0.2,0.4-0.4,0.4l0,0
			C48,43.5,47.8,43.3,47.8,43.1z M47.8,40.7c0-0.2,0.2-0.4,0.4-0.4l0,0c0.2,0,0.4,0.2,0.4,0.4l0,0c0,0.2-0.2,0.4-0.4,0.4l0,0
			C48,41.1,47.8,41,47.8,40.7z M47.8,38.4c0-0.2,0.2-0.4,0.4-0.4l0,0c0.2,0,0.4,0.2,0.4,0.4l0,0c0,0.2-0.2,0.4-0.4,0.4l0,0
			C48,38.7,47.8,38.6,47.8,38.4z M47.8,36c0-0.2,0.2-0.4,0.4-0.4l0,0c0.2,0,0.4,0.2,0.4,0.4l0,0c0,0.2-0.2,0.4-0.4,0.4l0,0
			C48,36.4,47.8,36.2,47.8,36z M47.8,33.6c0-0.2,0.2-0.4,0.4-0.4l0,0c0.2,0,0.4,0.2,0.4,0.4l0,0c0,0.2-0.2,0.4-0.4,0.4l0,0
			C48,34,47.8,33.8,47.8,33.6z M47.8,31.2c0-0.2,0.2-0.4,0.4-0.4l0,0c0.2,0,0.4,0.2,0.4,0.4l0,0c0,0.2-0.2,0.4-0.4,0.4l0,0
			C48,31.6,47.8,31.5,47.8,31.2z M47.8,28.9c0-0.2,0.2-0.4,0.4-0.4l0,0c0.2,0,0.4,0.2,0.4,0.4l0,0c0,0.2-0.2,0.4-0.4,0.4l0,0
			C48,29.2,47.8,29.1,47.8,28.9z M47.8,26.5c0-0.2,0.2-0.4,0.4-0.4l0,0c0.2,0,0.4,0.2,0.4,0.4l0,0c0,0.2-0.2,0.4-0.4,0.4l0,0
			C48,26.9,47.8,26.7,47.8,26.5z M47.8,24.1c0-0.2,0.2-0.4,0.4-0.4l0,0c0.2,0,0.4,0.2,0.4,0.4l0,0c0,0.2-0.2,0.4-0.4,0.4l0,0
			C48,24.5,47.8,24.3,47.8,24.1z M47.8,21.7c0-0.2,0.2-0.4,0.4-0.4l0,0c0.2,0,0.4,0.2,0.4,0.4l0,0c0,0.2-0.2,0.4-0.4,0.4l0,0
			C48,22.1,47.8,22,47.8,21.7z M47.8,19.4c0-0.2,0.2-0.4,0.4-0.4l0,0c0.2,0,0.4,0.2,0.4,0.4l0,0c0,0.2-0.2,0.4-0.4,0.4l0,0
			C48,19.7,47.8,19.6,47.8,19.4z M47.8,17c0-0.2,0.2-0.4,0.4-0.4l0,0c0.2,0,0.4,0.2,0.4,0.4l0,0c0,0.2-0.2,0.4-0.4,0.4l0,0
			C48,17.4,47.8,17.2,47.8,17z M47.8,14.6c0-0.2,0.2-0.4,0.4-0.4l0,0c0.2,0,0.4,0.2,0.4,0.4l0,0c0,0.2-0.2,0.4-0.4,0.4l0,0
			C48,15,47.8,14.8,47.8,14.6z M47.8,12.2c0-0.2,0.2-0.4,0.4-0.4l0,0c0.2,0,0.4,0.2,0.4,0.4l0,0c0,0.2-0.2,0.4-0.4,0.4l0,0
			C48,12.6,47.8,12.5,47.8,12.2z"/>
	</g>
	<g>
		<path class="st4" d="M61.7,102.5c0-0.2,0.2-0.4,0.4-0.4l0,0c0.2,0,0.4,0.2,0.4,0.4l0,0c0,0.2-0.2,0.4-0.4,0.4l0,0
			C61.9,102.9,61.7,102.7,61.7,102.5z M61.7,100.1c0-0.2,0.2-0.4,0.4-0.4l0,0c0.2,0,0.4,0.2,0.4,0.4l0,0c0,0.2-0.2,0.4-0.4,0.4l0,0
			C61.9,100.5,61.7,100.3,61.7,100.1z M61.7,97.7c0-0.2,0.2-0.4,0.4-0.4l0,0c0.2,0,0.4,0.2,0.4,0.4l0,0c0,0.2-0.2,0.4-0.4,0.4l0,0
			C61.9,98.1,61.7,98,61.7,97.7z M61.7,95.4c0-0.2,0.2-0.4,0.4-0.4l0,0c0.2,0,0.4,0.2,0.4,0.4l0,0c0,0.2-0.2,0.4-0.4,0.4l0,0
			C61.9,95.7,61.7,95.6,61.7,95.4z M61.7,93c0-0.2,0.2-0.4,0.4-0.4l0,0c0.2,0,0.4,0.2,0.4,0.4l0,0c0,0.2-0.2,0.4-0.4,0.4l0,0
			C61.9,93.4,61.7,93.2,61.7,93z M61.7,90.6c0-0.2,0.2-0.4,0.4-0.4l0,0c0.2,0,0.4,0.2,0.4,0.4l0,0c0,0.2-0.2,0.4-0.4,0.4l0,0
			C61.9,91,61.7,90.8,61.7,90.6z M61.7,88.2c0-0.2,0.2-0.4,0.4-0.4l0,0c0.2,0,0.4,0.2,0.4,0.4l0,0c0,0.2-0.2,0.4-0.4,0.4l0,0
			C61.9,88.6,61.7,88.5,61.7,88.2z M61.7,85.9c0-0.2,0.2-0.4,0.4-0.4l0,0c0.2,0,0.4,0.2,0.4,0.4l0,0c0,0.2-0.2,0.4-0.4,0.4l0,0
			C61.9,86.2,61.7,86.1,61.7,85.9z M61.7,83.5c0-0.2,0.2-0.4,0.4-0.4l0,0c0.2,0,0.4,0.2,0.4,0.4l0,0c0,0.2-0.2,0.4-0.4,0.4l0,0
			C61.9,83.9,61.7,83.7,61.7,83.5z M61.7,81.1c0-0.2,0.2-0.4,0.4-0.4l0,0c0.2,0,0.4,0.2,0.4,0.4l0,0c0,0.2-0.2,0.4-0.4,0.4l0,0
			C61.9,81.5,61.7,81.3,61.7,81.1z M61.7,78.7c0-0.2,0.2-0.4,0.4-0.4l0,0c0.2,0,0.4,0.2,0.4,0.4l0,0c0,0.2-0.2,0.4-0.4,0.4l0,0
			C61.9,79.1,61.7,79,61.7,78.7z M61.7,76.4c0-0.2,0.2-0.4,0.4-0.4l0,0c0.2,0,0.4,0.2,0.4,0.4l0,0c0,0.2-0.2,0.4-0.4,0.4l0,0
			C61.9,76.7,61.7,76.6,61.7,76.4z M61.7,74c0-0.2,0.2-0.4,0.4-0.4l0,0c0.2,0,0.4,0.2,0.4,0.4l0,0c0,0.2-0.2,0.4-0.4,0.4l0,0
			C61.9,74.4,61.7,74.2,61.7,74z M61.7,71.6c0-0.2,0.2-0.4,0.4-0.4l0,0c0.2,0,0.4,0.2,0.4,0.4l0,0c0,0.2-0.2,0.4-0.4,0.4l0,0
			C61.9,72,61.7,71.8,61.7,71.6z M61.7,69.2c0-0.2,0.2-0.4,0.4-0.4l0,0c0.2,0,0.4,0.2,0.4,0.4l0,0c0,0.2-0.2,0.4-0.4,0.4l0,0
			C61.9,69.6,61.7,69.5,61.7,69.2z M61.7,66.9c0-0.2,0.2-0.4,0.4-0.4l0,0c0.2,0,0.4,0.2,0.4,0.4l0,0c0,0.2-0.2,0.4-0.4,0.4l0,0
			C61.9,67.2,61.7,67.1,61.7,66.9z M61.7,64.5c0-0.2,0.2-0.4,0.4-0.4l0,0c0.2,0,0.4,0.2,0.4,0.4l0,0c0,0.2-0.2,0.4-0.4,0.4l0,0
			C61.9,64.9,61.7,64.7,61.7,64.5z M61.7,62.1c0-0.2,0.2-0.4,0.4-0.4l0,0c0.2,0,0.4,0.2,0.4,0.4l0,0c0,0.2-0.2,0.4-0.4,0.4l0,0
			C61.9,62.5,61.7,62.3,61.7,62.1z M61.7,59.7c0-0.2,0.2-0.4,0.4-0.4l0,0c0.2,0,0.4,0.2,0.4,0.4l0,0c0,0.2-0.2,0.4-0.4,0.4l0,0
			C61.9,60.1,61.7,60,61.7,59.7z M61.7,57.4c0-0.2,0.2-0.4,0.4-0.4l0,0c0.2,0,0.4,0.2,0.4,0.4l0,0c0,0.2-0.2,0.4-0.4,0.4l0,0
			C61.9,57.7,61.7,57.6,61.7,57.4z M61.7,55c0-0.2,0.2-0.4,0.4-0.4l0,0c0.2,0,0.4,0.2,0.4,0.4l0,0c0,0.2-0.2,0.4-0.4,0.4l0,0
			C61.9,55.4,61.7,55.2,61.7,55z M61.7,52.6c0-0.2,0.2-0.4,0.4-0.4l0,0c0.2,0,0.4,0.2,0.4,0.4l0,0c0,0.2-0.2,0.4-0.4,0.4l0,0
			C61.9,53,61.7,52.8,61.7,52.6z M61.7,50.2c0-0.2,0.2-0.4,0.4-0.4l0,0c0.2,0,0.4,0.2,0.4,0.4l0,0c0,0.2-0.2,0.4-0.4,0.4l0,0
			C61.9,50.6,61.7,50.5,61.7,50.2z M61.7,47.9c0-0.2,0.2-0.4,0.4-0.4l0,0c0.2,0,0.4,0.2,0.4,0.4l0,0c0,0.2-0.2,0.4-0.4,0.4l0,0
			C61.9,48.2,61.7,48.1,61.7,47.9z M61.7,45.5c0-0.2,0.2-0.4,0.4-0.4l0,0c0.2,0,0.4,0.2,0.4,0.4l0,0c0,0.2-0.2,0.4-0.4,0.4l0,0
			C61.9,45.9,61.7,45.7,61.7,45.5z M61.7,43.1c0-0.2,0.2-0.4,0.4-0.4l0,0c0.2,0,0.4,0.2,0.4,0.4l0,0c0,0.2-0.2,0.4-0.4,0.4l0,0
			C61.9,43.5,61.7,43.3,61.7,43.1z M61.7,40.7c0-0.2,0.2-0.4,0.4-0.4l0,0c0.2,0,0.4,0.2,0.4,0.4l0,0c0,0.2-0.2,0.4-0.4,0.4l0,0
			C61.9,41.1,61.7,41,61.7,40.7z M61.7,38.4c0-0.2,0.2-0.4,0.4-0.4l0,0c0.2,0,0.4,0.2,0.4,0.4l0,0c0,0.2-0.2,0.4-0.4,0.4l0,0
			C61.9,38.7,61.7,38.6,61.7,38.4z M61.7,36c0-0.2,0.2-0.4,0.4-0.4l0,0c0.2,0,0.4,0.2,0.4,0.4l0,0c0,0.2-0.2,0.4-0.4,0.4l0,0
			C61.9,36.4,61.7,36.2,61.7,36z M61.7,33.6c0-0.2,0.2-0.4,0.4-0.4l0,0c0.2,0,0.4,0.2,0.4,0.4l0,0c0,0.2-0.2,0.4-0.4,0.4l0,0
			C61.9,34,61.7,33.8,61.7,33.6z M61.7,31.2c0-0.2,0.2-0.4,0.4-0.4l0,0c0.2,0,0.4,0.2,0.4,0.4l0,0c0,0.2-0.2,0.4-0.4,0.4l0,0
			C61.9,31.6,61.7,31.5,61.7,31.2z M61.7,28.9c0-0.2,0.2-0.4,0.4-0.4l0,0c0.2,0,0.4,0.2,0.4,0.4l0,0c0,0.2-0.2,0.4-0.4,0.4l0,0
			C61.9,29.2,61.7,29.1,61.7,28.9z M61.7,26.5c0-0.2,0.2-0.4,0.4-0.4l0,0c0.2,0,0.4,0.2,0.4,0.4l0,0c0,0.2-0.2,0.4-0.4,0.4l0,0
			C61.9,26.9,61.7,26.7,61.7,26.5z M61.7,24.1c0-0.2,0.2-0.4,0.4-0.4l0,0c0.2,0,0.4,0.2,0.4,0.4l0,0c0,0.2-0.2,0.4-0.4,0.4l0,0
			C61.9,24.5,61.7,24.3,61.7,24.1z M61.7,21.7c0-0.2,0.2-0.4,0.4-0.4l0,0c0.2,0,0.4,0.2,0.4,0.4l0,0c0,0.2-0.2,0.4-0.4,0.4l0,0
			C61.9,22.1,61.7,22,61.7,21.7z M61.7,19.4c0-0.2,0.2-0.4,0.4-0.4l0,0c0.2,0,0.4,0.2,0.4,0.4l0,0c0,0.2-0.2,0.4-0.4,0.4l0,0
			C61.9,19.7,61.7,19.6,61.7,19.4z M61.7,17c0-0.2,0.2-0.4,0.4-0.4l0,0c0.2,0,0.4,0.2,0.4,0.4l0,0c0,0.2-0.2,0.4-0.4,0.4l0,0
			C61.9,17.4,61.7,17.2,61.7,17z M61.7,14.6c0-0.2,0.2-0.4,0.4-0.4l0,0c0.2,0,0.4,0.2,0.4,0.4l0,0c0,0.2-0.2,0.4-0.4,0.4l0,0
			C61.9,15,61.7,14.8,61.7,14.6z M61.7,12.2c0-0.2,0.2-0.4,0.4-0.4l0,0c0.2,0,0.4,0.2,0.4,0.4l0,0c0,0.2-0.2,0.4-0.4,0.4l0,0
			C61.9,12.6,61.7,12.5,61.7,12.2z"/>
	</g>
	<g>
		<path class="st4" d="M75.6,102.5c0-0.2,0.2-0.4,0.4-0.4l0,0c0.2,0,0.4,0.2,0.4,0.4l0,0c0,0.2-0.2,0.4-0.4,0.4l0,0
			C75.7,102.9,75.6,102.7,75.6,102.5z M75.6,100.1c0-0.2,0.2-0.4,0.4-0.4l0,0c0.2,0,0.4,0.2,0.4,0.4l0,0c0,0.2-0.2,0.4-0.4,0.4l0,0
			C75.7,100.5,75.6,100.3,75.6,100.1z M75.6,97.7c0-0.2,0.2-0.4,0.4-0.4l0,0c0.2,0,0.4,0.2,0.4,0.4l0,0c0,0.2-0.2,0.4-0.4,0.4l0,0
			C75.7,98.1,75.6,98,75.6,97.7z M75.6,95.4c0-0.2,0.2-0.4,0.4-0.4l0,0c0.2,0,0.4,0.2,0.4,0.4l0,0c0,0.2-0.2,0.4-0.4,0.4l0,0
			C75.7,95.7,75.6,95.6,75.6,95.4z M75.6,93c0-0.2,0.2-0.4,0.4-0.4l0,0c0.2,0,0.4,0.2,0.4,0.4l0,0c0,0.2-0.2,0.4-0.4,0.4l0,0
			C75.7,93.4,75.6,93.2,75.6,93z M75.6,90.6c0-0.2,0.2-0.4,0.4-0.4l0,0c0.2,0,0.4,0.2,0.4,0.4l0,0c0,0.2-0.2,0.4-0.4,0.4l0,0
			C75.7,91,75.6,90.8,75.6,90.6z M75.6,88.2c0-0.2,0.2-0.4,0.4-0.4l0,0c0.2,0,0.4,0.2,0.4,0.4l0,0c0,0.2-0.2,0.4-0.4,0.4l0,0
			C75.7,88.6,75.6,88.5,75.6,88.2z M75.6,85.9c0-0.2,0.2-0.4,0.4-0.4l0,0c0.2,0,0.4,0.2,0.4,0.4l0,0c0,0.2-0.2,0.4-0.4,0.4l0,0
			C75.7,86.2,75.6,86.1,75.6,85.9z M75.6,83.5c0-0.2,0.2-0.4,0.4-0.4l0,0c0.2,0,0.4,0.2,0.4,0.4l0,0c0,0.2-0.2,0.4-0.4,0.4l0,0
			C75.7,83.9,75.6,83.7,75.6,83.5z M75.6,81.1c0-0.2,0.2-0.4,0.4-0.4l0,0c0.2,0,0.4,0.2,0.4,0.4l0,0c0,0.2-0.2,0.4-0.4,0.4l0,0
			C75.7,81.5,75.6,81.3,75.6,81.1z M75.6,78.7c0-0.2,0.2-0.4,0.4-0.4l0,0c0.2,0,0.4,0.2,0.4,0.4l0,0c0,0.2-0.2,0.4-0.4,0.4l0,0
			C75.7,79.1,75.6,79,75.6,78.7z M75.6,76.4c0-0.2,0.2-0.4,0.4-0.4l0,0c0.2,0,0.4,0.2,0.4,0.4l0,0c0,0.2-0.2,0.4-0.4,0.4l0,0
			C75.7,76.7,75.6,76.6,75.6,76.4z M75.6,74c0-0.2,0.2-0.4,0.4-0.4l0,0c0.2,0,0.4,0.2,0.4,0.4l0,0c0,0.2-0.2,0.4-0.4,0.4l0,0
			C75.7,74.4,75.6,74.2,75.6,74z M75.6,71.6c0-0.2,0.2-0.4,0.4-0.4l0,0c0.2,0,0.4,0.2,0.4,0.4l0,0c0,0.2-0.2,0.4-0.4,0.4l0,0
			C75.7,72,75.6,71.8,75.6,71.6z M75.6,69.2c0-0.2,0.2-0.4,0.4-0.4l0,0c0.2,0,0.4,0.2,0.4,0.4l0,0c0,0.2-0.2,0.4-0.4,0.4l0,0
			C75.7,69.6,75.6,69.5,75.6,69.2z M75.6,66.9c0-0.2,0.2-0.4,0.4-0.4l0,0c0.2,0,0.4,0.2,0.4,0.4l0,0c0,0.2-0.2,0.4-0.4,0.4l0,0
			C75.7,67.2,75.6,67.1,75.6,66.9z M75.6,64.5c0-0.2,0.2-0.4,0.4-0.4l0,0c0.2,0,0.4,0.2,0.4,0.4l0,0c0,0.2-0.2,0.4-0.4,0.4l0,0
			C75.7,64.9,75.6,64.7,75.6,64.5z M75.6,62.1c0-0.2,0.2-0.4,0.4-0.4l0,0c0.2,0,0.4,0.2,0.4,0.4l0,0c0,0.2-0.2,0.4-0.4,0.4l0,0
			C75.7,62.5,75.6,62.3,75.6,62.1z M75.6,59.7c0-0.2,0.2-0.4,0.4-0.4l0,0c0.2,0,0.4,0.2,0.4,0.4l0,0c0,0.2-0.2,0.4-0.4,0.4l0,0
			C75.7,60.1,75.6,60,75.6,59.7z M75.6,57.4c0-0.2,0.2-0.4,0.4-0.4l0,0c0.2,0,0.4,0.2,0.4,0.4l0,0c0,0.2-0.2,0.4-0.4,0.4l0,0
			C75.7,57.7,75.6,57.6,75.6,57.4z M75.6,55c0-0.2,0.2-0.4,0.4-0.4l0,0c0.2,0,0.4,0.2,0.4,0.4l0,0c0,0.2-0.2,0.4-0.4,0.4l0,0
			C75.7,55.4,75.6,55.2,75.6,55z M75.6,52.6c0-0.2,0.2-0.4,0.4-0.4l0,0c0.2,0,0.4,0.2,0.4,0.4l0,0c0,0.2-0.2,0.4-0.4,0.4l0,0
			C75.7,53,75.6,52.8,75.6,52.6z M75.6,50.2c0-0.2,0.2-0.4,0.4-0.4l0,0c0.2,0,0.4,0.2,0.4,0.4l0,0c0,0.2-0.2,0.4-0.4,0.4l0,0
			C75.7,50.6,75.6,50.5,75.6,50.2z M75.6,47.9c0-0.2,0.2-0.4,0.4-0.4l0,0c0.2,0,0.4,0.2,0.4,0.4l0,0c0,0.2-0.2,0.4-0.4,0.4l0,0
			C75.7,48.2,75.6,48.1,75.6,47.9z M75.6,45.5c0-0.2,0.2-0.4,0.4-0.4l0,0c0.2,0,0.4,0.2,0.4,0.4l0,0c0,0.2-0.2,0.4-0.4,0.4l0,0
			C75.7,45.9,75.6,45.7,75.6,45.5z M75.6,43.1c0-0.2,0.2-0.4,0.4-0.4l0,0c0.2,0,0.4,0.2,0.4,0.4l0,0c0,0.2-0.2,0.4-0.4,0.4l0,0
			C75.7,43.5,75.6,43.3,75.6,43.1z M75.6,40.7c0-0.2,0.2-0.4,0.4-0.4l0,0c0.2,0,0.4,0.2,0.4,0.4l0,0c0,0.2-0.2,0.4-0.4,0.4l0,0
			C75.7,41.1,75.6,41,75.6,40.7z M75.6,38.4c0-0.2,0.2-0.4,0.4-0.4l0,0c0.2,0,0.4,0.2,0.4,0.4l0,0c0,0.2-0.2,0.4-0.4,0.4l0,0
			C75.7,38.7,75.6,38.6,75.6,38.4z M75.6,36c0-0.2,0.2-0.4,0.4-0.4l0,0c0.2,0,0.4,0.2,0.4,0.4l0,0c0,0.2-0.2,0.4-0.4,0.4l0,0
			C75.7,36.4,75.6,36.2,75.6,36z M75.6,33.6c0-0.2,0.2-0.4,0.4-0.4l0,0c0.2,0,0.4,0.2,0.4,0.4l0,0c0,0.2-0.2,0.4-0.4,0.4l0,0
			C75.7,34,75.6,33.8,75.6,33.6z M75.6,31.2c0-0.2,0.2-0.4,0.4-0.4l0,0c0.2,0,0.4,0.2,0.4,0.4l0,0c0,0.2-0.2,0.4-0.4,0.4l0,0
			C75.7,31.6,75.6,31.5,75.6,31.2z M75.6,28.9c0-0.2,0.2-0.4,0.4-0.4l0,0c0.2,0,0.4,0.2,0.4,0.4l0,0c0,0.2-0.2,0.4-0.4,0.4l0,0
			C75.7,29.2,75.6,29.1,75.6,28.9z M75.6,26.5c0-0.2,0.2-0.4,0.4-0.4l0,0c0.2,0,0.4,0.2,0.4,0.4l0,0c0,0.2-0.2,0.4-0.4,0.4l0,0
			C75.7,26.9,75.6,26.7,75.6,26.5z M75.6,24.1c0-0.2,0.2-0.4,0.4-0.4l0,0c0.2,0,0.4,0.2,0.4,0.4l0,0c0,0.2-0.2,0.4-0.4,0.4l0,0
			C75.7,24.5,75.6,24.3,75.6,24.1z M75.6,21.7c0-0.2,0.2-0.4,0.4-0.4l0,0c0.2,0,0.4,0.2,0.4,0.4l0,0c0,0.2-0.2,0.4-0.4,0.4l0,0
			C75.7,22.1,75.6,22,75.6,21.7z M75.6,19.4c0-0.2,0.2-0.4,0.4-0.4l0,0c0.2,0,0.4,0.2,0.4,0.4l0,0c0,0.2-0.2,0.4-0.4,0.4l0,0
			C75.7,19.7,75.6,19.6,75.6,19.4z M75.6,17c0-0.2,0.2-0.4,0.4-0.4l0,0c0.2,0,0.4,0.2,0.4,0.4l0,0c0,0.2-0.2,0.4-0.4,0.4l0,0
			C75.7,17.4,75.6,17.2,75.6,17z M75.6,14.6c0-0.2,0.2-0.4,0.4-0.4l0,0c0.2,0,0.4,0.2,0.4,0.4l0,0c0,0.2-0.2,0.4-0.4,0.4l0,0
			C75.7,15,75.6,14.8,75.6,14.6z M75.6,12.2c0-0.2,0.2-0.4,0.4-0.4l0,0c0.2,0,0.4,0.2,0.4,0.4l0,0c0,0.2-0.2,0.4-0.4,0.4l0,0
			C75.7,12.6,75.6,12.5,75.6,12.2z"/>
	</g>
	<g>
		<path class="st4" d="M89.5,102.5c0-0.2,0.2-0.4,0.4-0.4l0,0c0.2,0,0.4,0.2,0.4,0.4l0,0c0,0.2-0.2,0.4-0.4,0.4l0,0
			C89.6,102.9,89.5,102.7,89.5,102.5z M89.5,100.1c0-0.2,0.2-0.4,0.4-0.4l0,0c0.2,0,0.4,0.2,0.4,0.4l0,0c0,0.2-0.2,0.4-0.4,0.4l0,0
			C89.6,100.5,89.5,100.3,89.5,100.1z M89.5,97.7c0-0.2,0.2-0.4,0.4-0.4l0,0c0.2,0,0.4,0.2,0.4,0.4l0,0c0,0.2-0.2,0.4-0.4,0.4l0,0
			C89.6,98.1,89.5,98,89.5,97.7z M89.5,95.4c0-0.2,0.2-0.4,0.4-0.4l0,0c0.2,0,0.4,0.2,0.4,0.4l0,0c0,0.2-0.2,0.4-0.4,0.4l0,0
			C89.6,95.7,89.5,95.6,89.5,95.4z M89.5,93c0-0.2,0.2-0.4,0.4-0.4l0,0c0.2,0,0.4,0.2,0.4,0.4l0,0c0,0.2-0.2,0.4-0.4,0.4l0,0
			C89.6,93.4,89.5,93.2,89.5,93z M89.5,90.6c0-0.2,0.2-0.4,0.4-0.4l0,0c0.2,0,0.4,0.2,0.4,0.4l0,0c0,0.2-0.2,0.4-0.4,0.4l0,0
			C89.6,91,89.5,90.8,89.5,90.6z M89.5,88.2c0-0.2,0.2-0.4,0.4-0.4l0,0c0.2,0,0.4,0.2,0.4,0.4l0,0c0,0.2-0.2,0.4-0.4,0.4l0,0
			C89.6,88.6,89.5,88.5,89.5,88.2z M89.5,85.9c0-0.2,0.2-0.4,0.4-0.4l0,0c0.2,0,0.4,0.2,0.4,0.4l0,0c0,0.2-0.2,0.4-0.4,0.4l0,0
			C89.6,86.2,89.5,86.1,89.5,85.9z M89.5,83.5c0-0.2,0.2-0.4,0.4-0.4l0,0c0.2,0,0.4,0.2,0.4,0.4l0,0c0,0.2-0.2,0.4-0.4,0.4l0,0
			C89.6,83.9,89.5,83.7,89.5,83.5z M89.5,81.1c0-0.2,0.2-0.4,0.4-0.4l0,0c0.2,0,0.4,0.2,0.4,0.4l0,0c0,0.2-0.2,0.4-0.4,0.4l0,0
			C89.6,81.5,89.5,81.3,89.5,81.1z M89.5,78.7c0-0.2,0.2-0.4,0.4-0.4l0,0c0.2,0,0.4,0.2,0.4,0.4l0,0c0,0.2-0.2,0.4-0.4,0.4l0,0
			C89.6,79.1,89.5,79,89.5,78.7z M89.5,76.4c0-0.2,0.2-0.4,0.4-0.4l0,0c0.2,0,0.4,0.2,0.4,0.4l0,0c0,0.2-0.2,0.4-0.4,0.4l0,0
			C89.6,76.7,89.5,76.6,89.5,76.4z M89.5,74c0-0.2,0.2-0.4,0.4-0.4l0,0c0.2,0,0.4,0.2,0.4,0.4l0,0c0,0.2-0.2,0.4-0.4,0.4l0,0
			C89.6,74.4,89.5,74.2,89.5,74z M89.5,71.6c0-0.2,0.2-0.4,0.4-0.4l0,0c0.2,0,0.4,0.2,0.4,0.4l0,0c0,0.2-0.2,0.4-0.4,0.4l0,0
			C89.6,72,89.5,71.8,89.5,71.6z M89.5,69.2c0-0.2,0.2-0.4,0.4-0.4l0,0c0.2,0,0.4,0.2,0.4,0.4l0,0c0,0.2-0.2,0.4-0.4,0.4l0,0
			C89.6,69.6,89.5,69.5,89.5,69.2z M89.5,66.9c0-0.2,0.2-0.4,0.4-0.4l0,0c0.2,0,0.4,0.2,0.4,0.4l0,0c0,0.2-0.2,0.4-0.4,0.4l0,0
			C89.6,67.2,89.5,67.1,89.5,66.9z M89.5,64.5c0-0.2,0.2-0.4,0.4-0.4l0,0c0.2,0,0.4,0.2,0.4,0.4l0,0c0,0.2-0.2,0.4-0.4,0.4l0,0
			C89.6,64.9,89.5,64.7,89.5,64.5z M89.5,62.1c0-0.2,0.2-0.4,0.4-0.4l0,0c0.2,0,0.4,0.2,0.4,0.4l0,0c0,0.2-0.2,0.4-0.4,0.4l0,0
			C89.6,62.5,89.5,62.3,89.5,62.1z M89.5,59.7c0-0.2,0.2-0.4,0.4-0.4l0,0c0.2,0,0.4,0.2,0.4,0.4l0,0c0,0.2-0.2,0.4-0.4,0.4l0,0
			C89.6,60.1,89.5,60,89.5,59.7z M89.5,57.4c0-0.2,0.2-0.4,0.4-0.4l0,0c0.2,0,0.4,0.2,0.4,0.4l0,0c0,0.2-0.2,0.4-0.4,0.4l0,0
			C89.6,57.7,89.5,57.6,89.5,57.4z M89.5,55c0-0.2,0.2-0.4,0.4-0.4l0,0c0.2,0,0.4,0.2,0.4,0.4l0,0c0,0.2-0.2,0.4-0.4,0.4l0,0
			C89.6,55.4,89.5,55.2,89.5,55z M89.5,52.6c0-0.2,0.2-0.4,0.4-0.4l0,0c0.2,0,0.4,0.2,0.4,0.4l0,0c0,0.2-0.2,0.4-0.4,0.4l0,0
			C89.6,53,89.5,52.8,89.5,52.6z M89.5,50.2c0-0.2,0.2-0.4,0.4-0.4l0,0c0.2,0,0.4,0.2,0.4,0.4l0,0c0,0.2-0.2,0.4-0.4,0.4l0,0
			C89.6,50.6,89.5,50.5,89.5,50.2z M89.5,47.9c0-0.2,0.2-0.4,0.4-0.4l0,0c0.2,0,0.4,0.2,0.4,0.4l0,0c0,0.2-0.2,0.4-0.4,0.4l0,0
			C89.6,48.2,89.5,48.1,89.5,47.9z M89.5,45.5c0-0.2,0.2-0.4,0.4-0.4l0,0c0.2,0,0.4,0.2,0.4,0.4l0,0c0,0.2-0.2,0.4-0.4,0.4l0,0
			C89.6,45.9,89.5,45.7,89.5,45.5z M89.5,43.1c0-0.2,0.2-0.4,0.4-0.4l0,0c0.2,0,0.4,0.2,0.4,0.4l0,0c0,0.2-0.2,0.4-0.4,0.4l0,0
			C89.6,43.5,89.5,43.3,89.5,43.1z M89.5,40.7c0-0.2,0.2-0.4,0.4-0.4l0,0c0.2,0,0.4,0.2,0.4,0.4l0,0c0,0.2-0.2,0.4-0.4,0.4l0,0
			C89.6,41.1,89.5,41,89.5,40.7z M89.5,38.4c0-0.2,0.2-0.4,0.4-0.4l0,0c0.2,0,0.4,0.2,0.4,0.4l0,0c0,0.2-0.2,0.4-0.4,0.4l0,0
			C89.6,38.7,89.5,38.6,89.5,38.4z M89.5,36c0-0.2,0.2-0.4,0.4-0.4l0,0c0.2,0,0.4,0.2,0.4,0.4l0,0c0,0.2-0.2,0.4-0.4,0.4l0,0
			C89.6,36.4,89.5,36.2,89.5,36z M89.5,33.6c0-0.2,0.2-0.4,0.4-0.4l0,0c0.2,0,0.4,0.2,0.4,0.4l0,0c0,0.2-0.2,0.4-0.4,0.4l0,0
			C89.6,34,89.5,33.8,89.5,33.6z M89.5,31.2c0-0.2,0.2-0.4,0.4-0.4l0,0c0.2,0,0.4,0.2,0.4,0.4l0,0c0,0.2-0.2,0.4-0.4,0.4l0,0
			C89.6,31.6,89.5,31.5,89.5,31.2z"/>
	</g>
	<g>
		<path class="st4" d="M103.3,102.5c0-0.2,0.2-0.4,0.4-0.4l0,0c0.2,0,0.4,0.2,0.4,0.4l0,0c0,0.2-0.2,0.4-0.4,0.4l0,0
			C103.5,102.9,103.3,102.7,103.3,102.5z M103.3,100.1c0-0.2,0.2-0.4,0.4-0.4l0,0c0.2,0,0.4,0.2,0.4,0.4l0,0c0,0.2-0.2,0.4-0.4,0.4
			l0,0C103.5,100.5,103.3,100.3,103.3,100.1z M103.3,97.7c0-0.2,0.2-0.4,0.4-0.4l0,0c0.2,0,0.4,0.2,0.4,0.4l0,0
			c0,0.2-0.2,0.4-0.4,0.4l0,0C103.5,98.1,103.3,98,103.3,97.7z M103.3,95.4c0-0.2,0.2-0.4,0.4-0.4l0,0c0.2,0,0.4,0.2,0.4,0.4l0,0
			c0,0.2-0.2,0.4-0.4,0.4l0,0C103.5,95.7,103.3,95.6,103.3,95.4z M103.3,93c0-0.2,0.2-0.4,0.4-0.4l0,0c0.2,0,0.4,0.2,0.4,0.4l0,0
			c0,0.2-0.2,0.4-0.4,0.4l0,0C103.5,93.4,103.3,93.2,103.3,93z M103.3,90.6c0-0.2,0.2-0.4,0.4-0.4l0,0c0.2,0,0.4,0.2,0.4,0.4l0,0
			c0,0.2-0.2,0.4-0.4,0.4l0,0C103.5,91,103.3,90.8,103.3,90.6z M103.3,88.2c0-0.2,0.2-0.4,0.4-0.4l0,0c0.2,0,0.4,0.2,0.4,0.4l0,0
			c0,0.2-0.2,0.4-0.4,0.4l0,0C103.5,88.6,103.3,88.5,103.3,88.2z M103.3,85.9c0-0.2,0.2-0.4,0.4-0.4l0,0c0.2,0,0.4,0.2,0.4,0.4l0,0
			c0,0.2-0.2,0.4-0.4,0.4l0,0C103.5,86.2,103.3,86.1,103.3,85.9z M103.3,83.5c0-0.2,0.2-0.4,0.4-0.4l0,0c0.2,0,0.4,0.2,0.4,0.4l0,0
			c0,0.2-0.2,0.4-0.4,0.4l0,0C103.5,83.9,103.3,83.7,103.3,83.5z M103.3,81.1c0-0.2,0.2-0.4,0.4-0.4l0,0c0.2,0,0.4,0.2,0.4,0.4l0,0
			c0,0.2-0.2,0.4-0.4,0.4l0,0C103.5,81.5,103.3,81.3,103.3,81.1z M103.3,78.7c0-0.2,0.2-0.4,0.4-0.4l0,0c0.2,0,0.4,0.2,0.4,0.4l0,0
			c0,0.2-0.2,0.4-0.4,0.4l0,0C103.5,79.1,103.3,79,103.3,78.7z M103.3,76.4c0-0.2,0.2-0.4,0.4-0.4l0,0c0.2,0,0.4,0.2,0.4,0.4l0,0
			c0,0.2-0.2,0.4-0.4,0.4l0,0C103.5,76.7,103.3,76.6,103.3,76.4z M103.3,74c0-0.2,0.2-0.4,0.4-0.4l0,0c0.2,0,0.4,0.2,0.4,0.4l0,0
			c0,0.2-0.2,0.4-0.4,0.4l0,0C103.5,74.4,103.3,74.2,103.3,74z M103.3,71.6c0-0.2,0.2-0.4,0.4-0.4l0,0c0.2,0,0.4,0.2,0.4,0.4l0,0
			c0,0.2-0.2,0.4-0.4,0.4l0,0C103.5,72,103.3,71.8,103.3,71.6z M103.3,69.2c0-0.2,0.2-0.4,0.4-0.4l0,0c0.2,0,0.4,0.2,0.4,0.4l0,0
			c0,0.2-0.2,0.4-0.4,0.4l0,0C103.5,69.6,103.3,69.5,103.3,69.2z M103.3,66.9c0-0.2,0.2-0.4,0.4-0.4l0,0c0.2,0,0.4,0.2,0.4,0.4l0,0
			c0,0.2-0.2,0.4-0.4,0.4l0,0C103.5,67.2,103.3,67.1,103.3,66.9z M103.3,64.5c0-0.2,0.2-0.4,0.4-0.4l0,0c0.2,0,0.4,0.2,0.4,0.4l0,0
			c0,0.2-0.2,0.4-0.4,0.4l0,0C103.5,64.9,103.3,64.7,103.3,64.5z M103.3,62.1c0-0.2,0.2-0.4,0.4-0.4l0,0c0.2,0,0.4,0.2,0.4,0.4l0,0
			c0,0.2-0.2,0.4-0.4,0.4l0,0C103.5,62.5,103.3,62.3,103.3,62.1z M103.3,59.7c0-0.2,0.2-0.4,0.4-0.4l0,0c0.2,0,0.4,0.2,0.4,0.4l0,0
			c0,0.2-0.2,0.4-0.4,0.4l0,0C103.5,60.1,103.3,60,103.3,59.7z M103.3,57.4c0-0.2,0.2-0.4,0.4-0.4l0,0c0.2,0,0.4,0.2,0.4,0.4l0,0
			c0,0.2-0.2,0.4-0.4,0.4l0,0C103.5,57.7,103.3,57.6,103.3,57.4z M103.3,55c0-0.2,0.2-0.4,0.4-0.4l0,0c0.2,0,0.4,0.2,0.4,0.4l0,0
			c0,0.2-0.2,0.4-0.4,0.4l0,0C103.5,55.4,103.3,55.2,103.3,55z M103.3,52.6c0-0.2,0.2-0.4,0.4-0.4l0,0c0.2,0,0.4,0.2,0.4,0.4l0,0
			c0,0.2-0.2,0.4-0.4,0.4l0,0C103.5,53,103.3,52.8,103.3,52.6z M103.3,50.2c0-0.2,0.2-0.4,0.4-0.4l0,0c0.2,0,0.4,0.2,0.4,0.4l0,0
			c0,0.2-0.2,0.4-0.4,0.4l0,0C103.5,50.6,103.3,50.5,103.3,50.2z M103.3,47.9c0-0.2,0.2-0.4,0.4-0.4l0,0c0.2,0,0.4,0.2,0.4,0.4l0,0
			c0,0.2-0.2,0.4-0.4,0.4l0,0C103.5,48.2,103.3,48.1,103.3,47.9z M103.3,45.5c0-0.2,0.2-0.4,0.4-0.4l0,0c0.2,0,0.4,0.2,0.4,0.4l0,0
			c0,0.2-0.2,0.4-0.4,0.4l0,0C103.5,45.9,103.3,45.7,103.3,45.5z M103.3,43.1c0-0.2,0.2-0.4,0.4-0.4l0,0c0.2,0,0.4,0.2,0.4,0.4l0,0
			c0,0.2-0.2,0.4-0.4,0.4l0,0C103.5,43.5,103.3,43.3,103.3,43.1z M103.3,40.7c0-0.2,0.2-0.4,0.4-0.4l0,0c0.2,0,0.4,0.2,0.4,0.4l0,0
			c0,0.2-0.2,0.4-0.4,0.4l0,0C103.5,41.1,103.3,41,103.3,40.7z M103.3,38.4c0-0.2,0.2-0.4,0.4-0.4l0,0c0.2,0,0.4,0.2,0.4,0.4l0,0
			c0,0.2-0.2,0.4-0.4,0.4l0,0C103.5,38.7,103.3,38.6,103.3,38.4z M103.3,36c0-0.2,0.2-0.4,0.4-0.4l0,0c0.2,0,0.4,0.2,0.4,0.4l0,0
			c0,0.2-0.2,0.4-0.4,0.4l0,0C103.5,36.4,103.3,36.2,103.3,36z M103.3,33.6c0-0.2,0.2-0.4,0.4-0.4l0,0c0.2,0,0.4,0.2,0.4,0.4l0,0
			c0,0.2-0.2,0.4-0.4,0.4l0,0C103.5,34,103.3,33.8,103.3,33.6z M103.3,31.2c0-0.2,0.2-0.4,0.4-0.4l0,0c0.2,0,0.4,0.2,0.4,0.4l0,0
			c0,0.2-0.2,0.4-0.4,0.4l0,0C103.5,31.6,103.3,31.5,103.3,31.2z"/>
	</g>
	<g>
		<path class="st4" d="M117.2,102.5c0-0.2,0.2-0.4,0.4-0.4l0,0c0.2,0,0.4,0.2,0.4,0.4l0,0c0,0.2-0.2,0.4-0.4,0.4l0,0
			C117.4,102.9,117.2,102.7,117.2,102.5z M117.2,100.1c0-0.2,0.2-0.4,0.4-0.4l0,0c0.2,0,0.4,0.2,0.4,0.4l0,0c0,0.2-0.2,0.4-0.4,0.4
			l0,0C117.4,100.5,117.2,100.3,117.2,100.1z M117.2,97.7c0-0.2,0.2-0.4,0.4-0.4l0,0c0.2,0,0.4,0.2,0.4,0.4l0,0
			c0,0.2-0.2,0.4-0.4,0.4l0,0C117.4,98.1,117.2,98,117.2,97.7z M117.2,95.4c0-0.2,0.2-0.4,0.4-0.4l0,0c0.2,0,0.4,0.2,0.4,0.4l0,0
			c0,0.2-0.2,0.4-0.4,0.4l0,0C117.4,95.7,117.2,95.6,117.2,95.4z M117.2,93c0-0.2,0.2-0.4,0.4-0.4l0,0c0.2,0,0.4,0.2,0.4,0.4l0,0
			c0,0.2-0.2,0.4-0.4,0.4l0,0C117.4,93.4,117.2,93.2,117.2,93z M117.2,90.6c0-0.2,0.2-0.4,0.4-0.4l0,0c0.2,0,0.4,0.2,0.4,0.4l0,0
			c0,0.2-0.2,0.4-0.4,0.4l0,0C117.4,91,117.2,90.8,117.2,90.6z M117.2,88.2c0-0.2,0.2-0.4,0.4-0.4l0,0c0.2,0,0.4,0.2,0.4,0.4l0,0
			c0,0.2-0.2,0.4-0.4,0.4l0,0C117.4,88.6,117.2,88.5,117.2,88.2z M117.2,85.9c0-0.2,0.2-0.4,0.4-0.4l0,0c0.2,0,0.4,0.2,0.4,0.4l0,0
			c0,0.2-0.2,0.4-0.4,0.4l0,0C117.4,86.2,117.2,86.1,117.2,85.9z M117.2,83.5c0-0.2,0.2-0.4,0.4-0.4l0,0c0.2,0,0.4,0.2,0.4,0.4l0,0
			c0,0.2-0.2,0.4-0.4,0.4l0,0C117.4,83.9,117.2,83.7,117.2,83.5z M117.2,81.1c0-0.2,0.2-0.4,0.4-0.4l0,0c0.2,0,0.4,0.2,0.4,0.4l0,0
			c0,0.2-0.2,0.4-0.4,0.4l0,0C117.4,81.5,117.2,81.3,117.2,81.1z M117.2,78.7c0-0.2,0.2-0.4,0.4-0.4l0,0c0.2,0,0.4,0.2,0.4,0.4l0,0
			c0,0.2-0.2,0.4-0.4,0.4l0,0C117.4,79.1,117.2,79,117.2,78.7z M117.2,76.4c0-0.2,0.2-0.4,0.4-0.4l0,0c0.2,0,0.4,0.2,0.4,0.4l0,0
			c0,0.2-0.2,0.4-0.4,0.4l0,0C117.4,76.7,117.2,76.6,117.2,76.4z M117.2,74c0-0.2,0.2-0.4,0.4-0.4l0,0c0.2,0,0.4,0.2,0.4,0.4l0,0
			c0,0.2-0.2,0.4-0.4,0.4l0,0C117.4,74.4,117.2,74.2,117.2,74z M117.2,71.6c0-0.2,0.2-0.4,0.4-0.4l0,0c0.2,0,0.4,0.2,0.4,0.4l0,0
			c0,0.2-0.2,0.4-0.4,0.4l0,0C117.4,72,117.2,71.8,117.2,71.6z M117.2,69.2c0-0.2,0.2-0.4,0.4-0.4l0,0c0.2,0,0.4,0.2,0.4,0.4l0,0
			c0,0.2-0.2,0.4-0.4,0.4l0,0C117.4,69.6,117.2,69.5,117.2,69.2z M117.2,66.9c0-0.2,0.2-0.4,0.4-0.4l0,0c0.2,0,0.4,0.2,0.4,0.4l0,0
			c0,0.2-0.2,0.4-0.4,0.4l0,0C117.4,67.2,117.2,67.1,117.2,66.9z M117.2,64.5c0-0.2,0.2-0.4,0.4-0.4l0,0c0.2,0,0.4,0.2,0.4,0.4l0,0
			c0,0.2-0.2,0.4-0.4,0.4l0,0C117.4,64.9,117.2,64.7,117.2,64.5z M117.2,62.1c0-0.2,0.2-0.4,0.4-0.4l0,0c0.2,0,0.4,0.2,0.4,0.4l0,0
			c0,0.2-0.2,0.4-0.4,0.4l0,0C117.4,62.5,117.2,62.3,117.2,62.1z M117.2,59.7c0-0.2,0.2-0.4,0.4-0.4l0,0c0.2,0,0.4,0.2,0.4,0.4l0,0
			c0,0.2-0.2,0.4-0.4,0.4l0,0C117.4,60.1,117.2,60,117.2,59.7z M117.2,57.4c0-0.2,0.2-0.4,0.4-0.4l0,0c0.2,0,0.4,0.2,0.4,0.4l0,0
			c0,0.2-0.2,0.4-0.4,0.4l0,0C117.4,57.7,117.2,57.6,117.2,57.4z M117.2,55c0-0.2,0.2-0.4,0.4-0.4l0,0c0.2,0,0.4,0.2,0.4,0.4l0,0
			c0,0.2-0.2,0.4-0.4,0.4l0,0C117.4,55.4,117.2,55.2,117.2,55z M117.2,52.6c0-0.2,0.2-0.4,0.4-0.4l0,0c0.2,0,0.4,0.2,0.4,0.4l0,0
			c0,0.2-0.2,0.4-0.4,0.4l0,0C117.4,53,117.2,52.8,117.2,52.6z M117.2,50.2c0-0.2,0.2-0.4,0.4-0.4l0,0c0.2,0,0.4,0.2,0.4,0.4l0,0
			c0,0.2-0.2,0.4-0.4,0.4l0,0C117.4,50.6,117.2,50.5,117.2,50.2z M117.2,47.9c0-0.2,0.2-0.4,0.4-0.4l0,0c0.2,0,0.4,0.2,0.4,0.4l0,0
			c0,0.2-0.2,0.4-0.4,0.4l0,0C117.4,48.2,117.2,48.1,117.2,47.9z M117.2,45.5c0-0.2,0.2-0.4,0.4-0.4l0,0c0.2,0,0.4,0.2,0.4,0.4l0,0
			c0,0.2-0.2,0.4-0.4,0.4l0,0C117.4,45.9,117.2,45.7,117.2,45.5z M117.2,43.1c0-0.2,0.2-0.4,0.4-0.4l0,0c0.2,0,0.4,0.2,0.4,0.4l0,0
			c0,0.2-0.2,0.4-0.4,0.4l0,0C117.4,43.5,117.2,43.3,117.2,43.1z M117.2,40.7c0-0.2,0.2-0.4,0.4-0.4l0,0c0.2,0,0.4,0.2,0.4,0.4l0,0
			c0,0.2-0.2,0.4-0.4,0.4l0,0C117.4,41.1,117.2,41,117.2,40.7z M117.2,38.4c0-0.2,0.2-0.4,0.4-0.4l0,0c0.2,0,0.4,0.2,0.4,0.4l0,0
			c0,0.2-0.2,0.4-0.4,0.4l0,0C117.4,38.7,117.2,38.6,117.2,38.4z M117.2,36c0-0.2,0.2-0.4,0.4-0.4l0,0c0.2,0,0.4,0.2,0.4,0.4l0,0
			c0,0.2-0.2,0.4-0.4,0.4l0,0C117.4,36.4,117.2,36.2,117.2,36z M117.2,33.6c0-0.2,0.2-0.4,0.4-0.4l0,0c0.2,0,0.4,0.2,0.4,0.4l0,0
			c0,0.2-0.2,0.4-0.4,0.4l0,0C117.4,34,117.2,33.8,117.2,33.6z M117.2,31.2c0-0.2,0.2-0.4,0.4-0.4l0,0c0.2,0,0.4,0.2,0.4,0.4l0,0
			c0,0.2-0.2,0.4-0.4,0.4l0,0C117.4,31.6,117.2,31.5,117.2,31.2z M117.2,28.9c0-0.2,0.2-0.4,0.4-0.4l0,0c0.2,0,0.4,0.2,0.4,0.4l0,0
			c0,0.2-0.2,0.4-0.4,0.4l0,0C117.4,29.2,117.2,29.1,117.2,28.9z M117.2,26.5c0-0.2,0.2-0.4,0.4-0.4l0,0c0.2,0,0.4,0.2,0.4,0.4l0,0
			c0,0.2-0.2,0.4-0.4,0.4l0,0C117.4,26.9,117.2,26.7,117.2,26.5z M117.2,24.1c0-0.2,0.2-0.4,0.4-0.4l0,0c0.2,0,0.4,0.2,0.4,0.4l0,0
			c0,0.2-0.2,0.4-0.4,0.4l0,0C117.4,24.5,117.2,24.3,117.2,24.1z M117.2,21.7c0-0.2,0.2-0.4,0.4-0.4l0,0c0.2,0,0.4,0.2,0.4,0.4l0,0
			c0,0.2-0.2,0.4-0.4,0.4l0,0C117.4,22.1,117.2,22,117.2,21.7z M117.2,19.4c0-0.2,0.2-0.4,0.4-0.4l0,0c0.2,0,0.4,0.2,0.4,0.4l0,0
			c0,0.2-0.2,0.4-0.4,0.4l0,0C117.4,19.7,117.2,19.6,117.2,19.4z M117.2,17c0-0.2,0.2-0.4,0.4-0.4l0,0c0.2,0,0.4,0.2,0.4,0.4l0,0
			c0,0.2-0.2,0.4-0.4,0.4l0,0C117.4,17.4,117.2,17.2,117.2,17z M117.2,14.6c0-0.2,0.2-0.4,0.4-0.4l0,0c0.2,0,0.4,0.2,0.4,0.4l0,0
			c0,0.2-0.2,0.4-0.4,0.4l0,0C117.4,15,117.2,14.8,117.2,14.6z M117.2,12.2c0-0.2,0.2-0.4,0.4-0.4l0,0c0.2,0,0.4,0.2,0.4,0.4l0,0
			c0,0.2-0.2,0.4-0.4,0.4l0,0C117.4,12.6,117.2,12.5,117.2,12.2z"/>
	</g>
	<g>
		<path class="st4" d="M131.1,102.5c0-0.2,0.2-0.4,0.4-0.4l0,0c0.2,0,0.4,0.2,0.4,0.4l0,0c0,0.2-0.2,0.4-0.4,0.4l0,0
			C131.3,102.9,131.1,102.7,131.1,102.5z M131.1,100.1c0-0.2,0.2-0.4,0.4-0.4l0,0c0.2,0,0.4,0.2,0.4,0.4l0,0c0,0.2-0.2,0.4-0.4,0.4
			l0,0C131.3,100.5,131.1,100.3,131.1,100.1z M131.1,97.7c0-0.2,0.2-0.4,0.4-0.4l0,0c0.2,0,0.4,0.2,0.4,0.4l0,0
			c0,0.2-0.2,0.4-0.4,0.4l0,0C131.3,98.1,131.1,98,131.1,97.7z M131.1,95.4c0-0.2,0.2-0.4,0.4-0.4l0,0c0.2,0,0.4,0.2,0.4,0.4l0,0
			c0,0.2-0.2,0.4-0.4,0.4l0,0C131.3,95.7,131.1,95.6,131.1,95.4z M131.1,93c0-0.2,0.2-0.4,0.4-0.4l0,0c0.2,0,0.4,0.2,0.4,0.4l0,0
			c0,0.2-0.2,0.4-0.4,0.4l0,0C131.3,93.4,131.1,93.2,131.1,93z M131.1,90.6c0-0.2,0.2-0.4,0.4-0.4l0,0c0.2,0,0.4,0.2,0.4,0.4l0,0
			c0,0.2-0.2,0.4-0.4,0.4l0,0C131.3,91,131.1,90.8,131.1,90.6z M131.1,88.2c0-0.2,0.2-0.4,0.4-0.4l0,0c0.2,0,0.4,0.2,0.4,0.4l0,0
			c0,0.2-0.2,0.4-0.4,0.4l0,0C131.3,88.6,131.1,88.5,131.1,88.2z M131.1,85.9c0-0.2,0.2-0.4,0.4-0.4l0,0c0.2,0,0.4,0.2,0.4,0.4l0,0
			c0,0.2-0.2,0.4-0.4,0.4l0,0C131.3,86.2,131.1,86.1,131.1,85.9z M131.1,83.5c0-0.2,0.2-0.4,0.4-0.4l0,0c0.2,0,0.4,0.2,0.4,0.4l0,0
			c0,0.2-0.2,0.4-0.4,0.4l0,0C131.3,83.9,131.1,83.7,131.1,83.5z M131.1,81.1c0-0.2,0.2-0.4,0.4-0.4l0,0c0.2,0,0.4,0.2,0.4,0.4l0,0
			c0,0.2-0.2,0.4-0.4,0.4l0,0C131.3,81.5,131.1,81.3,131.1,81.1z M131.1,78.7c0-0.2,0.2-0.4,0.4-0.4l0,0c0.2,0,0.4,0.2,0.4,0.4l0,0
			c0,0.2-0.2,0.4-0.4,0.4l0,0C131.3,79.1,131.1,79,131.1,78.7z M131.1,76.4c0-0.2,0.2-0.4,0.4-0.4l0,0c0.2,0,0.4,0.2,0.4,0.4l0,0
			c0,0.2-0.2,0.4-0.4,0.4l0,0C131.3,76.7,131.1,76.6,131.1,76.4z M131.1,74c0-0.2,0.2-0.4,0.4-0.4l0,0c0.2,0,0.4,0.2,0.4,0.4l0,0
			c0,0.2-0.2,0.4-0.4,0.4l0,0C131.3,74.4,131.1,74.2,131.1,74z M131.1,71.6c0-0.2,0.2-0.4,0.4-0.4l0,0c0.2,0,0.4,0.2,0.4,0.4l0,0
			c0,0.2-0.2,0.4-0.4,0.4l0,0C131.3,72,131.1,71.8,131.1,71.6z M131.1,69.2c0-0.2,0.2-0.4,0.4-0.4l0,0c0.2,0,0.4,0.2,0.4,0.4l0,0
			c0,0.2-0.2,0.4-0.4,0.4l0,0C131.3,69.6,131.1,69.5,131.1,69.2z M131.1,66.9c0-0.2,0.2-0.4,0.4-0.4l0,0c0.2,0,0.4,0.2,0.4,0.4l0,0
			c0,0.2-0.2,0.4-0.4,0.4l0,0C131.3,67.2,131.1,67.1,131.1,66.9z M131.1,64.5c0-0.2,0.2-0.4,0.4-0.4l0,0c0.2,0,0.4,0.2,0.4,0.4l0,0
			c0,0.2-0.2,0.4-0.4,0.4l0,0C131.3,64.9,131.1,64.7,131.1,64.5z M131.1,62.1c0-0.2,0.2-0.4,0.4-0.4l0,0c0.2,0,0.4,0.2,0.4,0.4l0,0
			c0,0.2-0.2,0.4-0.4,0.4l0,0C131.3,62.5,131.1,62.3,131.1,62.1z M131.1,59.7c0-0.2,0.2-0.4,0.4-0.4l0,0c0.2,0,0.4,0.2,0.4,0.4l0,0
			c0,0.2-0.2,0.4-0.4,0.4l0,0C131.3,60.1,131.1,60,131.1,59.7z M131.1,57.4c0-0.2,0.2-0.4,0.4-0.4l0,0c0.2,0,0.4,0.2,0.4,0.4l0,0
			c0,0.2-0.2,0.4-0.4,0.4l0,0C131.3,57.7,131.1,57.6,131.1,57.4z M131.1,55c0-0.2,0.2-0.4,0.4-0.4l0,0c0.2,0,0.4,0.2,0.4,0.4l0,0
			c0,0.2-0.2,0.4-0.4,0.4l0,0C131.3,55.4,131.1,55.2,131.1,55z M131.1,52.6c0-0.2,0.2-0.4,0.4-0.4l0,0c0.2,0,0.4,0.2,0.4,0.4l0,0
			c0,0.2-0.2,0.4-0.4,0.4l0,0C131.3,53,131.1,52.8,131.1,52.6z M131.1,50.2c0-0.2,0.2-0.4,0.4-0.4l0,0c0.2,0,0.4,0.2,0.4,0.4l0,0
			c0,0.2-0.2,0.4-0.4,0.4l0,0C131.3,50.6,131.1,50.5,131.1,50.2z M131.1,47.9c0-0.2,0.2-0.4,0.4-0.4l0,0c0.2,0,0.4,0.2,0.4,0.4l0,0
			c0,0.2-0.2,0.4-0.4,0.4l0,0C131.3,48.2,131.1,48.1,131.1,47.9z M131.1,45.5c0-0.2,0.2-0.4,0.4-0.4l0,0c0.2,0,0.4,0.2,0.4,0.4l0,0
			c0,0.2-0.2,0.4-0.4,0.4l0,0C131.3,45.9,131.1,45.7,131.1,45.5z M131.1,43.1c0-0.2,0.2-0.4,0.4-0.4l0,0c0.2,0,0.4,0.2,0.4,0.4l0,0
			c0,0.2-0.2,0.4-0.4,0.4l0,0C131.3,43.5,131.1,43.3,131.1,43.1z M131.1,40.7c0-0.2,0.2-0.4,0.4-0.4l0,0c0.2,0,0.4,0.2,0.4,0.4l0,0
			c0,0.2-0.2,0.4-0.4,0.4l0,0C131.3,41.1,131.1,41,131.1,40.7z M131.1,38.4c0-0.2,0.2-0.4,0.4-0.4l0,0c0.2,0,0.4,0.2,0.4,0.4l0,0
			c0,0.2-0.2,0.4-0.4,0.4l0,0C131.3,38.7,131.1,38.6,131.1,38.4z M131.1,36c0-0.2,0.2-0.4,0.4-0.4l0,0c0.2,0,0.4,0.2,0.4,0.4l0,0
			c0,0.2-0.2,0.4-0.4,0.4l0,0C131.3,36.4,131.1,36.2,131.1,36z M131.1,33.6c0-0.2,0.2-0.4,0.4-0.4l0,0c0.2,0,0.4,0.2,0.4,0.4l0,0
			c0,0.2-0.2,0.4-0.4,0.4l0,0C131.3,34,131.1,33.8,131.1,33.6z M131.1,31.2c0-0.2,0.2-0.4,0.4-0.4l0,0c0.2,0,0.4,0.2,0.4,0.4l0,0
			c0,0.2-0.2,0.4-0.4,0.4l0,0C131.3,31.6,131.1,31.5,131.1,31.2z M131.1,28.9c0-0.2,0.2-0.4,0.4-0.4l0,0c0.2,0,0.4,0.2,0.4,0.4l0,0
			c0,0.2-0.2,0.4-0.4,0.4l0,0C131.3,29.2,131.1,29.1,131.1,28.9z M131.1,26.5c0-0.2,0.2-0.4,0.4-0.4l0,0c0.2,0,0.4,0.2,0.4,0.4l0,0
			c0,0.2-0.2,0.4-0.4,0.4l0,0C131.3,26.9,131.1,26.7,131.1,26.5z M131.1,24.1c0-0.2,0.2-0.4,0.4-0.4l0,0c0.2,0,0.4,0.2,0.4,0.4l0,0
			c0,0.2-0.2,0.4-0.4,0.4l0,0C131.3,24.5,131.1,24.3,131.1,24.1z M131.1,21.7c0-0.2,0.2-0.4,0.4-0.4l0,0c0.2,0,0.4,0.2,0.4,0.4l0,0
			c0,0.2-0.2,0.4-0.4,0.4l0,0C131.3,22.1,131.1,22,131.1,21.7z M131.1,19.4c0-0.2,0.2-0.4,0.4-0.4l0,0c0.2,0,0.4,0.2,0.4,0.4l0,0
			c0,0.2-0.2,0.4-0.4,0.4l0,0C131.3,19.7,131.1,19.6,131.1,19.4z M131.1,17c0-0.2,0.2-0.4,0.4-0.4l0,0c0.2,0,0.4,0.2,0.4,0.4l0,0
			c0,0.2-0.2,0.4-0.4,0.4l0,0C131.3,17.4,131.1,17.2,131.1,17z M131.1,14.6c0-0.2,0.2-0.4,0.4-0.4l0,0c0.2,0,0.4,0.2,0.4,0.4l0,0
			c0,0.2-0.2,0.4-0.4,0.4l0,0C131.3,15,131.1,14.8,131.1,14.6z M131.1,12.2c0-0.2,0.2-0.4,0.4-0.4l0,0c0.2,0,0.4,0.2,0.4,0.4l0,0
			c0,0.2-0.2,0.4-0.4,0.4l0,0C131.3,12.6,131.1,12.5,131.1,12.2z"/>
	</g>
	<g>
		<path class="st4" d="M145,102.5c0-0.2,0.2-0.4,0.4-0.4l0,0c0.2,0,0.4,0.2,0.4,0.4l0,0c0,0.2-0.2,0.4-0.4,0.4l0,0
			C145.1,102.9,145,102.7,145,102.5z M145,100.1c0-0.2,0.2-0.4,0.4-0.4l0,0c0.2,0,0.4,0.2,0.4,0.4l0,0c0,0.2-0.2,0.4-0.4,0.4l0,0
			C145.1,100.5,145,100.3,145,100.1z M145,97.7c0-0.2,0.2-0.4,0.4-0.4l0,0c0.2,0,0.4,0.2,0.4,0.4l0,0c0,0.2-0.2,0.4-0.4,0.4l0,0
			C145.1,98.1,145,98,145,97.7z M145,95.4c0-0.2,0.2-0.4,0.4-0.4l0,0c0.2,0,0.4,0.2,0.4,0.4l0,0c0,0.2-0.2,0.4-0.4,0.4l0,0
			C145.1,95.7,145,95.6,145,95.4z M145,93c0-0.2,0.2-0.4,0.4-0.4l0,0c0.2,0,0.4,0.2,0.4,0.4l0,0c0,0.2-0.2,0.4-0.4,0.4l0,0
			C145.1,93.4,145,93.2,145,93z M145,90.6c0-0.2,0.2-0.4,0.4-0.4l0,0c0.2,0,0.4,0.2,0.4,0.4l0,0c0,0.2-0.2,0.4-0.4,0.4l0,0
			C145.1,91,145,90.8,145,90.6z M145,88.2c0-0.2,0.2-0.4,0.4-0.4l0,0c0.2,0,0.4,0.2,0.4,0.4l0,0c0,0.2-0.2,0.4-0.4,0.4l0,0
			C145.1,88.6,145,88.5,145,88.2z M145,85.9c0-0.2,0.2-0.4,0.4-0.4l0,0c0.2,0,0.4,0.2,0.4,0.4l0,0c0,0.2-0.2,0.4-0.4,0.4l0,0
			C145.1,86.2,145,86.1,145,85.9z M145,83.5c0-0.2,0.2-0.4,0.4-0.4l0,0c0.2,0,0.4,0.2,0.4,0.4l0,0c0,0.2-0.2,0.4-0.4,0.4l0,0
			C145.1,83.9,145,83.7,145,83.5z M145,81.1c0-0.2,0.2-0.4,0.4-0.4l0,0c0.2,0,0.4,0.2,0.4,0.4l0,0c0,0.2-0.2,0.4-0.4,0.4l0,0
			C145.1,81.5,145,81.3,145,81.1z M145,78.7c0-0.2,0.2-0.4,0.4-0.4l0,0c0.2,0,0.4,0.2,0.4,0.4l0,0c0,0.2-0.2,0.4-0.4,0.4l0,0
			C145.1,79.1,145,79,145,78.7z M145,76.4c0-0.2,0.2-0.4,0.4-0.4l0,0c0.2,0,0.4,0.2,0.4,0.4l0,0c0,0.2-0.2,0.4-0.4,0.4l0,0
			C145.1,76.7,145,76.6,145,76.4z M145,74c0-0.2,0.2-0.4,0.4-0.4l0,0c0.2,0,0.4,0.2,0.4,0.4l0,0c0,0.2-0.2,0.4-0.4,0.4l0,0
			C145.1,74.4,145,74.2,145,74z M145,71.6c0-0.2,0.2-0.4,0.4-0.4l0,0c0.2,0,0.4,0.2,0.4,0.4l0,0c0,0.2-0.2,0.4-0.4,0.4l0,0
			C145.1,72,145,71.8,145,71.6z M145,69.2c0-0.2,0.2-0.4,0.4-0.4l0,0c0.2,0,0.4,0.2,0.4,0.4l0,0c0,0.2-0.2,0.4-0.4,0.4l0,0
			C145.1,69.6,145,69.5,145,69.2z M145,66.9c0-0.2,0.2-0.4,0.4-0.4l0,0c0.2,0,0.4,0.2,0.4,0.4l0,0c0,0.2-0.2,0.4-0.4,0.4l0,0
			C145.1,67.2,145,67.1,145,66.9z M145,64.5c0-0.2,0.2-0.4,0.4-0.4l0,0c0.2,0,0.4,0.2,0.4,0.4l0,0c0,0.2-0.2,0.4-0.4,0.4l0,0
			C145.1,64.9,145,64.7,145,64.5z M145,62.1c0-0.2,0.2-0.4,0.4-0.4l0,0c0.2,0,0.4,0.2,0.4,0.4l0,0c0,0.2-0.2,0.4-0.4,0.4l0,0
			C145.1,62.5,145,62.3,145,62.1z M145,59.7c0-0.2,0.2-0.4,0.4-0.4l0,0c0.2,0,0.4,0.2,0.4,0.4l0,0c0,0.2-0.2,0.4-0.4,0.4l0,0
			C145.1,60.1,145,60,145,59.7z M145,57.4c0-0.2,0.2-0.4,0.4-0.4l0,0c0.2,0,0.4,0.2,0.4,0.4l0,0c0,0.2-0.2,0.4-0.4,0.4l0,0
			C145.1,57.7,145,57.6,145,57.4z M145,55c0-0.2,0.2-0.4,0.4-0.4l0,0c0.2,0,0.4,0.2,0.4,0.4l0,0c0,0.2-0.2,0.4-0.4,0.4l0,0
			C145.1,55.4,145,55.2,145,55z M145,52.6c0-0.2,0.2-0.4,0.4-0.4l0,0c0.2,0,0.4,0.2,0.4,0.4l0,0c0,0.2-0.2,0.4-0.4,0.4l0,0
			C145.1,53,145,52.8,145,52.6z M145,50.2c0-0.2,0.2-0.4,0.4-0.4l0,0c0.2,0,0.4,0.2,0.4,0.4l0,0c0,0.2-0.2,0.4-0.4,0.4l0,0
			C145.1,50.6,145,50.5,145,50.2z M145,47.9c0-0.2,0.2-0.4,0.4-0.4l0,0c0.2,0,0.4,0.2,0.4,0.4l0,0c0,0.2-0.2,0.4-0.4,0.4l0,0
			C145.1,48.2,145,48.1,145,47.9z M145,45.5c0-0.2,0.2-0.4,0.4-0.4l0,0c0.2,0,0.4,0.2,0.4,0.4l0,0c0,0.2-0.2,0.4-0.4,0.4l0,0
			C145.1,45.9,145,45.7,145,45.5z M145,43.1c0-0.2,0.2-0.4,0.4-0.4l0,0c0.2,0,0.4,0.2,0.4,0.4l0,0c0,0.2-0.2,0.4-0.4,0.4l0,0
			C145.1,43.5,145,43.3,145,43.1z M145,40.7c0-0.2,0.2-0.4,0.4-0.4l0,0c0.2,0,0.4,0.2,0.4,0.4l0,0c0,0.2-0.2,0.4-0.4,0.4l0,0
			C145.1,41.1,145,41,145,40.7z M145,38.4c0-0.2,0.2-0.4,0.4-0.4l0,0c0.2,0,0.4,0.2,0.4,0.4l0,0c0,0.2-0.2,0.4-0.4,0.4l0,0
			C145.1,38.7,145,38.6,145,38.4z M145,36c0-0.2,0.2-0.4,0.4-0.4l0,0c0.2,0,0.4,0.2,0.4,0.4l0,0c0,0.2-0.2,0.4-0.4,0.4l0,0
			C145.1,36.4,145,36.2,145,36z M145,33.6c0-0.2,0.2-0.4,0.4-0.4l0,0c0.2,0,0.4,0.2,0.4,0.4l0,0c0,0.2-0.2,0.4-0.4,0.4l0,0
			C145.1,34,145,33.8,145,33.6z M145,31.2c0-0.2,0.2-0.4,0.4-0.4l0,0c0.2,0,0.4,0.2,0.4,0.4l0,0c0,0.2-0.2,0.4-0.4,0.4l0,0
			C145.1,31.6,145,31.5,145,31.2z M145,28.9c0-0.2,0.2-0.4,0.4-0.4l0,0c0.2,0,0.4,0.2,0.4,0.4l0,0c0,0.2-0.2,0.4-0.4,0.4l0,0
			C145.1,29.2,145,29.1,145,28.9z M145,26.5c0-0.2,0.2-0.4,0.4-0.4l0,0c0.2,0,0.4,0.2,0.4,0.4l0,0c0,0.2-0.2,0.4-0.4,0.4l0,0
			C145.1,26.9,145,26.7,145,26.5z M145,24.1c0-0.2,0.2-0.4,0.4-0.4l0,0c0.2,0,0.4,0.2,0.4,0.4l0,0c0,0.2-0.2,0.4-0.4,0.4l0,0
			C145.1,24.5,145,24.3,145,24.1z M145,21.7c0-0.2,0.2-0.4,0.4-0.4l0,0c0.2,0,0.4,0.2,0.4,0.4l0,0c0,0.2-0.2,0.4-0.4,0.4l0,0
			C145.1,22.1,145,22,145,21.7z M145,19.4c0-0.2,0.2-0.4,0.4-0.4l0,0c0.2,0,0.4,0.2,0.4,0.4l0,0c0,0.2-0.2,0.4-0.4,0.4l0,0
			C145.1,19.7,145,19.6,145,19.4z M145,17c0-0.2,0.2-0.4,0.4-0.4l0,0c0.2,0,0.4,0.2,0.4,0.4l0,0c0,0.2-0.2,0.4-0.4,0.4l0,0
			C145.1,17.4,145,17.2,145,17z M145,14.6c0-0.2,0.2-0.4,0.4-0.4l0,0c0.2,0,0.4,0.2,0.4,0.4l0,0c0,0.2-0.2,0.4-0.4,0.4l0,0
			C145.1,15,145,14.8,145,14.6z M145,12.2c0-0.2,0.2-0.4,0.4-0.4l0,0c0.2,0,0.4,0.2,0.4,0.4l0,0c0,0.2-0.2,0.4-0.4,0.4l0,0
			C145.1,12.6,145,12.5,145,12.2z"/>
	</g>
</g>
<g>
	<g>
		<g>
			<path d="M152.6,90.8h-2.3v-0.4l2.1-3h0.7v3h0.8v0.4h-0.8v1.3h-0.6V90.8z M152.6,90.4V88h0c0,0.1-0.2,0.3-0.2,0.3l-1.5,2.1H152.6z
				"/>
		</g>
		<g>
			<path d="M154.3,92.2l0.1-0.5c0.2,0,0.7,0.1,1.3,0.1c0.7,0,1.3-0.3,1.3-1c0-0.7-0.7-0.9-1.4-0.9c-0.6,0-0.9,0-0.9,0l0,0l0.1-2.5
				h2.7l0,0.5h-2.1l-0.1,1.5c0.1,0,0.5,0,0.6,0c1,0,1.8,0.3,1.8,1.3c0,1-0.8,1.5-1.9,1.5C155.2,92.3,154.8,92.2,154.3,92.2z"/>
		</g>
	</g>
	<g>
		<g>
			<path d="M150.1,73.3l0.1-0.5c0.2,0,0.7,0.1,1.3,0.1c0.7,0,1.3-0.3,1.3-1c0-0.7-0.7-0.9-1.4-0.9c-0.6,0-0.9,0-0.9,0l0,0l0.1-2.5
				h2.7l0,0.5H151l-0.1,1.5c0.1,0,0.5,0,0.6,0c1,0,1.8,0.3,1.8,1.3c0,1-0.8,1.5-1.9,1.5C151,73.4,150.6,73.4,150.1,73.3z"/>
		</g>
		<g>
			<path d="M153.9,71c0-1.3,0.5-2.5,1.8-2.5c1.3,0,1.8,1,1.8,2.3c0,1.4-0.4,2.6-1.8,2.6C154.3,73.4,153.9,72.2,153.9,71z
				 M156.8,70.9c0-1.1-0.2-1.9-1.1-1.9c-0.9,0-1.1,0.9-1.1,1.9c0,1.1,0.2,2.1,1.2,2.1C156.6,72.9,156.8,71.9,156.8,70.9z"/>
		</g>
	</g>
	<g>
		<g>
			<path d="M150.5,54.4l0.1-0.5c0.2,0,0.7,0.1,1.3,0.1c0.7,0,1.3-0.3,1.3-1c0-0.7-0.7-0.9-1.4-0.9c-0.6,0-0.9,0-0.9,0l0,0l0.1-2.5
				h2.7l0,0.5h-2.1l-0.1,1.5c0.1,0,0.5,0,0.6,0c1,0,1.8,0.3,1.8,1.3c0,1-0.8,1.5-1.9,1.5C151.4,54.5,151,54.5,150.5,54.4z"/>
		</g>
		<g>
			<path d="M154.3,54.4l0.1-0.5c0.2,0,0.7,0.1,1.3,0.1c0.7,0,1.3-0.3,1.3-1c0-0.7-0.7-0.9-1.4-0.9c-0.6,0-0.9,0-0.9,0l0,0l0.1-2.5
				h2.7l0,0.5h-2.1l-0.1,1.5c0.1,0,0.5,0,0.6,0c1,0,1.8,0.3,1.8,1.3c0,1-0.8,1.5-1.9,1.5C155.2,54.5,154.8,54.5,154.3,54.4z"/>
		</g>
	</g>
	<g>
		<g>
			<path d="M149.9,33.4c0-1.5,0.4-2.6,2.1-2.6c0.4,0,0.8,0,1,0.1l-0.1,0.5c-0.1,0-0.5-0.1-0.9-0.1c-1.1,0-1.4,0.8-1.4,1.8
				c0.2-0.1,0.6-0.4,1.2-0.4c1,0,1.5,0.5,1.5,1.4c0,1-0.7,1.6-1.7,1.6C150.4,35.7,149.9,34.6,149.9,33.4z M152.7,34c0-0.6-0.3-1-1-1
				c-0.6,0-1,0.3-1.1,0.4c0,0.6,0.1,1.8,1.1,1.8C152.5,35.2,152.7,34.7,152.7,34z"/>
		</g>
		<g>
			<path d="M153.9,33.2c0-1.3,0.5-2.5,1.8-2.5c1.3,0,1.8,1,1.8,2.3c0,1.4-0.4,2.6-1.8,2.6C154.3,35.7,153.9,34.5,153.9,33.2z
				 M156.8,33.1c0-1.1-0.2-1.9-1.1-1.9c-0.9,0-1.1,0.9-1.1,1.9c0,1.1,0.2,2.1,1.2,2.1C156.6,35.2,156.8,34.2,156.8,33.1z"/>
		</g>
	</g>
	<g>
		<g>
			<path d="M150.5,14.7c0-1.5,0.4-2.6,2.1-2.6c0.4,0,0.8,0,1,0.1l-0.1,0.5c-0.1,0-0.5-0.1-0.9-0.1c-1.1,0-1.4,0.8-1.4,1.8
				c0.2-0.1,0.6-0.4,1.2-0.4c1,0,1.5,0.5,1.5,1.4c0,1-0.7,1.6-1.7,1.6C151,17,150.5,15.9,150.5,14.7z M153.3,15.4c0-0.6-0.3-1-1-1
				c-0.6,0-1,0.3-1.1,0.4c0,0.6,0.1,1.8,1.1,1.8C153.1,16.5,153.3,16,153.3,15.4z"/>
		</g>
		<g>
			<path d="M154.5,16.9l0.1-0.5c0.2,0,0.7,0.1,1.3,0.1c0.7,0,1.3-0.3,1.3-1c0-0.7-0.7-0.9-1.4-0.9c-0.6,0-0.9,0-0.9,0l0,0l0.1-2.5
				h2.7l0,0.5h-2.1l-0.1,1.5c0.1,0,0.5,0,0.6,0c1,0,1.8,0.3,1.8,1.3c0,1-0.8,1.5-1.9,1.5C155.4,17,155,17,154.5,16.9z"/>
		</g>
	</g>
</g>
<g>
	<rect x="6.6" y="102.8" width="149" height="0.4"/>
</g>
<g>
	<rect x="6.6" y="83.9" class="st4" width="149" height="0.4"/>
</g>
<g>
	<rect x="6.6" y="65" class="st4" width="149" height="0.4"/>
</g>
<g>
	<rect x="6.6" y="46.1" class="st4" width="149" height="0.4"/>
</g>
<g>
	<rect x="6.6" y="27.4" class="st4" width="149" height="0.4"/>
</g>
<g>
	<rect x="6.6" y="8.4" width="149" height="0.4"/>
</g>
<g>
	<path class="st5" d="M6.5,84.7c-0.2,0-0.5-0.1-0.6-0.3c-0.2-0.3-0.1-0.7,0.3-0.9L20.1,76c0.3-0.2,0.7-0.1,0.9,0.3s0.1,0.7-0.3,0.9
		L6.8,84.7C6.7,84.7,6.6,84.7,6.5,84.7z"/>
</g>
<g>
	<path class="st5" d="M20.4,77.2c-0.2,0-0.4-0.1-0.5-0.2c-0.2-0.3-0.2-0.7,0.1-0.9l13.9-11.3c0.3-0.2,0.7-0.2,0.9,0.1
		c0.2,0.3,0.2,0.7-0.1,0.9L20.8,77C20.7,77.1,20.5,77.2,20.4,77.2z"/>
</g>
<g>
	<path class="st5" d="M48.1,65.9H34.3c-0.4,0-0.7-0.3-0.7-0.7s0.3-0.7,0.7-0.7h13.9c0.4,0,0.7,0.3,0.7,0.7S48.5,65.9,48.1,65.9z"/>
</g>
<g>
	<path class="st5" d="M48.1,65.9c-0.2,0-0.5-0.1-0.6-0.3c-0.2-0.3-0.1-0.7,0.3-0.9l13.9-7.5c0.3-0.2,0.7-0.1,0.9,0.3
		c0.2,0.3,0.1,0.7-0.3,0.9l-13.9,7.5C48.3,65.8,48.2,65.9,48.1,65.9z"/>
</g>
<g>
	<path class="st5" d="M62,58.3c-0.2,0-0.4-0.1-0.5-0.2c-0.2-0.3-0.2-0.7,0.1-0.9l13.9-11.3c0.3-0.2,0.7-0.2,0.9,0.1
		c0.2,0.3,0.2,0.7-0.1,0.9L62.4,58.2C62.3,58.3,62.2,58.3,62,58.3z"/>
</g>
<g>
	<path class="st5" d="M89.8,47H75.9c-0.4,0-0.7-0.3-0.7-0.7s0.3-0.7,0.7-0.7h13.9c0.4,0,0.7,0.3,0.7,0.7S90.1,47,89.8,47z"/>
</g>
<g>
	<path class="st5" d="M103.6,47H89.8c-0.4,0-0.7-0.3-0.7-0.7s0.3-0.7,0.7-0.7h13.9c0.4,0,0.7,0.3,0.7,0.7S104,47,103.6,47z"/>
</g>
<g>
	<path class="st5" d="M117.5,47h-13.9c-0.4,0-0.7-0.3-0.7-0.7s0.3-0.7,0.7-0.7h13.9c0.4,0,0.7,0.3,0.7,0.7S117.9,47,117.5,47z"/>
</g>
<g>
	<path class="st5" d="M131.4,28.1c-0.3,0-0.6-0.3-0.6-0.6c0-0.4,0.2-0.7,0.6-0.7l13.9-1.1c0.3,0,0.7,0.2,0.7,0.6s-0.2,0.7-0.6,0.7
		L131.4,28.1C131.4,28.1,131.4,28.1,131.4,28.1z"/>
</g>
<g>
	<path class="st6" d="M6.8,95.8c-0.2,0-0.4-0.1-0.5-0.2c-0.2-0.3-0.2-0.7,0.1-0.9l13-10.6l0.9-0.6l13.1-7.1l0.9-0.4c0,0,0.1,0,0.1,0
		l13-3.5l0.8-0.3l12.9-7l1-0.4c0.1,0,0.1,0,0.2,0h13l0.7-0.1l12.9-5.7l0.9-0.3c0.1,0,0.2,0,0.2,0l13,0.1l0.7-0.1l12.9-4.9
		c0.3-0.1,0.7,0,0.8,0.4c0.1,0.3,0,0.7-0.4,0.8l-13,5c0,0-0.1,0-0.2,0l-0.9,0.1l-13-0.1l-0.8,0.2l-12.9,5.7c-0.1,0-0.1,0-0.2,0
		l-0.9,0.1l-13,0l-0.8,0.3l-12.9,7l-1,0.4l-13,3.5l-0.8,0.4l-13,7.1l-0.8,0.6l-13,10.6C7.1,95.8,6.9,95.8,6.8,95.8z"/>
</g>
<g>
	<polygon class="st0" points="131.7,40.9 144.7,31.7 145.3,26.4 131.4,27.5 	"/>
</g>
<g>
	<path class="st6" d="M131.7,41.5c-0.2,0-0.4-0.1-0.5-0.3c-0.2-0.3-0.1-0.7,0.2-0.9l13-9.2c0.3-0.2,0.7-0.1,0.9,0.2
		c0.2,0.3,0.1,0.7-0.2,0.9l-13,9.2C131.9,41.5,131.8,41.5,131.7,41.5z"/>
</g>
<g>
	<path class="st5" d="M131.4,28.1c-0.3,0-0.6-0.3-0.6-0.6c0-0.4,0.2-0.7,0.6-0.7l13.9-1.1c0.3,0,0.7,0.2,0.7,0.6s-0.2,0.7-0.6,0.7
		L131.4,28.1C131.4,28.1,131.4,28.1,131.4,28.1z"/>
</g>
<g>
	<path class="st3" d="M118,104.4c-0.1,0-0.1,0-0.2-0.1c0,0-0.1-0.1-0.1-0.2c0-0.1,0-0.1,0.1-0.2c0.1-0.1,0.3-0.1,0.3,0
		c0.1,0,0.1,0.1,0.1,0.2s0,0.1-0.1,0.2C118.1,104.3,118.1,104.4,118,104.4z"/>
</g>
<g>
	<path class="st3" d="M113,104.4c-0.1,0-0.1,0-0.2-0.1c0,0-0.1-0.1-0.1-0.2c0,0,0-0.1,0-0.1c0,0,0-0.1,0.1-0.1c0,0,0,0,0.1-0.1
		c0.1,0,0.2,0,0.3,0.1c0,0,0.1,0.1,0.1,0.2s0,0.1-0.1,0.2C113.2,104.3,113.1,104.4,113,104.4z"/>
</g>
<g>
	<g>
		<path d="M145.5,107.5l-0.6,0.1l-0.1-0.4l1.1-0.3h0.1v4.8h-0.5V107.5z"/>
	</g>
	<g>
		<path d="M149.1,107.4h-2.2v-0.5h2.8v0.3l-1.9,4.4h-0.6L149.1,107.4z"/>
	</g>
</g>
<g>
	<g>
		<path d="M3.9,109.3c0-1.3,0.4-2.5,1.5-2.5c1.1,0,1.5,1,1.5,2.3c0,1.4-0.3,2.6-1.5,2.6C4.2,111.8,3.9,110.6,3.9,109.3z M6.3,109.2
			c0-1.1-0.2-1.9-0.9-1.9c-0.8,0-0.9,0.9-0.9,1.9c0,1.1,0.2,2.1,1,2.1C6.2,111.3,6.3,110.3,6.3,109.2z"/>
	</g>
	<g>
		<path d="M9.5,107.4H7.3v-0.5h2.8v0.3l-1.9,4.4H7.6L9.5,107.4z"/>
	</g>
</g>
<g>
	<g>
		<path d="M16,109.3c0-1.3,0.4-2.5,1.5-2.5c1.1,0,1.5,1,1.5,2.3c0,1.4-0.3,2.6-1.5,2.6C16.4,111.8,16,110.6,16,109.3z M18.5,109.2
			c0-1.1-0.2-1.9-0.9-1.9c-0.8,0-0.9,0.9-0.9,1.9c0,1.1,0.2,2.1,1,2.1C18.3,111.3,18.5,110.3,18.5,109.2z"/>
	</g>
	<g>
		<path d="M19.5,110.5c0-0.5,0.2-1,0.8-1.2c-0.5-0.2-0.7-0.6-0.7-1.2c0-0.9,0.7-1.2,1.4-1.2c0.7,0,1.4,0.3,1.4,1.2
			c0,0.6-0.3,1-0.8,1.2c0.6,0.1,0.8,0.6,0.9,1.2c0,1-0.7,1.3-1.5,1.3C20.2,111.8,19.5,111.4,19.5,110.5z M21.9,110.5
			c0-0.6-0.4-1-0.9-1c-0.5,0-0.9,0.3-0.9,1c0,0.6,0.4,0.9,0.9,0.9C21.5,111.3,21.9,111.1,21.9,110.5z M21.8,108.1
			c0-0.6-0.4-0.8-0.9-0.8c-0.5,0-0.8,0.2-0.8,0.8c0,0.4,0.2,0.9,0.8,0.9C21.4,109.1,21.8,108.7,21.8,108.1z"/>
	</g>
</g>
<g>
	<g>
		<path d="M30.8,109.3c0-1.3,0.4-2.5,1.5-2.5c1.1,0,1.5,1,1.5,2.3c0,1.4-0.3,2.6-1.5,2.6C31.2,111.8,30.8,110.6,30.8,109.3z
			 M33.3,109.2c0-1.1-0.2-1.9-0.9-1.9c-0.8,0-0.9,0.9-0.9,1.9c0,1.1,0.2,2.1,1,2.1C33.1,111.3,33.3,110.3,33.3,109.2z"/>
	</g>
	<g>
		<path d="M37.2,109.2c0,1.5-0.4,2.6-1.8,2.6c-0.3,0-0.7,0-0.9-0.1l0.1-0.5c0.1,0,0.4,0.1,0.8,0.1c1,0,1.2-0.8,1.2-1.7
			c-0.2,0.1-0.5,0.3-1.1,0.3c-0.8,0-1.3-0.5-1.3-1.4c0-1,0.6-1.6,1.4-1.6C36.9,106.9,37.2,108,37.2,109.2z M34.9,108.5
			c0,0.6,0.2,1,0.8,1c0.5,0,0.9-0.2,1-0.3c0-0.6-0.1-1.8-0.9-1.8C35,107.4,34.9,107.8,34.9,108.5z"/>
	</g>
</g>
<g>
	<g>
		<path d="M45.6,107.5l-0.6,0.1l-0.1-0.4l1.1-0.3h0.1v4.8h-0.5V107.5z"/>
	</g>
	<g>
		<path d="M47.1,109.3c0-1.3,0.4-2.5,1.5-2.5c1.1,0,1.5,1,1.5,2.3c0,1.4-0.3,2.6-1.5,2.6C47.4,111.8,47.1,110.6,47.1,109.3z
			 M49.5,109.2c0-1.1-0.2-1.9-0.9-1.9c-0.8,0-0.9,0.9-0.9,1.9c0,1.1,0.2,2.1,1,2.1C49.4,111.3,49.5,110.3,49.5,109.2z"/>
	</g>
</g>
<g>
	<g>
		<path d="M60.7,107.5l-0.6,0.1l-0.1-0.4l1.1-0.3h0.1v4.8h-0.5V107.5z"/>
	</g>
	<g>
		<path d="M62.9,107.5l-0.6,0.1l-0.1-0.4l1.1-0.3h0.1v4.8h-0.5V107.5z"/>
	</g>
</g>
<g>
	<g>
		<path d="M74,107.5l-0.6,0.1l-0.1-0.4l1.1-0.3h0.1v4.8H74V107.5z"/>
	</g>
	<g>
		<path d="M75.5,111.2l0.8-0.7c0.8-0.8,1.3-1.4,1.3-2.2c0-0.5-0.3-0.9-0.9-0.9c-0.4,0-0.9,0.1-1.1,0.2l-0.1-0.5
			c0.3-0.1,0.8-0.2,1.3-0.2c0.8,0,1.4,0.4,1.4,1.3c0,1.3-0.9,2-2,3v0h2v0.5h-2.6V111.2z"/>
	</g>
</g>
<g>
	<g>
		<path d="M88,107.5l-0.6,0.1l-0.1-0.4l1.1-0.3h0.1v4.8H88V107.5z"/>
	</g>
	<g>
		<path d="M89.5,111.6l0.1-0.5c0.2,0,0.6,0.1,1.1,0.1c0.6,0,1-0.2,1-0.9c0-0.6-0.4-0.8-0.9-0.8h-0.5V109h0.5c0.5,0,0.8-0.3,0.8-0.9
			c0-0.6-0.5-0.8-1-0.8c-0.2,0-0.6,0.1-0.8,0.1l-0.1-0.5c0.3-0.1,0.6-0.1,1-0.1c0.8,0,1.4,0.4,1.4,1.2c0,0.5-0.3,1-0.7,1.1v0
			c0.6,0.1,0.9,0.6,0.9,1.1c0,1-0.7,1.4-1.6,1.4C90.3,111.8,89.9,111.7,89.5,111.6z"/>
	</g>
</g>
<g>
	<g>
		<path d="M102.3,107.5l-0.6,0.1l-0.1-0.4l1.1-0.3h0.1v4.8h-0.5V107.5z"/>
	</g>
	<g>
		<path d="M105.5,110.3h-1.9v-0.4l1.8-3h0.6v3h0.7v0.4H106v1.3h-0.5V110.3z M105.5,109.9v-2.4h0c0,0.1-0.1,0.3-0.2,0.3l-1.3,2.1
			H105.5z"/>
	</g>
</g>
<g>
	<g>
		<path d="M116.4,107.5l-0.6,0.1l-0.1-0.4l1.1-0.3h0.1v4.8h-0.5V107.5z"/>
	</g>
	<g>
		<path d="M117.9,111.6l0.1-0.5c0.2,0,0.6,0.1,1.1,0.1c0.6,0,1.1-0.3,1.1-1c0-0.7-0.6-0.9-1.2-0.9c-0.5,0-0.7,0-0.8,0l0,0l0.1-2.5
			h2.3l0,0.5h-1.8l-0.1,1.5c0,0,0.4,0,0.5,0c0.8,0,1.5,0.3,1.5,1.3c0,1-0.7,1.5-1.6,1.5C118.7,111.8,118.3,111.7,117.9,111.6z"/>
	</g>
</g>
<g>
	<g>
		<path d="M130.9,107.5l-0.6,0.1l-0.1-0.4l1.1-0.3h0.1v4.8h-0.5V107.5z"/>
	</g>
	<g>
		<path d="M132.3,109.5c0-1.5,0.4-2.6,1.8-2.6c0.3,0,0.7,0,0.9,0.1l-0.1,0.5c-0.1,0-0.4-0.1-0.8-0.1c-0.9,0-1.2,0.8-1.2,1.8
			c0.2-0.1,0.5-0.4,1-0.4c0.8,0,1.3,0.5,1.3,1.4c0,1-0.6,1.6-1.4,1.6C132.7,111.8,132.3,110.7,132.3,109.5z M134.7,110.1
			c0-0.6-0.2-1-0.8-1c-0.5,0-0.9,0.3-1,0.4c0,0.6,0.1,1.8,0.9,1.8C134.5,111.3,134.7,110.8,134.7,110.1z"/>
	</g>
</g>
<g>
	<text transform="matrix(1 0 0 1 73.7049 15.8304)"><tspan x="0" y="0" class="st0 st7 st8">Change in survey </tspan><tspan x="8.3" y="5" class="st0 st7 st8">methodology </tspan><tspan x="9" y="10" class="st0 st7 st8">and question</tspan></text>
</g>
</svg>
