<svg xmlns="http://www.w3.org/2000/svg" viewBox="-11103.227 1346.941 936.754 368.147">
  <defs>
    <style>
      .cls-1 {
        opacity: 0.5;
      }

      .cls-2 {
        fill: #fff;
      }

      .cls-3 {
        fill: #333;
      }

      .cls-4 {
        fill: #fab844;
      }

      .cls-5 {
        fill: gray;
      }

      .cls-6 {
        fill: #e63312;
      }

      .cls-7 {
        fill: #0e8f40;
      }

      .cls-8 {
        fill: #e9e8de;
      }
    </style>
  </defs>
  <g id="Group_862" data-name="Group 862" transform="translate(-11597 -27)">
    <g id="Group_403" data-name="Group 403" transform="translate(493.773 1373.941)">
      <g id="Group_346" data-name="Group 346" class="cls-1" transform="translate(700.923 2.087)">
        <rect id="Rectangle_219" data-name="Rectangle 219" class="cls-2" width="81.393" height="333.503"/>
      </g>
      <g id="Group_349" data-name="Group 349" transform="translate(2.196 81.81)">
        <g id="Group_347" data-name="Group 347" transform="translate(0 53.01)">
          <path id="Path_315" data-name="Path 315" class="cls-3" d="M2.687,205.938,84.5,168.372l5.009-2.087L170.9,140.824l5.844-1.252,81.393-12.522,5.426-1.252,81.393-25.044,5.426-1.252h81.393l5.844-.417,81.393-20.453,5.426-.835,81.393.417,5.426-.417,81.393-17.531L696.406,32.3H435.531L348.712,72.788h0L261.892,99.5H174.656L87.837,139.989h0L.6,166.7Z" transform="translate(-0.6 -32.3)"/>
        </g>
        <g id="Group_348" data-name="Group 348" transform="translate(784.295)">
          <path id="Path_316" data-name="Path 316" class="cls-4" d="M188.5,53.409c0-.417,0-1.252.417-1.252h0a.8.8,0,0,1,1.252.417h0c0,.417,0,1.252-.417,1.252h-.417C188.917,54.244,188.5,53.827,188.5,53.409Zm3.757-1.67a.8.8,0,0,1,.417-1.252h0a.8.8,0,0,1,1.252.417h0c0,.417,0,1.252-.417,1.252h-.417C192.674,52.575,192.674,52.157,192.257,51.74Zm3.757-1.252c0-.417,0-1.252.417-1.252h0a.8.8,0,0,1,1.252.417h0c0,.417,0,1.252-.417,1.252h-.417A1.293,1.293,0,0,1,196.013,50.488Zm4.174-1.67a.8.8,0,0,1,.417-1.252h0a.8.8,0,0,1,1.252.417h0c0,.417,0,1.252-.417,1.252h-.417C200.6,49.653,200.187,49.235,200.187,48.818Zm3.757-1.67a.8.8,0,0,1,.417-1.252h0c.417,0,1.252,0,1.252.417h0c0,.417,0,1.252-.417,1.252h-.417C204.361,47.983,203.944,47.566,203.944,47.148ZM207.7,45.9c0-.417,0-1.252.417-1.252h0c.417,0,1.252,0,1.252.417h0c0,.417,0,1.252-.417,1.252h-.417C208.118,46.314,208.118,46.314,207.7,45.9Zm3.757-1.67c0-.417,0-1.252.417-1.252h0c.417,0,1.252,0,1.252.417h0a.8.8,0,0,1-.417,1.252h-.417A1.293,1.293,0,0,1,211.457,44.227Zm4.174-1.67a.8.8,0,0,1,.417-1.252h0c.417,0,1.252,0,1.252.417h0a.8.8,0,0,1-.417,1.252h-.417C216.048,43.392,215.631,42.974,215.631,42.557Zm3.757-1.67c0-.417,0-1.252.417-1.252h0c.417,0,1.252,0,1.252.417h0c0,.417,0,1.252-.417,1.252h-.417C219.8,41.722,219.388,41.3,219.388,40.887Zm3.757-1.252c0-.417,0-1.252.417-1.252h0c.417,0,1.252,0,1.252.417h0c0,.417,0,1.252-.417,1.252h-.417C223.562,40.053,223.562,40.053,223.144,39.635Zm3.757-1.67c0-.417,0-1.252.417-1.252h0c.417,0,1.252,0,1.252.417h0c0,.417,0,1.252-.417,1.252h-.417C227.736,38.8,227.318,38.383,226.9,37.966Zm4.174-1.67c0-.417,0-1.252.417-1.252h0a.8.8,0,0,1,1.252.417h0c0,.417,0,1.252-.417,1.252h-.417C231.492,37.131,231.075,36.713,231.075,36.3Zm3.757-1.252c0-.417,0-1.252.417-1.252h0c.417,0,1.252,0,1.252.417h0c0,.417,0,1.252-.417,1.252h-.417C235.249,35.461,234.831,35.461,234.831,35.044Zm3.757-1.67a.8.8,0,0,1,.417-1.252h0a.8.8,0,0,1,1.252.417h0a.8.8,0,0,1-.417,1.252h-.417C239.005,33.792,239.005,33.792,238.588,33.374Zm3.757-1.67a.8.8,0,0,1,.417-1.252h0c.417,0,1.252,0,1.252.417h0c0,.417,0,1.252-.417,1.252h-.417C243.179,32.539,242.762,32.122,242.345,31.7Zm4.174-1.67c0-.417,0-1.252.417-1.252h0c.417,0,1.252,0,1.252.417h0c0,.417,0,1.252-.417,1.252h-.417C246.936,30.87,246.519,30.452,246.519,30.035Zm3.757-1.252c0-.417,0-1.252.417-1.252h0c.417,0,1.252,0,1.252.417h0a.8.8,0,0,1-.417,1.252h-.417C250.693,29.2,250.275,29.2,250.275,28.783Zm3.757-1.67c0-.417,0-1.252.417-1.252h0c.417,0,1.252,0,1.252.417h0a.8.8,0,0,1-.417,1.252h-.417C254.449,27.948,254.449,27.531,254.032,27.113Zm3.757-1.67c0-.417,0-1.252.417-1.252h0c.417,0,1.252,0,1.252.417h0c0,.417,0,1.252-.417,1.252h-.417C258.623,26.278,258.206,25.861,257.788,25.444Zm4.174-1.252c0-.417,0-1.252.417-1.252h0c.417,0,1.252,0,1.252.417h0a.8.8,0,0,1-.417,1.252H262.8C262.38,24.609,261.962,24.609,261.962,24.191Zm3.757-1.67c0-.417,0-1.252.417-1.252h0c.417,0,1.252,0,1.252.417h0c0,.417,0,1.252-.417,1.252h-.417C266.136,22.939,265.719,22.939,265.719,22.522Zm3.757-1.67c0-.417,0-1.252.417-1.252h0c.417,0,1.252,0,1.252.835h0a.8.8,0,0,1-.417,1.252h-.417C269.893,21.687,269.893,21.27,269.476,20.852Z" transform="translate(-188.5 -19.6)"/>
        </g>
      </g>
      <g id="Group_361" data-name="Group 361" transform="translate(1.361 5.844)">
        <g id="Group_350" data-name="Group 350">
          <path id="Path_317" data-name="Path 317" class="cls-5" d="M.4,330.311a1.8,1.8,0,0,1,1.67-1.67h0a1.8,1.8,0,0,1,1.67,1.67h0a1.8,1.8,0,0,1-1.67,1.67h0C.817,331.563.4,331.146.4,330.311Zm0-10.018a1.8,1.8,0,0,1,1.67-1.67h0a1.8,1.8,0,0,1,1.67,1.67h0a1.8,1.8,0,0,1-1.67,1.67h0A1.529,1.529,0,0,1,.4,320.294Zm0-10.018a1.8,1.8,0,0,1,1.67-1.67h0a1.8,1.8,0,0,1,1.67,1.67h0a1.8,1.8,0,0,1-1.67,1.67h0A1.529,1.529,0,0,1,.4,310.276Zm0-10.018a1.8,1.8,0,0,1,1.67-1.67h0a1.8,1.8,0,0,1,1.67,1.67h0a1.8,1.8,0,0,1-1.67,1.67h0C.817,301.928.4,301.511.4,300.258Zm0-9.6a1.8,1.8,0,0,1,1.67-1.67h0a1.8,1.8,0,0,1,1.67,1.67h0c-.417.835-.835,1.252-1.67,1.252h0C.817,291.91.4,291.493.4,290.658Zm0-10.018a1.8,1.8,0,0,1,1.67-1.67h0a1.8,1.8,0,0,1,1.67,1.67h0a1.8,1.8,0,0,1-1.67,1.67h0A1.529,1.529,0,0,1,.4,280.641Zm0-10.018a1.8,1.8,0,0,1,1.67-1.67h0a1.8,1.8,0,0,1,1.67,1.67h0a1.8,1.8,0,0,1-1.67,1.67h0A1.529,1.529,0,0,1,.4,270.623Zm0-10.018a1.8,1.8,0,0,1,1.67-1.67h0a1.8,1.8,0,0,1,1.67,1.67h0a1.8,1.8,0,0,1-1.67,1.67h0C.817,262.275.4,261.858.4,260.605Zm0-9.6a1.8,1.8,0,0,1,1.67-1.67h0a1.8,1.8,0,0,1,1.67,1.67h0a1.8,1.8,0,0,1-1.67,1.67h0C.817,252.257.4,251.84.4,251.005Zm0-10.018a1.8,1.8,0,0,1,1.67-1.67h0a1.8,1.8,0,0,1,1.67,1.67h0a1.8,1.8,0,0,1-1.67,1.67h0A1.529,1.529,0,0,1,.4,240.988Zm0-10.018a1.8,1.8,0,0,1,1.67-1.67h0a1.8,1.8,0,0,1,1.67,1.67h0a1.8,1.8,0,0,1-1.67,1.67h0A1.529,1.529,0,0,1,.4,230.97Zm0-10.018a1.8,1.8,0,0,1,1.67-1.67h0a1.8,1.8,0,0,1,1.67,1.67h0a1.8,1.8,0,0,1-1.67,1.67h0C.817,222.622.4,222.2.4,220.952Zm0-9.6a1.8,1.8,0,0,1,1.67-1.67h0a1.8,1.8,0,0,1,1.67,1.67h0c-.417.835-.835,1.252-1.67,1.252h0C.817,212.6.4,212.187.4,211.352Zm0-10.018a1.8,1.8,0,0,1,1.67-1.67h0a1.8,1.8,0,0,1,1.67,1.67h0A1.8,1.8,0,0,1,2.07,203h0A1.529,1.529,0,0,1,.4,201.335Zm0-10.018a1.8,1.8,0,0,1,1.67-1.67h0a1.8,1.8,0,0,1,1.67,1.67h0a1.8,1.8,0,0,1-1.67,1.67h0A1.529,1.529,0,0,1,.4,191.317ZM.4,181.3a1.8,1.8,0,0,1,1.67-1.67h0a1.8,1.8,0,0,1,1.67,1.67h0a1.8,1.8,0,0,1-1.67,1.67h0C.817,182.969.4,182.552.4,181.3Zm0-9.6a1.8,1.8,0,0,1,1.67-1.67h0a1.8,1.8,0,0,1,1.67,1.67h0a1.8,1.8,0,0,1-1.67,1.67h0C.817,172.951.4,172.534.4,171.7Zm0-10.018a1.8,1.8,0,0,1,1.67-1.67h0a1.8,1.8,0,0,1,1.67,1.67h0a1.8,1.8,0,0,1-1.67,1.67h0A1.529,1.529,0,0,1,.4,161.682Zm0-10.018a1.8,1.8,0,0,1,1.67-1.67h0a1.8,1.8,0,0,1,1.67,1.67h0a1.8,1.8,0,0,1-1.67,1.67h0A1.529,1.529,0,0,1,.4,151.664Zm0-10.018a1.8,1.8,0,0,1,1.67-1.67h0a1.8,1.8,0,0,1,1.67,1.67h0a1.8,1.8,0,0,1-1.67,1.67h0C.817,143.316.4,142.9.4,141.646Zm0-9.6a1.8,1.8,0,0,1,1.67-1.67h0a1.8,1.8,0,0,1,1.67,1.67h0c-.417.835-.835,1.252-1.67,1.252h0C.817,133.3.4,132.881.4,132.046Zm0-10.018a1.8,1.8,0,0,1,1.67-1.67h0a1.8,1.8,0,0,1,1.67,1.67h0a1.8,1.8,0,0,1-1.67,1.67h0A1.529,1.529,0,0,1,.4,122.029Zm0-10.018a1.8,1.8,0,0,1,1.67-1.67h0a1.8,1.8,0,0,1,1.67,1.67h0a1.8,1.8,0,0,1-1.67,1.67h0A1.529,1.529,0,0,1,.4,112.011Zm0-10.018a1.8,1.8,0,0,1,1.67-1.67h0a1.8,1.8,0,0,1,1.67,1.67h0a1.8,1.8,0,0,1-1.67,1.67h0C.817,103.663.4,103.246.4,101.993Zm0-9.6a1.8,1.8,0,0,1,1.67-1.67h0a1.8,1.8,0,0,1,1.67,1.67h0a1.8,1.8,0,0,1-1.67,1.67h0C.817,93.645.4,93.228.4,92.393Zm0-10.018a1.8,1.8,0,0,1,1.67-1.67h0a1.8,1.8,0,0,1,1.67,1.67h0a1.8,1.8,0,0,1-1.67,1.67h0A1.529,1.529,0,0,1,.4,82.376Zm0-10.018a1.8,1.8,0,0,1,1.67-1.67h0a1.8,1.8,0,0,1,1.67,1.67h0a1.8,1.8,0,0,1-1.67,1.67h0A1.529,1.529,0,0,1,.4,72.358ZM.4,62.34a1.8,1.8,0,0,1,1.67-1.67h0a1.8,1.8,0,0,1,1.67,1.67h0a1.8,1.8,0,0,1-1.67,1.67h0C.817,64.01.4,63.593.4,62.34Zm0-9.6a1.8,1.8,0,0,1,1.67-1.67h0a1.8,1.8,0,0,1,1.67,1.67h0c-.417.835-.835,1.252-1.67,1.252h0C.817,53.992.4,53.575.4,52.74Zm0-10.018a1.8,1.8,0,0,1,1.67-1.67h0a1.8,1.8,0,0,1,1.67,1.67h0a1.8,1.8,0,0,1-1.67,1.67h0A1.529,1.529,0,0,1,.4,42.723ZM.4,32.7a1.8,1.8,0,0,1,1.67-1.67h0a1.8,1.8,0,0,1,1.67,1.67h0a1.8,1.8,0,0,1-1.67,1.67h0A1.529,1.529,0,0,1,.4,32.7Zm0-10.018a1.8,1.8,0,0,1,1.67-1.67h0a1.8,1.8,0,0,1,1.67,1.67h0a1.8,1.8,0,0,1-1.67,1.67h0C.817,24.357.4,23.94.4,22.687Zm0-9.6a1.8,1.8,0,0,1,1.67-1.67h0c.835,0,1.252.835,1.252,1.67h0a1.8,1.8,0,0,1-1.67,1.67h0C.817,14.339.4,13.922.4,13.087ZM.4,3.07A1.8,1.8,0,0,1,2.07,1.4h0a1.8,1.8,0,0,1,1.67,1.67h0c-.417.835-.835,1.67-1.67,1.67h0A1.529,1.529,0,0,1,.4,3.07Z" transform="translate(-0.4 -1.4)"/>
        </g>
        <g id="Group_351" data-name="Group 351" transform="translate(86.819)">
          <path id="Path_318" data-name="Path 318" class="cls-5" d="M21.2,330.311a1.8,1.8,0,0,1,1.67-1.67h0a1.8,1.8,0,0,1,1.67,1.67h0a1.8,1.8,0,0,1-1.67,1.67h0C22.035,331.563,21.2,331.146,21.2,330.311Zm0-10.018a1.8,1.8,0,0,1,1.67-1.67h0a1.8,1.8,0,0,1,1.67,1.67h0a1.8,1.8,0,0,1-1.67,1.67h0A1.8,1.8,0,0,1,21.2,320.294Zm0-10.018a1.8,1.8,0,0,1,1.67-1.67h0a1.8,1.8,0,0,1,1.67,1.67h0a1.8,1.8,0,0,1-1.67,1.67h0A1.8,1.8,0,0,1,21.2,310.276Zm0-10.018a1.8,1.8,0,0,1,1.67-1.67h0a1.8,1.8,0,0,1,1.67,1.67h0a1.8,1.8,0,0,1-1.67,1.67h0A1.529,1.529,0,0,1,21.2,300.258Zm0-9.6a1.8,1.8,0,0,1,1.67-1.67h0a1.8,1.8,0,0,1,1.67,1.67h0a1.8,1.8,0,0,1-1.67,1.67h0C22.035,291.91,21.2,291.493,21.2,290.658Zm0-10.018a1.8,1.8,0,0,1,1.67-1.67h0a1.8,1.8,0,0,1,1.67,1.67h0a1.8,1.8,0,0,1-1.67,1.67h0A1.8,1.8,0,0,1,21.2,280.641Zm0-10.018a1.8,1.8,0,0,1,1.67-1.67h0a1.8,1.8,0,0,1,1.67,1.67h0a1.8,1.8,0,0,1-1.67,1.67h0A1.8,1.8,0,0,1,21.2,270.623Zm0-10.018a1.8,1.8,0,0,1,1.67-1.67h0a1.8,1.8,0,0,1,1.67,1.67h0a1.8,1.8,0,0,1-1.67,1.67h0A1.529,1.529,0,0,1,21.2,260.605Zm0-9.6a1.8,1.8,0,0,1,1.67-1.67h0a1.8,1.8,0,0,1,1.67,1.67h0a1.8,1.8,0,0,1-1.67,1.67h0C22.035,252.257,21.2,251.84,21.2,251.005Zm0-10.018a1.8,1.8,0,0,1,1.67-1.67h0a1.8,1.8,0,0,1,1.67,1.67h0a1.8,1.8,0,0,1-1.67,1.67h0A1.8,1.8,0,0,1,21.2,240.988Zm0-10.018a1.8,1.8,0,0,1,1.67-1.67h0a1.8,1.8,0,0,1,1.67,1.67h0a1.8,1.8,0,0,1-1.67,1.67h0A1.8,1.8,0,0,1,21.2,230.97Zm0-10.018a1.8,1.8,0,0,1,1.67-1.67h0a1.8,1.8,0,0,1,1.67,1.67h0a1.8,1.8,0,0,1-1.67,1.67h0A1.529,1.529,0,0,1,21.2,220.952Zm0-9.6a1.8,1.8,0,0,1,1.67-1.67h0a1.8,1.8,0,0,1,1.67,1.67h0a1.8,1.8,0,0,1-1.67,1.67h0C22.035,212.6,21.2,212.187,21.2,211.352Zm0-10.018a1.8,1.8,0,0,1,1.67-1.67h0a1.8,1.8,0,0,1,1.67,1.67h0A1.8,1.8,0,0,1,22.87,203h0A1.8,1.8,0,0,1,21.2,201.335Zm0-10.018a1.8,1.8,0,0,1,1.67-1.67h0a1.8,1.8,0,0,1,1.67,1.67h0a1.8,1.8,0,0,1-1.67,1.67h0A1.8,1.8,0,0,1,21.2,191.317Zm0-10.018a1.8,1.8,0,0,1,1.67-1.67h0a1.8,1.8,0,0,1,1.67,1.67h0a1.8,1.8,0,0,1-1.67,1.67h0A1.529,1.529,0,0,1,21.2,181.3Zm0-9.6a1.8,1.8,0,0,1,1.67-1.67h0a1.8,1.8,0,0,1,1.67,1.67h0a1.8,1.8,0,0,1-1.67,1.67h0C22.035,172.951,21.2,172.534,21.2,171.7Zm0-10.018a1.8,1.8,0,0,1,1.67-1.67h0a1.8,1.8,0,0,1,1.67,1.67h0a1.8,1.8,0,0,1-1.67,1.67h0A1.8,1.8,0,0,1,21.2,161.682Zm0-10.018a1.8,1.8,0,0,1,1.67-1.67h0a1.8,1.8,0,0,1,1.67,1.67h0a1.8,1.8,0,0,1-1.67,1.67h0A1.8,1.8,0,0,1,21.2,151.664Zm0-10.018a1.8,1.8,0,0,1,1.67-1.67h0a1.8,1.8,0,0,1,1.67,1.67h0a1.8,1.8,0,0,1-1.67,1.67h0A1.529,1.529,0,0,1,21.2,141.646Zm0-9.6a1.8,1.8,0,0,1,1.67-1.67h0a1.8,1.8,0,0,1,1.67,1.67h0a1.8,1.8,0,0,1-1.67,1.67h0C22.035,133.3,21.2,132.881,21.2,132.046Zm0-10.018a1.8,1.8,0,0,1,1.67-1.67h0a1.8,1.8,0,0,1,1.67,1.67h0a1.8,1.8,0,0,1-1.67,1.67h0A1.8,1.8,0,0,1,21.2,122.029Zm0-10.018a1.8,1.8,0,0,1,1.67-1.67h0a1.8,1.8,0,0,1,1.67,1.67h0a1.8,1.8,0,0,1-1.67,1.67h0A1.8,1.8,0,0,1,21.2,112.011Zm0-10.018a1.8,1.8,0,0,1,1.67-1.67h0a1.8,1.8,0,0,1,1.67,1.67h0a1.8,1.8,0,0,1-1.67,1.67h0A1.529,1.529,0,0,1,21.2,101.993Zm0-9.6a1.8,1.8,0,0,1,1.67-1.67h0a1.8,1.8,0,0,1,1.67,1.67h0a1.8,1.8,0,0,1-1.67,1.67h0C22.035,93.645,21.2,93.228,21.2,92.393Zm0-10.018a1.8,1.8,0,0,1,1.67-1.67h0a1.8,1.8,0,0,1,1.67,1.67h0a1.8,1.8,0,0,1-1.67,1.67h0A1.8,1.8,0,0,1,21.2,82.376Zm0-10.018a1.8,1.8,0,0,1,1.67-1.67h0a1.8,1.8,0,0,1,1.67,1.67h0a1.8,1.8,0,0,1-1.67,1.67h0A1.8,1.8,0,0,1,21.2,72.358Zm0-10.018a1.8,1.8,0,0,1,1.67-1.67h0a1.8,1.8,0,0,1,1.67,1.67h0a1.8,1.8,0,0,1-1.67,1.67h0A1.529,1.529,0,0,1,21.2,62.34Zm0-9.6a1.8,1.8,0,0,1,1.67-1.67h0a1.8,1.8,0,0,1,1.67,1.67h0a1.8,1.8,0,0,1-1.67,1.67h0C22.035,53.992,21.2,53.575,21.2,52.74Zm0-10.018a1.8,1.8,0,0,1,1.67-1.67h0a1.8,1.8,0,0,1,1.67,1.67h0a1.8,1.8,0,0,1-1.67,1.67h0A1.8,1.8,0,0,1,21.2,42.723Zm0-10.018a1.8,1.8,0,0,1,1.67-1.67h0a1.8,1.8,0,0,1,1.67,1.67h0a1.8,1.8,0,0,1-1.67,1.67h0A1.8,1.8,0,0,1,21.2,32.7Zm0-10.018a1.8,1.8,0,0,1,1.67-1.67h0a1.8,1.8,0,0,1,1.67,1.67h0a1.8,1.8,0,0,1-1.67,1.67h0A1.529,1.529,0,0,1,21.2,22.687Zm0-9.6a1.8,1.8,0,0,1,1.67-1.67h0a1.8,1.8,0,0,1,1.67,1.67h0a1.8,1.8,0,0,1-1.67,1.67h0C22.035,14.339,21.2,13.922,21.2,13.087Zm0-10.018A1.8,1.8,0,0,1,22.87,1.4h0a1.8,1.8,0,0,1,1.67,1.67h0a1.8,1.8,0,0,1-1.67,1.67h0A1.8,1.8,0,0,1,21.2,3.07Z" transform="translate(-21.2 -1.4)"/>
        </g>
        <g id="Group_352" data-name="Group 352" transform="translate(173.638)">
          <path id="Path_319" data-name="Path 319" class="cls-5" d="M42,330.311a1.8,1.8,0,0,1,1.67-1.67h0a1.8,1.8,0,0,1,1.67,1.67h0a1.8,1.8,0,0,1-1.67,1.67h0C42.835,331.563,42,331.146,42,330.311Zm0-10.018a1.8,1.8,0,0,1,1.67-1.67h0a1.8,1.8,0,0,1,1.67,1.67h0a1.8,1.8,0,0,1-1.67,1.67h0A1.8,1.8,0,0,1,42,320.294Zm0-10.018a1.8,1.8,0,0,1,1.67-1.67h0a1.8,1.8,0,0,1,1.67,1.67h0a1.8,1.8,0,0,1-1.67,1.67h0A1.8,1.8,0,0,1,42,310.276Zm0-10.018a1.8,1.8,0,0,1,1.67-1.67h0a1.8,1.8,0,0,1,1.67,1.67h0a1.8,1.8,0,0,1-1.67,1.67h0A1.529,1.529,0,0,1,42,300.258Zm0-9.6a1.8,1.8,0,0,1,1.67-1.67h0a1.8,1.8,0,0,1,1.67,1.67h0a1.8,1.8,0,0,1-1.67,1.67h0C42.835,291.91,42,291.493,42,290.658Zm0-10.018a1.8,1.8,0,0,1,1.67-1.67h0a1.8,1.8,0,0,1,1.67,1.67h0a1.8,1.8,0,0,1-1.67,1.67h0A1.8,1.8,0,0,1,42,280.641Zm0-10.018a1.8,1.8,0,0,1,1.67-1.67h0a1.8,1.8,0,0,1,1.67,1.67h0a1.8,1.8,0,0,1-1.67,1.67h0A1.8,1.8,0,0,1,42,270.623Zm0-10.018a1.8,1.8,0,0,1,1.67-1.67h0a1.8,1.8,0,0,1,1.67,1.67h0a1.8,1.8,0,0,1-1.67,1.67h0A1.529,1.529,0,0,1,42,260.605Zm0-9.6a1.8,1.8,0,0,1,1.67-1.67h0a1.8,1.8,0,0,1,1.67,1.67h0a1.8,1.8,0,0,1-1.67,1.67h0C42.835,252.257,42,251.84,42,251.005Zm0-10.018a1.8,1.8,0,0,1,1.67-1.67h0a1.8,1.8,0,0,1,1.67,1.67h0a1.8,1.8,0,0,1-1.67,1.67h0A1.8,1.8,0,0,1,42,240.988Zm0-10.018a1.8,1.8,0,0,1,1.67-1.67h0a1.8,1.8,0,0,1,1.67,1.67h0a1.8,1.8,0,0,1-1.67,1.67h0A1.8,1.8,0,0,1,42,230.97Zm0-10.018a1.8,1.8,0,0,1,1.67-1.67h0a1.8,1.8,0,0,1,1.67,1.67h0a1.8,1.8,0,0,1-1.67,1.67h0A1.529,1.529,0,0,1,42,220.952Zm0-9.6a1.8,1.8,0,0,1,1.67-1.67h0a1.8,1.8,0,0,1,1.67,1.67h0a1.8,1.8,0,0,1-1.67,1.67h0C42.835,212.6,42,212.187,42,211.352Zm0-10.018a1.8,1.8,0,0,1,1.67-1.67h0a1.8,1.8,0,0,1,1.67,1.67h0A1.8,1.8,0,0,1,43.67,203h0A1.8,1.8,0,0,1,42,201.335Zm0-10.018a1.8,1.8,0,0,1,1.67-1.67h0a1.8,1.8,0,0,1,1.67,1.67h0a1.8,1.8,0,0,1-1.67,1.67h0A1.8,1.8,0,0,1,42,191.317ZM42,181.3a1.8,1.8,0,0,1,1.67-1.67h0a1.8,1.8,0,0,1,1.67,1.67h0a1.8,1.8,0,0,1-1.67,1.67h0A1.529,1.529,0,0,1,42,181.3Zm0-9.6a1.8,1.8,0,0,1,1.67-1.67h0a1.8,1.8,0,0,1,1.67,1.67h0a1.8,1.8,0,0,1-1.67,1.67h0C42.835,172.951,42,172.534,42,171.7Zm0-10.018a1.8,1.8,0,0,1,1.67-1.67h0a1.8,1.8,0,0,1,1.67,1.67h0a1.8,1.8,0,0,1-1.67,1.67h0A1.8,1.8,0,0,1,42,161.682Zm0-10.018a1.8,1.8,0,0,1,1.67-1.67h0a1.8,1.8,0,0,1,1.67,1.67h0a1.8,1.8,0,0,1-1.67,1.67h0A1.8,1.8,0,0,1,42,151.664Zm0-10.018a1.8,1.8,0,0,1,1.67-1.67h0a1.8,1.8,0,0,1,1.67,1.67h0a1.8,1.8,0,0,1-1.67,1.67h0A1.529,1.529,0,0,1,42,141.646Zm0-9.6a1.8,1.8,0,0,1,1.67-1.67h0a1.8,1.8,0,0,1,1.67,1.67h0a1.8,1.8,0,0,1-1.67,1.67h0C42.835,133.3,42,132.881,42,132.046Zm0-10.018a1.8,1.8,0,0,1,1.67-1.67h0a1.8,1.8,0,0,1,1.67,1.67h0a1.8,1.8,0,0,1-1.67,1.67h0A1.8,1.8,0,0,1,42,122.029Zm0-10.018a1.8,1.8,0,0,1,1.67-1.67h0a1.8,1.8,0,0,1,1.67,1.67h0a1.8,1.8,0,0,1-1.67,1.67h0A1.8,1.8,0,0,1,42,112.011Zm0-10.018a1.8,1.8,0,0,1,1.67-1.67h0a1.8,1.8,0,0,1,1.67,1.67h0a1.8,1.8,0,0,1-1.67,1.67h0A1.529,1.529,0,0,1,42,101.993Zm0-9.6a1.8,1.8,0,0,1,1.67-1.67h0a1.8,1.8,0,0,1,1.67,1.67h0a1.8,1.8,0,0,1-1.67,1.67h0C42.835,93.645,42,93.228,42,92.393Zm0-10.018a1.8,1.8,0,0,1,1.67-1.67h0a1.8,1.8,0,0,1,1.67,1.67h0a1.8,1.8,0,0,1-1.67,1.67h0A1.8,1.8,0,0,1,42,82.376Zm0-10.018a1.8,1.8,0,0,1,1.67-1.67h0a1.8,1.8,0,0,1,1.67,1.67h0a1.8,1.8,0,0,1-1.67,1.67h0A1.8,1.8,0,0,1,42,72.358ZM42,62.34a1.8,1.8,0,0,1,1.67-1.67h0a1.8,1.8,0,0,1,1.67,1.67h0a1.8,1.8,0,0,1-1.67,1.67h0A1.529,1.529,0,0,1,42,62.34Zm0-9.6a1.8,1.8,0,0,1,1.67-1.67h0a1.8,1.8,0,0,1,1.67,1.67h0a1.8,1.8,0,0,1-1.67,1.67h0C42.835,53.992,42,53.575,42,52.74Zm0-10.018a1.8,1.8,0,0,1,1.67-1.67h0a1.8,1.8,0,0,1,1.67,1.67h0a1.8,1.8,0,0,1-1.67,1.67h0A1.8,1.8,0,0,1,42,42.723ZM42,32.7a1.8,1.8,0,0,1,1.67-1.67h0a1.8,1.8,0,0,1,1.67,1.67h0a1.8,1.8,0,0,1-1.67,1.67h0A1.8,1.8,0,0,1,42,32.7Zm0-10.018a1.8,1.8,0,0,1,1.67-1.67h0a1.8,1.8,0,0,1,1.67,1.67h0a1.8,1.8,0,0,1-1.67,1.67h0A1.529,1.529,0,0,1,42,22.687Zm0-9.6a1.8,1.8,0,0,1,1.67-1.67h0a1.8,1.8,0,0,1,1.67,1.67h0a1.8,1.8,0,0,1-1.67,1.67h0C42.835,14.339,42,13.922,42,13.087ZM42,3.07A1.8,1.8,0,0,1,43.67,1.4h0a1.8,1.8,0,0,1,1.67,1.67h0a1.8,1.8,0,0,1-1.67,1.67h0A1.8,1.8,0,0,1,42,3.07Z" transform="translate(-42 -1.4)"/>
        </g>
        <g id="Group_353" data-name="Group 353" transform="translate(260.875)">
          <path id="Path_320" data-name="Path 320" class="cls-5" d="M62.9,330.311a1.8,1.8,0,0,1,1.67-1.67h0a1.8,1.8,0,0,1,1.67,1.67h0a1.8,1.8,0,0,1-1.67,1.67h0C63.317,331.563,62.9,331.146,62.9,330.311Zm0-10.018a1.8,1.8,0,0,1,1.67-1.67h0a1.8,1.8,0,0,1,1.67,1.67h0a1.8,1.8,0,0,1-1.67,1.67h0A1.529,1.529,0,0,1,62.9,320.294Zm0-10.018a1.8,1.8,0,0,1,1.67-1.67h0a1.8,1.8,0,0,1,1.67,1.67h0a1.8,1.8,0,0,1-1.67,1.67h0A1.529,1.529,0,0,1,62.9,310.276Zm0-10.018a1.8,1.8,0,0,1,1.67-1.67h0a1.8,1.8,0,0,1,1.67,1.67h0a1.8,1.8,0,0,1-1.67,1.67h0C63.317,301.928,62.9,301.511,62.9,300.258Zm0-9.6a1.8,1.8,0,0,1,1.67-1.67h0a1.8,1.8,0,0,1,1.67,1.67h0a1.8,1.8,0,0,1-1.67,1.67h0C63.317,291.91,62.9,291.493,62.9,290.658Zm0-10.018a1.8,1.8,0,0,1,1.67-1.67h0a1.8,1.8,0,0,1,1.67,1.67h0a1.8,1.8,0,0,1-1.67,1.67h0A1.529,1.529,0,0,1,62.9,280.641Zm0-10.018a1.8,1.8,0,0,1,1.67-1.67h0a1.8,1.8,0,0,1,1.67,1.67h0a1.8,1.8,0,0,1-1.67,1.67h0A1.529,1.529,0,0,1,62.9,270.623Zm0-10.018a1.8,1.8,0,0,1,1.67-1.67h0a1.8,1.8,0,0,1,1.67,1.67h0a1.8,1.8,0,0,1-1.67,1.67h0C63.317,262.275,62.9,261.858,62.9,260.605Zm0-9.6a1.8,1.8,0,0,1,1.67-1.67h0a1.8,1.8,0,0,1,1.67,1.67h0a1.8,1.8,0,0,1-1.67,1.67h0C63.317,252.257,62.9,251.84,62.9,251.005Zm0-10.018a1.8,1.8,0,0,1,1.67-1.67h0a1.8,1.8,0,0,1,1.67,1.67h0a1.8,1.8,0,0,1-1.67,1.67h0A1.529,1.529,0,0,1,62.9,240.988Zm0-10.018a1.8,1.8,0,0,1,1.67-1.67h0a1.8,1.8,0,0,1,1.67,1.67h0a1.8,1.8,0,0,1-1.67,1.67h0A1.529,1.529,0,0,1,62.9,230.97Zm0-10.018a1.8,1.8,0,0,1,1.67-1.67h0a1.8,1.8,0,0,1,1.67,1.67h0a1.8,1.8,0,0,1-1.67,1.67h0C63.317,222.622,62.9,222.2,62.9,220.952Zm0-9.6a1.8,1.8,0,0,1,1.67-1.67h0a1.8,1.8,0,0,1,1.67,1.67h0a1.8,1.8,0,0,1-1.67,1.67h0C63.317,212.6,62.9,212.187,62.9,211.352Zm0-10.018a1.8,1.8,0,0,1,1.67-1.67h0a1.8,1.8,0,0,1,1.67,1.67h0A1.8,1.8,0,0,1,64.57,203h0A1.529,1.529,0,0,1,62.9,201.335Zm0-10.018a1.8,1.8,0,0,1,1.67-1.67h0a1.8,1.8,0,0,1,1.67,1.67h0a1.8,1.8,0,0,1-1.67,1.67h0A1.529,1.529,0,0,1,62.9,191.317Zm0-10.018a1.8,1.8,0,0,1,1.67-1.67h0a1.8,1.8,0,0,1,1.67,1.67h0a1.8,1.8,0,0,1-1.67,1.67h0C63.317,182.969,62.9,182.552,62.9,181.3Zm0-9.6a1.8,1.8,0,0,1,1.67-1.67h0a1.8,1.8,0,0,1,1.67,1.67h0a1.8,1.8,0,0,1-1.67,1.67h0C63.317,172.951,62.9,172.534,62.9,171.7Zm0-10.018a1.8,1.8,0,0,1,1.67-1.67h0a1.8,1.8,0,0,1,1.67,1.67h0a1.8,1.8,0,0,1-1.67,1.67h0A1.529,1.529,0,0,1,62.9,161.682Zm0-10.018a1.8,1.8,0,0,1,1.67-1.67h0a1.8,1.8,0,0,1,1.67,1.67h0a1.8,1.8,0,0,1-1.67,1.67h0A1.529,1.529,0,0,1,62.9,151.664Zm0-10.018a1.8,1.8,0,0,1,1.67-1.67h0a1.8,1.8,0,0,1,1.67,1.67h0a1.8,1.8,0,0,1-1.67,1.67h0C63.317,143.316,62.9,142.9,62.9,141.646Zm0-9.6a1.8,1.8,0,0,1,1.67-1.67h0a1.8,1.8,0,0,1,1.67,1.67h0a1.8,1.8,0,0,1-1.67,1.67h0C63.317,133.3,62.9,132.881,62.9,132.046Zm0-10.018a1.8,1.8,0,0,1,1.67-1.67h0a1.8,1.8,0,0,1,1.67,1.67h0a1.8,1.8,0,0,1-1.67,1.67h0A1.529,1.529,0,0,1,62.9,122.029Zm0-10.018a1.8,1.8,0,0,1,1.67-1.67h0a1.8,1.8,0,0,1,1.67,1.67h0a1.8,1.8,0,0,1-1.67,1.67h0A1.529,1.529,0,0,1,62.9,112.011Zm0-10.018a1.8,1.8,0,0,1,1.67-1.67h0a1.8,1.8,0,0,1,1.67,1.67h0a1.8,1.8,0,0,1-1.67,1.67h0C63.317,103.663,62.9,103.246,62.9,101.993Zm0-9.6a1.8,1.8,0,0,1,1.67-1.67h0a1.8,1.8,0,0,1,1.67,1.67h0a1.8,1.8,0,0,1-1.67,1.67h0C63.317,93.645,62.9,93.228,62.9,92.393Zm0-10.018a1.8,1.8,0,0,1,1.67-1.67h0a1.8,1.8,0,0,1,1.67,1.67h0a1.8,1.8,0,0,1-1.67,1.67h0A1.529,1.529,0,0,1,62.9,82.376Zm0-10.018a1.8,1.8,0,0,1,1.67-1.67h0a1.8,1.8,0,0,1,1.67,1.67h0a1.8,1.8,0,0,1-1.67,1.67h0A1.529,1.529,0,0,1,62.9,72.358Zm0-10.018a1.8,1.8,0,0,1,1.67-1.67h0a1.8,1.8,0,0,1,1.67,1.67h0a1.8,1.8,0,0,1-1.67,1.67h0C63.317,64.01,62.9,63.593,62.9,62.34Zm0-9.6a1.8,1.8,0,0,1,1.67-1.67h0a1.8,1.8,0,0,1,1.67,1.67h0a1.8,1.8,0,0,1-1.67,1.67h0C63.317,53.992,62.9,53.575,62.9,52.74Zm0-10.018a1.8,1.8,0,0,1,1.67-1.67h0a1.8,1.8,0,0,1,1.67,1.67h0a1.8,1.8,0,0,1-1.67,1.67h0A1.529,1.529,0,0,1,62.9,42.723Zm0-10.018a1.8,1.8,0,0,1,1.67-1.67h0a1.8,1.8,0,0,1,1.67,1.67h0a1.8,1.8,0,0,1-1.67,1.67h0A1.529,1.529,0,0,1,62.9,32.7Zm0-10.018a1.8,1.8,0,0,1,1.67-1.67h0a1.8,1.8,0,0,1,1.67,1.67h0a1.8,1.8,0,0,1-1.67,1.67h0C63.317,24.357,62.9,23.94,62.9,22.687Zm0-9.6a1.8,1.8,0,0,1,1.67-1.67h0a1.8,1.8,0,0,1,1.67,1.67h0a1.8,1.8,0,0,1-1.67,1.67h0C63.317,14.339,62.9,13.922,62.9,13.087Zm0-10.018A1.8,1.8,0,0,1,64.57,1.4h0a1.8,1.8,0,0,1,1.67,1.67h0a1.8,1.8,0,0,1-1.67,1.67h0A1.529,1.529,0,0,1,62.9,3.07Z" transform="translate(-62.9 -1.4)"/>
        </g>
        <g id="Group_354" data-name="Group 354" transform="translate(347.694)">
          <path id="Path_321" data-name="Path 321" class="cls-5" d="M83.7,330.311a1.8,1.8,0,0,1,1.67-1.67h0a1.8,1.8,0,0,1,1.67,1.67h0a1.8,1.8,0,0,1-1.67,1.67h0C84.535,331.563,83.7,331.146,83.7,330.311Zm0-10.018a1.8,1.8,0,0,1,1.67-1.67h0a1.8,1.8,0,0,1,1.67,1.67h0a1.8,1.8,0,0,1-1.67,1.67h0A1.8,1.8,0,0,1,83.7,320.294Zm0-10.018a1.8,1.8,0,0,1,1.67-1.67h0a1.8,1.8,0,0,1,1.67,1.67h0a1.8,1.8,0,0,1-1.67,1.67h0A1.8,1.8,0,0,1,83.7,310.276Zm0-10.018a1.8,1.8,0,0,1,1.67-1.67h0a1.8,1.8,0,0,1,1.67,1.67h0a1.8,1.8,0,0,1-1.67,1.67h0A1.529,1.529,0,0,1,83.7,300.258Zm0-9.6a1.8,1.8,0,0,1,1.67-1.67h0a1.8,1.8,0,0,1,1.67,1.67h0a1.8,1.8,0,0,1-1.67,1.67h0C84.535,291.91,83.7,291.493,83.7,290.658Zm0-10.018a1.8,1.8,0,0,1,1.67-1.67h0a1.8,1.8,0,0,1,1.67,1.67h0a1.8,1.8,0,0,1-1.67,1.67h0A1.8,1.8,0,0,1,83.7,280.641Zm0-10.018a1.8,1.8,0,0,1,1.67-1.67h0a1.8,1.8,0,0,1,1.67,1.67h0a1.8,1.8,0,0,1-1.67,1.67h0A1.8,1.8,0,0,1,83.7,270.623Zm0-10.018a1.8,1.8,0,0,1,1.67-1.67h0a1.8,1.8,0,0,1,1.67,1.67h0a1.8,1.8,0,0,1-1.67,1.67h0A1.529,1.529,0,0,1,83.7,260.605Zm0-9.6a1.8,1.8,0,0,1,1.67-1.67h0a1.8,1.8,0,0,1,1.67,1.67h0a1.8,1.8,0,0,1-1.67,1.67h0C84.535,252.257,83.7,251.84,83.7,251.005Zm0-10.018a1.8,1.8,0,0,1,1.67-1.67h0a1.8,1.8,0,0,1,1.67,1.67h0a1.8,1.8,0,0,1-1.67,1.67h0A1.8,1.8,0,0,1,83.7,240.988Zm0-10.018a1.8,1.8,0,0,1,1.67-1.67h0a1.8,1.8,0,0,1,1.67,1.67h0a1.8,1.8,0,0,1-1.67,1.67h0A1.8,1.8,0,0,1,83.7,230.97Zm0-10.018a1.8,1.8,0,0,1,1.67-1.67h0a1.8,1.8,0,0,1,1.67,1.67h0a1.8,1.8,0,0,1-1.67,1.67h0A1.529,1.529,0,0,1,83.7,220.952Zm0-9.6a1.8,1.8,0,0,1,1.67-1.67h0a1.8,1.8,0,0,1,1.67,1.67h0a1.8,1.8,0,0,1-1.67,1.67h0C84.535,212.6,83.7,212.187,83.7,211.352Zm0-10.018a1.8,1.8,0,0,1,1.67-1.67h0a1.8,1.8,0,0,1,1.67,1.67h0A1.8,1.8,0,0,1,85.37,203h0A1.8,1.8,0,0,1,83.7,201.335Zm0-10.018a1.8,1.8,0,0,1,1.67-1.67h0a1.8,1.8,0,0,1,1.67,1.67h0a1.8,1.8,0,0,1-1.67,1.67h0A1.8,1.8,0,0,1,83.7,191.317Zm0-10.018a1.8,1.8,0,0,1,1.67-1.67h0a1.8,1.8,0,0,1,1.67,1.67h0a1.8,1.8,0,0,1-1.67,1.67h0A1.529,1.529,0,0,1,83.7,181.3Zm0-9.6a1.8,1.8,0,0,1,1.67-1.67h0a1.8,1.8,0,0,1,1.67,1.67h0a1.8,1.8,0,0,1-1.67,1.67h0C84.535,172.951,83.7,172.534,83.7,171.7Zm0-10.018a1.8,1.8,0,0,1,1.67-1.67h0a1.8,1.8,0,0,1,1.67,1.67h0a1.8,1.8,0,0,1-1.67,1.67h0A1.8,1.8,0,0,1,83.7,161.682Zm0-10.018a1.8,1.8,0,0,1,1.67-1.67h0a1.8,1.8,0,0,1,1.67,1.67h0a1.8,1.8,0,0,1-1.67,1.67h0A1.8,1.8,0,0,1,83.7,151.664Zm0-10.018a1.8,1.8,0,0,1,1.67-1.67h0a1.8,1.8,0,0,1,1.67,1.67h0a1.8,1.8,0,0,1-1.67,1.67h0A1.529,1.529,0,0,1,83.7,141.646Zm0-9.6a1.8,1.8,0,0,1,1.67-1.67h0a1.8,1.8,0,0,1,1.67,1.67h0a1.8,1.8,0,0,1-1.67,1.67h0C84.535,133.3,83.7,132.881,83.7,132.046Zm0-10.018a1.8,1.8,0,0,1,1.67-1.67h0a1.8,1.8,0,0,1,1.67,1.67h0a1.8,1.8,0,0,1-1.67,1.67h0A1.8,1.8,0,0,1,83.7,122.029Zm0-10.018a1.8,1.8,0,0,1,1.67-1.67h0a1.8,1.8,0,0,1,1.67,1.67h0a1.8,1.8,0,0,1-1.67,1.67h0A1.8,1.8,0,0,1,83.7,112.011Zm0-10.018a1.8,1.8,0,0,1,1.67-1.67h0a1.8,1.8,0,0,1,1.67,1.67h0a1.8,1.8,0,0,1-1.67,1.67h0A1.529,1.529,0,0,1,83.7,101.993Zm0-9.6a1.8,1.8,0,0,1,1.67-1.67h0a1.8,1.8,0,0,1,1.67,1.67h0a1.8,1.8,0,0,1-1.67,1.67h0C84.535,93.645,83.7,93.228,83.7,92.393Zm0-10.018a1.8,1.8,0,0,1,1.67-1.67h0a1.8,1.8,0,0,1,1.67,1.67h0a1.8,1.8,0,0,1-1.67,1.67h0A1.8,1.8,0,0,1,83.7,82.376Zm0-10.018a1.8,1.8,0,0,1,1.67-1.67h0a1.8,1.8,0,0,1,1.67,1.67h0a1.8,1.8,0,0,1-1.67,1.67h0A1.8,1.8,0,0,1,83.7,72.358Zm0-10.018a1.8,1.8,0,0,1,1.67-1.67h0a1.8,1.8,0,0,1,1.67,1.67h0a1.8,1.8,0,0,1-1.67,1.67h0A1.529,1.529,0,0,1,83.7,62.34Zm0-9.6a1.8,1.8,0,0,1,1.67-1.67h0a1.8,1.8,0,0,1,1.67,1.67h0a1.8,1.8,0,0,1-1.67,1.67h0C84.535,53.992,83.7,53.575,83.7,52.74Zm0-10.018a1.8,1.8,0,0,1,1.67-1.67h0a1.8,1.8,0,0,1,1.67,1.67h0a1.8,1.8,0,0,1-1.67,1.67h0A1.8,1.8,0,0,1,83.7,42.723Zm0-10.018a1.8,1.8,0,0,1,1.67-1.67h0a1.8,1.8,0,0,1,1.67,1.67h0a1.8,1.8,0,0,1-1.67,1.67h0A1.8,1.8,0,0,1,83.7,32.7Zm0-10.018a1.8,1.8,0,0,1,1.67-1.67h0a1.8,1.8,0,0,1,1.67,1.67h0a1.8,1.8,0,0,1-1.67,1.67h0A1.529,1.529,0,0,1,83.7,22.687Zm0-9.6a1.8,1.8,0,0,1,1.67-1.67h0a1.8,1.8,0,0,1,1.67,1.67h0a1.8,1.8,0,0,1-1.67,1.67h0C84.535,14.339,83.7,13.922,83.7,13.087Zm0-10.018A1.8,1.8,0,0,1,85.37,1.4h0a1.8,1.8,0,0,1,1.67,1.67h0a1.8,1.8,0,0,1-1.67,1.67h0A1.8,1.8,0,0,1,83.7,3.07Z" transform="translate(-83.7 -1.4)"/>
        </g>
        <g id="Group_355" data-name="Group 355" transform="translate(434.513)">
          <path id="Path_322" data-name="Path 322" class="cls-5" d="M104.5,330.311a1.8,1.8,0,0,1,1.67-1.67h0a1.8,1.8,0,0,1,1.67,1.67h0a1.8,1.8,0,0,1-1.67,1.67h0C105.335,331.563,104.5,331.146,104.5,330.311Zm0-10.018a1.8,1.8,0,0,1,1.67-1.67h0a1.8,1.8,0,0,1,1.67,1.67h0a1.8,1.8,0,0,1-1.67,1.67h0A1.8,1.8,0,0,1,104.5,320.294Zm0-10.018a1.8,1.8,0,0,1,1.67-1.67h0a1.8,1.8,0,0,1,1.67,1.67h0a1.8,1.8,0,0,1-1.67,1.67h0A1.8,1.8,0,0,1,104.5,310.276Zm0-10.018a1.8,1.8,0,0,1,1.67-1.67h0a1.8,1.8,0,0,1,1.67,1.67h0a1.8,1.8,0,0,1-1.67,1.67h0A1.529,1.529,0,0,1,104.5,300.258Zm0-9.6a1.8,1.8,0,0,1,1.67-1.67h0a1.8,1.8,0,0,1,1.67,1.67h0a1.8,1.8,0,0,1-1.67,1.67h0C105.335,291.91,104.5,291.493,104.5,290.658Zm0-10.018a1.8,1.8,0,0,1,1.67-1.67h0a1.8,1.8,0,0,1,1.67,1.67h0a1.8,1.8,0,0,1-1.67,1.67h0A1.8,1.8,0,0,1,104.5,280.641Zm0-10.018a1.8,1.8,0,0,1,1.67-1.67h0a1.8,1.8,0,0,1,1.67,1.67h0a1.8,1.8,0,0,1-1.67,1.67h0A1.8,1.8,0,0,1,104.5,270.623Zm0-10.018a1.8,1.8,0,0,1,1.67-1.67h0a1.8,1.8,0,0,1,1.67,1.67h0a1.8,1.8,0,0,1-1.67,1.67h0A1.529,1.529,0,0,1,104.5,260.605Zm0-9.6a1.8,1.8,0,0,1,1.67-1.67h0a1.8,1.8,0,0,1,1.67,1.67h0a1.8,1.8,0,0,1-1.67,1.67h0C105.335,252.257,104.5,251.84,104.5,251.005Zm0-10.018a1.8,1.8,0,0,1,1.67-1.67h0a1.8,1.8,0,0,1,1.67,1.67h0a1.8,1.8,0,0,1-1.67,1.67h0A1.8,1.8,0,0,1,104.5,240.988Zm0-10.018a1.8,1.8,0,0,1,1.67-1.67h0a1.8,1.8,0,0,1,1.67,1.67h0a1.8,1.8,0,0,1-1.67,1.67h0A1.8,1.8,0,0,1,104.5,230.97Zm0-10.018a1.8,1.8,0,0,1,1.67-1.67h0a1.8,1.8,0,0,1,1.67,1.67h0a1.8,1.8,0,0,1-1.67,1.67h0A1.529,1.529,0,0,1,104.5,220.952Zm0-9.6a1.8,1.8,0,0,1,1.67-1.67h0a1.8,1.8,0,0,1,1.67,1.67h0a1.8,1.8,0,0,1-1.67,1.67h0C105.335,212.6,104.5,212.187,104.5,211.352Zm0-10.018a1.8,1.8,0,0,1,1.67-1.67h0a1.8,1.8,0,0,1,1.67,1.67h0a1.8,1.8,0,0,1-1.67,1.67h0A1.8,1.8,0,0,1,104.5,201.335Zm0-10.018a1.8,1.8,0,0,1,1.67-1.67h0a1.8,1.8,0,0,1,1.67,1.67h0a1.8,1.8,0,0,1-1.67,1.67h0A1.8,1.8,0,0,1,104.5,191.317Zm0-10.018a1.8,1.8,0,0,1,1.67-1.67h0a1.8,1.8,0,0,1,1.67,1.67h0a1.8,1.8,0,0,1-1.67,1.67h0A1.529,1.529,0,0,1,104.5,181.3Zm0-9.6a1.8,1.8,0,0,1,1.67-1.67h0a1.8,1.8,0,0,1,1.67,1.67h0a1.8,1.8,0,0,1-1.67,1.67h0C105.335,172.951,104.5,172.534,104.5,171.7Zm0-10.018a1.8,1.8,0,0,1,1.67-1.67h0a1.8,1.8,0,0,1,1.67,1.67h0a1.8,1.8,0,0,1-1.67,1.67h0A1.8,1.8,0,0,1,104.5,161.682Zm0-10.018a1.8,1.8,0,0,1,1.67-1.67h0a1.8,1.8,0,0,1,1.67,1.67h0a1.8,1.8,0,0,1-1.67,1.67h0A1.8,1.8,0,0,1,104.5,151.664Zm0-10.018a1.8,1.8,0,0,1,1.67-1.67h0a1.8,1.8,0,0,1,1.67,1.67h0a1.8,1.8,0,0,1-1.67,1.67h0A1.529,1.529,0,0,1,104.5,141.646Zm0-9.6a1.8,1.8,0,0,1,1.67-1.67h0a1.8,1.8,0,0,1,1.67,1.67h0a1.8,1.8,0,0,1-1.67,1.67h0C105.335,133.3,104.5,132.881,104.5,132.046Zm0-10.018a1.8,1.8,0,0,1,1.67-1.67h0a1.8,1.8,0,0,1,1.67,1.67h0a1.8,1.8,0,0,1-1.67,1.67h0A1.8,1.8,0,0,1,104.5,122.029Zm0-10.018a1.8,1.8,0,0,1,1.67-1.67h0a1.8,1.8,0,0,1,1.67,1.67h0a1.8,1.8,0,0,1-1.67,1.67h0A1.8,1.8,0,0,1,104.5,112.011Zm0-10.018a1.8,1.8,0,0,1,1.67-1.67h0a1.8,1.8,0,0,1,1.67,1.67h0a1.8,1.8,0,0,1-1.67,1.67h0A1.529,1.529,0,0,1,104.5,101.993Zm0-9.6a1.8,1.8,0,0,1,1.67-1.67h0a1.8,1.8,0,0,1,1.67,1.67h0a1.8,1.8,0,0,1-1.67,1.67h0C105.335,93.645,104.5,93.228,104.5,92.393Zm0-10.018a1.8,1.8,0,0,1,1.67-1.67h0a1.8,1.8,0,0,1,1.67,1.67h0a1.8,1.8,0,0,1-1.67,1.67h0A1.8,1.8,0,0,1,104.5,82.376Zm0-10.018a1.8,1.8,0,0,1,1.67-1.67h0a1.8,1.8,0,0,1,1.67,1.67h0a1.8,1.8,0,0,1-1.67,1.67h0A1.8,1.8,0,0,1,104.5,72.358Zm0-10.018a1.8,1.8,0,0,1,1.67-1.67h0a1.8,1.8,0,0,1,1.67,1.67h0a1.8,1.8,0,0,1-1.67,1.67h0A1.529,1.529,0,0,1,104.5,62.34Zm0-9.6a1.8,1.8,0,0,1,1.67-1.67h0a1.8,1.8,0,0,1,1.67,1.67h0a1.8,1.8,0,0,1-1.67,1.67h0C105.335,53.992,104.5,53.575,104.5,52.74Zm0-10.018a1.8,1.8,0,0,1,1.67-1.67h0a1.8,1.8,0,0,1,1.67,1.67h0a1.8,1.8,0,0,1-1.67,1.67h0A1.8,1.8,0,0,1,104.5,42.723Zm0-10.018a1.8,1.8,0,0,1,1.67-1.67h0a1.8,1.8,0,0,1,1.67,1.67h0a1.8,1.8,0,0,1-1.67,1.67h0A1.8,1.8,0,0,1,104.5,32.7Zm0-10.018a1.8,1.8,0,0,1,1.67-1.67h0a1.8,1.8,0,0,1,1.67,1.67h0a1.8,1.8,0,0,1-1.67,1.67h0A1.529,1.529,0,0,1,104.5,22.687Zm0-9.6a1.8,1.8,0,0,1,1.67-1.67h0a1.8,1.8,0,0,1,1.67,1.67h0a1.8,1.8,0,0,1-1.67,1.67h0C105.335,14.339,104.5,13.922,104.5,13.087Zm0-10.018a1.8,1.8,0,0,1,1.67-1.67h0a1.8,1.8,0,0,1,1.67,1.67h0a1.8,1.8,0,0,1-1.67,1.67h0A1.8,1.8,0,0,1,104.5,3.07Z" transform="translate(-104.5 -1.4)"/>
        </g>
        <g id="Group_356" data-name="Group 356" transform="translate(521.75)">
          <path id="Path_323" data-name="Path 323" class="cls-5" d="M125.4,330.311a1.8,1.8,0,0,1,1.67-1.67h0a1.8,1.8,0,0,1,1.67,1.67h0a1.8,1.8,0,0,1-1.67,1.67h0C125.817,331.563,125.4,331.146,125.4,330.311Zm0-10.018a1.8,1.8,0,0,1,1.67-1.67h0a1.8,1.8,0,0,1,1.67,1.67h0a1.8,1.8,0,0,1-1.67,1.67h0A1.529,1.529,0,0,1,125.4,320.294Zm0-10.018a1.8,1.8,0,0,1,1.67-1.67h0a1.8,1.8,0,0,1,1.67,1.67h0a1.8,1.8,0,0,1-1.67,1.67h0A1.529,1.529,0,0,1,125.4,310.276Zm0-10.018a1.8,1.8,0,0,1,1.67-1.67h0a1.8,1.8,0,0,1,1.67,1.67h0a1.8,1.8,0,0,1-1.67,1.67h0C125.817,301.928,125.4,301.511,125.4,300.258Zm0-9.6a1.8,1.8,0,0,1,1.67-1.67h0a1.8,1.8,0,0,1,1.67,1.67h0a1.8,1.8,0,0,1-1.67,1.67h0C125.817,291.91,125.4,291.493,125.4,290.658Zm0-10.018a1.8,1.8,0,0,1,1.67-1.67h0a1.8,1.8,0,0,1,1.67,1.67h0a1.8,1.8,0,0,1-1.67,1.67h0A1.529,1.529,0,0,1,125.4,280.641Zm0-10.018a1.8,1.8,0,0,1,1.67-1.67h0a1.8,1.8,0,0,1,1.67,1.67h0a1.8,1.8,0,0,1-1.67,1.67h0A1.529,1.529,0,0,1,125.4,270.623Zm0-10.018a1.8,1.8,0,0,1,1.67-1.67h0a1.8,1.8,0,0,1,1.67,1.67h0a1.8,1.8,0,0,1-1.67,1.67h0C125.817,262.275,125.4,261.858,125.4,260.605Zm0-9.6a1.8,1.8,0,0,1,1.67-1.67h0a1.8,1.8,0,0,1,1.67,1.67h0a1.8,1.8,0,0,1-1.67,1.67h0C125.817,252.257,125.4,251.84,125.4,251.005Zm0-10.018a1.8,1.8,0,0,1,1.67-1.67h0a1.8,1.8,0,0,1,1.67,1.67h0a1.8,1.8,0,0,1-1.67,1.67h0A1.529,1.529,0,0,1,125.4,240.988Zm0-10.018a1.8,1.8,0,0,1,1.67-1.67h0a1.8,1.8,0,0,1,1.67,1.67h0a1.8,1.8,0,0,1-1.67,1.67h0A1.529,1.529,0,0,1,125.4,230.97Zm0-10.018a1.8,1.8,0,0,1,1.67-1.67h0a1.8,1.8,0,0,1,1.67,1.67h0a1.8,1.8,0,0,1-1.67,1.67h0C125.817,222.622,125.4,222.2,125.4,220.952Zm0-9.6a1.8,1.8,0,0,1,1.67-1.67h0a1.8,1.8,0,0,1,1.67,1.67h0a1.8,1.8,0,0,1-1.67,1.67h0C125.817,212.6,125.4,212.187,125.4,211.352Zm0-10.018a1.8,1.8,0,0,1,1.67-1.67h0a1.8,1.8,0,0,1,1.67,1.67h0a1.8,1.8,0,0,1-1.67,1.67h0A1.529,1.529,0,0,1,125.4,201.335Zm0-10.018a1.8,1.8,0,0,1,1.67-1.67h0a1.8,1.8,0,0,1,1.67,1.67h0a1.8,1.8,0,0,1-1.67,1.67h0A1.529,1.529,0,0,1,125.4,191.317Zm0-10.018a1.8,1.8,0,0,1,1.67-1.67h0a1.8,1.8,0,0,1,1.67,1.67h0a1.8,1.8,0,0,1-1.67,1.67h0C125.817,182.969,125.4,182.552,125.4,181.3Zm0-9.6a1.8,1.8,0,0,1,1.67-1.67h0a1.8,1.8,0,0,1,1.67,1.67h0a1.8,1.8,0,0,1-1.67,1.67h0C125.817,172.951,125.4,172.534,125.4,171.7Zm0-10.018a1.8,1.8,0,0,1,1.67-1.67h0a1.8,1.8,0,0,1,1.67,1.67h0a1.8,1.8,0,0,1-1.67,1.67h0A1.529,1.529,0,0,1,125.4,161.682Zm0-10.018a1.8,1.8,0,0,1,1.67-1.67h0a1.8,1.8,0,0,1,1.67,1.67h0a1.8,1.8,0,0,1-1.67,1.67h0A1.529,1.529,0,0,1,125.4,151.664Zm0-10.018a1.8,1.8,0,0,1,1.67-1.67h0a1.8,1.8,0,0,1,1.67,1.67h0a1.8,1.8,0,0,1-1.67,1.67h0C125.817,143.316,125.4,142.9,125.4,141.646Zm0-9.6a1.8,1.8,0,0,1,1.67-1.67h0a1.8,1.8,0,0,1,1.67,1.67h0a1.8,1.8,0,0,1-1.67,1.67h0C125.817,133.3,125.4,132.881,125.4,132.046Zm0-10.018a1.8,1.8,0,0,1,1.67-1.67h0a1.8,1.8,0,0,1,1.67,1.67h0a1.8,1.8,0,0,1-1.67,1.67h0A1.529,1.529,0,0,1,125.4,122.029Zm0-10.018a1.8,1.8,0,0,1,1.67-1.67h0a1.8,1.8,0,0,1,1.67,1.67h0a1.8,1.8,0,0,1-1.67,1.67h0A1.529,1.529,0,0,1,125.4,112.011Zm0-10.018a1.8,1.8,0,0,1,1.67-1.67h0a1.8,1.8,0,0,1,1.67,1.67h0a1.8,1.8,0,0,1-1.67,1.67h0C125.817,103.663,125.4,103.246,125.4,101.993Zm0-9.6a1.8,1.8,0,0,1,1.67-1.67h0a1.8,1.8,0,0,1,1.67,1.67h0a1.8,1.8,0,0,1-1.67,1.67h0C125.817,93.645,125.4,93.228,125.4,92.393Zm0-10.018a1.8,1.8,0,0,1,1.67-1.67h0a1.8,1.8,0,0,1,1.67,1.67h0a1.8,1.8,0,0,1-1.67,1.67h0A1.529,1.529,0,0,1,125.4,82.376Zm0-10.018a1.8,1.8,0,0,1,1.67-1.67h0a1.8,1.8,0,0,1,1.67,1.67h0a1.8,1.8,0,0,1-1.67,1.67h0A1.529,1.529,0,0,1,125.4,72.358Zm0-10.018a1.8,1.8,0,0,1,1.67-1.67h0a1.8,1.8,0,0,1,1.67,1.67h0a1.8,1.8,0,0,1-1.67,1.67h0C125.817,64.01,125.4,63.593,125.4,62.34Zm0-9.6a1.8,1.8,0,0,1,1.67-1.67h0a1.8,1.8,0,0,1,1.67,1.67h0a1.8,1.8,0,0,1-1.67,1.67h0C125.817,53.992,125.4,53.575,125.4,52.74Zm0-10.018a1.8,1.8,0,0,1,1.67-1.67h0a1.8,1.8,0,0,1,1.67,1.67h0a1.8,1.8,0,0,1-1.67,1.67h0A1.529,1.529,0,0,1,125.4,42.723Zm0-10.018a1.8,1.8,0,0,1,1.67-1.67h0a1.8,1.8,0,0,1,1.67,1.67h0a1.8,1.8,0,0,1-1.67,1.67h0A1.529,1.529,0,0,1,125.4,32.7Zm0-10.018a1.8,1.8,0,0,1,1.67-1.67h0a1.8,1.8,0,0,1,1.67,1.67h0a1.8,1.8,0,0,1-1.67,1.67h0C125.817,24.357,125.4,23.94,125.4,22.687Zm0-9.6a1.8,1.8,0,0,1,1.67-1.67h0a1.8,1.8,0,0,1,1.67,1.67h0a1.8,1.8,0,0,1-1.67,1.67h0C125.817,14.339,125.4,13.922,125.4,13.087Zm0-10.018a1.8,1.8,0,0,1,1.67-1.67h0a1.8,1.8,0,0,1,1.67,1.67h0a1.8,1.8,0,0,1-1.67,1.67h0A1.529,1.529,0,0,1,125.4,3.07Z" transform="translate(-125.4 -1.4)"/>
        </g>
        <g id="Group_357" data-name="Group 357" transform="translate(608.569)">
          <path id="Path_324" data-name="Path 324" class="cls-5" d="M146.2,330.311a1.8,1.8,0,0,1,1.67-1.67h0a1.8,1.8,0,0,1,1.67,1.67h0a1.8,1.8,0,0,1-1.67,1.67h0C147.035,331.563,146.2,331.146,146.2,330.311Zm0-10.018a1.8,1.8,0,0,1,1.67-1.67h0a1.8,1.8,0,0,1,1.67,1.67h0a1.8,1.8,0,0,1-1.67,1.67h0A1.8,1.8,0,0,1,146.2,320.294Zm0-10.018a1.8,1.8,0,0,1,1.67-1.67h0a1.8,1.8,0,0,1,1.67,1.67h0a1.8,1.8,0,0,1-1.67,1.67h0A1.8,1.8,0,0,1,146.2,310.276Zm0-10.018a1.8,1.8,0,0,1,1.67-1.67h0a1.8,1.8,0,0,1,1.67,1.67h0a1.8,1.8,0,0,1-1.67,1.67h0A1.529,1.529,0,0,1,146.2,300.258Zm0-9.6a1.8,1.8,0,0,1,1.67-1.67h0a1.8,1.8,0,0,1,1.67,1.67h0a1.8,1.8,0,0,1-1.67,1.67h0C147.035,291.91,146.2,291.493,146.2,290.658Zm0-10.018a1.8,1.8,0,0,1,1.67-1.67h0a1.8,1.8,0,0,1,1.67,1.67h0a1.8,1.8,0,0,1-1.67,1.67h0A1.8,1.8,0,0,1,146.2,280.641Zm0-10.018a1.8,1.8,0,0,1,1.67-1.67h0a1.8,1.8,0,0,1,1.67,1.67h0a1.8,1.8,0,0,1-1.67,1.67h0A1.8,1.8,0,0,1,146.2,270.623Zm0-10.018a1.8,1.8,0,0,1,1.67-1.67h0a1.8,1.8,0,0,1,1.67,1.67h0a1.8,1.8,0,0,1-1.67,1.67h0A1.529,1.529,0,0,1,146.2,260.605Zm0-9.6a1.8,1.8,0,0,1,1.67-1.67h0a1.8,1.8,0,0,1,1.67,1.67h0a1.8,1.8,0,0,1-1.67,1.67h0C147.035,252.257,146.2,251.84,146.2,251.005Zm0-10.018a1.8,1.8,0,0,1,1.67-1.67h0a1.8,1.8,0,0,1,1.67,1.67h0a1.8,1.8,0,0,1-1.67,1.67h0A1.8,1.8,0,0,1,146.2,240.988Zm0-10.018a1.8,1.8,0,0,1,1.67-1.67h0a1.8,1.8,0,0,1,1.67,1.67h0a1.8,1.8,0,0,1-1.67,1.67h0A1.8,1.8,0,0,1,146.2,230.97Zm0-10.018a1.8,1.8,0,0,1,1.67-1.67h0a1.8,1.8,0,0,1,1.67,1.67h0a1.8,1.8,0,0,1-1.67,1.67h0A1.529,1.529,0,0,1,146.2,220.952Zm0-9.6a1.8,1.8,0,0,1,1.67-1.67h0a1.8,1.8,0,0,1,1.67,1.67h0a1.8,1.8,0,0,1-1.67,1.67h0C147.035,212.6,146.2,212.187,146.2,211.352Zm0-10.018a1.8,1.8,0,0,1,1.67-1.67h0a1.8,1.8,0,0,1,1.67,1.67h0a1.8,1.8,0,0,1-1.67,1.67h0A1.8,1.8,0,0,1,146.2,201.335Zm0-10.018a1.8,1.8,0,0,1,1.67-1.67h0a1.8,1.8,0,0,1,1.67,1.67h0a1.8,1.8,0,0,1-1.67,1.67h0A1.8,1.8,0,0,1,146.2,191.317Zm0-10.018a1.8,1.8,0,0,1,1.67-1.67h0a1.8,1.8,0,0,1,1.67,1.67h0a1.8,1.8,0,0,1-1.67,1.67h0A1.529,1.529,0,0,1,146.2,181.3Zm0-9.6a1.8,1.8,0,0,1,1.67-1.67h0a1.8,1.8,0,0,1,1.67,1.67h0a1.8,1.8,0,0,1-1.67,1.67h0C147.035,172.951,146.2,172.534,146.2,171.7Zm0-10.018a1.8,1.8,0,0,1,1.67-1.67h0a1.8,1.8,0,0,1,1.67,1.67h0a1.8,1.8,0,0,1-1.67,1.67h0A1.8,1.8,0,0,1,146.2,161.682Zm0-10.018a1.8,1.8,0,0,1,1.67-1.67h0a1.8,1.8,0,0,1,1.67,1.67h0a1.8,1.8,0,0,1-1.67,1.67h0A1.8,1.8,0,0,1,146.2,151.664Zm0-10.018a1.8,1.8,0,0,1,1.67-1.67h0a1.8,1.8,0,0,1,1.67,1.67h0a1.8,1.8,0,0,1-1.67,1.67h0A1.529,1.529,0,0,1,146.2,141.646Zm0-9.6a1.8,1.8,0,0,1,1.67-1.67h0a1.8,1.8,0,0,1,1.67,1.67h0a1.8,1.8,0,0,1-1.67,1.67h0C147.035,133.3,146.2,132.881,146.2,132.046Zm0-10.018a1.8,1.8,0,0,1,1.67-1.67h0a1.8,1.8,0,0,1,1.67,1.67h0a1.8,1.8,0,0,1-1.67,1.67h0A1.8,1.8,0,0,1,146.2,122.029Zm0-10.018a1.8,1.8,0,0,1,1.67-1.67h0a1.8,1.8,0,0,1,1.67,1.67h0a1.8,1.8,0,0,1-1.67,1.67h0A1.8,1.8,0,0,1,146.2,112.011Zm0-10.018a1.8,1.8,0,0,1,1.67-1.67h0a1.8,1.8,0,0,1,1.67,1.67h0a1.8,1.8,0,0,1-1.67,1.67h0A1.529,1.529,0,0,1,146.2,101.993Zm0-9.6a1.8,1.8,0,0,1,1.67-1.67h0a1.8,1.8,0,0,1,1.67,1.67h0a1.8,1.8,0,0,1-1.67,1.67h0C147.035,93.645,146.2,93.228,146.2,92.393Zm0-10.018a1.8,1.8,0,0,1,1.67-1.67h0a1.8,1.8,0,0,1,1.67,1.67h0a1.8,1.8,0,0,1-1.67,1.67h0A1.8,1.8,0,0,1,146.2,82.376Zm0-10.018a1.8,1.8,0,0,1,1.67-1.67h0a1.8,1.8,0,0,1,1.67,1.67h0a1.8,1.8,0,0,1-1.67,1.67h0A1.8,1.8,0,0,1,146.2,72.358Zm0-10.018a1.8,1.8,0,0,1,1.67-1.67h0a1.8,1.8,0,0,1,1.67,1.67h0a1.8,1.8,0,0,1-1.67,1.67h0A1.529,1.529,0,0,1,146.2,62.34Zm0-9.6a1.8,1.8,0,0,1,1.67-1.67h0a1.8,1.8,0,0,1,1.67,1.67h0a1.8,1.8,0,0,1-1.67,1.67h0C147.035,53.992,146.2,53.575,146.2,52.74Zm0-10.018a1.8,1.8,0,0,1,1.67-1.67h0a1.8,1.8,0,0,1,1.67,1.67h0a1.8,1.8,0,0,1-1.67,1.67h0A1.8,1.8,0,0,1,146.2,42.723Zm0-10.018a1.8,1.8,0,0,1,1.67-1.67h0a1.8,1.8,0,0,1,1.67,1.67h0a1.8,1.8,0,0,1-1.67,1.67h0A1.8,1.8,0,0,1,146.2,32.7Zm0-10.018a1.8,1.8,0,0,1,1.67-1.67h0a1.8,1.8,0,0,1,1.67,1.67h0a1.8,1.8,0,0,1-1.67,1.67h0A1.529,1.529,0,0,1,146.2,22.687Zm0-9.6a1.8,1.8,0,0,1,1.67-1.67h0a1.8,1.8,0,0,1,1.67,1.67h0a1.8,1.8,0,0,1-1.67,1.67h0C147.035,14.339,146.2,13.922,146.2,13.087Zm0-10.018a1.8,1.8,0,0,1,1.67-1.67h0a1.8,1.8,0,0,1,1.67,1.67h0a1.8,1.8,0,0,1-1.67,1.67h0A1.8,1.8,0,0,1,146.2,3.07Z" transform="translate(-146.2 -1.4)"/>
        </g>
        <g id="Group_358" data-name="Group 358" transform="translate(695.388)">
          <path id="Path_325" data-name="Path 325" class="cls-5" d="M167,330.311a1.8,1.8,0,0,1,1.67-1.67h0a1.8,1.8,0,0,1,1.67,1.67h0a1.8,1.8,0,0,1-1.67,1.67h0C167.835,331.563,167,331.146,167,330.311Zm0-10.018a1.8,1.8,0,0,1,1.67-1.67h0a1.8,1.8,0,0,1,1.67,1.67h0a1.8,1.8,0,0,1-1.67,1.67h0A1.8,1.8,0,0,1,167,320.294Zm0-10.018a1.8,1.8,0,0,1,1.67-1.67h0a1.8,1.8,0,0,1,1.67,1.67h0a1.8,1.8,0,0,1-1.67,1.67h0A1.8,1.8,0,0,1,167,310.276Zm0-10.018a1.8,1.8,0,0,1,1.67-1.67h0a1.8,1.8,0,0,1,1.67,1.67h0a1.8,1.8,0,0,1-1.67,1.67h0A1.529,1.529,0,0,1,167,300.258Zm0-9.6a1.8,1.8,0,0,1,1.67-1.67h0a1.8,1.8,0,0,1,1.67,1.67h0a1.8,1.8,0,0,1-1.67,1.67h0C167.835,291.91,167,291.493,167,290.658Zm0-10.018a1.8,1.8,0,0,1,1.67-1.67h0a1.8,1.8,0,0,1,1.67,1.67h0a1.8,1.8,0,0,1-1.67,1.67h0A1.8,1.8,0,0,1,167,280.641Zm0-10.018a1.8,1.8,0,0,1,1.67-1.67h0a1.8,1.8,0,0,1,1.67,1.67h0a1.8,1.8,0,0,1-1.67,1.67h0A1.8,1.8,0,0,1,167,270.623Zm0-10.018a1.8,1.8,0,0,1,1.67-1.67h0a1.8,1.8,0,0,1,1.67,1.67h0a1.8,1.8,0,0,1-1.67,1.67h0A1.529,1.529,0,0,1,167,260.605Zm0-9.6a1.8,1.8,0,0,1,1.67-1.67h0a1.8,1.8,0,0,1,1.67,1.67h0a1.8,1.8,0,0,1-1.67,1.67h0C167.835,252.257,167,251.84,167,251.005Zm0-10.018a1.8,1.8,0,0,1,1.67-1.67h0a1.8,1.8,0,0,1,1.67,1.67h0a1.8,1.8,0,0,1-1.67,1.67h0A1.8,1.8,0,0,1,167,240.988Zm0-10.018a1.8,1.8,0,0,1,1.67-1.67h0a1.8,1.8,0,0,1,1.67,1.67h0a1.8,1.8,0,0,1-1.67,1.67h0A1.8,1.8,0,0,1,167,230.97Zm0-10.018a1.8,1.8,0,0,1,1.67-1.67h0a1.8,1.8,0,0,1,1.67,1.67h0a1.8,1.8,0,0,1-1.67,1.67h0A1.529,1.529,0,0,1,167,220.952Zm0-9.6a1.8,1.8,0,0,1,1.67-1.67h0a1.8,1.8,0,0,1,1.67,1.67h0a1.8,1.8,0,0,1-1.67,1.67h0C167.835,212.6,167,212.187,167,211.352Zm0-10.018a1.8,1.8,0,0,1,1.67-1.67h0a1.8,1.8,0,0,1,1.67,1.67h0a1.8,1.8,0,0,1-1.67,1.67h0A1.8,1.8,0,0,1,167,201.335Zm0-10.018a1.8,1.8,0,0,1,1.67-1.67h0a1.8,1.8,0,0,1,1.67,1.67h0a1.8,1.8,0,0,1-1.67,1.67h0A1.8,1.8,0,0,1,167,191.317Zm0-10.018a1.8,1.8,0,0,1,1.67-1.67h0a1.8,1.8,0,0,1,1.67,1.67h0a1.8,1.8,0,0,1-1.67,1.67h0A1.529,1.529,0,0,1,167,181.3Zm0-9.6a1.8,1.8,0,0,1,1.67-1.67h0a1.8,1.8,0,0,1,1.67,1.67h0a1.8,1.8,0,0,1-1.67,1.67h0C167.835,172.951,167,172.534,167,171.7Zm0-10.018a1.8,1.8,0,0,1,1.67-1.67h0a1.8,1.8,0,0,1,1.67,1.67h0a1.8,1.8,0,0,1-1.67,1.67h0A1.8,1.8,0,0,1,167,161.682Zm0-10.018a1.8,1.8,0,0,1,1.67-1.67h0a1.8,1.8,0,0,1,1.67,1.67h0a1.8,1.8,0,0,1-1.67,1.67h0A1.8,1.8,0,0,1,167,151.664Zm0-10.018a1.8,1.8,0,0,1,1.67-1.67h0a1.8,1.8,0,0,1,1.67,1.67h0a1.8,1.8,0,0,1-1.67,1.67h0A1.529,1.529,0,0,1,167,141.646Zm0-9.6a1.8,1.8,0,0,1,1.67-1.67h0a1.8,1.8,0,0,1,1.67,1.67h0a1.8,1.8,0,0,1-1.67,1.67h0C167.835,133.3,167,132.881,167,132.046Zm0-10.018a1.8,1.8,0,0,1,1.67-1.67h0a1.8,1.8,0,0,1,1.67,1.67h0a1.8,1.8,0,0,1-1.67,1.67h0A1.8,1.8,0,0,1,167,122.029Zm0-10.018a1.8,1.8,0,0,1,1.67-1.67h0a1.8,1.8,0,0,1,1.67,1.67h0a1.8,1.8,0,0,1-1.67,1.67h0A1.8,1.8,0,0,1,167,112.011Zm0-10.018a1.8,1.8,0,0,1,1.67-1.67h0a1.8,1.8,0,0,1,1.67,1.67h0a1.8,1.8,0,0,1-1.67,1.67h0A1.529,1.529,0,0,1,167,101.993Zm0-9.6a1.8,1.8,0,0,1,1.67-1.67h0a1.8,1.8,0,0,1,1.67,1.67h0a1.8,1.8,0,0,1-1.67,1.67h0C167.835,93.645,167,93.228,167,92.393Zm0-10.018a1.8,1.8,0,0,1,1.67-1.67h0a1.8,1.8,0,0,1,1.67,1.67h0a1.8,1.8,0,0,1-1.67,1.67h0A1.8,1.8,0,0,1,167,82.376Zm0-10.018a1.8,1.8,0,0,1,1.67-1.67h0a1.8,1.8,0,0,1,1.67,1.67h0a1.8,1.8,0,0,1-1.67,1.67h0A1.8,1.8,0,0,1,167,72.358Zm0-10.018a1.8,1.8,0,0,1,1.67-1.67h0a1.8,1.8,0,0,1,1.67,1.67h0a1.8,1.8,0,0,1-1.67,1.67h0A1.529,1.529,0,0,1,167,62.34Zm0-9.6a1.8,1.8,0,0,1,1.67-1.67h0a1.8,1.8,0,0,1,1.67,1.67h0a1.8,1.8,0,0,1-1.67,1.67h0C167.835,53.992,167,53.575,167,52.74Zm0-10.018a1.8,1.8,0,0,1,1.67-1.67h0a1.8,1.8,0,0,1,1.67,1.67h0a1.8,1.8,0,0,1-1.67,1.67h0A1.8,1.8,0,0,1,167,42.723ZM167,32.7a1.8,1.8,0,0,1,1.67-1.67h0a1.8,1.8,0,0,1,1.67,1.67h0a1.8,1.8,0,0,1-1.67,1.67h0A1.8,1.8,0,0,1,167,32.7Zm0-10.018a1.8,1.8,0,0,1,1.67-1.67h0a1.8,1.8,0,0,1,1.67,1.67h0a1.8,1.8,0,0,1-1.67,1.67h0A1.529,1.529,0,0,1,167,22.687Zm0-9.6a1.8,1.8,0,0,1,1.67-1.67h0a1.8,1.8,0,0,1,1.67,1.67h0a1.8,1.8,0,0,1-1.67,1.67h0C167.835,14.339,167,13.922,167,13.087ZM167,3.07a1.8,1.8,0,0,1,1.67-1.67h0a1.8,1.8,0,0,1,1.67,1.67h0a1.8,1.8,0,0,1-1.67,1.67h0A1.8,1.8,0,0,1,167,3.07Z" transform="translate(-167 -1.4)"/>
        </g>
        <g id="Group_359" data-name="Group 359" transform="translate(782.625)">
          <path id="Path_326" data-name="Path 326" class="cls-5" d="M187.9,330.311a1.8,1.8,0,0,1,1.67-1.67h0a1.8,1.8,0,0,1,1.67,1.67h0a1.8,1.8,0,0,1-1.67,1.67h0C188.317,331.563,187.9,331.146,187.9,330.311Zm0-10.018a1.8,1.8,0,0,1,1.67-1.67h0a1.8,1.8,0,0,1,1.67,1.67h0a1.8,1.8,0,0,1-1.67,1.67h0A1.529,1.529,0,0,1,187.9,320.294Zm0-10.018a1.8,1.8,0,0,1,1.67-1.67h0a1.8,1.8,0,0,1,1.67,1.67h0a1.8,1.8,0,0,1-1.67,1.67h0A1.529,1.529,0,0,1,187.9,310.276Zm0-10.018a1.8,1.8,0,0,1,1.67-1.67h0a1.8,1.8,0,0,1,1.67,1.67h0a1.8,1.8,0,0,1-1.67,1.67h0C188.317,301.928,187.9,301.511,187.9,300.258Zm0-9.6a1.8,1.8,0,0,1,1.67-1.67h0a1.8,1.8,0,0,1,1.67,1.67h0a1.8,1.8,0,0,1-1.67,1.67h0C188.317,291.91,187.9,291.493,187.9,290.658Zm0-10.018a1.8,1.8,0,0,1,1.67-1.67h0a1.8,1.8,0,0,1,1.67,1.67h0a1.8,1.8,0,0,1-1.67,1.67h0A1.529,1.529,0,0,1,187.9,280.641Zm0-10.018a1.8,1.8,0,0,1,1.67-1.67h0a1.8,1.8,0,0,1,1.67,1.67h0a1.8,1.8,0,0,1-1.67,1.67h0A1.529,1.529,0,0,1,187.9,270.623Zm0-10.018a1.8,1.8,0,0,1,1.67-1.67h0a1.8,1.8,0,0,1,1.67,1.67h0a1.8,1.8,0,0,1-1.67,1.67h0C188.317,262.275,187.9,261.858,187.9,260.605Zm0-9.6a1.8,1.8,0,0,1,1.67-1.67h0a1.8,1.8,0,0,1,1.67,1.67h0a1.8,1.8,0,0,1-1.67,1.67h0C188.317,252.257,187.9,251.84,187.9,251.005Zm0-10.018a1.8,1.8,0,0,1,1.67-1.67h0a1.8,1.8,0,0,1,1.67,1.67h0a1.8,1.8,0,0,1-1.67,1.67h0A1.529,1.529,0,0,1,187.9,240.988Zm0-10.018a1.8,1.8,0,0,1,1.67-1.67h0a1.8,1.8,0,0,1,1.67,1.67h0a1.8,1.8,0,0,1-1.67,1.67h0A1.529,1.529,0,0,1,187.9,230.97Zm0-10.018a1.8,1.8,0,0,1,1.67-1.67h0a1.8,1.8,0,0,1,1.67,1.67h0a1.8,1.8,0,0,1-1.67,1.67h0C188.317,222.622,187.9,222.2,187.9,220.952Zm0-9.6a1.8,1.8,0,0,1,1.67-1.67h0a1.8,1.8,0,0,1,1.67,1.67h0a1.8,1.8,0,0,1-1.67,1.67h0C188.317,212.6,187.9,212.187,187.9,211.352Zm0-10.018a1.8,1.8,0,0,1,1.67-1.67h0a1.8,1.8,0,0,1,1.67,1.67h0a1.8,1.8,0,0,1-1.67,1.67h0A1.529,1.529,0,0,1,187.9,201.335Zm0-10.018a1.8,1.8,0,0,1,1.67-1.67h0a1.8,1.8,0,0,1,1.67,1.67h0a1.8,1.8,0,0,1-1.67,1.67h0A1.529,1.529,0,0,1,187.9,191.317Zm0-10.018a1.8,1.8,0,0,1,1.67-1.67h0a1.8,1.8,0,0,1,1.67,1.67h0a1.8,1.8,0,0,1-1.67,1.67h0C188.317,182.969,187.9,182.552,187.9,181.3Zm0-9.6a1.8,1.8,0,0,1,1.67-1.67h0a1.8,1.8,0,0,1,1.67,1.67h0a1.8,1.8,0,0,1-1.67,1.67h0C188.317,172.951,187.9,172.534,187.9,171.7Zm0-10.018a1.8,1.8,0,0,1,1.67-1.67h0a1.8,1.8,0,0,1,1.67,1.67h0a1.8,1.8,0,0,1-1.67,1.67h0A1.529,1.529,0,0,1,187.9,161.682Zm0-10.018a1.8,1.8,0,0,1,1.67-1.67h0a1.8,1.8,0,0,1,1.67,1.67h0a1.8,1.8,0,0,1-1.67,1.67h0A1.529,1.529,0,0,1,187.9,151.664Zm0-10.018a1.8,1.8,0,0,1,1.67-1.67h0a1.8,1.8,0,0,1,1.67,1.67h0a1.8,1.8,0,0,1-1.67,1.67h0C188.317,143.316,187.9,142.9,187.9,141.646Zm0-9.6a1.8,1.8,0,0,1,1.67-1.67h0a1.8,1.8,0,0,1,1.67,1.67h0a1.8,1.8,0,0,1-1.67,1.67h0C188.317,133.3,187.9,132.881,187.9,132.046Zm0-10.018a1.8,1.8,0,0,1,1.67-1.67h0a1.8,1.8,0,0,1,1.67,1.67h0a1.8,1.8,0,0,1-1.67,1.67h0A1.529,1.529,0,0,1,187.9,122.029Zm0-10.018a1.8,1.8,0,0,1,1.67-1.67h0a1.8,1.8,0,0,1,1.67,1.67h0a1.8,1.8,0,0,1-1.67,1.67h0A1.529,1.529,0,0,1,187.9,112.011Zm0-10.018a1.8,1.8,0,0,1,1.67-1.67h0a1.8,1.8,0,0,1,1.67,1.67h0a1.8,1.8,0,0,1-1.67,1.67h0C188.317,103.663,187.9,103.246,187.9,101.993Zm0-9.6a1.8,1.8,0,0,1,1.67-1.67h0a1.8,1.8,0,0,1,1.67,1.67h0a1.8,1.8,0,0,1-1.67,1.67h0C188.317,93.645,187.9,93.228,187.9,92.393Zm0-10.018a1.8,1.8,0,0,1,1.67-1.67h0a1.8,1.8,0,0,1,1.67,1.67h0a1.8,1.8,0,0,1-1.67,1.67h0A1.529,1.529,0,0,1,187.9,82.376Zm0-10.018a1.8,1.8,0,0,1,1.67-1.67h0a1.8,1.8,0,0,1,1.67,1.67h0a1.8,1.8,0,0,1-1.67,1.67h0A1.529,1.529,0,0,1,187.9,72.358Zm0-10.018a1.8,1.8,0,0,1,1.67-1.67h0a1.8,1.8,0,0,1,1.67,1.67h0a1.8,1.8,0,0,1-1.67,1.67h0C188.317,64.01,187.9,63.593,187.9,62.34Zm0-9.6a1.8,1.8,0,0,1,1.67-1.67h0a1.8,1.8,0,0,1,1.67,1.67h0a1.8,1.8,0,0,1-1.67,1.67h0C188.317,53.992,187.9,53.575,187.9,52.74Zm0-10.018a1.8,1.8,0,0,1,1.67-1.67h0a1.8,1.8,0,0,1,1.67,1.67h0a1.8,1.8,0,0,1-1.67,1.67h0A1.529,1.529,0,0,1,187.9,42.723Zm0-10.018a1.8,1.8,0,0,1,1.67-1.67h0a1.8,1.8,0,0,1,1.67,1.67h0a1.8,1.8,0,0,1-1.67,1.67h0A1.529,1.529,0,0,1,187.9,32.7Zm0-10.018a1.8,1.8,0,0,1,1.67-1.67h0a1.8,1.8,0,0,1,1.67,1.67h0a1.8,1.8,0,0,1-1.67,1.67h0C188.317,24.357,187.9,23.94,187.9,22.687Zm0-9.6a1.8,1.8,0,0,1,1.67-1.67h0a1.8,1.8,0,0,1,1.67,1.67h0a1.8,1.8,0,0,1-1.67,1.67h0C188.317,14.339,187.9,13.922,187.9,13.087Zm0-10.018a1.8,1.8,0,0,1,1.67-1.67h0a1.8,1.8,0,0,1,1.67,1.67h0a1.8,1.8,0,0,1-1.67,1.67h0A1.529,1.529,0,0,1,187.9,3.07Z" transform="translate(-187.9 -1.4)"/>
        </g>
        <g id="Group_360" data-name="Group 360" transform="translate(869.444)">
          <path id="Path_327" data-name="Path 327" class="cls-5" d="M208.7,330.311a1.8,1.8,0,0,1,1.67-1.67h0a1.8,1.8,0,0,1,1.67,1.67h0a1.8,1.8,0,0,1-1.67,1.67h0C209.535,331.563,208.7,331.146,208.7,330.311Zm0-10.018a1.8,1.8,0,0,1,1.67-1.67h0a1.8,1.8,0,0,1,1.67,1.67h0a1.8,1.8,0,0,1-1.67,1.67h0A1.8,1.8,0,0,1,208.7,320.294Zm0-10.018a1.8,1.8,0,0,1,1.67-1.67h0a1.8,1.8,0,0,1,1.67,1.67h0a1.8,1.8,0,0,1-1.67,1.67h0A1.8,1.8,0,0,1,208.7,310.276Zm0-10.018a1.8,1.8,0,0,1,1.67-1.67h0a1.8,1.8,0,0,1,1.67,1.67h0a1.8,1.8,0,0,1-1.67,1.67h0A1.529,1.529,0,0,1,208.7,300.258Zm0-9.6a1.8,1.8,0,0,1,1.67-1.67h0a1.8,1.8,0,0,1,1.67,1.67h0a1.8,1.8,0,0,1-1.67,1.67h0C209.535,291.91,208.7,291.493,208.7,290.658Zm0-10.018a1.8,1.8,0,0,1,1.67-1.67h0a1.8,1.8,0,0,1,1.67,1.67h0a1.8,1.8,0,0,1-1.67,1.67h0A1.8,1.8,0,0,1,208.7,280.641Zm0-10.018a1.8,1.8,0,0,1,1.67-1.67h0a1.8,1.8,0,0,1,1.67,1.67h0a1.8,1.8,0,0,1-1.67,1.67h0A1.8,1.8,0,0,1,208.7,270.623Zm0-10.018a1.8,1.8,0,0,1,1.67-1.67h0a1.8,1.8,0,0,1,1.67,1.67h0a1.8,1.8,0,0,1-1.67,1.67h0A1.529,1.529,0,0,1,208.7,260.605Zm0-9.6a1.8,1.8,0,0,1,1.67-1.67h0a1.8,1.8,0,0,1,1.67,1.67h0a1.8,1.8,0,0,1-1.67,1.67h0C209.535,252.257,208.7,251.84,208.7,251.005Zm0-10.018a1.8,1.8,0,0,1,1.67-1.67h0a1.8,1.8,0,0,1,1.67,1.67h0a1.8,1.8,0,0,1-1.67,1.67h0A1.8,1.8,0,0,1,208.7,240.988Zm0-10.018a1.8,1.8,0,0,1,1.67-1.67h0a1.8,1.8,0,0,1,1.67,1.67h0a1.8,1.8,0,0,1-1.67,1.67h0A1.8,1.8,0,0,1,208.7,230.97Zm0-10.018a1.8,1.8,0,0,1,1.67-1.67h0a1.8,1.8,0,0,1,1.67,1.67h0a1.8,1.8,0,0,1-1.67,1.67h0A1.529,1.529,0,0,1,208.7,220.952Zm0-9.6a1.8,1.8,0,0,1,1.67-1.67h0a1.8,1.8,0,0,1,1.67,1.67h0a1.8,1.8,0,0,1-1.67,1.67h0C209.535,212.6,208.7,212.187,208.7,211.352Zm0-10.018a1.8,1.8,0,0,1,1.67-1.67h0a1.8,1.8,0,0,1,1.67,1.67h0a1.8,1.8,0,0,1-1.67,1.67h0A1.8,1.8,0,0,1,208.7,201.335Zm0-10.018a1.8,1.8,0,0,1,1.67-1.67h0a1.8,1.8,0,0,1,1.67,1.67h0a1.8,1.8,0,0,1-1.67,1.67h0A1.8,1.8,0,0,1,208.7,191.317Zm0-10.018a1.8,1.8,0,0,1,1.67-1.67h0a1.8,1.8,0,0,1,1.67,1.67h0a1.8,1.8,0,0,1-1.67,1.67h0A1.529,1.529,0,0,1,208.7,181.3Zm0-9.6a1.8,1.8,0,0,1,1.67-1.67h0a1.8,1.8,0,0,1,1.67,1.67h0a1.8,1.8,0,0,1-1.67,1.67h0C209.535,172.951,208.7,172.534,208.7,171.7Zm0-10.018a1.8,1.8,0,0,1,1.67-1.67h0a1.8,1.8,0,0,1,1.67,1.67h0a1.8,1.8,0,0,1-1.67,1.67h0A1.8,1.8,0,0,1,208.7,161.682Zm0-10.018a1.8,1.8,0,0,1,1.67-1.67h0a1.8,1.8,0,0,1,1.67,1.67h0a1.8,1.8,0,0,1-1.67,1.67h0A1.8,1.8,0,0,1,208.7,151.664Zm0-10.018a1.8,1.8,0,0,1,1.67-1.67h0a1.8,1.8,0,0,1,1.67,1.67h0a1.8,1.8,0,0,1-1.67,1.67h0A1.529,1.529,0,0,1,208.7,141.646Zm0-9.6a1.8,1.8,0,0,1,1.67-1.67h0a1.8,1.8,0,0,1,1.67,1.67h0a1.8,1.8,0,0,1-1.67,1.67h0C209.535,133.3,208.7,132.881,208.7,132.046Zm0-10.018a1.8,1.8,0,0,1,1.67-1.67h0a1.8,1.8,0,0,1,1.67,1.67h0a1.8,1.8,0,0,1-1.67,1.67h0A1.8,1.8,0,0,1,208.7,122.029Zm0-10.018a1.8,1.8,0,0,1,1.67-1.67h0a1.8,1.8,0,0,1,1.67,1.67h0a1.8,1.8,0,0,1-1.67,1.67h0A1.8,1.8,0,0,1,208.7,112.011Zm0-10.018a1.8,1.8,0,0,1,1.67-1.67h0a1.8,1.8,0,0,1,1.67,1.67h0a1.8,1.8,0,0,1-1.67,1.67h0A1.529,1.529,0,0,1,208.7,101.993Zm0-9.6a1.8,1.8,0,0,1,1.67-1.67h0a1.8,1.8,0,0,1,1.67,1.67h0a1.8,1.8,0,0,1-1.67,1.67h0C209.535,93.645,208.7,93.228,208.7,92.393Zm0-10.018a1.8,1.8,0,0,1,1.67-1.67h0a1.8,1.8,0,0,1,1.67,1.67h0a1.8,1.8,0,0,1-1.67,1.67h0A1.8,1.8,0,0,1,208.7,82.376Zm0-10.018a1.8,1.8,0,0,1,1.67-1.67h0a1.8,1.8,0,0,1,1.67,1.67h0a1.8,1.8,0,0,1-1.67,1.67h0A1.8,1.8,0,0,1,208.7,72.358Zm0-10.018a1.8,1.8,0,0,1,1.67-1.67h0a1.8,1.8,0,0,1,1.67,1.67h0a1.8,1.8,0,0,1-1.67,1.67h0A1.529,1.529,0,0,1,208.7,62.34Zm0-9.6a1.8,1.8,0,0,1,1.67-1.67h0a1.8,1.8,0,0,1,1.67,1.67h0a1.8,1.8,0,0,1-1.67,1.67h0C209.535,53.992,208.7,53.575,208.7,52.74Zm0-10.018a1.8,1.8,0,0,1,1.67-1.67h0a1.8,1.8,0,0,1,1.67,1.67h0a1.8,1.8,0,0,1-1.67,1.67h0A1.8,1.8,0,0,1,208.7,42.723Zm0-10.018a1.8,1.8,0,0,1,1.67-1.67h0a1.8,1.8,0,0,1,1.67,1.67h0a1.8,1.8,0,0,1-1.67,1.67h0A1.8,1.8,0,0,1,208.7,32.7Zm0-10.018a1.8,1.8,0,0,1,1.67-1.67h0a1.8,1.8,0,0,1,1.67,1.67h0a1.8,1.8,0,0,1-1.67,1.67h0A1.529,1.529,0,0,1,208.7,22.687Zm0-9.6a1.8,1.8,0,0,1,1.67-1.67h0a1.8,1.8,0,0,1,1.67,1.67h0a1.8,1.8,0,0,1-1.67,1.67h0C209.535,14.339,208.7,13.922,208.7,13.087Zm0-10.018a1.8,1.8,0,0,1,1.67-1.67h0a1.8,1.8,0,0,1,1.67,1.67h0a1.8,1.8,0,0,1-1.67,1.67h0A1.8,1.8,0,0,1,208.7,3.07Z" transform="translate(-208.7 -1.4)"/>
        </g>
      </g>
      <g id="Group_367" data-name="Group 367" transform="translate(907.953 12.105)">
        <g id="Group_362" data-name="Group 362" transform="translate(1.67 267.971)">
          <path id="Path_328" data-name="Path 328" d="M225.931,80.039H218V78.37l7.513-11.27h2.5V78.37h2.922v1.67h-2.922v5.009h-2.087V80.039Zm0-1.67V69.187h0c0,.417-.417,1.252-.835,1.252L219.67,78.37h6.261Z" transform="translate(-218 -67.1)"/>
          <path id="Path_329" data-name="Path 329" d="M221.3,85.048l.417-1.67c.835,0,2.5.417,4.591.417,2.5,0,4.591-1.252,4.591-3.757s-2.5-3.339-5.009-3.339h-3.339l.417-9.6h9.6v2.087h-7.513l-.417,5.844h2.087c3.339,0,6.261,1.252,6.261,5.009s-2.922,5.844-7.1,5.844A15.008,15.008,0,0,0,221.3,85.048Z" transform="translate(-207.526 -67.1)"/>
        </g>
        <g id="Group_363" data-name="Group 363" transform="translate(0.417 200.352)">
          <path id="Path_330" data-name="Path 330" d="M217.7,68.948l.417-1.67c.835,0,2.5.417,4.591.417,2.5,0,4.591-1.252,4.591-3.757s-2.5-3.339-5.009-3.339h-3.339l.417-9.6h9.6v2.087h-7.513l-.417,5.844h2.087c3.339,0,6.261,1.252,6.261,5.009s-2.922,5.844-7.1,5.844C221.039,69.366,219.37,69.366,217.7,68.948Z" transform="translate(-217.7 -50.583)"/>
          <path id="Path_331" data-name="Path 331" d="M221,60.5c0-5.009,1.67-9.6,6.261-9.6s6.261,3.757,6.261,8.765c0,5.426-1.252,10.018-6.261,10.018S221,65.092,221,60.5Zm10.018-.417c0-4.174-.835-7.513-3.757-7.513-3.339,0-3.757,3.339-3.757,7.1,0,4.174.835,7.931,4.174,7.931C230.6,68.013,231.018,63.839,231.018,60.083Z" transform="translate(-207.226 -50.9)"/>
        </g>
        <g id="Group_364" data-name="Group 364" transform="translate(2.087 133.568)">
          <path id="Path_332" data-name="Path 332" d="M218.1,52.848l.417-1.67c.835,0,2.5.417,4.591.417,2.5,0,4.591-1.252,4.591-3.757s-2.5-3.339-5.009-3.339h-3.339l.417-9.6h9.6v2.087h-7.513l-.417,5.844h2.087c3.339,0,6.261,1.252,6.261,5.009s-2.922,5.844-7.1,5.844C221.439,53.266,219.77,53.266,218.1,52.848Z" transform="translate(-218.1 -34.9)"/>
          <path id="Path_333" data-name="Path 333" d="M221.3,52.848l.417-1.67c.835,0,2.5.417,4.591.417,2.5,0,4.591-1.252,4.591-3.757s-2.5-3.339-5.009-3.339h-3.339l.417-9.6h9.6v2.087h-7.513l-.417,5.844h2.087c3.339,0,6.261,1.252,6.261,5.009s-2.922,5.844-7.1,5.844C224.639,53.266,222.97,53.266,221.3,52.848Z" transform="translate(-207.943 -34.9)"/>
        </g>
        <g id="Group_365" data-name="Group 365" transform="translate(0 65.949)">
          <path id="Path_334" data-name="Path 334" d="M217.6,28.818c0-5.426,1.67-10.018,7.513-10.018a10.363,10.363,0,0,1,3.757.417l-.417,1.67a22.475,22.475,0,0,0-3.339-.417c-4.174,0-5.009,3.339-5.009,6.678A8.641,8.641,0,0,1,224.7,25.9c3.339,0,5.426,1.67,5.426,5.426s-2.5,6.261-5.844,6.261C218.852,37.166,217.6,32.992,217.6,28.818Zm9.6,2.5c0-2.5-.835-3.757-3.339-3.757a6.918,6.918,0,0,0-4.174,1.252c0,2.087.417,6.678,3.757,6.678S227.2,33.826,227.2,31.322Z" transform="translate(-217.6 -18.383)"/>
          <path id="Path_335" data-name="Path 335" d="M220.9,28.3c0-5.009,1.67-9.6,6.261-9.6s6.261,3.757,6.261,8.765c0,5.426-1.252,10.018-6.261,10.018C222.57,37.483,220.9,33.309,220.9,28.3Zm10.435-.417c0-4.174-.835-7.513-3.757-7.513-3.339,0-3.757,3.339-3.757,7.1,0,4.174.835,7.931,4.174,7.931C230.918,35.813,231.335,32.057,231.335,27.883Z" transform="translate(-207.126 -18.7)"/>
        </g>
        <g id="Group_366" data-name="Group 366" transform="translate(2.504)">
          <path id="Path_336" data-name="Path 336" d="M218.2,12.918c0-5.426,1.67-10.018,7.513-10.018a10.363,10.363,0,0,1,3.757.417l-.417,1.67a22.474,22.474,0,0,0-3.339-.417c-4.174,0-5.009,3.339-5.009,6.678A8.641,8.641,0,0,1,225.3,10c3.339,0,5.426,1.67,5.426,5.426s-2.5,6.261-5.844,6.261C219.87,21.266,218.2,17.092,218.2,12.918ZM227.8,15c0-2.5-.835-3.757-3.339-3.757a6.918,6.918,0,0,0-4.174,1.252c0,2.087.417,6.678,3.757,6.678C227.383,19.6,227.8,17.509,227.8,15Z" transform="translate(-218.2 -2.9)"/>
          <path id="Path_337" data-name="Path 337" d="M221.6,20.848l.417-1.67c.835,0,2.5.417,4.591.417,2.5,0,4.591-1.252,4.591-3.757s-2.5-3.339-5.009-3.339h-3.339l.417-9.6h9.6V4.987h-7.513l-.417,5.844h2.087c3.339,0,6.261,1.252,6.261,5.009s-2.922,5.844-7.1,5.844C224.522,21.266,223.27,21.266,221.6,20.848Z" transform="translate(-207.408 -2.9)"/>
        </g>
      </g>
      <g id="Group_368" data-name="Group 368" transform="translate(3.03 335.59)">
        <rect id="Rectangle_220" data-name="Rectangle 220" width="933.724" height="1.67"/>
      </g>
      <g id="Group_369" data-name="Group 369" transform="translate(3.03 268.388)">
        <rect id="Rectangle_221" data-name="Rectangle 221" class="cls-5" width="933.724" height="1.67"/>
      </g>
      <g id="Group_370" data-name="Group 370" transform="translate(3.03 201.187)">
        <rect id="Rectangle_222" data-name="Rectangle 222" class="cls-5" width="933.724" height="1.67"/>
      </g>
      <g id="Group_371" data-name="Group 371" transform="translate(3.03 133.985)">
        <rect id="Rectangle_223" data-name="Rectangle 223" class="cls-5" width="933.724" height="1.67"/>
      </g>
      <g id="Group_372" data-name="Group 372" transform="translate(3.03 67.201)">
        <rect id="Rectangle_224" data-name="Rectangle 224" class="cls-5" width="933.724" height="1.67"/>
      </g>
      <g id="Group_373" data-name="Group 373" transform="translate(3.03)">
        <rect id="Rectangle_225" data-name="Rectangle 225" width="933.724" height="1.67"/>
      </g>
      <g id="Group_374" data-name="Group 374" transform="translate(0 239.479)">
        <path id="Path_338" data-name="Path 338" class="cls-6" d="M2.687,89.622a2.645,2.645,0,0,1-2.5-2.087A2.839,2.839,0,0,1,1.852,84.2L88.671,57.483a2.64,2.64,0,0,1,1.67,5.009L3.1,89.622Z" transform="translate(-0.074 -57.374)"/>
      </g>
      <g id="Group_375" data-name="Group 375" transform="translate(86.592 199.181)">
        <path id="Path_339" data-name="Path 339" class="cls-6" d="M23.66,93.552a2.6,2.6,0,0,1-2.5-1.67c-.835-1.252,0-2.922,1.252-3.757l86.819-40.07c1.252-.835,2.922,0,3.757,1.252s0,2.922-1.252,3.757L24.912,93.135A1.533,1.533,0,0,1,23.66,93.552Z" transform="translate(-20.819 -47.719)"/>
      </g>
      <g id="Group_376" data-name="Group 376" transform="translate(173.33 199.1)">
        <path id="Path_340" data-name="Path 340" class="cls-6" d="M131.758,53.544H44.522a2.922,2.922,0,1,1,0-5.844h86.819a2.853,2.853,0,0,1,2.922,2.922A2.791,2.791,0,0,1,131.758,53.544Z" transform="translate(-41.6 -47.7)"/>
      </g>
      <g id="Group_377" data-name="Group 377" transform="translate(260.875 172.695)">
        <path id="Path_341" data-name="Path 341" class="cls-6" d="M65.187,73.622a2.645,2.645,0,0,1-2.5-2.087,2.839,2.839,0,0,1,1.67-3.339l86.819-26.714a2.64,2.64,0,0,1,1.67,5.009L65.6,73.2A.409.409,0,0,1,65.187,73.622Z" transform="translate(-62.574 -41.374)"/>
      </g>
      <g id="Group_378" data-name="Group 378" transform="translate(347.467 131.98)">
        <path id="Path_342" data-name="Path 342" class="cls-6" d="M86.16,77.452a2.6,2.6,0,0,1-2.5-1.67c-.835-1.252,0-2.922,1.252-3.757l86.819-40.07c1.252-.835,2.922,0,3.757,1.252s0,2.922-1.252,3.757L87.412,77.035A1.533,1.533,0,0,1,86.16,77.452Z" transform="translate(-83.319 -31.619)"/>
      </g>
      <g id="Group_379" data-name="Group 379" transform="translate(434.622 131.898)">
        <path id="Path_343" data-name="Path 343" class="cls-6" d="M193.941,37.444H107.122a2.922,2.922,0,0,1,0-5.844h86.819a2.853,2.853,0,0,1,2.922,2.922A3.136,3.136,0,0,1,193.941,37.444Z" transform="translate(-104.2 -31.6)"/>
      </g>
      <g id="Group_380" data-name="Group 380" transform="translate(521.441 131.898)">
        <path id="Path_344" data-name="Path 344" class="cls-6" d="M214.741,37.444H127.922a2.922,2.922,0,0,1,0-5.844h86.819a2.853,2.853,0,0,1,2.922,2.922A3.136,3.136,0,0,1,214.741,37.444Z" transform="translate(-125 -31.6)"/>
      </g>
      <g id="Group_381" data-name="Group 381" transform="translate(608.26 131.898)">
        <path id="Path_345" data-name="Path 345" class="cls-6" d="M235.541,37.444H148.722a2.922,2.922,0,0,1,0-5.844h86.819a2.922,2.922,0,0,1,0,5.844Z" transform="translate(-145.8 -31.6)"/>
      </g>
      <g id="Group_382" data-name="Group 382" transform="translate(782.734 60.94)">
        <path id="Path_346" data-name="Path 346" class="cls-6" d="M190.1,24.2a2.693,2.693,0,0,1-2.5-2.5,2.791,2.791,0,0,1,2.5-2.922L276.924,14.6c1.252,0,2.922,1.252,2.922,2.5a2.791,2.791,0,0,1-2.5,2.922L190.1,24.2Z" transform="translate(-187.6 -14.6)"/>
      </g>
      <g id="Group_383" data-name="Group 383" transform="translate(1.442 160.175)">
        <path id="Path_347" data-name="Path 347" class="cls-7" d="M3.26,189.58a2.6,2.6,0,0,1-2.5-1.67c-.835-1.252,0-2.922,1.252-3.757l81.81-37.983,5.426-2.087,81.81-25.044,5.426-1.252,81.81-12.522,5.426-1.252,81.393-25.044,5.844-1.252h81.81l5.009-.417,81.393-20.453,5.844-.835h.417l81.393.417,5.426-.417,80.976-17.531a2.58,2.58,0,0,1,3.339,2.087,2.58,2.58,0,0,1-2.087,3.339L613.081,61.438l-5.844.417-81.393-.417-5.009.835L439.443,82.725h-.417l-5.426.417H352.206L347.2,84.395,265.8,109.439l-5.844,1.252-81.81,12.522-5.844,1.252L90.914,149.509,85.905,151.6,4.095,189.162C4.095,189.58,3.677,189.58,3.26,189.58Z" transform="translate(-0.419 -38.375)"/>
      </g>
      <g id="Group_384" data-name="Group 384" transform="translate(785.238 63.862)">
        <path id="Path_348" data-name="Path 348" class="cls-3" d="M189.87,67.058l81.81-32.975L275.019,15.3,188.2,19.474Z" transform="translate(-188.2 -15.3)"/>
      </g>
      <g id="Group_385" data-name="Group 385" transform="translate(784.253 79.99)">
        <path id="Path_349" data-name="Path 349" class="cls-7" d="M190.619,57.3a2.818,2.818,0,0,1-2.5-1.67,2.492,2.492,0,0,1,1.67-3.339l81.81-32.975a2.492,2.492,0,0,1,3.339,1.67,2.492,2.492,0,0,1-1.67,3.339L191.454,57.3Z" transform="translate(-187.964 -19.164)"/>
      </g>
      <g id="Group_386" data-name="Group 386" transform="translate(782.734 60.94)">
        <path id="Path_350" data-name="Path 350" class="cls-6" d="M190.1,24.2a2.693,2.693,0,0,1-2.5-2.5,2.791,2.791,0,0,1,2.5-2.922L276.924,14.6c1.252,0,2.922,1.252,2.922,2.5a2.791,2.791,0,0,1-2.5,2.922L190.1,24.2Z" transform="translate(-187.6 -14.6)"/>
      </g>
      <g id="Group_387" data-name="Group 387" transform="translate(699.903 339.033)">
        <path id="Path_351" data-name="Path 351" class="cls-4" d="M169.193,83.625c-.417,0-.417,0-.835-.417l-.417-.417c-.417-.417,0-.417,0-.417,0-.417,0-.417.417-.835a.783.783,0,0,1,1.252,0h.417a1.457,1.457,0,0,1,.417.835v.835c-.835.417-.835.417-1.252.417Z" transform="translate(-167.756 -81.225)"/>
      </g>
      <g id="Group_388" data-name="Group 388" transform="translate(668.783 339.033)">
        <path id="Path_352" data-name="Path 352" class="cls-4" d="M161.552,83.625c-.417,0-.417,0-.835-.417a1.457,1.457,0,0,1-.417-.835c0-.417,0-.417.417-.835s.835-.417,1.67,0v.835c0,.417,0,.417-.417.835S161.97,83.625,161.552,83.625Z" transform="translate(-160.3 -81.225)"/>
      </g>
      <g id="Group_389" data-name="Group 389" transform="translate(868.3 348.529)">
        <path id="Path_353" data-name="Path 353" d="M211.022,86l-2.5.417-.417-1.67,4.592-1.252h.417v18.783h-2.087Z" transform="translate(-208.1 -83.5)"/>
        <path id="Path_354" data-name="Path 354" d="M219.283,85.687H210.1V83.6h11.687v1.252l-7.931,17.113h-2.5Z" transform="translate(-201.752 -83.183)"/>
      </g>
      <g id="Group_390" data-name="Group 390" transform="translate(4.7 348.529)">
        <path id="Path_355" data-name="Path 355" d="M1.2,93.1c0-5.009,1.67-9.6,6.261-9.6s6.261,3.757,6.261,8.765c0,5.426-1.252,10.018-6.261,10.018C2.452,102.7,1.2,98.109,1.2,93.1Zm10.018,0c0-4.174-.835-7.513-3.757-7.513-3.339,0-3.757,3.339-3.757,7.1,0,4.174.835,7.931,4.174,7.931C10.8,101.031,11.218,96.857,11.218,93.1Z" transform="translate(-1.2 -83.5)"/>
        <path id="Path_356" data-name="Path 356" d="M13.783,85.687H4.6V83.6H16.287v1.252L8.357,101.966h-2.5Z" transform="translate(9.592 -83.183)"/>
      </g>
      <g id="Group_391" data-name="Group 391" transform="translate(73.154 348.529)">
        <path id="Path_357" data-name="Path 357" d="M17.6,93.1c0-5.009,1.67-9.6,6.261-9.6s6.261,3.757,6.261,8.765c0,5.426-1.252,10.018-6.261,10.018C19.27,102.7,17.6,98.109,17.6,93.1Zm10.435,0c0-4.174-.835-7.513-3.757-7.513-3.339,0-3.757,3.339-3.757,7.1,0,4.174.835,7.931,4.174,7.931C27.2,101.031,28.035,96.857,28.035,93.1Z" transform="translate(-17.6 -83.5)"/>
        <path id="Path_358" data-name="Path 358" d="M21.1,97.374c0-2.087.835-4.174,3.339-4.591-2.087-.835-2.922-2.087-2.922-4.591,0-3.757,2.922-4.591,5.844-4.591S33.2,84.852,33.2,88.191a4.883,4.883,0,0,1-3.339,4.591,4.21,4.21,0,0,1,3.757,4.591c0,3.757-2.922,5.009-6.261,5.009C23.6,102.383,21.1,101.131,21.1,97.374Zm10.018,0a3.5,3.5,0,0,0-3.757-3.757c-2.087,0-3.757.835-3.757,3.757,0,2.5,1.67,3.339,3.757,3.339S31.118,99.461,31.118,97.374ZM30.7,88.609c0-2.087-1.67-3.339-3.757-3.339s-3.757.835-3.757,2.922c0,1.67.835,3.757,3.339,3.757S30.7,90.7,30.7,88.609Z" transform="translate(-6.491 -83.183)"/>
      </g>
      <g id="Group_392" data-name="Group 392" transform="translate(163.729 348.529)">
        <path id="Path_359" data-name="Path 359" d="M39.3,93.1c0-5.009,1.67-9.6,6.261-9.6s6.261,3.757,6.261,8.765c0,5.426-1.252,10.018-6.261,10.018C40.552,102.7,39.3,98.109,39.3,93.1Zm10.018,0c0-4.174-.835-7.513-3.757-7.513-3.339,0-3.757,3.339-3.757,7.1,0,4.174.835,7.931,4.174,7.931C48.9,101.031,49.318,96.857,49.318,93.1Z" transform="translate(-39.3 -83.5)"/>
        <path id="Path_360" data-name="Path 360" d="M55.122,92.683c0,5.426-1.67,9.6-7.513,10.018a10.363,10.363,0,0,1-3.757-.417l.417-2.087a22.475,22.475,0,0,0,3.339.417c4.174,0,5.009-2.922,5.009-6.678a8.641,8.641,0,0,1-4.591,1.252c-3.339,0-5.426-1.67-5.426-5.426S45.1,83.5,48.444,83.5C53.87,83.917,55.122,88.091,55.122,92.683Zm-9.6-2.5c0,2.5.835,3.757,3.339,3.757a6.918,6.918,0,0,0,4.174-1.252c0-2.087-.417-6.678-3.757-6.678C45.939,85.587,45.522,87.674,45.522,90.178Z" transform="translate(-28.826 -83.5)"/>
      </g>
      <g id="Group_393" data-name="Group 393" transform="translate(253.47 348.529)">
        <path id="Path_361" data-name="Path 361" d="M63.722,86l-2.5.417-.417-1.67L65.391,83.5h.417v18.783H63.722Z" transform="translate(-60.8 -83.5)"/>
        <path id="Path_362" data-name="Path 362" d="M62.9,93.1c0-5.009,1.67-9.6,6.261-9.6s6.261,3.757,6.261,8.765c0,5.426-1.252,10.018-6.261,10.018C64.57,102.7,62.9,98.109,62.9,93.1Zm10.435,0c0-4.174-.835-7.513-3.757-7.513-3.339,0-3.757,3.339-3.757,7.1,0,4.174.835,7.931,4.174,7.931C72.5,101.031,73.335,96.857,73.335,93.1Z" transform="translate(-54.135 -83.5)"/>
      </g>
      <g id="Group_394" data-name="Group 394" transform="translate(349.472 348.529)">
        <path id="Path_363" data-name="Path 363" d="M86.722,86l-2.5.417-.417-1.67L88.391,83.5h.417v18.783H86.722Z" transform="translate(-83.8 -83.5)"/>
        <path id="Path_364" data-name="Path 364" d="M88.822,85.687l-2.5.835-.417-1.67L90.491,83.6h.417v18.366H88.822Z" transform="translate(-77.135 -83.183)"/>
      </g>
      <g id="Group_395" data-name="Group 395" transform="translate(432.118 348.529)">
        <path id="Path_365" data-name="Path 365" d="M106.522,86l-2.5.417-.417-1.67,4.591-1.252h.417v18.783h-2.087Z" transform="translate(-103.6 -83.5)"/>
        <path id="Path_366" data-name="Path 366" d="M106.117,100.613l3.339-2.922c3.339-2.922,5.426-5.009,5.426-8.765,0-1.67-1.252-3.339-4.174-3.339a11.17,11.17,0,0,0-4.591.835l-.417-2.087a18.525,18.525,0,0,1,5.426-.835c3.757,0,5.844,1.67,5.844,5.009,0,5.009-3.757,7.513-8.348,11.27h8.348v2.5H106.117v-1.67Z" transform="translate(-96.935 -83.5)"/>
      </g>
      <g id="Group_396" data-name="Group 396" transform="translate(517.685 348.529)">
        <path id="Path_367" data-name="Path 367" d="M127.022,86l-2.5.417-.417-1.67,4.591-1.252h.417v18.783h-2.087Z" transform="translate(-124.1 -83.5)"/>
        <path id="Path_368" data-name="Path 368" d="M126.2,101.866l.417-2.087c.835,0,2.5.417,4.591.417,2.5,0,4.174-.835,4.174-3.757,0-2.087-1.67-3.339-3.757-3.339h-2.087v-1.67h2.087a3.072,3.072,0,0,0,3.339-3.339c0-2.5-2.087-2.922-4.174-2.922-.835,0-2.5.417-3.339.417l-.417-1.67a12.868,12.868,0,0,1,4.174-.417c3.339,0,6.261,1.252,6.261,4.591a4.147,4.147,0,0,1-2.922,4.174h0a4.079,4.079,0,0,1,3.757,4.174c0,4.174-2.922,5.426-6.678,5.426C129.539,102.7,128.287,102.283,126.2,101.866Z" transform="translate(-117.435 -83.5)"/>
      </g>
      <g id="Group_397" data-name="Group 397" transform="translate(604.921 348.529)">
        <path id="Path_369" data-name="Path 369" d="M147.922,86l-2.5.417L145,84.752l4.591-1.252h.417v18.783h-2.087Z" transform="translate(-145 -83.5)"/>
        <path id="Path_370" data-name="Path 370" d="M155.348,96.639H147V94.97l7.513-11.27h2.5V94.97h2.922v1.67h-2.922v5.009h-1.67Zm0-1.67V85.787h0c0,.417-.417,1.252-.835,1.252l-5.426,7.931h6.261Z" transform="translate(-138.652 -82.865)"/>
      </g>
      <g id="Group_398" data-name="Group 398" transform="translate(691.323 348.529)">
        <path id="Path_371" data-name="Path 371" d="M168.622,86l-2.5.417-.417-1.67,4.591-1.252h.417v18.783h-2.087Z" transform="translate(-165.7 -83.5)"/>
        <path id="Path_372" data-name="Path 372" d="M167.8,101.648l.417-1.67c.835,0,2.5.417,4.591.417,2.5,0,4.591-1.252,4.591-3.757s-2.5-3.339-5.009-3.339h-3.339l.417-9.6h9.6v2.087h-7.513l-.417,5.844h2.087c3.339,0,6.261,1.252,6.261,5.009s-2.922,5.844-7.1,5.844A15.007,15.007,0,0,0,167.8,101.648Z" transform="translate(-159.035 -82.865)"/>
      </g>
      <g id="Group_399" data-name="Group 399" transform="translate(779.812 348.529)">
        <path id="Path_373" data-name="Path 373" d="M189.822,86l-2.5.417-.417-1.67,4.591-1.252h.417v18.783h-2.087Z" transform="translate(-186.9 -83.5)"/>
        <path id="Path_374" data-name="Path 374" d="M189,93.618c0-5.426,1.67-10.018,7.513-10.018a10.363,10.363,0,0,1,3.757.417l-.417,1.67a22.474,22.474,0,0,0-3.339-.417c-4.174,0-5.009,3.339-5.009,6.678A8.641,8.641,0,0,1,196.1,90.7c3.339,0,5.426,1.67,5.426,5.426s-2.5,6.261-5.844,6.261C190.67,102.383,189,98.209,189,93.618Zm10.018,2.5c0-2.5-.835-3.757-3.339-3.757a6.918,6.918,0,0,0-4.174,1.252c0,2.087.417,6.678,3.757,6.678C198.183,100.713,199.018,98.626,199.018,96.122Z" transform="translate(-180.235 -83.183)"/>
      </g>
      <g id="Group_400" data-name="Group 400" transform="translate(517.267 6.261)">
        <rect id="Rectangle_226" data-name="Rectangle 226" class="cls-8" width="177.812" height="78.054"/>
      </g>
      <g id="Group_401" data-name="Group 401" transform="translate(491.388 12.522)">
        <path id="Path_375" data-name="Path 375" class="cls-3" d="M117.8,11.765C117.8,6.757,119.887,3,125.731,3a17.121,17.121,0,0,1,4.591.417l-.417,1.67c-.417,0-2.5-.417-4.174-.417-4.174,0-5.426,2.5-5.426,6.678,0,4.591,1.67,6.678,5.844,6.678,1.252,0,2.922-.417,4.174-.417l.417,1.67a12.884,12.884,0,0,1-4.591.835C120.3,20.113,117.8,17.192,117.8,11.765Z" transform="translate(-117.8 -3)"/>
        <path id="Path_376" data-name="Path 376" class="cls-3" d="M121.4,3h2.087V9.261a6.376,6.376,0,0,1,4.174-1.67c1.67,0,3.339.835,3.339,2.922V19.7h-2.087V11.348a1.972,1.972,0,0,0-2.087-2.087,4.74,4.74,0,0,0-3.339,1.252V19.7H121.4Z" transform="translate(-106.374 -3)"/>
        <path id="Path_377" data-name="Path 377" class="cls-3" d="M124.3,12.965c0-3.757,5.009-3.757,7.931-3.757V7.539c0-1.67-1.252-1.67-2.5-1.67a8.335,8.335,0,0,0-3.757.835l-.417-1.67a15.568,15.568,0,0,1,5.009-.835c2.087,0,4.174.835,4.174,2.922v8.765h-1.67V14.635a5.291,5.291,0,0,1-3.757,1.67C126.387,16.3,124.3,15.47,124.3,12.965Zm7.931.417V10.461c-2.5,0-5.844,0-5.844,2.087s1.252,2.087,2.5,2.087C130.144,15.052,131.4,14.218,132.231,13.383Z" transform="translate(-97.169 0.809)"/>
        <path id="Path_378" data-name="Path 378" class="cls-3" d="M127.917,4.517h1.67V5.77a8.814,8.814,0,0,1,4.174-1.67c1.67,0,3.339.835,3.339,2.922V16.2h-2.087V7.857a1.972,1.972,0,0,0-2.087-2.087,4.74,4.74,0,0,0-3.339,1.252V16.2H127.5V4.517Z" transform="translate(-87.012 0.491)"/>
        <path id="Path_379" data-name="Path 379" class="cls-3" d="M131.752,20.479v-1.67h2.922c2.922,0,4.174-1.252,4.174-3.339v-.417a7.863,7.863,0,0,1-3.339.835c-2.922,0-5.009-1.67-5.009-5.426,0-3.339,2.087-6.261,5.844-6.261a5.294,5.294,0,0,1,2.5.417V4.2h1.67V15.887c0,3.757-2.5,5.009-5.844,5.009A6.189,6.189,0,0,0,131.752,20.479Zm7.1-7.1V5.87a14.761,14.761,0,0,0-2.5-.417c-2.922,0-3.757,2.087-3.757,4.591,0,2.922.835,4.174,3.339,4.174A3.992,3.992,0,0,0,138.848,13.383Z" transform="translate(-77.49 0.809)"/>
        <path id="Path_380" data-name="Path 380" class="cls-3" d="M133.7,10.361c0-3.339,1.252-6.261,5.426-6.261,2.922,0,4.591,1.67,4.591,4.591v1.67h-7.931c0,2.922.835,4.174,4.174,4.174a22.476,22.476,0,0,0,3.339-.417l.417,1.252a8.335,8.335,0,0,1-3.757.835C135.37,16.622,133.7,14.535,133.7,10.361Zm7.931-1.252c0-2.087-.417-3.339-2.922-3.339-2.087,0-2.922,1.252-2.922,3.339Z" transform="translate(-67.333 0.491)"/>
        <path id="Path_381" data-name="Path 381" class="cls-3" d="M137.9,4.252a1.252,1.252,0,0,1,2.5,0,1.252,1.252,0,0,1-2.5,0Zm.417,3.757H140.4V19.7h-2.087Z" transform="translate(-54.003 -3)"/>
        <path id="Path_382" data-name="Path 382" class="cls-3" d="M139.717,4.517h1.67V5.77a8.814,8.814,0,0,1,4.174-1.67c1.67,0,3.339.835,3.339,2.922V16.2h-2.087V7.857a1.972,1.972,0,0,0-2.087-2.087,4.74,4.74,0,0,0-3.339,1.252V16.2H139.3V4.517Z" transform="translate(-49.559 0.491)"/>
        <path id="Path_383" data-name="Path 383" class="cls-3" d="M143.5,16.2l.417-1.67c.835,0,2.5.417,3.339.417,1.67,0,2.922-.417,2.922-2.087,0-1.252-.417-1.67-1.67-1.67l-2.087-.417a3.049,3.049,0,0,1-2.5-2.922c0-2.922,2.087-3.757,4.591-3.757a11.556,11.556,0,0,1,3.757.417l-.417,1.67c-.417,0-2.087-.417-3.339-.417s-2.5.417-2.5,1.67.417,1.252,1.67,1.67l2.087.417c2.087.417,2.922,1.252,2.922,3.339,0,2.5-2.087,3.757-4.591,3.757A15.65,15.65,0,0,1,143.5,16.2Z" transform="translate(-36.228 0.491)"/>
        <path id="Path_384" data-name="Path 384" class="cls-3" d="M146.3,13.383V4.2h2.087v8.765a1.972,1.972,0,0,0,2.087,2.087,4.739,4.739,0,0,0,3.339-1.252V4.2H155.9V15.887h-1.67V14.635a8.814,8.814,0,0,1-4.174,1.67C147.552,16.3,146.3,15.47,146.3,13.383Z" transform="translate(-27.341 0.809)"/>
        <path id="Path_385" data-name="Path 385" class="cls-3" d="M149.817,4.517h1.67V5.77a6.217,6.217,0,0,1,3.757-1.67H156.5V5.77h-1.252a7.923,7.923,0,0,0-3.757,1.252V16.2H149.4V4.517Z" transform="translate(-17.502 0.491)"/>
        <path id="Path_386" data-name="Path 386" class="cls-3" d="M151.4,4.2h2.087l2.922,8.765.417.835h0l.417-.835L160.583,4.2h2.087L158.5,16.3h-2.087Z" transform="translate(-11.154 0.809)"/>
        <path id="Path_387" data-name="Path 387" class="cls-3" d="M154.3,10.361c0-3.339,1.252-6.261,5.426-6.261,2.922,0,4.591,1.67,4.591,4.591v1.67h-7.931c0,2.922.835,4.174,4.174,4.174a22.475,22.475,0,0,0,3.339-.417l.417,1.252a8.335,8.335,0,0,1-3.757.835C155.97,16.622,154.3,14.535,154.3,10.361Zm7.931-1.252c0-2.087-.417-3.339-2.922-3.339-2.087,0-2.922,1.252-2.922,3.339Z" transform="translate(-1.949 0.491)"/>
        <path id="Path_388" data-name="Path 388" class="cls-3" d="M157,20.479v-1.67h.835c1.67,0,2.087-.835,2.5-2.087l.417-1.252L157,4.2h2.087l3.339,8.348.417,1.252h0l.417-1.252L166.183,4.2h2.087L164.1,16.3c-1.252,3.339-2.922,4.591-5.009,4.591A8.491,8.491,0,0,1,157,20.479Z" transform="translate(6.621 0.809)"/>
        <path id="Path_389" data-name="Path 389" class="cls-3" d="M134.813,12.939c0-1.252-.835-1.67-2.087-1.67a4.74,4.74,0,0,0-3.339,1.252V21.7H127.3V10.017h1.67V11.27a8.814,8.814,0,0,1,4.174-1.67c1.252,0,2.922.417,3.339,1.67a8.752,8.752,0,0,1,4.591-1.67c1.67,0,3.339.835,3.339,2.922V21.7h-2.087V12.939a1.972,1.972,0,0,0-2.087-2.087A4.74,4.74,0,0,0,136.9,12.1v9.183h-2.087V12.939Z" transform="translate(-87.647 17.948)"/>
        <path id="Path_390" data-name="Path 390" class="cls-3" d="M132.1,15.861c0-3.339,1.252-6.261,5.426-6.261,2.922,0,4.591,1.67,4.591,4.591v1.67h-7.931c0,2.922.835,4.174,4.174,4.174a22.475,22.475,0,0,0,3.339-.417l.417,1.252a8.335,8.335,0,0,1-3.757.835C133.77,22.122,132.1,20.035,132.1,15.861Zm7.931-1.252c0-2.087-.417-3.339-2.922-3.339-2.087,0-2.922,1.252-2.922,3.339Z" transform="translate(-72.412 17.948)"/>
        <path id="Path_391" data-name="Path 391" class="cls-3" d="M136.987,21.739V14.226H134.9v-1.67h2.087V9.217l2.087-.417v3.757h3.757v1.67h-3.757v7.1c0,1.252.417,1.67,1.67,1.67.835,0,1.252,0,1.67-.417v1.67a5.294,5.294,0,0,1-2.5.417A2.637,2.637,0,0,1,136.987,21.739Z" transform="translate(-63.525 15.409)"/>
        <path id="Path_392" data-name="Path 392" class="cls-3" d="M137.3,8.5h2.087v6.261a6.377,6.377,0,0,1,4.174-1.67c1.67,0,3.339.835,3.339,2.922V25.2h-2.087V16.431a1.972,1.972,0,0,0-2.087-2.087,4.74,4.74,0,0,0-3.339,1.252v9.183H137.3Z" transform="translate(-55.907 14.457)"/>
        <path id="Path_393" data-name="Path 393" class="cls-3" d="M140.3,15.961c0-4.174,2.087-6.261,5.426-6.261,4.174,0,5.426,2.5,5.426,6.261,0,4.174-1.67,6.261-5.426,6.261C142.387,21.8,140.3,19.718,140.3,15.961Zm8.765-.417c0-3.339-.835-4.591-3.339-4.591s-3.339,2.087-3.339,4.591c0,3.757,1.252,4.591,3.339,4.591S149.065,19.3,149.065,15.544Z" transform="translate(-46.385 18.266)"/>
        <path id="Path_394" data-name="Path 394" class="cls-3" d="M143.4,19.77c0-3.339,2.087-6.261,5.844-6.261a7.344,7.344,0,0,1,2.5.417V8.5h2.087V25.2h-1.67V23.944a4.74,4.74,0,0,1-3.339,1.252C145.07,25.613,143.4,23.944,143.4,19.77Zm7.931,3.339V15.178a14.761,14.761,0,0,0-2.5-.417c-2.922,0-3.757,2.087-3.757,4.591,0,3.339,1.252,4.591,3.339,4.591A3.992,3.992,0,0,0,151.331,23.109Z" transform="translate(-36.546 14.457)"/>
        <path id="Path_395" data-name="Path 395" class="cls-3" d="M146.5,15.961c0-4.174,2.087-6.261,5.426-6.261,4.174,0,5.426,2.5,5.426,6.261,0,4.174-1.67,6.261-5.426,6.261C148.587,21.8,146.5,19.718,146.5,15.961Zm8.765-.417c0-3.339-.835-4.591-3.339-4.591s-3.339,2.087-3.339,4.591c0,3.757,1.252,4.591,3.339,4.591S155.265,19.3,155.265,15.544Z" transform="translate(-26.706 18.266)"/>
        <path id="Path_396" data-name="Path 396" class="cls-3" d="M149.8,8.5h2.087V25.2H149.8Z" transform="translate(-16.232 14.457)"/>
        <path id="Path_397" data-name="Path 397" class="cls-3" d="M150.9,15.961c0-4.174,2.087-6.261,5.426-6.261,4.174,0,5.426,2.5,5.426,6.261,0,4.174-1.67,6.261-5.426,6.261C152.987,21.8,150.9,19.718,150.9,15.961Zm8.765-.417c0-3.339-.835-4.591-3.339-4.591s-3.339,2.087-3.339,4.591c0,3.757,1.252,4.591,3.339,4.591C158.831,20.135,159.665,19.3,159.665,15.544Z" transform="translate(-12.741 18.266)"/>
        <path id="Path_398" data-name="Path 398" class="cls-3" d="M155.252,25.979v-1.67h2.922c2.922,0,4.174-1.252,4.174-3.339v-.417a7.863,7.863,0,0,1-3.339.835c-2.922,0-5.009-1.67-5.009-5.426,0-3.339,2.087-6.261,5.844-6.261a5.294,5.294,0,0,1,2.5.417V9.7h1.67V21.387c0,3.757-2.5,5.009-5.844,5.009A6.189,6.189,0,0,0,155.252,25.979Zm7.1-7.1V10.952a14.761,14.761,0,0,0-2.5-.417c-2.922,0-3.757,2.087-3.757,4.591,0,2.922.835,4.174,3.339,4.174A3.163,3.163,0,0,0,162.348,18.883Z" transform="translate(-2.901 18.266)"/>
        <path id="Path_399" data-name="Path 399" class="cls-3" d="M157,25.979v-1.67h.835c1.67,0,2.087-.835,2.5-2.087l.417-1.252L157,9.7h2.087l3.339,8.348.417,1.252h0l.417-1.252L166.183,9.7h2.087L164.1,21.8c-1.252,3.339-2.922,4.591-5.009,4.591A8.491,8.491,0,0,1,157,25.979Z" transform="translate(6.621 18.266)"/>
        <path id="Path_400" data-name="Path 400" class="cls-3" d="M127.8,23.965c0-3.757,5.009-3.757,7.931-3.757v-1.67c0-1.67-1.252-1.67-2.5-1.67a8.335,8.335,0,0,0-3.757.835l-.417-1.67a15.567,15.567,0,0,1,5.009-.835c2.087,0,4.174.835,4.174,2.922v8.765h-1.67V25.635a5.291,5.291,0,0,1-3.757,1.67C129.47,27.3,127.8,26.47,127.8,23.965Zm7.931.417V21.461c-2.5,0-5.844,0-5.844,2.087s1.252,2.087,2.5,2.087C133.226,26.052,134.9,25.218,135.731,24.383Z" transform="translate(-86.06 35.723)"/>
        <path id="Path_401" data-name="Path 401" class="cls-3" d="M131,15.517h1.67V16.77a8.814,8.814,0,0,1,4.174-1.67c1.67,0,3.339.835,3.339,2.922V27.2H138.1V18.857a1.972,1.972,0,0,0-2.087-2.087,4.74,4.74,0,0,0-3.339,1.252V27.2H131Z" transform="translate(-75.903 35.405)"/>
        <path id="Path_402" data-name="Path 402" class="cls-3" d="M134,25.27c0-3.339,2.087-6.261,5.844-6.261a7.344,7.344,0,0,1,2.5.417V14h2.087V30.7h-2.087V29.444a4.74,4.74,0,0,1-3.339,1.252C136.087,31.113,134,29.444,134,25.27Zm8.348,3.339V20.678a14.761,14.761,0,0,0-2.5-.417c-2.922,0-3.757,2.087-3.757,4.591,0,3.339,1.252,4.591,3.339,4.591A6.033,6.033,0,0,0,142.348,28.609Z" transform="translate(-66.381 31.914)"/>
        <path id="Path_403" data-name="Path 403" class="cls-3" d="M146.648,26.47a7.863,7.863,0,0,1-3.339.835c-2.922,0-5.009-2.087-5.009-5.844,0-3.339,1.67-6.261,5.844-6.261a5.294,5.294,0,0,1,2.5.417l.417-.417h1.67V31.479h-2.087Zm0-1.252V16.87a4.519,4.519,0,0,0-2.5-.417c-2.5,0-3.757,2.087-3.757,4.174,0,2.922.835,5.009,3.339,5.009A14.811,14.811,0,0,0,146.648,25.218Z" transform="translate(-52.733 35.723)"/>
        <path id="Path_404" data-name="Path 404" class="cls-3" d="M141.6,24.383V15.2h2.087v8.765a1.972,1.972,0,0,0,2.087,2.087,4.74,4.74,0,0,0,3.339-1.252V15.617H151.2v11.27h-1.67V25.635a8.814,8.814,0,0,1-4.174,1.67C143.27,27.3,141.6,26.47,141.6,24.383Z" transform="translate(-42.259 35.723)"/>
        <path id="Path_405" data-name="Path 405" class="cls-3" d="M144.7,21.361c0-3.339,1.252-6.261,5.426-6.261,2.922,0,4.591,1.67,4.591,4.591v1.67h-7.931c0,2.922.835,4.174,4.174,4.174a22.475,22.475,0,0,0,3.339-.417l.417,1.252a8.335,8.335,0,0,1-3.757.835C146.37,27.622,144.7,25.535,144.7,21.361Zm7.931-1.252c0-2.087-.417-3.339-2.922-3.339-2.087,0-2.922,1.252-2.922,3.339Z" transform="translate(-32.419 35.405)"/>
        <path id="Path_406" data-name="Path 406" class="cls-3" d="M147.5,27.2l.417-1.67c.835,0,2.5.417,3.339.417,1.67,0,2.922-.417,2.922-2.087,0-1.252-.417-1.67-1.67-1.67l-2.087-.417a3.049,3.049,0,0,1-2.5-2.922c0-2.922,2.087-3.757,4.591-3.757a11.555,11.555,0,0,1,3.757.417l-.417,1.67c-.417,0-2.087-.417-3.339-.417s-2.5.417-2.5,1.67.417,1.252,1.67,1.67l2.087.417c2.087.417,2.922,1.252,2.922,3.339,0,2.5-2.087,3.757-4.591,3.757A15.65,15.65,0,0,1,147.5,27.2Z" transform="translate(-23.532 35.405)"/>
        <path id="Path_407" data-name="Path 407" class="cls-3" d="M152.087,27.239V19.726H150v-1.67h2.087V14.717l2.087-.417v3.757h3.757v1.67h-3.757v7.1c0,1.252.417,1.67,1.67,1.67.835,0,1.252,0,1.67-.417v1.67a5.294,5.294,0,0,1-2.5.417A2.637,2.637,0,0,1,152.087,27.239Z" transform="translate(-15.597 32.866)"/>
        <path id="Path_408" data-name="Path 408" class="cls-3" d="M152.4,15.252a1.252,1.252,0,0,1,2.5,0,1.107,1.107,0,0,1-1.252,1.252C152.4,16.5,152.4,16.087,152.4,15.252Zm0,3.757h2.087V30.7H152.4Z" transform="translate(-7.98 31.914)"/>
        <path id="Path_409" data-name="Path 409" class="cls-3" d="M153.6,21.461c0-4.174,2.087-6.261,5.426-6.261,4.174,0,5.426,2.5,5.426,6.261,0,4.174-1.67,6.261-5.426,6.261C155.687,27.3,153.6,25.218,153.6,21.461Zm8.765-.417c0-3.339-.835-4.591-3.339-4.591s-3.339,2.087-3.339,4.591c0,3.757,1.252,4.591,3.339,4.591S162.365,24.8,162.365,21.044Z" transform="translate(-4.171 35.723)"/>
        <path id="Path_410" data-name="Path 410" class="cls-3" d="M157.217,15.517h1.67V16.77a8.814,8.814,0,0,1,4.174-1.67c1.67,0,3.339.835,3.339,2.922V27.2h-2.087V18.857a1.972,1.972,0,0,0-2.087-2.087,4.74,4.74,0,0,0-3.339,1.252V27.2H156.8V15.517Z" transform="translate(5.986 35.405)"/>
      </g>
      <g id="Up_arrow_copy" transform="translate(675.879 15.026)">
        <g id="Group_402" data-name="Group 402">
          <path id="Path_411" data-name="Path 411" class="cls-3" d="M178.7,11.948,162,3.6V20.3Z" transform="translate(-162 -3.6)"/>
        </g>
      </g>
    </g>
  </g>
</svg>
