<?xml version="1.0" encoding="utf-8"?>
<!-- Generator: Adobe Illustrator 21.0.2, SVG Export Plug-In . SVG Version: 6.00 Build 0)  -->
<svg version="1.1" id="Layer_1" xmlns="http://www.w3.org/2000/svg" xmlns:xlink="http://www.w3.org/1999/xlink" x="0px" y="0px"
	 viewBox="0 0 505 542" style="enable-background:new 0 0 505 542;" xml:space="preserve">
<style type="text/css">
	.st0{fill:#BEBCA5;}
	.st1{fill:#BA896F;}
	.st2{opacity:0.3;fill:#BA896F;enable-background:new    ;}
	.st3{fill:#FBC2AA;}
	.st4{fill:#A1664C;}
	.st5{fill:#AE775B;}
	.st6{fill:#1A1A1A;}
	.st7{fill:#FFFFFF;}
	.st8{fill:#EF4123;}
	.st9{fill:#0D0D0D;}
	.st10{fill:#F6D7B9;}
	.st11{fill:#F4C9A2;}
	.st12{fill:#F1BC8F;}
	.st13{fill:#E49F75;}
	.st14{opacity:0.5;}
	.st15{fill:#E3E2D6;}
	.st16{fill:#414042;}
	.st17{fill:#370E19;}
	.st18{fill:#B72026;}
	.st19{opacity:0.6;fill:#FFFFFF;enable-background:new    ;}
	.st20{fill:#D7CAB8;}
	.st21{fill:#E2C4A7;}
	.st22{fill:#D02026;}
	.st23{opacity:0.9;fill:#FFFFFF;enable-background:new    ;}
	.st24{fill:url(#SVGID_1_);}
	.st25{fill:#808080;}
	.st26{fill:#999999;}
</style>
<circle class="st0" cx="251" cy="292.1" r="240.6"/>
<g>
	<g>
		<path class="st1" d="M402.1,125.5c-18.4-1.1-30.6-18-26.4-34.8c-13.1,0.2-24.3,0.2-37.4,0c4.3,16.8-7.1,33.6-25.5,34.7"/>
		<path class="st2" d="M402.1,125.5c-18.4-1.1-30.6-18-26.4-34.8c-13.1,0.2-24.3,0.2-37.4,0c4.3,16.8-7.1,33.6-25.5,34.7"/>
		<path class="st3" d="M304.2,158c38.5,7.3,83.6,0,121,0c0-7.5,0-27.9-0.1-28.4"/>
		<path class="st4" d="M298.1,158c18.7,3.1,38.8,3.6,58.9,3.1V90.9c-6.1,0-12.1-0.1-18.7-0.2c4.3,16.8-7.1,23.6-25.5,24.7"/>
		<path class="st1" d="M356.5,104.4c0.1,0,0.2,0,0.3,0c4.2,0,6.3,0,8.6-0.9c2.2-0.8,3.3-2.7,6.3-5.3c2.6-2.2,7.2-4.4,8.3-6.8
			c1.4-2.9,1-6.1,1.6-10.3c2.4,1.2,4.9-4.9,5.5-6.9c0.7-2.9,3.1-7.9,3.9-11.2c0.4-1.9,0.2-3.4-0.6-3.9c-1.6-1-3.1-0.5-5.5,2.3
			c-0.1-2.4-0.3-4.8-0.2-7.4c0.2-4.8,0.3-8.8-0.4-12.2c-0.7-3.4-2.2-6.3-5.4-8.8l0,0l0,0c-1.8-1.4-3.7-2.5-5.9-3.5c0,0,0,0-0.1,0
			c-0.1-0.1-0.3-0.1-0.4-0.2c-0.1,0-0.2-0.1-0.2-0.1c-0.1,0-0.2-0.1-0.3-0.1c-0.1,0-0.2-0.1-0.3-0.1c-0.1-0.1-0.2-0.1-0.4-0.1
			c-0.1,0-0.2-0.1-0.3-0.1c-0.2-0.1-0.3-0.1-0.5-0.2c-0.1,0-0.1-0.1-0.2-0.1c-0.2-0.1-0.5-0.2-0.7-0.2l0,0
			c-5.7-1.8-12.3-2.4-18.4-1.5c-6.2,0.8-11.9,2.9-16.3,6.3c-3.1,2.5-4.6,5.3-5.3,8.7c-0.7,3.4-0.5,7.4-0.4,12.2
			c0.1,2.6-0.1,5-0.3,7.4c-2.3-2.7-3.9-3.2-5.4-2.2c-0.7,0.5-1,2-0.6,3.9c0.7,3.3,3.1,8.3,3.9,11.2c0.5,2,3,7.9,5.4,6.9
			c0.5,4.1,0.2,7.2,1.6,10c1.1,2.4,5.7,4.7,8.3,6.9c3,2.6,4.1,4.5,6.3,5.4C350.6,104.3,352.6,104.4,356.5,104.4z"/>
		<path class="st5" d="M356.5,104.4c0.1,0,0.2,0,0.3,0h0.2V26.3c-1.9,0-3.9,0.1-5.8,0.4c-6.2,0.8-11.9,2.9-16.3,6.3
			c-3.1,2.5-4.6,5.3-5.3,8.7c-0.7,3.4-0.5,7.4-0.4,12.2c0.1,2.6-0.1,5-0.3,7.4c-2.3-2.7-3.9-3.2-5.4-2.2c-0.7,0.5-1,2-0.6,3.9
			c0.7,3.3,3.1,8.3,3.9,11.2c0.5,2,3,7.9,5.4,6.9c0.5,4.1,0.2,7.2,1.6,10c1.1,2.4,5.7,4.7,8.3,6.9c3,2.6,4.1,4.5,6.3,5.4
			C350.6,104.3,352.6,104.4,356.5,104.4z"/>
		<path class="st6" d="M377.4,40c2,2.1,5.9,14.5,5.2,28.1c6.2-19.9,9.7-34.5-1.8-44.1c-2.5-3.6,0.3-5.4-3.6-17.6
			c-3.6,6.6-11.1,5.8-14.8,7.7l1-2.4c-4.1,2.8-9,3.3-13.8,4.3c-8,1.1-14,4.2-14.9,6.6c-15.1,4.7-9.1,25.8-4.9,42.6
			c0.1-8.4,2.1-18.9,6.9-26.3c1.1-1,2.5-1.6,3.5-1.2C354.5,43.6,375.6,38.1,377.4,40z"/>
		<path d="M357,14.4c-2.4,0.6-4.9,1-7.3,1.5c-8,1.1-14,4.2-14.9,6.6c-15.1,4.7-9.1,25.8-4.9,42.6c0.1-8.4,2.1-18.9,6.9-26.3
			c1.1-1,2.5-1.6,3.5-1.2c5,2.1,11,2.8,16.6,2.9L357,14.4L357,14.4z"/>
	</g>
	<g>
		<path class="st7" d="M358.1,117.6l14.2-10.5c0,0,41.2,12,41.2,15.2c0,3.1,1.1,136.7-13,179.3c-10.5,12.3-45.4,14.5-45.4,14.5"/>
		<polyline class="st7" points="410.4,119.9 425.9,126.3 441.1,214.9 441.7,243.8 400.3,237 385.4,222.2 405.2,183.2 		"/>
		<path class="st7" d="M358.1,119.9l-19.9-11.8c0,0-35.6,11-35.6,14.2c0,3.1-1.1,136.7,13,179.3c10.5,12.2,40.8,14.4,40.8,14.4"/>
		<polyline class="st7" points="305.6,119.9 290.1,126.3 269.9,214.9 285.6,246.5 327.4,246.5 327.4,222.2 310.8,183.2 		"/>
		<path class="st8" d="M346.6,165.2l6.8-31.1c0.2-1,0.1-2-0.4-2.9l-2.6-4.9c-0.1-0.3,0-0.6,0.2-0.9c1-1,2-2,3-3
			c0.7-0.7,1.5-1.3,1.9-2.2c0.3-0.6,1.1-2.1,2-1.5c0.8,0.5,1.1,1.4,1.6,2.1s1.3,1.3,1.9,1.9c0.9,0.9,1.8,1.8,2.7,2.7
			c0.2,0.2,0.3,0.6,0.2,0.9l-2.6,4.9c-0.5,0.9-0.6,1.9-0.4,2.9l6.8,31.1c0,0.2,0,0.3,0,0.5l-9,31.1c-0.2,0.4-0.6,0.6-1,0.4
			c-0.4,0.1-0.8,0-1-0.4l-10-31.1C346.6,165.5,346.6,165.4,346.6,165.2z"/>
		<path class="st7" d="M335.9,99.4l20.8,18.7c0.3,0.3,0.8,0.3,1.1,0l20.8-18.7l4.6,13.6l-9,29.7l-16.3-22.9c-0.3-0.5-1-0.5-1.4,0
			l-16.3,22.9l-9-29.7L335.9,99.4z"/>
	</g>
</g>
<path class="st9" d="M178.9,85.9c2.8,35.4-35.6,77.4-66,78.8c-29.5,1.4,11.4-16-2.2-40.8c-29.9-54.8,16.2-98.4,41.4-73.8
	C174.5,40.1,177.6,69.8,178.9,85.9z"/>
<path d="M178.9,85.9c1.6,20.9-14.7,41.6-34.7,55.5V44.7c2.8,1.2,5.5,2.9,8,5.3C174.5,40.1,177.6,69.8,178.9,85.9z"/>
<path class="st10" d="M128.8,119c2.8,10.6,1,22-2.9,27.1c-1,1.3-5.3,2.3-9.7,3.1c-6,1.1-6,6.6-9.2,7.2c-9.1,1.9-10.3,13.8-9.8,18.6
	c0.6,6.3-1.2,0.7,0.4,5.9c0.4,1.2,0.8,3.9,1.2,7c3.8,2.1,7.8,3.9,12,5.5h65.9c2.3-0.9,4.6-1.8,6.9-2.9l1.4-11.6l0.1-6.5
	c-0.2-22.5-8.9-19.8-20.6-24.5c-9.5-3.8-8.8-12.1-8-28.4L128.8,119z"/>
<g>
	<path class="st11" d="M128.8,119c2.8,10.6,1,22-2.9,27.1c-1,1.3-5.3,2.3-9.7,3.1c-6,1.1-6,6.6-9.2,7.2c-9.1,1.9-10.3,13.8-9.8,18.6
		c0.6,6.3-1.2,0.7,0.4,5.9c0.4,1.2,0.8,3.9,1.2,7c3.8,2.1,7.8,3.9,12,5.5h65.9c2.3-0.9,4.6-1.8,6.9-2.9l1.4-11.6l0.1-6.5
		c-0.2-22.5-8.9-19.8-20.6-24.5c-9.5-3.8-8.8-12.1-8-28.4L128.8,119z"/>
</g>
<g>
	<path class="st12" d="M144.2,193.3h32.5c2.3-0.9,4.6-1.8,6.9-2.9l1.4-11.6l6.9,2.9c-0.2-22.5-15.7-29.2-27.3-33.9
		c-9.5-3.8-8.8-12.1-8-28.4l-12.3-0.2L144.2,193.3L144.2,193.3z"/>
</g>
<path class="st13" d="M113,84.6c-1.2-0.9-2.1-0.2-2.4,1.2c-0.4,2.1,1.7,6.1,2.4,8.6c-0.2-3.4-2.3-6.7-1.8-8.5
	c0.3-1.1,1.2-1.3,2.1-0.3C113.2,85.2,113.1,84.9,113,84.6z"/>
<path class="st10" d="M154.8,125.1c3.2-2.8,5.6-5.5,8.6-10.3c2.2-3.5,3.5-6.3,4.6-10.2c2.6,0.5,3.6-1.6,4.3-4.5c1-4.3,0.3-5,1.1-8.8
	c0.9-4.7-2.1-4.5-4.7-0.7c0.3-4,2.6-14.5,2-18.2c-2.4-14-11.7-24.6-26.5-24.6c-16.5,0.1-24.5,6.6-27,22.4c-0.8,5-1,9.1-0.9,13
	c-2.3-2.2-4.7,0.3-3.8,4.5c0.8,3.8,2.5,8.1,3.5,12.5c0.6,2.9,1.7,4.9,4.1,4.6c1.3,4.6,3,8.2,5.6,11.9c2.6,3.6,4.6,6.1,7.2,8.3
	c5.3,4.6,8.1,6.6,11.1,6.6C147,131.4,150.1,129.3,154.8,125.1z"/>
<g class="st14">
	<path class="st11" d="M154.8,125.1c3.2-2.8,5.6-5.5,8.6-10.3c2.2-3.5,3.5-6.3,4.6-10.2c2.6,0.5,3.6-1.6,4.3-4.5
		c1-4.3,0.5-4.5,1.3-8.3c0.9-4.7-0.1-7.7-2.7-3.9c0.3-4,0.5-11.8-0.2-15.5c-2.4-14-11.6-24.6-26.5-24.6v83.7
		C147.2,131.3,150.2,129.2,154.8,125.1z"/>
</g>
<path d="M144.2,39.6c5.3,0.7,10.4,2.9,14.5,6.8c-0.8,0.2,6.4,1.9,7.3,9.7c6.8,12.4,0.5,2.2-0.4,2.2c5.6,10.5,9,13,7.6,20.9
	c-0.6,3.1-1.4-0.2-3.2,5.7c0.9-6.2-0.2,0.1,0-4.5c0.4-8.5-4.3-15.5-5.5-21.4v-0.8h-0.1c-2,6.7-11.1,9.4-20.3,13.8L144.2,39.6
	L144.2,39.6z"/>
<path class="st7" d="M182,325.7c-0.5,0-69.3,0-69.3,0c-5.2-0.7-9.3,0.5-12.2,3.7c-3.9,4.2-4.2,10.3-4.2,10.5l-8.1,81
	c-0.1,1.2,0.6,2.3,1.5,2.4c0.9,0.1,1.7-0.8,1.8-2l8.1-81.1c0-0.1,0.3-4.6,3.1-7.6c2.3-2.4,5.6-3.3,9.8-2.6c0.1,0,0.1,0,0.2,0h69.5
	c0.2,0,0.3,0,0.5-0.1c0.1,0,8.5-3.3,13.3,0.7c1.9,1.6,3,4,3.3,7.5c1.7,16.7,6.7,81.3,6.7,82.2c0.1,1.2,0.9,2.1,1.8,2
	s1.6-1.1,1.6-2.3c-0.2-3.9-5.1-65.7-6.7-82.5c-0.5-4.8-2.1-8.4-4.8-10.6C192.2,322.2,183.7,325.1,182,325.7z"/>
<path class="st7" d="M196.9,321.6c-40.7,14.7-78.6,5.1-94.7,1l-0.8-0.2c-5.3-1.3-9.7-0.4-13.1,2.8c-5.6,5.3-6.2,14.6-6.2,15v0.1
	l-2.8,110.8c0,1.6,1,2.9,2.3,3c1.3,0,2.4-1.2,2.4-2.8c0,0,2.8-110.5,2.8-110.7c0-0.3,0.5-7.2,4.4-10.8c2.3-2.1,5.4-2.7,9.3-1.7
	l0.8,0.2c16.5,4.2,55.1,14,97-1.1c0.1,0,6.9-2.6,11.4,1.2c2.5,2.2,3.9,6.1,4.2,11.8c0,0.3,0,111.1,0,111.1c0,1.6,1,2.9,2.3,2.9
	s2.3-1.3,2.3-2.9V340c0-0.1,0-0.1,0-0.2c-0.4-7.6-2.5-13-6.3-16.3C205.9,318.1,197.2,321.4,196.9,321.6z"/>
<path class="st15" d="M144.4,306.6c0,0-38.9-1.9-54.7-8c0,0-9.8-4.1-13.1,8c-2.3,8.7,9.4,12.8,9.4,12.8s32.5,14.1,61.7,13.2
	c29.2-1,75.8-15.1,73.5-25.7c0,0-2.5-13.6-15.4-8.7C193.1,303,161.6,307.2,144.4,306.6z"/>
<g>
	<path class="st8" d="M146,112.4c-1.5-0.2-1.9,1-2.8,1c-0.9,0-1.4-1.3-2.8-1c-2.1,0.4-5.7,2.3-5.7,2.3s5.4,1.6,8.5,1.6
		s8.5-1.6,8.5-1.6S148.1,112.8,146,112.4z"/>
	<path class="st8" d="M135.9,114.9c0,0,3.8,1,6.9,1c3.1,0,7.7-1,7.7-1s-4.1,4.9-7.9,4.9C138.8,119.8,135.9,114.9,135.9,114.9z"/>
</g>
<g>
	<path class="st16" d="M171.5,87.5c-0.2-0.2-2.8-1.4-3.7-1.9c-0.1-0.2-0.3-0.3-0.5-0.4c-0.5-0.2-1.1-0.3-1.9-0.3
		c-4.5,0-13.3,3.2-15.8,4.1c-1.9,0.7-3.3,1.3-3.8,1.5c-0.4-0.1-1.7-0.5-2.6-0.5c-0.9,0-2.2,0.4-2.6,0.5c-0.4-0.2-1.9-0.8-3.8-1.5
		c-2.6-1-11.3-4.1-15.8-4.1c-0.8,0-1.4,0.1-1.9,0.3c-0.2,0.1-0.4,0.2-0.5,0.4c-0.9,0.5-3.5,1.7-3.7,1.9c-0.5,0.4,0.2,3.7,0.2,3.7
		c0.2,0.9,0.5,1.2,0.8,1.3c0.5,0.1,2.8,0.1,3.6,0.1c1.5,4.5,3.8,9.6,4.9,10.4c0.3,0.2,1.1,0.8,7.3,0.8c2.7,0,5.2-0.1,5.6-0.1
		c1.7-0.1,3.6-7.5,3.6-7.6c0.1-0.5,0.4-0.9,2.2-0.9s2.1,0.5,2.2,0.9c0,0.1,1.9,7.5,3.6,7.6c0.5,0,3,0.1,5.6,0.1c6.2,0,7-0.6,7.3-0.8
		c1-0.8,3.4-5.9,4.9-10.4c0.8,0,3.1-0.1,3.6-0.1c0.4,0,0.6-0.4,0.8-1.3C171.2,91.1,172,87.9,171.5,87.5z"/>
	<path class="st17" d="M163.9,88.2c0.7,0.9-1.5,10.9-3.4,12.3c-1.9,1.3-10.2,1.1-10.7,0.7c-0.5-0.5-3.2-8.1-2.5-8.7
		C149.6,90.3,163.4,87.5,163.9,88.2z"/>
	<path class="st10" d="M163.9,88.2c0.7,0.9-1.5,10.9-3.4,12.3c-1.9,1.3-10.2,1.1-10.7,0.7c-0.5-0.5-3.2-8.1-2.5-8.7
		C149.6,90.3,163.4,87.5,163.9,88.2z"/>
	<g class="st14">
		<path class="st10" d="M163.9,88.2c0.7,0.9-1.5,10.9-3.4,12.3c-1.9,1.3-10.2,1.1-10.7,0.7c-0.5-0.5-3.2-8.1-2.5-8.7
			C149.6,90.3,163.4,87.5,163.9,88.2z"/>
	</g>
	<path class="st10" d="M122.3,88.2c-0.7,0.9,1.5,10.9,3.4,12.3s10.2,1.1,10.7,0.7c0.5-0.5,3.2-8.1,2.5-8.7
		C136.6,90.3,122.9,87.5,122.3,88.2z"/>
</g>
<polygon class="st7" points="165.1,217.9 126.4,217.9 104.4,145.5 143.2,147.6 181.2,145.5 "/>
<polygon class="st7" points="73.6,210.2 73.6,210.2 95.9,254 118.6,252.7 112.8,212.5 112.8,212.5 117.9,147.1 104.4,146.1 "/>
<polygon class="st7" points="195.9,245.4 204,231.1 218.8,204.6 219.2,204.6 181.8,145.9 160,158.3 192.9,203.5 184.4,209.5 "/>
<path class="st7" d="M129.1,217.9L117,272.1c0,0,26.3,31.7,62.2,0c-11.4-54.2-11.4-54.2-11.4-54.2"/>
<g>
	<g>
		<g>
			<path class="st18" d="M104.2,448.3c-1.1,2.6-1.8,5.3-2.1,7.3c-0.3,1.8,2.8,6.1,6,7.7c2.1,1,9.2,2.2,11.2,0.1
				c1.8-1.9,3.5-4.8,4-5.4C124.8,455.9,104.2,448.3,104.2,448.3z"/>
			<path class="st19" d="M117.6,453.8c1.9,0.9,3.6,1.8,4.7,2.6c-1.7,2.8-3.6,5.4-5.4,8c-1.3,0.2-2.7,0.2-4.2,0
				C114.4,460.9,116.1,457.5,117.6,453.8z"/>
			<path class="st20" d="M118.3,419.4c1.9-3.8,9.1-11.9,13.4-10.1c4.5,1.9,3.3,14.2,2.1,17.3C132.7,429.7,116,423.8,118.3,419.4z"/>
			<path class="st21" d="M105.4,448.4c1.6-6.3,8.3-14,9.5-17.6s3.3-11,5.2-12c3.3-1.8,12.1,2.6,13,6.5c0.6,2.6-2.5,6.6-4.3,12.2
				c-1.6,4.9-4,14.2-6.4,19C115.8,455.6,111,453.2,105.4,448.4z"/>
			<path class="st22" d="M118.1,420c-2,4.7-2.6,9.7-5.3,14.1c-2.1,3.4-4.3,6.8-6.3,10.2c-0.8,1.3-1.7,2.6-2.3,4
				c-1.2,2.6,3.4-2.5,3.4-2.5s-1.4,0,6.8-12.4c3.5-5.3,2.6-10.8,5-13.7c2.1-2.5,4.6-4.7,6.7-7.3c1.3-1.5,3.2-4,5.5-2.7
				c2.5,1.4,2.1,4.4,1.6,6.7c-0.7,3.4-0.5,7-1.2,10.4c-0.7,3.6-2.8,5.7-4.7,10.7c-2.2,6.1-2.3,11-3.6,13.9c0,0-1.7,8.5-0.6,6.6
				c1-1.7,1.3-4.3,1.8-6.2c0.8-3.3,1.6-6.6,2.5-9.9c1.5-5.3,5-9.5,6.7-14.7c1.2-3.8,2.4-15.7-2.2-18.3
				C127.5,406.2,120,415.7,118.1,420z"/>
			<path class="st22" d="M108.8,442.4c-0.1,0.3-4.3,3.7-4.8,6.7c-0.4,2.3,3.8,9.5,6,10.7c3,1.6,10.8,1,12.9-1.2
				c1.8-1.9,1.5-8.5,1.5-8.5s-1.1,3.9-3.4,4c-2.2,0.1-11.6-3.3-13-6.9C107.3,445.4,108.8,442.4,108.8,442.4z"/>
		</g>
		<path class="st23" d="M123.2,455.6c0,0-0.2,2.4-3.3,3.4c-3,0.9-7.3,0.9-7.3,0.9s2.3-2.5,5.2-3.4
			C120.7,455.7,123.2,455.6,123.2,455.6z"/>
	</g>
	<g>
		<g>
			<path class="st18" d="M185.2,446.5c0.9,2.7,1.4,5.4,1.6,7.4c0.2,1.9-3.2,5.9-6.4,7.3c-2.1,0.9-9.3,1.7-11.2-0.6
				c-1.7-2-3.2-5-3.6-5.6C164.2,452.8,185.2,446.5,185.2,446.5z"/>
			<path class="st19" d="M171.5,451.2c-2,0.8-3.7,1.6-4.8,2.3c1.6,2.9,3.2,5.6,4.9,8.3c1.2,0.3,2.7,0.3,4.1,0.3
				C174.3,458.5,172.8,455,171.5,451.2z"/>
			<path class="st20" d="M173,416.8c-1.7-3.9-8.3-12.5-12.8-10.9c-4.6,1.6-4.2,14-3.2,17.1C157.9,426.2,174.9,421.3,173,416.8z"/>
			<path class="st21" d="M184,446.6c-1.2-6.4-7.4-14.5-8.4-18.1c-1-3.7-2.6-11.2-4.5-12.3c-3.2-2-12.2,1.9-13.4,5.7
				c-0.8,2.6,2,6.8,3.5,12.5c1.3,5,3.1,14.4,5.3,19.3C173.1,453.1,178.1,451.1,184,446.6z"/>
			<path class="st22" d="M173.1,417.4c1.7,4.8,2,9.8,4.4,14.4c1.9,3.5,3.8,7,5.7,10.6c0.7,1.4,1.5,2.7,2,4.2
				c1.1,2.7-3.3-2.7-3.3-2.7s1.4,0.1-6-12.8c-3.2-5.5-1.9-10.9-4.2-14c-1.9-2.7-4.3-5-6.3-7.7c-1.2-1.6-2.9-4.2-5.3-3
				c-2.6,1.2-2.3,4.2-2,6.5c0.4,3.5,0.1,7,0.6,10.5c0.5,3.6,2.5,5.9,4,11c1.8,6.2,1.6,11.1,2.7,14.1c0,0,1.2,8.5,0.2,6.6
				c-0.9-1.8-1-4.4-1.4-6.3c-0.6-3.3-1.2-6.7-1.9-10c-1.1-5.4-4.4-9.8-5.7-15.1c-1-3.9-1.4-15.9,3.3-18.2
				C164.6,403.1,171.5,413,173.1,417.4z"/>
			<path class="st22" d="M181,440.4c0.1,0.3,4,3.9,4.4,6.9c0.3,2.3-4.4,9.3-6.6,10.3c-3.1,1.5-10.9,0.3-12.8-2c-1.7-2-1-8.5-1-8.5
				s0.9,4,3.1,4.2c2.2,0.2,11.8-2.6,13.4-6C182.3,443.4,181,440.4,181,440.4z"/>
		</g>
		<path class="st23" d="M183.4,445.8c0,0,1.6,1.9,0.1,4.7s-4.4,5.9-4.4,5.9s-0.2-3.4,1.2-6.1C181.7,447.6,183.4,445.8,183.4,445.8z"
			/>
	</g>
	
		<rect x="115.2" y="401.8" transform="matrix(0.3651 -0.931 0.931 0.3651 -295.9073 381.8722)" class="st21" width="33.6" height="12.2"/>
	
		<rect x="151.8" y="385.7" transform="matrix(0.921 -0.3895 0.3895 0.921 -144.3019 93.2912)" class="st21" width="12.2" height="33.6"/>
	<g>
		<rect x="125.2" y="280.1" class="st9" width="52" height="36.5"/>
		<path class="st6" d="M161.9,388.1l-14.8,7.6c0,0-23.3-45.7-28.8-57.1S95,284.4,94.6,281.1c-0.4-3.4,6.3-14.4,14-17.3
			c7.6-3,25,1.3,28.8,18.2C141.2,298.8,161.9,388.1,161.9,388.1z"/>
		<path class="st6" d="M142.9,403.8l57.5-107.5c0,0,2.5-15.2-4.7-22s-26.2-4.7-33.4,17.3c-7.2,22-34.3,102.8-34.3,102.8L142.9,403.8
			z"/>
	</g>
</g>
<path class="st7" d="M389,325.7c-0.5,0-69.3,0-69.3,0c-5.2-0.7-9.3,0.5-12.2,3.7c-3.9,4.2-4.2,10.3-4.2,10.5l-8.1,81
	c-0.1,1.2,0.6,2.3,1.5,2.4c0.9,0.1,1.7-0.8,1.8-2l8.1-81.1c0-0.1,0.3-4.6,3.1-7.6c2.3-2.4,5.6-3.3,9.8-2.6c0.1,0,0.1,0,0.2,0h69.5
	c0.2,0,0.3,0,0.5-0.1c0.1,0,8.5-3.3,13.3,0.7c1.9,1.6,3,4,3.3,7.5c1.7,16.7,6.7,81.3,6.7,82.2c0.1,1.2,0.9,2.1,1.8,2
	s1.6-1.1,1.6-2.3c-0.2-3.9-5.1-65.7-6.7-82.5c-0.5-4.8-2.1-8.4-4.8-10.6C399.2,322.2,390.6,325.1,389,325.7z"/>
<path class="st7" d="M403.8,321.6c-40.7,14.7-78.6,5.1-94.7,1l-0.8-0.2c-5.3-1.3-9.7-0.4-13.1,2.8c-5.6,5.3-6.2,14.6-6.2,15v0.1
	l-2.8,110.8c0,1.6,1,2.9,2.3,3c1.3,0,2.4-1.2,2.4-2.8c0,0,2.8-110.5,2.8-110.7c0-0.3,0.5-7.2,4.4-10.8c2.3-2.1,5.4-2.7,9.3-1.7
	l0.8,0.2c16.5,4.2,55.1,14,97-1.1c0.1,0,6.9-2.6,11.4,1.2c2.5,2.2,3.9,6.1,4.2,11.8c0,0.3,0,111.1,0,111.1c0,1.6,1,2.9,2.3,2.9
	s2.3-1.3,2.3-2.9V340c0-0.1,0-0.1,0-0.2c-0.4-7.6-2.5-13-6.3-16.3C412.8,318.1,404.2,321.4,403.8,321.6z"/>
<path class="st15" d="M351.4,305.7c0,0-38.9-1.9-54.7-8c0,0-9.8-4.1-13.1,8c-2.3,8.7,9.4,12.8,9.4,12.8s32.5,14.1,61.7,13.2
	c29.2-1,75.8-15.1,73.5-25.7c0,0-2.5-13.6-15.4-8.7C400,302.2,368.5,306.4,351.4,305.7z"/>
<path class="st7" d="M348.2,217.9l-12,54.2c0,0,26.3,31.7,62.2,0C387,217.9,387,217.9,387,217.9"/>
<rect x="316.9" y="273.2" class="st9" width="90.2" height="41.1"/>
<rect x="240.7" y="51.2" class="st15" width="20.7" height="247.3"/>
<linearGradient id="SVGID_1_" gradientUnits="userSpaceOnUse" x1="574.4632" y1="182.1422" x2="574.4632" y2="446.323" gradientTransform="matrix(-1 0 0 1 825.5132 80.192)">
	<stop  offset="0" style="stop-color:#E3E2D6"/>
	<stop  offset="0.2766" style="stop-color:#DEDDCF"/>
	<stop  offset="0.6564" style="stop-color:#D0CEBC"/>
	<stop  offset="1" style="stop-color:#BEBCA5"/>
</linearGradient>
<polygon class="st24" points="240.7,261.6 240.7,528.4 261.4,528.4 261.4,261.6 "/>
<polygon class="st15" points="485.7,239.4 15.9,239.4 12.7,260.1 489,260.1 "/>
<path class="st9" d="M112.6,95.3C87,54.6,136.4,25.2,158.7,46.4c-0.8,0.2,6.4,1.9,7.3,9.7c6.8,12.4,0.5,2.2-0.4,2.2
	c5.6,10.5,9,13,7.6,20.9c-0.6,3.1-1.6,13.5-4.1,19.5c-0.8-9.1-12.4-36.1-12.4-42.8c-3-9.4,3.2,12.6,2,6.7l5.9-4.4h-0.1
	c-5,17.4-57.9,7.8-36.5,69.2c-1.1-1.4-18.8-33.8-19.2-35.2c-3,5.2,3.7,11.3,7.6,18.1C112.9,105.8,112,100.5,112.6,95.3z"/>
<g>
	<path d="M324.6,467.5c0,0-1.3,1.6-1.2,3.8c0,2.2,0.5,6.3,1.2,7.1c1.6,1.8,7.3,2.6,16.3,1.2c9.1-1.4,12.2-4.7,12.4-7.2
		c0.2-3-0.6-7.6-1.6-7.5C350.7,465,324.6,467.5,324.6,467.5z"/>
	<path class="st6" d="M346.9,439.3c-0.3-1.3-1-2.5-2-3.3c-2.6-2-7.9-5.6-11.1-5c-3.6,0.6-7.3,8.6-8.5,11.4c-0.3,0.6-0.4,1.3-0.4,2
		l-0.3,12.5c0,0-2.1,12.3,0.4,17.1s30,1.6,27.3-6.5l-3-17.6L346.9,439.3z"/>
	<path class="st9" d="M323.7,475c0,0,0.1,0.1,0.3,0.3c0.2,0.2,0.4,0.5,0.8,0.9c0.4,0.3,0.8,0.7,1.4,1.1c0.3,0.2,0.6,0.3,0.9,0.4
		c0.3,0.1,0.7,0.2,1.1,0.2c0.8,0.1,1.6,0.2,2.5,0.2c0.4,0,0.9,0,1.4,0.1c0.5,0,0.9,0,1.4,0c1,0,1.9,0,2.9-0.1c0.5,0,1-0.1,1.5-0.1
		l0.8-0.1l0.8-0.1c0.5-0.1,1-0.1,1.5-0.2c0.5-0.1,1-0.2,1.5-0.3c1-0.3,1.9-0.5,2.8-0.8s1.8-0.7,2.6-1c0.4-0.2,0.8-0.4,1.1-0.6
		c0.4-0.2,0.7-0.4,1.1-0.6c0.3-0.2,0.6-0.4,0.9-0.6c0.3-0.2,0.6-0.4,0.8-0.6c0.5-0.5,0.8-1,1-1.4c0.2-0.5,0.3-0.9,0.4-1.1
		c0.1-0.3,0.1-0.4,0.1-0.4s0,0.2-0.1,0.4c-0.1,0.3-0.2,0.7-0.4,1.2c-0.2,0.5-0.5,1-1,1.5c-0.2,0.3-0.5,0.4-0.8,0.7
		c-0.3,0.2-0.6,0.4-0.9,0.7c-0.3,0.2-0.7,0.4-1,0.6c-0.4,0.2-0.7,0.5-1.1,0.6c-0.4,0.2-0.8,0.4-1.2,0.6c-0.1,0-0.2,0.1-0.3,0.1
		c-0.1,0-0.2,0.1-0.3,0.1c-0.2,0.1-0.4,0.2-0.7,0.2c-0.9,0.4-1.9,0.6-2.8,0.9c-0.5,0.1-1,0.2-1.5,0.3s-1,0.2-1.5,0.3l-0.8,0.1
		l-0.8,0.1c-0.5,0-1,0.1-1.5,0.1c-1,0.1-2,0.1-3,0.1c-0.5,0-1,0-1.4,0c-0.5,0-0.9-0.1-1.4-0.1c-0.9-0.1-1.7-0.2-2.5-0.3
		c-0.4-0.1-0.8-0.1-1.1-0.2c-0.4-0.1-0.7-0.3-1-0.4c-0.6-0.4-1-0.8-1.4-1.1c-0.4-0.4-0.6-0.7-0.8-0.9
		C323.8,475.2,323.7,475,323.7,475z"/>
	<path class="st8" d="M326.3,443.2c0,0,4.1-6.7,8.6-7.5c4.4-0.8,9.5,2.1,9.5,2.1l-4.6-30.7l-18.8,7L326.3,443.2z"/>
	<path class="st9" d="M325.9,459.5c0,0,0.2,0.7,0.5,1.8c0.2,0.6,0.4,1.2,0.6,2c0.3,0.8,0.6,1.6,1,2.5c0.2,0.4,0.4,0.9,0.7,1.3
		c0.3,0.4,0.5,0.8,0.9,1.1c0.1,0.1,0.2,0.1,0.3,0.2l0,0l0,0l0,0l0,0h0.1l0.2,0.1c0.1,0,0.2,0.1,0.3,0.1c0.1,0,0.2,0.1,0.3,0.1
		c0.5,0.1,0.9,0.1,1.4,0.1c1,0,2,0,3.1-0.1c1-0.1,2.1-0.2,3.2-0.4s2.1-0.3,3.2-0.5c1-0.2,2.1-0.4,3-0.7c0.2-0.1,0.5-0.2,0.6-0.3l0,0
		l0,0l0,0l0,0l0.1-0.1l0.1-0.1c0.1-0.1,0.1-0.2,0.2-0.2c0.3-0.4,0.5-0.9,0.7-1.4c0.4-1,0.6-2,0.8-2.9c0.2-0.9,0.4-1.8,0.5-2.6
		s0.2-1.5,0.3-2c0.1-0.6,0.1-1,0.2-1.3c0-0.3,0.1-0.5,0.1-0.5s0,0.2,0,0.5s0,0.8,0,1.4c0,0.6-0.1,1.3-0.1,2.1
		c-0.1,0.8-0.2,1.7-0.3,2.7c-0.2,1-0.4,2-0.7,3.1c-0.2,0.5-0.4,1.1-0.7,1.6c-0.1,0.1-0.2,0.3-0.3,0.4c-0.1,0.1-0.1,0.1-0.1,0.1
		l-0.1,0.1l0,0l0,0l0,0c0,0-0.1,0.1,0,0c-0.3,0.2-0.5,0.3-0.8,0.4c-1,0.4-2,0.6-3.1,0.9c-1,0.2-2.1,0.4-3.2,0.6
		c-1.1,0.2-2.2,0.3-3.2,0.4c-1.1,0.1-2.1,0.1-3.2,0c-0.5,0-1-0.1-1.6-0.2c-0.1,0-0.3-0.1-0.4-0.1s-0.3-0.1-0.4-0.2l-0.2-0.1h-0.1
		l0,0c-0.1,0,0,0,0,0l0,0l0,0c-0.1-0.1-0.2-0.2-0.3-0.3c-0.4-0.4-0.7-0.9-1-1.4s-0.5-1-0.7-1.5c-0.4-0.9-0.6-1.8-0.8-2.6
		c-0.2-0.8-0.3-1.5-0.4-2.1C325.9,460.2,325.9,459.5,325.9,459.5z"/>
	<path class="st9" d="M346.8,454.4c0,0-0.3,0-0.8,0s-1.2,0-2,0c-0.4,0-0.9,0-1.3,0.1c-0.5,0-1,0.1-1.5,0.1s-1,0.1-1.6,0.2
		c-0.5,0.1-1.1,0.1-1.6,0.2c-0.5,0.1-1.1,0.2-1.6,0.3s-1,0.2-1.6,0.3c-0.5,0.1-1,0.2-1.4,0.3c-0.5,0.1-0.9,0.2-1.3,0.3
		s-0.8,0.2-1.1,0.3c-0.3,0.1-0.6,0.2-0.8,0.2c-0.5,0.1-0.7,0.2-0.7,0.2s0.3-0.1,0.7-0.3c0.2-0.1,0.5-0.2,0.8-0.4
		c0.3-0.1,0.7-0.3,1.1-0.4c0.4-0.1,0.8-0.3,1.3-0.4c0.5-0.1,0.9-0.3,1.4-0.4c0.5-0.1,1-0.3,1.6-0.4c0.5-0.1,1.1-0.2,1.6-0.3
		c0.6-0.1,1.1-0.1,1.6-0.2c0.5,0,1.1-0.1,1.6-0.1s1,0,1.5,0s0.9,0,1.3,0.1c0.8,0.1,1.5,0.2,2,0.3
		C346.5,454.3,346.8,454.4,346.8,454.4z"/>
	<path class="st9" d="M330.2,440.7c0,0-3.3,3.4-3.8,5.7c-0.4,2.3-0.2,8.7-0.2,8.7S328.1,444.7,330.2,440.7z"/>
</g>
<g>
	<path d="M391.3,466.4c0,0,1.4,1.5,1.5,3.7s-0.1,6.3-0.8,7.1c-1.5,1.9-7.1,3-16.2,2.1s-12.5-3.9-12.8-6.4c-0.4-3,0.2-7.6,1.2-7.5
		C365.2,465.5,391.3,466.4,391.3,466.4z"/>
	<path class="st6" d="M367.4,439.6c0.2-1.4,0.8-2.6,1.8-3.4c2.5-2.1,7.6-6.1,10.8-5.7c3.6,0.4,7.8,8.2,9.2,10.9
		c0.3,0.6,0.5,1.2,0.5,1.9l1.1,12.5c0,0,2.8,12.2,0.6,17.1c-2.2,4.9-29.9,3.4-27.6-4.8l2-17.8L367.4,439.6z"/>
	<path class="st9" d="M392.7,473.9c0,0-0.1,0.1-0.2,0.4c-0.2,0.2-0.4,0.5-0.8,0.9c-0.3,0.4-0.8,0.8-1.3,1.1
		c-0.3,0.2-0.6,0.3-0.9,0.5c-0.3,0.1-0.7,0.2-1.1,0.3c-0.8,0.2-1.6,0.3-2.5,0.4c-0.4,0-0.9,0.1-1.3,0.1c-0.5,0-0.9,0.1-1.4,0.1
		c-1,0.1-1.9,0.1-3,0.1c-0.5,0-1,0-1.5,0h-0.8l-0.8-0.1c-0.5-0.1-1-0.1-1.5-0.2c-0.5-0.1-1-0.1-1.5-0.2c-1-0.2-2-0.4-2.9-0.7
		c-0.9-0.2-1.8-0.6-2.6-0.9c-0.4-0.1-0.8-0.4-1.2-0.5c-0.4-0.2-0.8-0.3-1.1-0.5c-0.3-0.2-0.7-0.4-1-0.6c-0.3-0.2-0.6-0.3-0.8-0.6
		c-0.5-0.4-0.8-0.9-1.1-1.4c-0.2-0.4-0.4-0.8-0.5-1.1s-0.1-0.4-0.1-0.4s0,0.1,0.1,0.4c0.1,0.3,0.2,0.7,0.4,1.1
		c0.2,0.5,0.6,1,1.1,1.4c0.2,0.2,0.5,0.4,0.8,0.6c0.3,0.2,0.6,0.4,1,0.6c0.3,0.2,0.7,0.4,1.1,0.6c0.4,0.2,0.8,0.4,1.2,0.6
		c0.4,0.2,0.8,0.3,1.3,0.5c0.1,0,0.2,0.1,0.3,0.1c0.1,0,0.2,0.1,0.3,0.1c0.2,0.1,0.5,0.1,0.7,0.2c0.9,0.3,1.9,0.5,2.9,0.7
		c0.5,0.1,1,0.2,1.5,0.2c0.5,0.1,1,0.1,1.5,0.2l0.8,0.1h0.8c0.5,0,1,0,1.5,0c1,0,2,0,3-0.1c0.5,0,1-0.1,1.4-0.1
		c0.5-0.1,0.9-0.1,1.4-0.2c0.9-0.1,1.7-0.3,2.5-0.5c0.4-0.1,0.7-0.2,1.1-0.3c0.3-0.1,0.7-0.3,0.9-0.5c0.6-0.4,1-0.8,1.3-1.2
		s0.6-0.7,0.7-1C392.7,474,392.7,473.9,392.7,473.9z"/>
	<path class="st8" d="M388.2,442.3c0,0-4.5-6.4-9-6.9s-9.4,2.7-9.4,2.7l2.7-30.9l19.2,5.9L388.2,442.3z"/>
	<path class="st9" d="M389.6,458.5c0,0-0.1,0.7-0.4,1.8c-0.1,0.6-0.3,1.3-0.5,2c-0.2,0.8-0.5,1.6-0.8,2.5c-0.2,0.4-0.4,0.9-0.6,1.3
		c-0.2,0.4-0.5,0.9-0.8,1.2c-0.1,0.1-0.2,0.2-0.2,0.2l0,0l0,0l0,0l0,0h-0.1l-0.2,0.1c-0.1,0-0.2,0.1-0.3,0.1c-0.1,0-0.2,0.1-0.3,0.1
		c-0.5,0.1-0.9,0.2-1.4,0.2c-1,0.1-2,0.1-3.1,0.1s-2.1-0.1-3.2-0.2c-1.1-0.1-2.1-0.2-3.2-0.4c-1-0.2-2.1-0.3-3-0.5
		c-0.2-0.1-0.5-0.1-0.6-0.2l0,0l0,0l0,0l0,0l-0.1-0.1l-0.1-0.1c-0.1-0.1-0.1-0.1-0.2-0.2c-0.3-0.4-0.5-0.9-0.7-1.3
		c-0.4-1-0.7-1.9-1-2.9c-0.3-0.9-0.5-1.8-0.7-2.5c-0.2-0.8-0.3-1.4-0.4-2s-0.2-1-0.2-1.3c-0.1-0.3-0.1-0.5-0.1-0.5s0,0.2,0,0.5
		s0,0.8,0.1,1.3c0.1,0.6,0.1,1.3,0.2,2.1s0.3,1.7,0.5,2.7s0.5,2,0.9,3.1c0.2,0.5,0.4,1.1,0.8,1.6c0.1,0.1,0.2,0.3,0.3,0.4
		c0.1,0.1,0.1,0.1,0.2,0.1l0.1,0.1l0,0l0,0l0,0c0,0,0.1,0.1,0.1,0c0.3,0.2,0.5,0.2,0.8,0.3c1,0.3,2,0.5,3.1,0.7s2.1,0.3,3.2,0.4
		c1.1,0.1,2.2,0.1,3.2,0.2c1.1,0,2.1,0,3.2-0.2c0.5-0.1,1-0.2,1.5-0.3c0.1,0,0.3-0.1,0.4-0.1c0.1-0.1,0.3-0.1,0.4-0.2l0.2-0.1
		l0.1-0.1l0,0c0.1,0,0,0,0,0l0,0l0,0c0.1-0.1,0.2-0.2,0.3-0.3c0.4-0.4,0.7-1,0.9-1.5c0.2-0.5,0.4-1,0.6-1.5c0.3-1,0.5-1.9,0.7-2.7
		s0.2-1.5,0.3-2.1C389.6,459.2,389.6,458.5,389.6,458.5z"/>
	<path class="st9" d="M368.4,454.6c0,0,0.3,0,0.8-0.1c0.5,0,1.2-0.1,2-0.1c0.4,0,0.9,0,1.3,0c0.5,0,1,0,1.5,0s1,0,1.6,0.1
		c0.5,0,1.1,0.1,1.6,0.1c0.5,0.1,1.1,0.1,1.6,0.2c0.5,0.1,1.1,0.1,1.6,0.2c0.5,0.1,1,0.2,1.5,0.2c0.5,0.1,0.9,0.2,1.3,0.2
		c0.4,0.1,0.8,0.1,1.1,0.2c0.3,0.1,0.6,0.1,0.9,0.2c0.5,0.1,0.7,0.1,0.7,0.1s-0.3-0.1-0.7-0.3c-0.2-0.1-0.5-0.2-0.8-0.3
		s-0.7-0.2-1.1-0.4c-0.4-0.1-0.8-0.3-1.3-0.4c-0.5-0.1-1-0.2-1.5-0.3s-1-0.2-1.6-0.3c-0.5-0.1-1.1-0.1-1.6-0.2
		c-0.6,0-1.1-0.1-1.6-0.1s-1.1,0-1.6,0s-1,0-1.5,0.1c-0.5,0-0.9,0.1-1.3,0.2c-0.8,0.1-1.5,0.3-2,0.4
		C368.7,454.5,368.4,454.6,368.4,454.6z"/>
	<path class="st9" d="M384.1,440.1c0,0,3.5,3.1,4.1,5.5c0.6,2.3,0.7,8.7,0.7,8.7S386.5,443.9,384.1,440.1z"/>
</g>
<path class="st6" d="M320.5,435l-28-152.2c0,0,2.1-15.6,11.2-20.1s34.7,2.4,35,26.1s10,142.1,10,142.1L320.5,435z"/>
<path class="st6" d="M393.1,433.9l27.4-151c0,0-2-15.7-11-20.2s-34.7,2.1-35.3,25.7c-0.6,23.6-7.7,142.2-7.7,142.2L393.1,433.9z"/>
<g>
	<g>
		<path class="st25" d="M89.5,242.1c0,2.4,2,4.3,4.3,4.3h104.6c2.4,0,4.3-2,4.3-4.3v-73.9c0-2.4-2-4.3-4.3-4.3H93.9
			c-2.4,0-4.3,2-4.3,4.3L89.5,242.1L89.5,242.1z"/>
		<path class="st26" d="M89.3,166.2v76.1c0,2.3,1.9,4.2,4.2,4.2h106"/>
	</g>
	<path class="st25" d="M86.9,248.2c0,1.6,1.9,2.8,4.1,2.8h110.4c2.3,0,4.1-1.3,4.1-2.8s-1.9-2.8-4.1-2.8H91
		C88.7,245.4,86.9,246.7,86.9,248.2z"/>
</g>
<g>
	<g>
		<path class="st25" d="M304.6,242.1c0,2.4,2,4.3,4.3,4.3h104.6c2.4,0,4.3-2,4.3-4.3v-73.9c0-2.4-2-4.3-4.3-4.3H309
			c-2.4,0-4.3,2-4.3,4.3v73.9H304.6z"/>
		<path class="st26" d="M304.4,166.2v76.1c0,2.3,1.9,4.2,4.2,4.2h106"/>
	</g>
	<path class="st25" d="M302,248.2c0,1.6,1.9,2.8,4.1,2.8h110.4c2.3,0,4.1-1.3,4.1-2.8s-1.9-2.8-4.1-2.8H306.1
		C303.8,245.4,302,246.7,302,248.2z"/>
</g>
</svg>
