<svg xmlns="http://www.w3.org/2000/svg" viewBox="-16817.945 2769.134 166.945 102.163">
  <defs>
    <style>
      .cls-1 {
        fill: #fff;
      }
    </style>
  </defs>
  <path id="Path_669" data-name="Path 669" class="cls-1" d="M165.67,52.462a24.265,24.265,0,0,0-27.059-16.291,18.749,18.749,0,0,0-16.843-9.94,24.167,24.167,0,0,0-4.418.552A24.037,24.037,0,0,0,94.432,11.045c-1.381,0-2.761.276-4.142.276A23.892,23.892,0,0,0,69.582,0,24.808,24.808,0,0,0,44.731,23.194a24.475,24.475,0,0,0-11.873-3.037A24.747,24.747,0,0,0,8.007,45.007a27.555,27.555,0,0,0,2.761,11.6A25.471,25.471,0,0,0,0,77.313a24.747,24.747,0,0,0,24.851,24.851H135.3a19.09,19.09,0,0,0,19.052-19.052V81.454A24.376,24.376,0,0,0,165.67,52.462Z" transform="translate(-16817.945 2769.134)"/>
</svg>
