<svg xmlns="http://www.w3.org/2000/svg" viewBox="-17439.281 157.428 1446.048 177.97">
  <g transform="translate(-17573 -27)">
    <path d="M734.5,116.7c.756-.189-7.563-3.971-15.505-9.643a51.874,51.874,0,0,1-10.4-9.832c-2.269-3.025-3.971-7.942-6.24-8.7a1.616,1.616,0,0,0,0-1.324c-.189-.189-.378-.378-.567-.378a1.471,1.471,0,0,0-.378-1.513,1.612,1.612,0,0,0-2.458,0c-9.265-8.887-20.8-13.8-32.712-17.963l8.131-20.8L579.832,9.3,559.6,60.731l94.543,37.25,11.723-29.875c11.723,3.971,23.258,9.076,32.334,17.774-.567.945-.757,2.08-.189,2.647.189.378.756.378,1.134.378a.844.844,0,0,0,0,.945.831.831,0,0,0,.945.189c.945,1.324-.189,4.538,3.971,12.669,4.16,7.374,13.236,15.694,29.5,21.745C733.559,124.642,732.991,117.079,734.5,116.7Z" transform="translate(845.215 203.066)"/>
    <path d="M619.9,65.686c-.189,0-3.971-6.807-2.458-7.752.378-.189-2.647-.567-7.185-1.135,3.025-.378,5.294-.756,5.862-1.324l-.378-1.135c-.756.567-5.673,1.324-11.912,1.324-6.051-.945-13.425-2.647-18.719-5.105a43.827,43.827,0,0,1-6.807-3.782c-2.458-1.7-4.916-3.4-6.429-3.4a1.037,1.037,0,0,0-.756-1.135,1.7,1.7,0,0,0-.945-.189,2,2,0,0,0-1.135-1.324,2.338,2.338,0,0,0-2.647.756C555.8,37.7,545.02,36.567,534.242,36.378L552.016,15.2,466.172,46.4,429.3,90.456l28.174-10.211c-2.08,5.483-3.025,10.589-1.324,12.48,4.16,5.105,24.2-16.64,33.468-18.53s7.753-12.291,15.127-8.887c4.349,2.08,11.156-2.269,12.669-8.887l16.072-18.909c10.967.189,21.934,1.324,32.523,5.105a2.307,2.307,0,0,0,1.135,2.647,2.071,2.071,0,0,0,1.513,0,1.04,1.04,0,0,0,.567.945,1.206,1.206,0,0,0,1.135,0c.756.756,1.891,2.269,3.782,4.727h0l.756.756c3.025,3.971,9.832,8.887,21.367,11.723,9.265,3.4,18.719,5.862,21.934,9.454l1.134-1.135c-2.269-2.458-7-4.538-12.669-6.429A95.208,95.208,0,0,0,619.9,65.686Z" transform="translate(793.137 260.322)"/>
    <path d="M208.878,101.359c-1.135-2.08-2.269-4.16-3.4-6.429-3.971-8.32-8.131-17.018-8.32-26.85A2.665,2.665,0,0,0,199.045,66V64.487a1.476,1.476,0,0,0,.756-.756,1.205,1.205,0,0,0,0-1.135,18.157,18.157,0,0,0,3.971-5.862h.189a2.294,2.294,0,0,0,.189-.945c1.891-5.294,3.214-14.181.189-27.228-1.513-10.967-6.618-21.556-9.454-26.661h-1.891a65.053,65.053,0,0,1,7.185,15.694c-2.269-4.16-5.294-9.076-10.778-12.1.378.189.567,7.185-1.324,7-.378,0,1.513,1.513,3.971,5.673-2.08-2.269-3.782-3.4-4.349-3.4v.567c.756-.189,4.538,2.647,7.563,8.509a68.441,68.441,0,0,1,4.349,21.745,47.623,47.623,0,0,1-1.891,15.127c-.378,0-.945.567-1.324,1.135a2.4,2.4,0,0,0-.189,1.135,2.508,2.508,0,0,0-1.135,1.891,2.347,2.347,0,0,0,1.135,2.836c.189,10.211,4.538,18.719,8.509,27.228.945,2.08,2.08,3.971,3.025,6.051l-7.563-1.324L194.129,142.2l80.55,14.749,6.051-42.544Z" transform="translate(304.906 196.474)"/>
    <g>
      <path d="M102.639,1.4,27.572,27.494,1.1,80.627l26.472-9.265c-1.135,5.673-1.135,10.778.756,12.48,4.538,4.16,18.909-15.5,28.552-22.69l19.287-6.807L80.138,46.4a13.563,13.563,0,0,0,7-14.181Z" transform="translate(134.672 183.028)"/>
      <path d="M10.955,103.161c-2.269-7.753-4.16-12.291-4.727-15.316a1.422,1.422,0,0,0,.945-1.324,8.19,8.19,0,0,0-.189-.945,3.923,3.923,0,0,0,1.135-1.891A2.922,2.922,0,0,0,6.606,80.66c6.24-21.556,20.421-39.9,34.981-56.726L41.019,22.8C26.27,39.818,11.9,58.159,5.282,80.282A2.842,2.842,0,0,0,2.446,82.74a2.626,2.626,0,0,0,.378,2.08,1.2,1.2,0,0,0-.945,1.135,2.147,2.147,0,0,0,.567,1.513c-1.324,2.269-1.135,9.454.567,19.854a209.772,209.772,0,0,1,.945,21.367,140.3,140.3,0,0,1-.945,14.56c-.378,2.647-.756,5.483-1.324,8.131,0,2.269-3.025,6.051-.945,5.105-.189.378,0,2.458,2.647,2.458,2.458.189,4.916,0,4.916,1.324,1.135.945,6.429-14.938,5.673-31.766A106.958,106.958,0,0,0,10.955,103.161Z" transform="translate(133.705 202.093)"/>
    </g>
  </g>
</svg>
