<?xml version="1.0" encoding="utf-8"?>
<!-- Generator: Adobe Illustrator 21.0.2, SVG Export Plug-In . SVG Version: 6.00 Build 0)  -->
<svg version="1.1" id="Layer_1" xmlns="http://www.w3.org/2000/svg" xmlns:xlink="http://www.w3.org/1999/xlink" x="0px" y="0px"
	 viewBox="0 0 347.3 347.4" style="enable-background:new 0 0 347.3 347.4;" xml:space="preserve">
<style type="text/css">
	.st0{fill:none;}
	.st1{fill:#999999;}
	.st2{fill:#E63312;}
	.st3{fill:#0E8F40;}
	.st4{fill:#3EAB37;}
	.st5{fill:#FFFFFF;}
	.st6{font-family:'SuecaHd-Bold';}
	.st7{font-size:39px;}
	.st8{font-size:38px;}
	.st9{font-family:'Helvetica';}
	.st10{font-size:15px;}
</style>
<g>
	<polygon class="st0" points="145.4,96 114.3,10.5 145.4,96 	"/>
	<path class="st1" d="M171.5,91.8c0.7,0,1.4,0,2.1,0.1V0c-20.3-0.1-40.4,3.4-59.3,10.5L145.4,96C153.6,93.3,162.4,91.8,171.5,91.8z"
		/>
	<path class="st2" d="M145.4,96l-31.1-85.5c-8.6,3-16.9,6.7-24.8,11.2C5.7,68.2-24.7,173.8,21.8,257.6L99,214.9
		c-6.6-11.9-10.4-25.6-10.4-40.2C88.6,138,112.4,107,145.4,96z"/>
	<path class="st3" d="M339.7,122.9l-89,27.2c2.4,7.8,3.7,16.1,3.7,24.7c0,45.8-37.1,82.9-82.9,82.9c-31.2,0-58.3-17.2-72.5-42.6
		l-77,42.8c40.2,72.4,123.3,106,202.5,81.8C316.1,311.6,367.7,214.4,339.7,122.9z"/>
	<path class="st4" d="M250.7,150l89-27.2C316.8,48.3,251.4,0,173.6,0v91.8C209.9,92.8,240.4,116.9,250.7,150z"/>
</g>
<g id="Group_277" transform="translate(205.061 39.066)">
	<text transform="matrix(1 0 0 1 -4.581250e-04 35.9999)" class="st5 st6 st7">20.3</text>
</g>
<g id="Group_278" transform="translate(179.7 259.812)">
	<text transform="matrix(1 0 0 1 -7.782500e-04 34.9999)" class="st5 st6 st8">46.6</text>
</g>
<g id="Group_279" transform="translate(15.919 109.414)">
	<text transform="matrix(1 0 0 1 9.218750e-04 34.9999)" class="st5 st6 st8">27.6</text>
</g>
<g id="Group_281" transform="translate(726.502 1108.855)">
	<text transform="matrix(1 0 0 1 -500.877 -1013.023)" class="st5 st9 st10">Very well</text>
</g>
<g id="Group_285" transform="translate(703.486 1328.268)">
	<text transform="matrix(1 0 0 1 -500.8766 -1013.023)" class="st5 st9 st10">Well</text>
</g>
<g id="Group_282" transform="translate(522.135 1181.923)">
	<text transform="matrix(1 0 0 1 -500.8772 -1013.023)" class="st5 st9 st10">Not well</text>
</g>
</svg>
