<svg xmlns="http://www.w3.org/2000/svg" viewBox="-17152.025 2877.271 210.451 109.155">
  <defs>
    <style>
      .cls-1 {
        fill: #fff;
      }
    </style>
  </defs>
  <path id="Path_679" data-name="Path 679" class="cls-1" d="M189.2,55.887V54.723a38.7,38.7,0,0,0-38.714-38.713,34.735,34.735,0,0,0-13.681,2.62A54.034,54.034,0,0,0,95.765,0,55.186,55.186,0,0,0,46.282,31.145a56.524,56.524,0,0,0-6.986-.582C17.756,30.272,0,48.028,0,69.859a39.317,39.317,0,0,0,39.3,39.3H183.38a27.207,27.207,0,0,0,27.07-27.07A26.579,26.579,0,0,0,189.2,55.887Z" transform="translate(-17152.025 2877.271)"/>
</svg>
