<svg xmlns="http://www.w3.org/2000/svg" viewBox="-16681.865 772.036 68.537 81.07">
  <defs>
    <style>
      .cls-1 {
        fill: #fff;
      }
    </style>
  </defs>
  <g id="Group_841" data-name="Group 841" transform="translate(-17573 -27)">
    <path id="Path_517" data-name="Path 517" class="cls-1" d="M5.463,12.934l9.6,4.667L13.6,33.335a5.734,5.734,0,0,0,1.067,3.6l2,.933A29.153,29.153,0,0,0,20.8,46.535c.933,1.2,5.734,6.667,11.734,6.667,6.134,0,11.067-5.734,11.867-6.667a29.153,29.153,0,0,0,4.134-8.667l1.867-.933a5.987,5.987,0,0,0,1.067-3.6L50.131,18.268l5.334-2.533v14.8h-.8L53.465,48.8h6l-1.2-18.268h-.8v-16l3.467-1.6c1.333-.667,1.333-1.733-.133-2.267L35.864.4a8.65,8.65,0,0,0-5.2,0L5.463,10.667C4.129,11.2,4,12.267,5.463,12.934Z" transform="translate(892.605 799.036)"/>
    <path id="Path_518" data-name="Path 518" class="cls-1" d="M50.669,45.7c-3.2-1.067-5.2-2.267-6.4-3.6C41.6,44.767,38,47.167,34.135,47.167s-7.334-2.4-10-5.067c-1.2,1.333-3.2,2.533-6.4,3.467h0C7.067,47.434,0,51.834,0,67.034H68.536C68.536,49.434,61.336,47.434,50.669,45.7Z" transform="translate(891.135 813.072)"/>
  </g>
</svg>
