<svg xmlns="http://www.w3.org/2000/svg" viewBox="-16292.789 2813.368 221.657 114.967">
  <defs>
    <style>
      .cls-1 {
        fill: #fff;
      }
    </style>
  </defs>
  <path id="Path_670" data-name="Path 670" class="cls-1" d="M199.277,58.863V57.637A40.757,40.757,0,0,0,158.5,16.862a36.585,36.585,0,0,0-14.409,2.759A56.911,56.911,0,0,0,100.865,0,58.124,58.124,0,0,0,48.746,32.8a59.534,59.534,0,0,0-7.358-.613C18.7,31.884,0,50.586,0,73.579a41.411,41.411,0,0,0,41.388,41.388H193.145a28.655,28.655,0,0,0,28.512-28.512C221.657,72.966,212.153,61.316,199.277,58.863Z" transform="translate(-16292.789 2813.368)"/>
</svg>
