<svg xmlns="http://www.w3.org/2000/svg" viewBox="-17287.443 96.781 1480.599 185.397">
  <g transform="translate(-17573 -27)">
    <path d="M670.825,17.832c-1.135-.378,10.022,5.294,20.232,15.694,5.105,5.105,9.832,10.967,12.48,16.261.945,2.458,3.971,7.185,6.429,8.32a13.43,13.43,0,0,0,6.051,2.458,1.936,1.936,0,0,0,.945,1.135,2.056,2.056,0,0,0,.945.189,3.018,3.018,0,0,0,1.7,1.324,2.537,2.537,0,0,0,2.836-.756c14.938,4.349,29.875,5.294,44.813,5.294l33.279,36.493,23.636,1.513L808.48,88.55a108,108,0,0,0,16.072,1.891C804.7,73.423,787.68,18.21,768.583,30.69a15.425,15.425,0,0,0-6.24,7.185L749.863,24.261l-23.636-1.513L766.5,66.994c-14.56-.189-29.308-1.324-43.679-5.483a3.046,3.046,0,0,0-1.891-2.647,2.071,2.071,0,0,0-1.513,0,1.553,1.553,0,0,0-.945-.945,1.615,1.615,0,0,0-1.324,0c-.756-.756-2.08-1.7-3.782-3.4-2.08-2.08-2.08-2.836-4.349-9.076-2.269-5.294-6.24-11.345-12.48-17.774a97.649,97.649,0,0,0-11.156-9.643,79.013,79.013,0,0,0-7.185-4.727c-3.025-1.324-4.727-3.214-10.4-3.593C669.691,9.512,672.905,17.643,670.825,17.832Z" transform="translate(941.604 203.421)"/>
    <path d="M407.657,0c.378,1.324,3.4,7.185,4.349,13.614,4.916,12.669,3.782,28.741,1.324,32.9.567.189.945.567.945.945,0,.189-.189.378-.378.567.567.378.945.756.945,1.324,0,.756-.945,1.513-2.269,1.513,0,3.025-.189,6.051-.189,9.076L431.86,41.41l-12.669,83.008L374,167.341l12.669-83.008,24.014-22.879c.189-3.593.189-7,.378-10.589-1.324-.189-2.458-.945-2.458-1.891a.965.965,0,0,1,.756-.945c-.378-.189-.756-.567-.756-.756,0-.378.378-.567.756-.756a17.141,17.141,0,0,1-1.7-5.105h-.189v-.756c-.945-3.782-1.7-10.022-3.971-18.719-3.025-7.374-9.643-11.345-13.047-8.509l.567-1.324c2.458-1.891,6.429-1.135,9.643,2.269A21.757,21.757,0,0,0,394.8,6.24c-.378-.378,8.131-3.782,7.942-5.294-.189-.567,3.025,1.7,5.862,6.429-1.135-3.214-2.458-5.862-2.647-6.807Z" transform="translate(813.871 123.781)"/>
    <path d="M396.852,11.43c.756-.756-8.509,5.483-21.178,8.509-6.051,1.513-12.669,2.269-18.152,1.513-2.458-.567-7.185-.567-9.265.945a12.045,12.045,0,0,0-4.538,3.593,1.661,1.661,0,0,0-1.324.189c-.189.189-.378.567-.567.756a2.639,2.639,0,0,0-1.7.567,2.118,2.118,0,0,0-.567,2.836c-10.021,10.211-17.4,22.123-24.014,34.6l-42.922,8.131L260.9,92.169l20.421-3.782a88.2,88.2,0,0,0-8.7,12.291c21.934-7.374,72.042,7.942,71.1-14.56q-.284-5.956-2.836-9.076l16.072-3.025,11.723-19.1-52,9.832c6.618-12.1,13.992-23.825,23.636-33.657a2.269,2.269,0,0,0,2.836-.189,3.047,3.047,0,0,0,.756-1.324,2.4,2.4,0,0,0,1.135-.189,1.348,1.348,0,0,0,.567-1.135,44.5,44.5,0,0,1,4.349-1.324c2.647-.567,3.214-.189,8.887,1.324a48.793,48.793,0,0,0,19.287-.756,78.586,78.586,0,0,0,12.291-4.16,57.129,57.129,0,0,0,6.807-3.4c2.269-1.7,4.538-2.269,7.374-6.807C403.659,14.833,396.1,13.321,396.852,11.43Z" transform="translate(326.115 171.907)"/>
    <path d="M228.145,88.312c-.756-.945-3.782-6.429-8.131-10.778-7-10.589-20.232-18.53-24.959-18.909a1.06,1.06,0,0,0-.189-1.135c-.189-.189-.378-.189-.756,0a1.472,1.472,0,0,0-.567-1.324c-.567-.378-1.7,0-2.458.945-2.458-1.7-4.916-3.214-7.374-4.727l25.527-4.349L137.195,12.3,78.2,22.322l72.042,35.737,31.577-5.294c2.836,1.7,5.673,3.593,8.509,5.483-.567,1.135-.567,2.458,0,2.836a1.205,1.205,0,0,0,1.134,0,1.417,1.417,0,0,0,.189.945.912.912,0,0,0,1.135-.189A28.074,28.074,0,0,0,195.811,66v.189a2.341,2.341,0,0,0,.567.378c2.458,2.836,6.807,6.807,12.291,13.236,3.971,6.24,3.4,13.425-.756,14.181l1.324.189c2.836-.756,4.538-4.16,3.782-8.509a21.53,21.53,0,0,1,3.025,8.887c0,.378,7.563-3.971,8.7-3.025.378.378.378-3.214-1.513-7.752,1.891,2.647,3.214,5.105,3.782,5.673Z" transform="translate(207.357 201.739)"/>
  </g>
</svg>
