<?xml version="1.0" encoding="UTF-8"?>
<svg width="64px" height="64px" viewBox="0 0 64 64" version="1.1" xmlns="http://www.w3.org/2000/svg" xmlns:xlink="http://www.w3.org/1999/xlink">
    <!-- Generator: Sketch 48.2 (47327) - http://www.bohemiancoding.com/sketch -->
    <title>link-icon</title>
    <desc>Created with Sketch.</desc>
    <defs></defs>
    <g id="Page-1" stroke="none" stroke-width="1" fill="none" fill-rule="evenodd">
        <g id="link-icon" fill-rule="nonzero">
            <circle id="Oval" stroke="#000000" fill="#FFFFFF" cx="32" cy="32" r="31"></circle>
            <polygon id="Shape" fill="#000000" points="26 34 26 30 38 30 38 34"></polygon>
            <path d="M40,24 C44.4,24 48,27.6 48,32 C48,36.4 44.4,40 40,40 L34,40 L34,36 L40,36 C42.2,36 44,34.2 44,32 C44,29.8 42.2,28 40,28 L34,28 L34,24 L40,24 Z M20,32 C20,34.2 21.8,36 24,36 L30,36 L30,40 L24,40 C19.6,40 16,36.4 16,32 C16,27.6 19.6,24 24,24 L30,24 L30,28 L24,28 C21.8,28 20,29.8 20,32 Z" id="Shape" fill="#000000"></path>
        </g>
    </g>
</svg>