<?xml version="1.0" encoding="utf-8"?>
<!-- Generator: Adobe Illustrator 19.0.0, SVG Export Plug-In . SVG Version: 6.00 Build 0)  -->
<svg version="1.1" id="Layer_1" xmlns="http://www.w3.org/2000/svg" xmlns:xlink="http://www.w3.org/1999/xlink" x="0px" y="0px"
	 viewBox="0 0 32 32" style="enable-background:new 0 0 32 32;" xml:space="preserve">
<style type="text/css">
	.st0{clip-path:url(#XMLID_27_);}
	.st1{clip-path:url(#XMLID_28_);fill:none;stroke:#C5C5C5;stroke-width:2;stroke-miterlimit:10;}
	.st2{clip-path:url(#XMLID_29_);}
	.st3{clip-path:url(#XMLID_30_);fill:#252525;}
</style>
<g id="XMLID_9_">
	<defs>
		<path id="XMLID_10_" d="M0,4c0-2.2,1.8-4,4-4h24c2.2,0,4,1.8,4,4v24c0,2.2-1.8,4-4,4H4c-2.2,0-4-1.8-4-4V4z"/>
	</defs>
	<clipPath id="XMLID_27_">
		<use xlink:href="#XMLID_10_"  style="overflow:visible;"/>
	</clipPath>
	<g id="XMLID_11_" class="st0">
		<defs>
			<rect id="XMLID_12_" x="-1318" y="-19" width="1440" height="3917"/>
		</defs>
		<clipPath id="XMLID_28_">
			<use xlink:href="#XMLID_12_"  style="overflow:visible;"/>
		</clipPath>
		<path id="XMLID_13_" class="st1" d="M0,4c0-2.2,1.8-4,4-4h24c2.2,0,4,1.8,4,4v24c0,2.2-1.8,4-4,4H4c-2.2,0-4-1.8-4-4V4z"/>
	</g>
</g>
<g id="XMLID_2_">
	<defs>
		<path id="XMLID_3_" d="M14,18c2.2,0,4-1.8,4-4s-1.8-4-4-4s-4,1.8-4,4S11.8,18,14,18z M18.9,17.5l4.6,4.6l-1.4,1.4l-4.6-4.6
			c-1,0.7-2.2,1.1-3.5,1.1c-3.3,0-6-2.7-6-6s2.7-6,6-6s6,2.7,6,6C20,15.3,19.6,16.5,18.9,17.5z"/>
	</defs>
	<clipPath id="XMLID_29_">
		<use xlink:href="#XMLID_3_"  style="overflow:visible;"/>
	</clipPath>
	<g id="XMLID_6_" class="st2">
		<defs>
			<rect id="XMLID_7_" x="-1318" y="-19" width="1440" height="3917"/>
		</defs>
		<clipPath id="XMLID_30_">
			<use xlink:href="#XMLID_7_"  style="overflow:visible;"/>
		</clipPath>
		<rect id="XMLID_8_" x="3" y="3" class="st3" width="25.5" height="25.5"/>
	</g>
</g>
</svg>
