<?xml version="1.0" encoding="utf-8"?>
<!-- Generator: Adobe Illustrator 21.0.2, SVG Export Plug-In . SVG Version: 6.00 Build 0)  -->
<svg version="1.1" id="Layer_1" xmlns="http://www.w3.org/2000/svg" xmlns:xlink="http://www.w3.org/1999/xlink" x="0px" y="0px"
	 viewBox="0 0 60 60" style="enable-background:new 0 0 60 60;" xml:space="preserve">
<style type="text/css">
	.st0{fill:#FFFFFF;}
	.st1{fill:none;}
</style>
<g id="Group_847" transform="translate(-17573 -27)">
	<path id="Path_692" class="st0" d="M17617.7,62.5h-3.8l-5.4-12.3c1.7-3,0.6-6.8-2.5-8.5c-0.2-0.1-0.3-0.2-0.5-0.2v-4.4
		c0-1.4-1.1-2.6-2.6-2.6c-1.4,0-2.6,1.1-2.6,2.6v4.4c-2.3,1-3.7,3.3-3.7,5.7c0,1,0.3,2.1,0.8,3l-5.5,12.3h-3.7
		c-0.8,0-1.4,0.6-1.4,1.4c0,0.8,0.6,1.4,1.4,1.4h2.5l-2.2,4.9c-1,2.6,0.3,5.5,2.9,6.4c0,0,0.1,0,0.1,0.1l5.1-11.4h3.8v-2.7h-2.5
		l4.1-9c0.3,0.1,0.6,0.1,1,0.1c0.3,0,0.7-0.1,1-0.1l4.1,9h-3.6v-2.1c0-0.8-0.6-1.4-1.4-1.4c-0.8,0-1.4,0.6-1.4,1.4v6.9
		c0,0.8,0.6,1.4,1.4,1.4c0.8,0,1.4-0.6,1.4-1.4v-2.1h4.8l5.1,11.4c2.6-0.9,3.9-3.7,3-6.3c0-0.1,0-0.1-0.1-0.2l-2.2-4.9h2.5
		c0.8,0,1.4-0.6,1.4-1.4C17619,63.1,17618.4,62.6,17617.7,62.5z M17599.8,47.3c0-1.7,1.4-3.2,3.2-3.2s3.2,1.4,3.2,3.2
		s-1.4,3.2-3.2,3.2l0,0C17601.3,50.4,17599.9,49,17599.8,47.3z"/>
	<g id="Rectangle_372" transform="translate(769 1860)">
		<rect x="16804" y="-1833" class="st1" width="60" height="60"/>
	</g>
</g>
</svg>
