<?xml version="1.0" encoding="utf-8"?>
<!-- Generator: Adobe Illustrator 21.0.2, SVG Export Plug-In . SVG Version: 6.00 Build 0)  -->
<svg version="1.1" id="Layer_1" xmlns="http://www.w3.org/2000/svg" xmlns:xlink="http://www.w3.org/1999/xlink" x="0px" y="0px"
	 viewBox="0 0 60 60" style="enable-background:new 0 0 60 60;" xml:space="preserve">
<style type="text/css">
	.st0{fill:#FFFFFF;}
	.st1{fill:none;}
</style>
<g id="Group_848" transform="translate(-17573 -27)">
	<g id="Group_591" transform="translate(951.048 1870.453)">
		<path id="Path_580" class="st0" d="M16656.6-1800.3h-2.8v-25.6h11.8l-5,7.9c-0.2,0.4-0.1,0.9,0.3,1.2c0.1,0.1,0.3,0.1,0.5,0.1
			c0.3,0,0.6-0.2,0.7-0.4l4.3-6.9l4.3,6.9c0.3,0.4,0.8,0.5,1.2,0.2c0.4-0.3,0.5-0.8,0.3-1.2l-5-7.9h0.1c0.7,0,1.3-0.6,1.3-1.3
			s-0.6-1.3-1.3-1.3h-9.8c-0.6-0.8-1.4-1.4-2.3-1.7c-0.1-1.7-1.6-2.9-3.3-2.8c-1.5,0.1-2.6,1.3-2.8,2.7c-0.9,0.3-1.8,0.9-2.3,1.7
			h-9.8c-0.7,0-1.3,0.6-1.3,1.3c0,0.7,0.6,1.3,1.3,1.3h0.1l-5,7.9c-0.2,0.4-0.1,0.9,0.3,1.2c0.1,0.1,0.3,0.1,0.4,0.1
			c0.3,0,0.6-0.2,0.7-0.4l4.3-6.9l4.3,6.9c0.3,0.4,0.8,0.5,1.2,0.2c0.4-0.3,0.5-0.8,0.3-1.2l-5-7.9h11.8v25.6h-2.8c-1.7,0-3,1.4-3,3
			h15.1C16659.6-1798.9,16658.2-1800.3,16656.6-1800.3L16656.6-1800.3z"/>
		<g id="Group_487" transform="translate(0 17.259)">
			<path id="Path_581" class="st0" d="M16637.8-1825.8c3.7,0,6.8-3,6.8-6.8c0-0.3-0.2-0.5-0.5-0.5c0,0,0,0,0,0h-12.6
				c-0.3,0-0.5,0.2-0.5,0.5c0,0,0,0,0,0C16631-1828.8,16634-1825.8,16637.8-1825.8z"/>
			<path id="Path_582" class="st0" d="M16673.1-1832.6c0-0.2-0.2-0.4-0.4-0.4h-12.6c-0.3,0-0.5,0.2-0.5,0.5c0,0,0,0,0,0
				c0,3.7,3,6.8,6.8,6.8c3.6,0,6.6-2.8,6.8-6.4L16673.1-1832.6L16673.1-1832.6z"/>
		</g>
	</g>
	<g id="Rectangle_373" transform="translate(942 1860)">
		<rect x="16631" y="-1833" class="st1" width="60" height="60"/>
	</g>
</g>
</svg>
