<?xml version="1.0" encoding="utf-8"?>
<!-- Generator: Adobe Illustrator 21.0.2, SVG Export Plug-In . SVG Version: 6.00 Build 0)  -->
<svg version="1.1" id="Layer_1" xmlns="http://www.w3.org/2000/svg" xmlns:xlink="http://www.w3.org/1999/xlink" x="0px" y="0px"
	 viewBox="0 0 60 60" style="enable-background:new 0 0 60 60;" xml:space="preserve">
<style type="text/css">
	.st0{fill:#FFFFFF;}
	.st1{fill:none;}
</style>
<g id="Group_850" transform="translate(-17573 -27)">
	<g id="Group_594" transform="translate(1101.822 1870.297)">
		<g id="Group_507" transform="translate(0 27.105)">
			<path id="Path_630" class="st0" d="M16524.5-1828.9c-0.1,0-0.1-0.1-0.2-0.1h-48c-0.1,0-0.1,0.1-0.2,0.1c-0.1,0.1-0.1,0.1-0.1,0.2
				c0,0.1,0.7,4.5,6.4,4.5h35.8c5.6,0,6.4-4.4,6.4-4.5C16524.5-1828.8,16524.5-1828.9,16524.5-1828.9L16524.5-1828.9z
				 M16503.9-1825.8h-7.2v-1.7h7.2V-1825.8z"/>
		</g>
		<path id="Path_631" class="st0" d="M16481.2-1803.6h38.1c0.5,0,1-0.4,1-1c0,0,0,0,0,0v-23.4c0-0.5-0.4-1-1-1c0,0,0,0,0,0h-38.1
			c-0.5,0-1,0.4-1,1c0,0,0,0,0,0v23.4C16480.2-1804.1,16480.7-1803.6,16481.2-1803.6C16481.2-1803.6,16481.2-1803.6,16481.2-1803.6
			L16481.2-1803.6z M16483.7-1825.5h33.1v18.4h-33.1V-1825.5z"/>
	</g>
	<g id="Rectangle_374" transform="translate(1097 1856)">
		<rect x="16476" y="-1829" class="st1" width="60" height="60"/>
	</g>
</g>
</svg>
