<?xml version="1.0" encoding="utf-8"?>
<!-- Generator: Adobe Illustrator 21.0.2, SVG Export Plug-In . SVG Version: 6.00 Build 0)  -->
<svg version="1.1" id="Layer_1" xmlns="http://www.w3.org/2000/svg" xmlns:xlink="http://www.w3.org/1999/xlink" x="0px" y="0px"
	 viewBox="0 0 60 60" style="enable-background:new 0 0 60 60;" xml:space="preserve">
<style type="text/css">
	.st0{fill:#FFFFFF;}
	.st1{fill:none;}
</style>
<g id="Group_852" transform="translate(-17573 -27)">
	<g id="Group_596" transform="translate(1427.21 1869.5)">
		<path id="Path_636" class="st0" d="M16177.9-1805.8l-0.8,10h13.4l0.5-7.3l1.9,7.3h5.5c-0.7-4.6-1.6-9.1-2.8-13.6
			C16195.5-1809.4,16193.6-1806.1,16177.9-1805.8z"/>
		<circle id="Ellipse_399" class="st0" cx="16168.3" cy="-1823.3" r="5.7"/>
		<path id="Path_637" class="st0" d="M16188.8-1816.4c0.4-0.8,0.6-1.6,0.6-2.5c0-3-2.4-5.4-5.4-5.4c-3,0-5.4,2.4-5.4,5.4
			c0,0.8,0.2,1.6,0.5,2.4C16182.4-1816,16185.6-1816,16188.8-1816.4z"/>
		<path id="Path_638" class="st0" d="M16191.8-1814.7c1.3-0.2,2.6,0.6,2.8,1.9c0,0.2,0,0.3,0,0.5c0,1.2-1,1.8-2.5,2.4
			c-1.5,0.6-3.5,1.3-8.6,1.6c-4,0.3-7.6,0.4-7.6,0.4l-1,11.9h-13.1l-0.5-8.8l-1.9,8.8h-5.5c0,0,2-13,3.7-15.9
			c1.6-2.6,3.7-3.8,11.1-3.8c5.7,0,9.1,1.3,14.3,1.4C16186-1814,16188.9-1814.2,16191.8-1814.7z"/>
	</g>
	<g id="Rectangle_376" transform="translate(1419 1856)">
		<rect x="16154" y="-1829" class="st1" width="60" height="60"/>
	</g>
</g>
</svg>
