<?xml version="1.0" encoding="utf-8"?>
<!-- Generator: Adobe Illustrator 21.0.2, SVG Export Plug-In . SVG Version: 6.00 Build 0)  -->
<svg version="1.1" id="Layer_1" xmlns="http://www.w3.org/2000/svg" xmlns:xlink="http://www.w3.org/1999/xlink" x="0px" y="0px"
	 viewBox="0 0 60 60" style="enable-background:new 0 0 60 60;" xml:space="preserve">
<style type="text/css">
	.st0{fill:#FFFFFF;}
	.st1{fill:none;}
</style>
<g id="Group_853" transform="translate(-17573 -27)">
	<g id="Group_599" transform="translate(461.207 2061.432)">
		<path id="Path_620" class="st0" d="M17159.7-1998.4l-2.1-7c-0.3-1-1.2-1.7-2.3-1.7h-2v-3.8h-3.3v3.8h-2.8l-2.3-9.3
			c0.9-0.2,1.5-0.9,1.5-1.8c0-1-0.8-1.8-1.8-1.8c0,0,0,0,0,0h-14c-1,0-1.8,0.8-1.8,1.8c0,0,0,0,0,0c0,0.9,0.7,1.7,1.6,1.8v3.2
			l-4.5,0.7c-1,0.2-1.8,1-2,2l-0.5,3.8c1.9-1.4,4.3-2.2,6.7-2.2c1.2,0,2.4,0.2,3.6,0.6v-8.1h7.9c0.1,0.1,0.2,0.2,0.2,0.3l2.2,9h-7.8
			c3.4,2.1,5.4,5.8,5.4,9.7c0,0.5,0,1-0.1,1.5h4.3c1-4,5.1-6.3,9.1-5.3c2.1,0.6,3.9,2,4.8,4
			C17159.8-1997.5,17159.8-1998,17159.7-1998.4z"/>
		<path id="Path_621" class="st0" d="M17129.9-2007.3c-5.5,0-9.9,4.4-9.9,9.9c0,5.5,4.4,9.9,9.9,9.9c5.5,0,9.9-4.4,9.9-9.9
			C17139.8-2002.9,17135.4-2007.3,17129.9-2007.3C17129.9-2007.3,17129.9-2007.3,17129.9-2007.3z M17129.9-1993.9
			c-1.9,0-3.5-1.6-3.5-3.5c0-1.9,1.6-3.5,3.5-3.5c1.9,0,3.5,1.6,3.5,3.5l0,0C17133.4-1995.4,17131.9-1993.9,17129.9-1993.9z"/>
		<path id="Path_622" class="st0" d="M17152.8-1999.8c-3.2,0-5.8,2.6-5.8,5.8c0,3.2,2.6,5.8,5.8,5.8c3.2,0,5.8-2.6,5.8-5.8
			S17156-1999.8,17152.8-1999.8L17152.8-1999.8z M17152.8-1992.3c-1,0-1.8-0.8-1.8-1.8s0.8-1.8,1.8-1.8c1,0,1.8,0.8,1.8,1.8
			C17154.5-1993.1,17153.8-1992.3,17152.8-1992.3z"/>
	</g>
	<g id="Rectangle_383" transform="translate(453 2047)">
		<rect x="17120" y="-2020" class="st1" width="60" height="60"/>
	</g>
</g>
</svg>
