<?xml version="1.0" encoding="utf-8"?>
<!-- Generator: Adobe Illustrator 21.0.2, SVG Export Plug-In . SVG Version: 6.00 Build 0)  -->
<svg version="1.1" id="Layer_1" xmlns="http://www.w3.org/2000/svg" xmlns:xlink="http://www.w3.org/1999/xlink" x="0px" y="0px"
	 viewBox="0 0 60 60" style="enable-background:new 0 0 60 60;" xml:space="preserve">
<style type="text/css">
	.st0{fill:#FFFFFF;}
	.st1{fill:none;}
</style>
<g id="Group_854" transform="translate(-17573 -27)">
	<path id="Path_696" class="st0" d="M17616.4,51.6h-0.9l-2.9-1.4l-3.8,1.2l-2.2,4.6v0.1l2.5,2.7l2.9-0.1l1.3,1.2l-0.3,3.5l1,2.2
		l0.7,0.4c1.7-2.5,2.6-5.5,2.6-8.5C17617.6,55.4,17617.2,53.4,17616.4,51.6z M17610.2,45.8l0.3,1h-1c-0.1,0-0.1,0.1-0.1,0.1
		c0,0,0,0,0,0l-0.3,1.9V49l1.3,1h0.3l1-1l3.3-0.1c-1.3-1.9-3-3.5-5.1-4.6l-1.3,0.9v0.1c0,0.1,0.1,0.1,0.1,0.1c0,0,0,0,0,0
		L17610.2,45.8z M17602.4,38.5c-10.4,0-18.8,8.4-18.8,18.8c0,10.4,8.4,18.8,18.8,18.8c10.4,0,18.8-8.4,18.8-18.8c0,0,0,0,0,0
		C17621.2,46.9,17612.8,38.5,17602.4,38.5C17602.5,38.5,17602.5,38.5,17602.4,38.5z M17602.4,73.8c-9.1-0.1-16.5-7.5-16.6-16.6
		c0-2,0.4-4,1.2-5.9c1,1.4,2.9,3.9,3,4l4.5,0.9l1.2,0.9c-0.6,0.7-1.6,1.7-2.5,2.6c0.2,0.9,0.5,1.9,0.9,2.7c0.1,0.1,1.4,1.3,2.3,2
		v3.9l1.7,3.8c0,0.1,0.1,0.1,0.1,0.1c0,0,0,0,0,0l1.3,0.1h0.1v-3.8l4.6-4.6l-0.4-1.2l1-1.9v-0.1l-1.4-0.9h-1.4l-1.6-1.7l-4.2-1.7
		c0,0-0.1-0.1-0.1,0l0,0l-1.2-1l-0.9-0.1l0.9-0.7v-0.1l-0.3-0.6c0,0-0.1-0.1-0.1,0l-1.7,0.6l-0.7-0.3l-0.7-1.4l0.4-1.7l3,0.1
		l0.7,1.4l0.1,0.1h0.1l0.7-0.6V51l1.6-1.9l2.9-1.2l1.7,0.1h0.1v-1.9l1.4-0.1c0.1,0,0.1-0.1,0.1-0.1c0,0,0,0,0,0v-0.1l-0.7-1.6
		c0-0.1-0.1-0.1-0.1-0.1c0,0,0,0,0,0l-1.9,0.1l-1.3,1.4l-1.7-0.9l0.3-0.6l3.3-0.9l0.1-0.1l-0.1-1.2c0-0.1-0.1-0.1-0.1-0.1
		c0,0,0,0,0,0l-1-0.3l-1.2-0.7c0.8-0.1,1.5-0.2,2.3-0.1c9.1,0.1,16.5,7.5,16.6,16.6C17618.9,66.5,17611.5,73.8,17602.4,73.8
		C17602.4,73.8,17602.4,73.8,17602.4,73.8z"/>
	<g id="Rectangle_382" transform="translate(606 2047)">
		<rect x="16967" y="-2020" class="st1" width="60" height="60"/>
	</g>
</g>
</svg>
