<?xml version="1.0" encoding="utf-8"?>
<!-- Generator: Adobe Illustrator 21.0.2, SVG Export Plug-In . SVG Version: 6.00 Build 0)  -->
<svg version="1.1" id="Layer_1" xmlns="http://www.w3.org/2000/svg" xmlns:xlink="http://www.w3.org/1999/xlink" x="0px" y="0px"
	 viewBox="0 0 60 60" style="enable-background:new 0 0 60 60;" xml:space="preserve">
<style type="text/css">
	.st0{fill:#FFFFFF;}
	.st1{fill:none;}
</style>
<g id="Group_855" transform="translate(-17573 -27)">
	<g id="Group_601" transform="translate(778.878 2062.555)">
		<g id="Group_515">
			<path id="Path_644" class="st0" d="M16827.6-2014.3c1.9,1.2,3.1,3.1,3.3,5.3c0.8,0.4,1.6,0.6,2.4,0.5c3.2,0,5.7-2.6,5.7-5.7
				c0-3.2-2.6-5.7-5.7-5.7c0,0,0,0,0,0C16830.3-2020,16827.7-2017.5,16827.6-2014.3C16827.6-2014.4,16827.6-2014.3,16827.6-2014.3
				L16827.6-2014.3z M16823.9-2002.6c3.2,0,5.7-2.6,5.7-5.7s-2.6-5.7-5.7-5.7c-3.2,0-5.7,2.6-5.7,5.7
				C16818.1-2005.2,16820.7-2002.6,16823.9-2002.6C16823.8-2002.6,16823.8-2002.6,16823.9-2002.6z M16826.3-2002.2h-4.9
				c-4,0-7.3,3.3-7.3,7.3v6.1l0.4,0.1c3.2,1,6.6,1.6,10,1.6c3,0.1,6-0.5,8.7-1.6l0.4-0.2h0.1v-6
				C16833.7-1999,16830.4-2002.2,16826.3-2002.2L16826.3-2002.2z M16835.8-2008.1h-4.8c0,1.9-0.8,3.7-2.2,4.9
				c3.7,1.1,6.2,4.5,6.2,8.4v1.8c2.6,0,5.3-0.6,7.7-1.6l0.4-0.2h0.1v-6C16843.2-2004.8,16839.9-2008.1,16835.8-2008.1
				L16835.8-2008.1z M16813.8-2008.5c1.1,0,2.2-0.3,3.1-0.9c0.3-1.8,1.3-3.4,2.7-4.5v-0.3c0-3.2-2.6-5.7-5.7-5.7
				c-3.2,0-5.7,2.6-5.7,5.7C16808-2011.1,16810.6-2008.5,16813.8-2008.5C16813.8-2008.5,16813.8-2008.5,16813.8-2008.5z
				 M16819-2003.2c-1.3-1.3-2.1-3-2.2-4.9h-5.4c-4,0-7.3,3.3-7.3,7.3v6.1l0.4,0.1c2.7,0.9,5.5,1.4,8.3,1.5v-1.8
				C16812.7-1998.7,16815.3-2002.1,16819-2003.2L16819-2003.2z"/>
		</g>
	</g>
	<g id="Rectangle_381" transform="translate(769 2047)">
		<rect x="16804" y="-2020" class="st1" width="60" height="60"/>
	</g>
</g>
</svg>
