<?xml version="1.0" encoding="utf-8"?>
<!-- Generator: Adobe Illustrator 21.0.2, SVG Export Plug-In . SVG Version: 6.00 Build 0)  -->
<svg version="1.1" id="Layer_1" xmlns="http://www.w3.org/2000/svg" xmlns:xlink="http://www.w3.org/1999/xlink" x="0px" y="0px"
	 viewBox="0 0 60 60" style="enable-background:new 0 0 60 60;" xml:space="preserve">
<style type="text/css">
	.st0{fill:#FFFFFF;}
	.st1{fill:none;}
</style>
<g id="Group_856" transform="translate(-17573 -27)">
	<g id="Group_600" transform="translate(953.706 2064.16)">
		<g id="Group_503">
			<path id="Path_623" class="st0" d="M16660.1-2016.2c-3.3-2.5-7.4-3.9-11.6-3.8c-4.2-0.1-8.3,1.3-11.6,3.8c-3,2.2-4.8,5.6-4.9,9.3
				c0,2.2,0.7,4.3,1.9,6.1c1.2,1.8,2.8,3.3,4.7,4.4c-0.1,0.6-0.6,2.5-3.2,4.7c-0.1,0.1-0.2,0.3-0.1,0.5c0,0.2,0.2,0.3,0.4,0.3
				c0.4,0,0.7,0.1,1.1,0.1c3.7-0.1,7.4-1.1,10.7-2.9c0.4,0,0.7,0,1.1,0c4.2,0.1,8.3-1.3,11.6-3.8c3-2.2,4.8-5.6,4.9-9.3
				C16664.8-2010.6,16663.1-2014,16660.1-2016.2L16660.1-2016.2z"/>
		</g>
	</g>
	<g id="Rectangle_380" transform="translate(941 2047)">
		<rect x="16632" y="-2020" class="st1" width="60" height="60"/>
	</g>
</g>
</svg>
