<?xml version="1.0" encoding="utf-8"?>
<!-- Generator: Adobe Illustrator 21.0.2, SVG Export Plug-In . SVG Version: 6.00 Build 0)  -->
<svg version="1.1" id="Layer_1" xmlns="http://www.w3.org/2000/svg" xmlns:xlink="http://www.w3.org/1999/xlink" x="0px" y="0px"
	 viewBox="0 0 60 60" style="enable-background:new 0 0 60 60;" xml:space="preserve">
<style type="text/css">
	.st0{fill:#FFFFFF;}
	.st1{fill:none;}
</style>
<g id="Group_857" transform="translate(-17573 -27)">
	<g id="Group_598" transform="translate(1110.945 2058.965)">
		<path id="Path_626" class="st0" d="M16506.2-2004.2c1.7-9.4-6.8-17.9-17-15.4c-7.7,1.9-10,8.4-11.1,11.9c-0.4,1.2-1.1,2-0.8,2.6
			c0.2,0.6,1.4,0,0.9,2.5c-0.2,1.4-2.6,3.9-2.1,5.2c0.5,1.3,1.7-0.1,2.8,0.3c0,0.8-0.2,1.5-0.6,2.1c0.2,0.6,0.8,1,1.4,0.8
			c0,0-1,0.8-0.8,1.1s1.1,0.2,0.9,0.8c-0.1,0.6-0.3,3.2,1.5,3.8c1.1,0.3,3.4-0.9,4.3,0.3s-0.8,7.2-0.8,7.2h17.5c0,0-4.6-3.7-3.5-8.1
			C16500-1993.5,16505.3-1998.7,16506.2-2004.2z M16496.8-2003.1c-1.5,1-3.3,1.5-5.1,1.4c-4.8,0-8.6-3.3-8.6-7.5
			c0-4.1,3.8-7.4,8.6-7.4c4.5,0,8.2,3,8.6,6.8c1.8,0.2,3.2,1.7,3.3,3.6c-0.2,2.2-2.1,3.8-4.3,3.7
			C16498.5-2002.4,16497.6-2002.6,16496.8-2003.1z"/>
		<path id="Path_627" class="st0" d="M16496-2008.4l1.4-0.3c0.1-0.3,0.1-0.5,0.1-0.8c0-0.3,0-0.5-0.1-0.8l-1.4-0.3
			c-0.1-0.4-0.3-0.8-0.5-1.2l0.8-1.2c-0.3-0.4-0.8-0.8-1.2-1.2l-1.2,0.8c-0.4-0.2-0.8-0.4-1.2-0.5l-0.3-1.4
			c-0.3-0.1-0.5-0.1-0.8-0.1c-0.3,0-0.5,0-0.8,0.1l-0.3,1.4c-0.4,0.1-0.8,0.3-1.2,0.5l-1.3-0.8c-0.4,0.3-0.8,0.8-1.2,1.2l0.8,1.2
			c-0.2,0.4-0.4,0.8-0.5,1.2l-1.4,0.3c-0.1,0.3-0.1,0.5-0.1,0.8c0,0.3,0,0.5,0.1,0.8l1.4,0.3c0.1,0.4,0.3,0.8,0.5,1.2l-0.8,1.2
			c0.3,0.4,0.8,0.8,1.2,1.2l1.2-0.8c0.4,0.2,0.8,0.4,1.2,0.5l0.3,1.4c0.3,0.1,0.5,0.1,0.8,0.1c0.3,0,0.5,0,0.8-0.1l0.3-1.4
			c0.4-0.1,0.8-0.3,1.2-0.5l1.2,0.8c0.4-0.3,0.8-0.8,1.2-1.2l-0.7-1.1C16495.7-2007.6,16495.9-2008,16496-2008.4z M16491.5-2007.2
			c-1.2,0-2.3-1-2.3-2.3s1-2.3,2.3-2.3c1.2,0,2.3,1,2.3,2.3l0,0C16493.8-2008.3,16492.8-2007.3,16491.5-2007.2z"/>
		<path id="Path_628" class="st0" d="M16499.9-2003.3c0.1,0,0.3-0.1,0.4-0.1c0.1-0.1,0.3-0.1,0.4-0.1l-0.1-0.7
			c0.2-0.1,0.3-0.2,0.4-0.4l0.7,0.2c0.1-0.2,0.3-0.5,0.4-0.7l-0.5-0.4c0.1-0.2,0.1-0.4,0.1-0.6l0.6-0.4c0-0.1-0.1-0.3-0.1-0.4
			c-0.1-0.1-0.1-0.3-0.1-0.4l-0.7,0.1c-0.1-0.2-0.2-0.3-0.4-0.4l0.2-0.7c-0.2-0.1-0.5-0.3-0.7-0.4l-0.4,0.5
			c-0.2-0.1-0.4-0.1-0.6-0.1l-0.4-0.6c-0.1,0-0.3,0.1-0.4,0.1c-0.1,0.1-0.3,0.1-0.4,0.1l0.1,0.7c-0.2,0.1-0.3,0.2-0.4,0.4l-0.7-0.2
			c-0.1,0.2-0.3,0.5-0.4,0.7l0.5,0.4c-0.1,0.2-0.1,0.4-0.1,0.6l-0.5,0.4c0,0.1,0.1,0.3,0.1,0.4c0.1,0.1,0.1,0.3,0.1,0.4l0.7-0.1
			c0.1,0.2,0.2,0.3,0.4,0.4l-0.2,0.7c0.2,0.1,0.5,0.3,0.7,0.4l0.4-0.5c0.2,0.1,0.4,0.1,0.6,0.1L16499.9-2003.3z M16498.6-2005.8
			c-0.1-0.4,0.1-0.9,0.5-1s0.9,0.1,1,0.5c0.1,0.4-0.1,0.9-0.5,1c0,0,0,0,0,0C16499.2-2005.2,16498.8-2005.4,16498.6-2005.8z"/>
	</g>
	<g id="Rectangle_379" transform="translate(1097 2047)">
		<rect x="16476" y="-2020" class="st1" width="60" height="60"/>
	</g>
</g>
</svg>
