<?xml version="1.0" encoding="utf-8"?>
<!-- Generator: Adobe Illustrator 21.0.2, SVG Export Plug-In . SVG Version: 6.00 Build 0)  -->
<svg version="1.1" id="Layer_1" xmlns="http://www.w3.org/2000/svg" xmlns:xlink="http://www.w3.org/1999/xlink" x="0px" y="0px"
	 viewBox="0 0 60 60" style="enable-background:new 0 0 60 60;" xml:space="preserve">
<style type="text/css">
	.st0{fill:#FFFFFF;}
</style>
<g id="Group_845" transform="translate(-17573 -27)">
	<g id="Group_589" transform="translate(460 1672.777)">
		<circle id="Ellipse_88" class="st0" cx="17155.5" cy="-1612.1" r="1.7"/>
		<path id="Path_584" class="st0" d="M17155.5-1618.4c-3.5,0-6.3,2.8-6.3,6.3c0,2.6,1.6,4.9,4,5.9c-0.7,3.3-2.6,5.8-7.5,5.8
			c-2.6,0-4.5-0.7-5.8-2.2c-0.7-0.9-1.3-1.9-1.6-2.9c0.3-0.3,0.6-0.6,0.8-0.9c0.7-1.2,0.9-2.5,0.6-3.8c7.6-2.9,9.3-14.4,9.3-17.8
			c0-0.7-0.3-2.9-4-4.5c-0.5-1.8-2.4-2.9-4.2-2.4c-1.8,0.5-2.9,2.4-2.4,4.2c0.4,1.5,1.7,2.5,3.3,2.5c0.9,0,1.8-0.4,2.4-1
			c0.6,0.2,1.1,0.6,1.5,1.2c0,0.1-0.7,13.9-8.6,15c-0.3-0.1-0.7-0.1-1-0.1c-0.3,0-0.7,0-1,0.1c-8-1.1-8.6-14.9-8.6-15
			c0.4-0.5,0.9-0.9,1.5-1.2c0.6,0.6,1.5,1,2.4,1c1.9,0,3.4-1.6,3.3-3.4c0-1.8-1.5-3.3-3.3-3.3c-1.5,0-2.9,0.9-3.3,2.4
			c-3.6,1.6-4,3.8-4,4.5c0,3.4,1.7,14.9,9.3,17.8c-0.3,1.3-0.1,2.7,0.6,3.8c0.4,0.7,1,1.2,1.8,1.5c0.4,1.8,1.3,3.4,2.5,4.8
			c2.2,2.3,5.4,3.6,8.6,3.4c7.8,0,10.4-5,11.2-9.3c3.4-0.8,5.5-4.1,4.7-7.5C17160.9-1616.4,17158.4-1618.4,17155.5-1618.4
			L17155.5-1618.4z M17155.5-1608.7c-1.8,0-3.3-1.5-3.3-3.3c0-1.8,1.5-3.3,3.3-3.3c1.8,0,3.3,1.5,3.3,3.3l0,0
			C17158.8-1610.2,17157.3-1608.7,17155.5-1608.7L17155.5-1608.7z"/>
	</g>
</g>
</svg>
