<?xml version="1.0" encoding="utf-8"?>
<!-- Generator: Adobe Illustrator 21.0.2, SVG Export Plug-In . SVG Version: 6.00 Build 0)  -->
<svg version="1.1" id="Layer_1" xmlns="http://www.w3.org/2000/svg" xmlns:xlink="http://www.w3.org/1999/xlink" x="0px" y="0px"
	 viewBox="0 0 60 60" style="enable-background:new 0 0 60 60;" xml:space="preserve">
<style type="text/css">
	.st0{fill:#FFFFFF;}
	.st1{fill:none;}
</style>
<g id="Group_858" transform="translate(-17573 -27)">
	<path id="Path_695" class="st0" d="M17616.7,69l-7.2-15c-0.1-0.2-0.3-0.6-0.4-0.8v-7.2c0-0.3,0.1-0.6,0.2-0.8
		c1.5-0.2,2.6-1.6,2.5-3.1c-0.1-1.8-1.6-3.2-3.4-3.1h-11.6c-1.8-0.1-3.3,1.3-3.4,3.1c0,0,0,0,0,0c-0.1,1.5,1,2.9,2.6,3.1
		c0.2,0.2,0.2,0.5,0.2,0.8v7.2c-0.2,0.3-0.4,0.6-0.5,0.9l-7.3,15c-0.6,1.1-0.6,2.5,0,3.7c0.7,1.1,2,1.7,3.3,1.6h21.5
		c1.3,0.1,2.6-0.5,3.3-1.6C17617.4,71.6,17617.4,70.2,17616.7,69z M17600.9,57c0-0.6,0.5-1.2,1.2-1.2c0.6,0,1.2,0.5,1.2,1.2
		c0,0.6-0.5,1.2-1.2,1.2C17601.4,58.2,17600.9,57.6,17600.9,57C17600.9,57,17600.9,57,17600.9,57z M17603.7,68.6
		c-1.2,0-2.1-1-2.1-2.1c0-1.2,1-2.1,2.1-2.1c1.2,0,2.1,1,2.1,2.1C17605.8,67.6,17604.9,68.6,17603.7,68.6z M17606.1,63.6
		c-0.6,0-1.2-0.5-1.2-1.2c0-0.6,0.5-1.2,1.2-1.2c0.6,0,1.2,0.5,1.2,1.2C17607.2,63,17606.7,63.6,17606.1,63.6
		C17606.1,63.6,17606.1,63.6,17606.1,63.6L17606.1,63.6z M17608.7,42.6L17608.7,42.6l-8-0.1v2.6h5.8c-0.1,0.3-0.1,0.5-0.1,0.8v6
		h-7.7v-5.9c0-1.9-1.2-3.4-2.6-3.4c-0.1-0.1-0.2-0.3-0.2-0.5c0-0.2,0.4-0.5,0.8-0.5h11.6c0.4,0,0.8,0.2,0.8,0.5c0,0.2,0,0.3-0.1,0.5
		H17608.7z"/>
	<g id="Rectangle_378" transform="translate(1263 2047)">
		<rect x="16310" y="-2020" class="st1" width="60" height="60"/>
	</g>
</g>
</svg>
