<?xml version="1.0" encoding="utf-8"?>
<!-- Generator: Adobe Illustrator 21.0.2, SVG Export Plug-In . SVG Version: 6.00 Build 0)  -->
<svg version="1.1" id="Layer_1" xmlns="http://www.w3.org/2000/svg" xmlns:xlink="http://www.w3.org/1999/xlink" x="0px" y="0px"
	 viewBox="0 0 60 60" style="enable-background:new 0 0 60 60;" xml:space="preserve">
<style type="text/css">
	.st0{fill:#FFFFFF;}
	.st1{fill:none;}
</style>
<g id="Group_859" transform="translate(-17573 -27)">
	<g id="Group_602" transform="translate(1431 2058.119)">
		<path id="Path_586" class="st0" d="M16170.9-2000.5c1.4,1.5,3.1,2.8,4.9,3.9c3.2-3.5,13-15.1,14.5-19.7c0.2-1-0.1-2-0.8-2.8
			c-0.7-0.7-1.8-1-2.8-0.8c-4.7,1.5-16.2,11.2-19.7,14.6C16168.1-2003.5,16169.4-2001.9,16170.9-2000.5z"/>
		<path id="Path_587" class="st0" d="M16169.2-1992.4c-0.1-0.5,0.4-1,1.5-1.6c0.9-0.3,2-0.9,2.8-1.2c-1.5-1-3-2.3-4.2-3.6l0,0
			c-1.3-1.3-2.5-2.7-3.6-4.2c-0.3,0.8-0.9,1.9-1.3,2.8c-0.4,1-0.9,1.6-1.6,1.5c-2.1-0.3-4.2,0.4-5.7,1.9c-3.5,3.5-0.5,8-6,12.7
			c5.5,2.4,12.2,1.8,16.5-2.4C16168.9-1988.2,16169.5-1990.3,16169.2-1992.4z M16160.6-1992.4c-1.8,1.3-3.2,2.8-3.6,0.5
			c-0.1-1.3,0.4-2.6,1.4-3.5c2.3-2.3,4.1-1,4.6-0.1C16163.3-1994.6,16162.8-1994,16160.6-1992.4L16160.6-1992.4z"/>
	</g>
	<g id="Rectangle_377" transform="translate(1422 2047)">
		<rect x="16151" y="-2020" class="st1" width="60" height="60"/>
	</g>
</g>
</svg>
