<?xml version="1.0" encoding="utf-8"?>
<!-- Generator: Adobe Illustrator 21.0.2, SVG Export Plug-In . SVG Version: 6.00 Build 0)  -->
<svg version="1.1" id="Layer_1" xmlns="http://www.w3.org/2000/svg" xmlns:xlink="http://www.w3.org/1999/xlink" x="0px" y="0px"
	 viewBox="0 0 60 60" style="enable-background:new 0 0 60 60;" xml:space="preserve">
<style type="text/css">
	.st0{fill:#FFFFFF;}
</style>
<g id="Group_846" transform="translate(-17573 -27)">
	<path id="Path_690" class="st0" d="M17618.5,45.4c-0.1-0.3-0.2-0.6-0.4-0.8c-0.3-0.6-0.6-1.1-1.1-1.6c-0.2-0.3-0.4-0.5-0.7-0.7
		c-3.7-3.8-9.8-3.8-13.6-0.1c0,0-0.1,0.1-0.1,0.1l-15.9,15.9c-3.8,3.8-3.8,9.9,0,13.7c3.7,3.8,9.8,3.8,13.5,0.1c0,0,0.1-0.1,0.1-0.1
		l15.9-15.9c0.3-0.3,0.6-0.7,0.9-1.1l0.6-1c0.2-0.4,0.4-0.8,0.6-1.2C17619.5,50.4,17619.5,47.7,17618.5,45.4z M17598.1,69.2
		c-2.4,2.4-6.3,2.4-8.7,0c-2.4-2.4-2.4-6.3,0-8.7l7.9-7.9l8.7,8.7L17598.1,69.2z M17614,45.2c-0.3,0.3-0.8,0.3-1.1,0c0,0,0,0,0,0
		c-1.8-1.8-4.6-1.8-6.4,0c0,0,0,0,0,0l-4,4c-0.1,0.1-0.3,0.2-0.5,0.2c-0.2,0-0.4-0.1-0.5-0.2c-0.3-0.3-0.3-0.8,0-1.1c0,0,0,0,0,0
		l4-4c2.4-2.4,6.3-2.4,8.7,0C17614.3,44.4,17614.2,44.9,17614,45.2z"/>
</g>
</svg>
