<?xml version="1.0" encoding="utf-8"?>
<!-- Generator: Adobe Illustrator 21.0.2, SVG Export Plug-In . SVG Version: 6.00 Build 0)  -->
<svg version="1.1" id="Layer_1" xmlns="http://www.w3.org/2000/svg" xmlns:xlink="http://www.w3.org/1999/xlink" x="0px" y="0px"
	 viewBox="0 0 60 60" style="enable-background:new 0 0 60 60;" xml:space="preserve">
<style type="text/css">
	.st0{fill:#FFFFFF;}
</style>
<g id="Group_847" transform="translate(-17573 -27)">
	<path id="Path_691" class="st0" d="M17616.9,46.7c-1.8-5.5-8.1-4.4-11.7-3.2c-0.8,0.2-1.6,0.3-2.4,0.4c-0.8-0.1-1.6-0.2-2.4-0.4
		c-3.7-1.2-10-2.3-11.7,3.2c-1.3,4.1-0.3,8.6,1.7,12.2l0,0c0,0,3.3,6.8,3.7,10.7c0.5,3.9,1.1,5.5,3.7,5.5c2.5,0,2.6-6.8,3.4-9.5
		c0.9-2.6,1.7-2.4,1.7-2.4s0.9-0.3,1.7,2.4c0.9,2.7,0.9,9.5,3.4,9.5c2.5,0,3.2-1.7,3.7-5.5c0.5-3.9,3.8-10.8,3.8-10.8l0,0
		C17617.2,55.1,17618.2,50.7,17616.9,46.7z"/>
</g>
</svg>
