<?xml version="1.0" encoding="utf-8"?>
<!-- Generator: Adobe Illustrator 21.0.2, SVG Export Plug-In . SVG Version: 6.00 Build 0)  -->
<svg version="1.1" id="Layer_1" xmlns="http://www.w3.org/2000/svg" xmlns:xlink="http://www.w3.org/1999/xlink" x="0px" y="0px"
	 viewBox="0 0 60 60" style="enable-background:new 0 0 60 60;" xml:space="preserve">
<style type="text/css">
	.st0{fill:#FFFFFF;}
	.st1{fill:none;}
</style>
<g id="Group_849" transform="translate(-17573 -27)">
	<g id="Group_590" transform="translate(948 1668.704)">
		<path id="Path_639" class="st0" d="M16645.2-1589.7l0.5-9l-2.3-3.9l-1.2,8.4C16641.4-1589.3,16645.2-1589.7,16645.2-1589.7z"/>
		<path id="Path_640" class="st0" d="M16662.5-1625.1c2-1.7,2.3-4.7,0.6-6.7c-1.7-2-4.7-2.3-6.7-0.6c-2,1.7-2.3,4.7-0.6,6.7
			c0,0,0,0,0,0C16657.5-1623.8,16660.4-1623.5,16662.5-1625.1C16662.5-1625.1,16662.5-1625.1,16662.5-1625.1z"/>
		<path id="Path_641" class="st0" d="M16660.4-1617.5c1.6,1.8,3.5,3.4,5.5,4.7c0.8,0.8,0.8,2.2,0,3c-0.1,0.1-0.1,0.1-0.2,0.2
			c-2,1.8-6.2-1.6-8.2-3.1c-1.2-1-2.2-2.1-3-3.4l-3.1,4.7h-8.4c0.3-2.2,1.3-6.3,5.7-11c3-3.2,7.4-2.5,8.7,0.5
			C16658.3-1620.4,16659.3-1618.9,16660.4-1617.5z"/>
		<path id="Path_642" class="st0" d="M16664.2-1607.8c-2,0-4.2-1.6-5.1-2.1h-24.4v3.1h9.6l4.2,6.2l-0.4,7.6
			c-0.1,1.9,0.4,3.4,2.2,3.6c2.1,0.3,2.8-1.2,3-2.8l1.3-9.3c0.1-0.8-0.1-1.6-0.6-2.3l-1.7-3h25v-3.1h-9.6
			C16667.1-1608.5,16665.7-1607.7,16664.2-1607.8z"/>
	</g>
	<g id="Rectangle_363" transform="translate(940 1662)">
		<rect x="16633" y="-1635" class="st1" width="60" height="60"/>
	</g>
</g>
</svg>
