<?xml version="1.0" encoding="utf-8"?>
<!-- Generator: Adobe Illustrator 21.0.2, SVG Export Plug-In . SVG Version: 6.00 Build 0)  -->
<svg version="1.1" id="Layer_1" xmlns="http://www.w3.org/2000/svg" xmlns:xlink="http://www.w3.org/1999/xlink" x="0px" y="0px"
	 viewBox="0 0 60 60" style="enable-background:new 0 0 60 60;" xml:space="preserve">
<style type="text/css">
	.st0{fill:#FFFFFF;}
</style>
<g id="Group_849" transform="translate(-17573 -27)">
	<path id="Path_693" class="st0" d="M17620.4,48.1h-1.5v-3.5c0-1.1-0.7-2-1.7-2.3c-0.8-0.1-1.7-0.2-2.5-0.2c-2.3,0-4.5,0.4-6.7,1.2
		c-2.1,0.8-4.1,1.9-5.8,3.3c-1.8-1.4-3.7-2.5-5.8-3.3c-2.1-0.8-4.4-1.2-6.7-1.2c-0.8,0-1.7,0.1-2.5,0.3c-1.1,0.2-1.8,1.2-1.8,2.2
		v3.5h-1.3c-0.9,0-1.6,0.7-1.6,1.6v19.3c0,0.9,0.7,1.6,1.6,1.6h8c2.6,0.2,5.2,1.2,7.3,2.7c0.2,0.1,0.4,0.2,0.6,0.2h4.2
		c0.2,0,0.4-0.1,0.6-0.2c2.2-1.5,4.7-2.4,7.3-2.7h8.2c0.9,0,1.6-0.7,1.6-1.6V49.8C17622,48.9,17621.3,48.1,17620.4,48.1z
		 M17616.5,66.2c-2.6,0-5.2,0.3-7.7,1.1c-4,1.1-6.3,3.4-6.7,3.4c-0.4,0-2.6-2.3-6.7-3.4c-2.5-0.8-5.1-1.2-7.7-1.1V44.6
		c0,0,2.9-0.8,7.8,0.9c2.2,0.8,4.2,2,5.9,3.6v18c0,0,0.1,0.7,0.7,0.7c0.6,0,0.7-0.7,0.7-0.7v-18c1.7-1.6,3.7-2.9,5.9-3.6
		c4.9-1.6,7.8-0.9,7.8-0.9V66.2L17616.5,66.2z"/>
</g>
</svg>
