<?xml version="1.0" encoding="utf-8"?>
<!-- Generator: Adobe Illustrator 21.0.2, SVG Export Plug-In . SVG Version: 6.00 Build 0)  -->
<svg version="1.1" id="Layer_1" xmlns="http://www.w3.org/2000/svg" xmlns:xlink="http://www.w3.org/1999/xlink" x="0px" y="0px"
	 viewBox="0 0 60 60" style="enable-background:new 0 0 60 60;" xml:space="preserve">
<style type="text/css">
	.st0{fill:#FFFFFF;}
</style>
<g id="Group_850" transform="translate(-17573 -27)">
	<path id="Path_694" class="st0" d="M17615.2,67.5c0,3.6-2.9,6.6-6.6,6.6c0,0,0,0,0,0c-1,0-1.9-0.2-2.8-0.6
		c-1.1-0.4-2.2-0.6-3.4-0.5c-1.2,0-2.3,0.2-3.4,0.5c-0.9,0.4-1.8,0.6-2.8,0.6c-3.6,0-6.6-2.9-6.6-6.6c0,0,0,0,0,0
		c0-2.4,1.4-4.7,3.6-5.8c1-0.5,2.1-1.5,3.5-4c1-2.2,3.3-3.7,5.7-3.6c2.5-0.1,4.7,1.3,5.7,3.6c1.3,2.5,2.5,3.5,3.5,4
		C17613.8,62.9,17615.2,65.1,17615.2,67.5z M17586.4,50.3c-1.5,1.5-2.9,7.8,2.1,9.4c4.1,1.2,5.8-3.6,3.2-6.8
		C17588.8,49.4,17587.8,48.9,17586.4,50.3z M17600.9,46.2c-1.3-4.8-2.1-6.5-5-6c-1.2,0.3-4.2,3.1-3.5,7.8c0.7,4.6,3.9,4.1,4.5,4.1
		C17597.6,52.1,17602.2,51,17600.9,46.2L17600.9,46.2z M17613.3,52.9c-2.6,3.1-0.8,7.9,3.2,6.8c5-1.5,3.6-7.8,2.1-9.4
		C17617.2,48.9,17616.1,49.4,17613.3,52.9L17613.3,52.9z M17608,52.1c0.6,0,3.8,0.5,4.5-4.1s-2.2-7.5-3.5-7.8c-2.9-0.6-3.7,1.2-5,6
		C17602.7,51,17607.4,52.1,17608,52.1z"/>
</g>
</svg>
