<?xml version="1.0" encoding="utf-8"?>
<!-- Generator: Adobe Illustrator 21.0.2, SVG Export Plug-In . SVG Version: 6.00 Build 0)  -->
<svg version="1.1" id="Layer_1" xmlns="http://www.w3.org/2000/svg" xmlns:xlink="http://www.w3.org/1999/xlink" x="0px" y="0px"
	 viewBox="0 0 60 60" style="enable-background:new 0 0 60 60;" xml:space="preserve">
<style type="text/css">
	.st0{fill:#FFFFFF;}
</style>
<g id="Group_851" transform="translate(-17573 -27)">
	<g id="Group_597" transform="translate(1432.945 1673.574)">
		<path id="Path_624" class="st0" d="M16169.3-1622.8c-3.4,0-6.1,2.7-6.1,6.1c0,3.4,2.7,6.1,6.1,6.1c3.4,0,6.1-2.7,6.1-6.1
			C16175.4-1620,16172.7-1622.8,16169.3-1622.8C16169.3-1622.8,16169.3-1622.8,16169.3-1622.8z"/>
		<path id="Path_625" class="st0" d="M16185.8-1620.8h-1.4c-0.3-1.3-0.9-2.6-1.5-3.7l0.9-0.9c0.3-0.4,0.5-0.9,0.5-1.4
			c0-0.5-0.2-1-0.5-1.4l-3-3.1c-0.7-0.7-1.9-0.7-2.6,0l-0.9,0.9c-1.2-0.7-2.4-1.2-3.7-1.5v-1.4c0-1-0.8-1.9-1.9-1.9h-4.5
			c-1,0-1.9,0.8-1.9,1.9v1.4c-1.3,0.3-2.6,0.9-3.7,1.5l-0.9-0.9c-0.7-0.7-1.9-0.7-2.6,0l-3.1,3.1c-0.3,0.4-0.5,0.9-0.5,1.4
			c0,0.5,0.2,1,0.5,1.4l0.9,0.9c-0.7,1.2-1.2,2.4-1.5,3.7h-1.4c-1,0-1.9,0.8-1.9,1.9v4.4c0,1,0.8,1.9,1.9,1.9h1.4
			c0.3,1.3,0.9,2.6,1.5,3.7l-0.9,0.9c-0.7,0.8-0.7,1.9,0,2.7l3.1,3.1c0.7,0.7,1.9,0.7,2.6,0l0.9-0.9c1.2,0.7,2.4,1.2,3.7,1.5v1.4
			c0,1,0.8,1.9,1.9,1.9h4.4c1,0,1.9-0.8,1.9-1.9v-1.4c1.3-0.3,2.6-0.9,3.7-1.5l0.9,0.9c0.7,0.7,1.9,0.7,2.6,0l3.1-3.1
			c0.3-0.4,0.5-0.9,0.5-1.4c0-0.5-0.2-1-0.5-1.4l-0.9-0.9c0.7-1.2,1.2-2.4,1.5-3.7h1.5c1,0,1.9-0.8,1.9-1.9v-4.4
			C16187.6-1619.9,16186.8-1620.7,16185.8-1620.8L16185.8-1620.8z M16177.5-1616.7c0,4.5-3.6,8.1-8.1,8.1c-4.5,0-8.1-3.6-8.1-8.1
			s3.6-8.1,8.1-8.1C16173.8-1624.8,16177.5-1621.2,16177.5-1616.7z"/>
	</g>
</g>
</svg>
