<?xml version="1.0" encoding="utf-8"?>
<!-- Generator: Adobe Illustrator 21.0.2, SVG Export Plug-In . SVG Version: 6.00 Build 0)  -->
<svg version="1.1" id="Layer_1" xmlns="http://www.w3.org/2000/svg" xmlns:xlink="http://www.w3.org/1999/xlink" x="0px" y="0px"
	 viewBox="0 0 60 60" style="enable-background:new 0 0 60 60;" xml:space="preserve">
<style type="text/css">
	.st0{fill:#FFFFFF;}
	.st1{fill:none;}
</style>
<g id="Group_845" transform="translate(-17573 -27)">
	<g id="Group_592" transform="translate(460 1869.285)">
		<path id="Path_617" class="st0" d="M17139.8-1827.7c-0.7-0.8-2-0.8-2.8-0.1c-0.8,0.7-0.8,2-0.1,2.8c0,0,0,0,0.1,0.1l2.8,2.8
			l-13,12.9l2.5,5.9l-6.1,6.1c-0.1,0.1-0.1,0.3-0.2,0.5l0.3,3.4c0,0.2,0.2,0.4,0.4,0.5c0.1,0,0.2,0.1,0.2,0.1c0.2,0,0.3-0.1,0.4-0.2
			l7.7-7.7l5.9,2.4l12.9-12.9l2.8,2.8c0.4,0.4,0.9,0.6,1.4,0.6c0.5,0,1-0.2,1.4-0.6c0.8-0.8,0.8-2,0-2.8c0,0,0,0,0,0L17139.8-1827.7
			z M17137.1-1802.1l-3.2-1.3l1.3-1.3l-3.2-3.2l1.8-1.8l3.2,3.2l1.9-1.9l-3.2-3.2l1.8-1.8l3.2,3.2l1.9-1.9l-3.2-3.2l1.8-1.8l3.1,3.3
			l1.6-1.6l2.2,2.2L17137.1-1802.1z"/>
		<path id="Path_618" class="st0" d="M17161.1-1821.7l-10.8-10.8c-0.6-0.7-1.7-0.7-2.3,0c0,0,0,0,0,0c-0.7,0.7-0.7,1.7,0,2.4
			c0,0,0,0,0,0l1.2,1.2l-3.9,3.9l2.4,2.4l3.9-3.9l3.7,3.7l-3.9,3.9l2.4,2.4l3.9-3.9l1.1,1.1c0.3,0.3,0.7,0.5,1.2,0.5
			c0.4,0,0.9-0.2,1.2-0.5C17161.8-1819.9,17161.8-1821,17161.1-1821.7C17161.1-1821.7,17161.1-1821.7,17161.1-1821.7z"/>
	</g>
	<g id="Rectangle_370" transform="translate(450 1860)">
		<rect x="17123" y="-1833" class="st1" width="60" height="60"/>
	</g>
</g>
</svg>
