<?xml version="1.0" encoding="utf-8"?>
<!-- Generator: Adobe Illustrator 21.0.2, SVG Export Plug-In . SVG Version: 6.00 Build 0)  -->
<svg version="1.1" id="Layer_1" xmlns="http://www.w3.org/2000/svg" xmlns:xlink="http://www.w3.org/1999/xlink" x="0px" y="0px"
	 viewBox="0 0 60 60" style="enable-background:new 0 0 60 60;" xml:space="preserve">
<style type="text/css">
	.st0{fill:#FFFFFF;}
	.st1{fill:none;}
</style>
<g id="Group_846" transform="translate(-17573 -27)">
	<g id="Group_593" transform="translate(621 1869.475)">
		<path id="Path_645" class="st0" d="M16995.5-1795.6c0-1.6-1.3-2.8-2.8-2.8h-19.1c-1.6,0-2.8,1.3-2.8,2.8v1.2h24.8V-1795.6z"/>
		<path id="Path_646" class="st0" d="M16993.2-1799.9h0.1v-0.1c0-1.3-0.8-2.3-1.7-2.3h-17.1c-0.9,0-1.7,1.1-1.7,2.3v0.1H16993.2z"/>
		<path id="Path_647" class="st0" d="M16993-1812.6c0-12.9-7.4-16.7-7.4-16.7c-2.7-3.6-4.9-3.6-4.9-3.6c-0.4,1.2-0.6,2.5-0.5,3.8
			c-2.5,1-4.9,2.3-4.9,2.3c-0.7,0.3-1.3,1-1.4,1.7c0,2.2-5.9,4.7-5.9,4.7c0.4,1.7,1.1,3.2,2,4.7l2.8-1.2c0.9-0.4,1.9-0.7,2.9-0.9
			c1.9,0.6,4,0.1,5.5-1.3l-5.5,9.7c-1.1,1.7-1.5,3.8-1.2,5.8h16.8C16992.9-1806.7,16993-1812.6,16993-1812.6z"/>
	</g>
	<g id="Rectangle_371" transform="translate(605 1860)">
		<rect x="16968" y="-1833" class="st1" width="60" height="60"/>
	</g>
</g>
</svg>
